<svg width="170" height="42" viewBox="0 0 170 42" fill="none" xmlns="http://www.w3.org/2000/svg">
<g filter="url(#filter0_dd_695_34256)">
<rect x="3" y="1" width="164" height="36" rx="18" fill="white"/>
<path d="M30.7467 18.0217C30.7489 18.0975 30.75 18.1736 30.75 18.25C30.75 22.5093 27.3141 25.966 23.0627 25.9998C23.046 26.0069 23.0187 26.0195 22.9795 26.0406C22.8688 26.1005 22.7214 26.1967 22.5413 26.3293C22.1832 26.593 21.7587 26.9538 21.3427 27.3264C20.9294 27.6966 20.5376 28.0668 20.2462 28.3444L20.1005 28.4833C20.0189 28.5612 19.9482 28.6287 19.8936 28.6802C19.8518 28.7197 19.8121 28.7567 19.7809 28.7844C19.7683 28.7957 19.7426 28.8184 19.7137 28.8406L19.7128 28.8413C19.7041 28.848 19.6577 28.8839 19.5946 28.9165L19.5935 28.9171C19.5791 28.9249 19.4429 28.9986 19.2567 29.0005C19.1392 29.0017 18.9106 28.9736 18.7175 28.78C18.5264 28.5882 18.4985 28.3626 18.4985 28.25V25.984C14.4521 25.7256 11.25 22.3617 11.25 18.25C11.25 13.9698 14.7198 10.5 19 10.5H23C23.198 10.5 23.3943 10.5074 23.5885 10.522C23.3562 10.9816 23.1865 11.4782 23.0906 12.0006C23.0604 12.0002 23.0302 12 23 12H19C15.5482 12 12.75 14.7982 12.75 18.25C12.75 21.7018 15.5483 24.5 19.0001 24.5H19.9985V26.5206C20.1099 26.4184 20.2249 26.3139 20.3418 26.2092C20.7696 25.8259 21.236 25.4278 21.6518 25.1215C21.8587 24.9692 22.069 24.8277 22.2662 24.7211C22.4323 24.6313 22.7045 24.5 23 24.5C26.385 24.5 29.1414 21.8091 29.2469 18.4497C29.7742 18.3781 30.2779 18.2318 30.7467 18.0217Z" fill="#0E1318"/>
<path d="M27.75 15.75C27.75 16.1642 28.0858 16.5 28.5 16.5C28.9142 16.5 29.25 16.1642 29.25 15.75V13.75H31.25C31.6642 13.75 32 13.4142 32 13C32 12.5858 31.6642 12.25 31.25 12.25H29.25V10.25C29.25 9.83579 28.9142 9.5 28.5 9.5C28.0858 9.5 27.75 9.83579 27.75 10.25V12.25H25.75C25.3358 12.25 25 12.5858 25 13C25 13.4142 25.3358 13.75 25.75 13.75H27.75V15.75Z" fill="#0E1318"/>
<path fill-rule="evenodd" clip-rule="evenodd" d="M53 9C56.3137 9 59 11.6863 59 15C60.1046 15 61 15.8954 61 17V26C61 27.1046 60.1046 28 59 28H47C45.8954 28 45 27.1046 45 26V17C45 15.8954 45.8954 15 47 15C47 11.6863 49.6863 9 53 9ZM48.5 15C48.5 12.5147 50.5147 10.5 53 10.5C55.4853 10.5 57.5 12.5147 57.5 15H48.5ZM47 16.5C46.7239 16.5 46.5 16.7239 46.5 17V26C46.5 26.2761 46.7239 26.5 47 26.5H59C59.2761 26.5 59.5 26.2761 59.5 26V17C59.5 16.7239 59.2761 16.5 59 16.5H47ZM54.7778 19.6428C54.7778 20.3883 54.3574 21.0311 53.7508 21.3268L53.7481 24.3607C53.7477 24.7749 53.4117 25.1104 52.9975 25.11C52.5832 25.1097 52.2477 24.7736 52.2481 24.3594L52.2507 21.3275C51.6433 21.0322 51.2222 20.3889 51.2222 19.6428C51.2222 18.6172 52.0182 17.7857 53 17.7857C53.9818 17.7857 54.7778 18.6172 54.7778 19.6428Z" fill="#0E1318"/>
<path fill-rule="evenodd" clip-rule="evenodd" d="M86 10H78C76.8954 10 76 10.8954 76 12V22C76 23.1046 76.8954 24 78 24H80.5V22.5H78C77.7239 22.5 77.5 22.2761 77.5 22V12C77.5 11.7239 77.7239 11.5 78 11.5H86C86.2761 11.5 86.5 11.7239 86.5 12V12.5H88V12C88 10.8954 87.1046 10 86 10ZM83.5 16C83.5 15.7239 83.7239 15.5 84 15.5H92C92.2761 15.5 92.5 15.7239 92.5 16V26C92.5 26.2761 92.2761 26.5 92 26.5H84C83.7239 26.5 83.5 26.2761 83.5 26V16ZM84 14H92C93.1046 14 94 14.8954 94 16V26C94 27.1046 93.1046 28 92 28H84C82.8954 28 82 27.1046 82 26V16C82 14.8954 82.8954 14 84 14ZM87.25 18.75C87.25 18.3358 87.5858 18 88 18C88.4142 18 88.75 18.3358 88.75 18.75V20.25H90.25C90.6642 20.25 91 20.5858 91 21C91 21.4142 90.6642 21.75 90.25 21.75H88.75V23.25C88.75 23.6642 88.4142 24 88 24C87.5858 24 87.25 23.6642 87.25 23.25V21.75H85.75C85.3358 21.75 85 21.4142 85 21C85 20.5858 85.3358 20.25 85.75 20.25H87.25V18.75Z" fill="#0E1318"/>
<path fill-rule="evenodd" clip-rule="evenodd" d="M116 9H118C119.657 9 121 10.3431 121 12H124H125.25C125.664 12 126 12.3358 126 12.75C126 13.1642 125.664 13.5 125.25 13.5H124V25C124 26.6569 122.657 28 121 28H113C111.343 28 110 26.6569 110 25V13.5H108.75C108.336 13.5 108 13.1642 108 12.75C108 12.3358 108.336 12 108.75 12H110H113C113 10.3431 114.343 9 116 9ZM111.5 13.5H113H121H122.5V25C122.5 25.8284 121.828 26.5 121 26.5H113C112.172 26.5 111.5 25.8284 111.5 25V13.5ZM119.5 12H114.5C114.5 11.1716 115.172 10.5 116 10.5H118C118.828 10.5 119.5 11.1716 119.5 12ZM114.25 16H115.75V24H114.25V16ZM119.75 16H118.25V24H119.75V16Z" fill="#0E1318"/>
<path fill-rule="evenodd" clip-rule="evenodd" d="M142 21C143.105 21 144 20.1046 144 19C144 17.8954 143.105 17 142 17C140.895 17 140 17.8954 140 19C140 20.1046 140.895 21 142 21ZM149 21C150.105 21 151 20.1046 151 19C151 17.8954 150.105 17 149 17C147.895 17 147 17.8954 147 19C147 20.1046 147.895 21 149 21ZM158 19C158 20.1046 157.105 21 156 21C154.895 21 154 20.1046 154 19C154 17.8954 154.895 17 156 17C157.105 17 158 17.8954 158 19Z" fill="#0E1318"/>
</g>
<defs>
<filter id="filter0_dd_695_34256" x="0" y="0" width="170" height="42" filterUnits="userSpaceOnUse" color-interpolation-filters="sRGB">
<feFlood flood-opacity="0" result="BackgroundImageFix"/>
<feColorMatrix in="SourceAlpha" type="matrix" values="0 0 0 0 0 0 0 0 0 0 0 0 0 0 0 0 0 0 127 0" result="hardAlpha"/>
<feMorphology radius="1" operator="erode" in="SourceAlpha" result="effect1_dropShadow_695_34256"/>
<feOffset dy="2"/>
<feGaussianBlur stdDeviation="2"/>
<feColorMatrix type="matrix" values="0 0 0 0 0.25098 0 0 0 0 0.341176 0 0 0 0 0.427451 0 0 0 0.3 0"/>
<feBlend mode="normal" in2="BackgroundImageFix" result="effect1_dropShadow_695_34256"/>
<feColorMatrix in="SourceAlpha" type="matrix" values="0 0 0 0 0 0 0 0 0 0 0 0 0 0 0 0 0 0 127 0" result="hardAlpha"/>
<feMorphology radius="1" operator="dilate" in="SourceAlpha" result="effect2_dropShadow_695_34256"/>
<feOffset/>
<feColorMatrix type="matrix" values="0 0 0 0 0.25098 0 0 0 0 0.341176 0 0 0 0 0.427451 0 0 0 0.04 0"/>
<feBlend mode="normal" in2="effect1_dropShadow_695_34256" result="effect2_dropShadow_695_34256"/>
<feBlend mode="normal" in="SourceGraphic" in2="effect2_dropShadow_695_34256" result="shape"/>
</filter>
</defs>
</svg>
