<svg width="24" height="24" viewBox="0 0 24 24" fill="none" xmlns="http://www.w3.org/2000/svg">
<path d="M11.4442 5.48893C9.41122 5.08193 8.53422 4.10193 8.12722 2.11893C8.11369 2.06516 8.08268 2.01742 8.03905 1.98321C7.99542 1.94899 7.94166 1.93025 7.88622 1.92993C7.83037 1.93042 7.7763 1.94959 7.73262 1.98439C7.68894 2.01919 7.65817 2.06761 7.64522 2.12193C7.23822 4.15493 6.31022 5.08193 4.32822 5.48893C4.26085 5.48893 4.19625 5.51569 4.14861 5.56333C4.10098 5.61096 4.07422 5.67557 4.07422 5.74293C4.07422 5.8103 4.10098 5.8749 4.14861 5.92254C4.19625 5.97017 4.26085 5.99693 4.32822 5.99693C6.36122 6.40393 7.23422 7.36293 7.64122 9.34593C7.65067 9.40424 7.68046 9.45731 7.7253 9.49575C7.77015 9.53419 7.82715 9.55551 7.88622 9.55593C7.94309 9.55563 7.99816 9.53595 8.04234 9.50013C8.08652 9.46432 8.11716 9.41451 8.12922 9.35893C8.53522 7.32493 9.46222 6.40393 11.4442 5.99693C11.5116 5.99693 11.5762 5.97017 11.6238 5.92254C11.6715 5.8749 11.6982 5.8103 11.6982 5.74293C11.6982 5.67557 11.6715 5.61096 11.6238 5.56333C11.5762 5.51569 11.5116 5.48893 11.4442 5.48893Z" fill="#0D1216"/>
<path fill-rule="evenodd" clip-rule="evenodd" d="M21.2226 5.23998C20.6493 4.66675 19.8718 4.34473 19.0611 4.34473C18.2504 4.34473 17.4729 4.66675 16.8996 5.23998L6.86957 15.267C6.28477 15.8523 5.84178 16.5639 5.57457 17.347L4.45457 20.629C4.38911 20.8211 4.37875 21.0277 4.42465 21.2254C4.47055 21.4231 4.57089 21.604 4.7143 21.7476C4.85771 21.8912 5.03847 21.9918 5.23611 22.038C5.43374 22.0842 5.64036 22.0742 5.83257 22.009L9.09957 20.896C9.88519 20.6284 10.5989 20.184 11.1856 19.597L21.2226 9.56198C21.7958 8.98869 22.1178 8.21118 22.1178 7.40048C22.1178 6.58977 21.7958 5.81326 21.2226 5.23998ZM19.0886 9.57398L20.1616 8.50098C20.3131 8.35804 20.4343 8.18617 20.5182 7.99553C20.6021 7.80489 20.6469 7.59936 20.6499 7.3911C20.6529 7.18285 20.6142 6.9761 20.5358 6.7831C20.4575 6.59011 20.3413 6.41478 20.194 6.26751C20.0468 6.12023 19.8714 6.004 19.6784 5.9257C19.4854 5.8474 19.2787 5.80861 19.0704 5.81164C18.8622 5.81466 18.6567 5.85944 18.466 5.94332C18.2754 6.02721 18.1035 6.14848 17.9606 6.29998L16.8876 7.37298L19.0886 9.57398ZM18.0286 10.634L15.8266 8.43398L9.19357 15.066C10.1021 15.602 10.8592 16.3605 11.3936 17.27L18.0286 10.635V10.634ZM10.2856 18.378C9.8236 17.4153 9.04821 16.6381 8.08657 16.174L7.93057 16.329C7.50735 16.7525 7.18681 17.2673 6.99357 17.834L6.46357 19.384C6.74357 19.497 6.96457 19.721 7.07357 20.002L8.61657 19.477C9.18489 19.2833 9.70116 18.9617 10.1256 18.537L10.2856 18.378Z" fill="#0D1216"/>
<path d="M3.96986 8.1411C4.13986 8.9991 4.63986 9.4121 5.49686 9.6691C5.54646 9.6691 5.59402 9.6888 5.62909 9.72387C5.66416 9.75894 5.68386 9.80651 5.68386 9.8561C5.68386 9.9057 5.66416 9.95326 5.62909 9.98833C5.59402 10.0234 5.54646 10.0431 5.49686 10.0431C4.63986 10.2141 4.22686 10.7131 3.96886 11.5711C3.96541 11.6182 3.94426 11.6623 3.90967 11.6944C3.87507 11.7266 3.82959 11.7444 3.78236 11.7444C3.73513 11.7444 3.68965 11.7266 3.65505 11.6944C3.62046 11.6623 3.59931 11.6182 3.59586 11.5711C3.42386 10.7131 2.92486 10.3011 2.06786 10.0431C2.01826 10.0431 1.9707 10.0234 1.93563 9.98833C1.90056 9.95326 1.88086 9.9057 1.88086 9.8561C1.88086 9.80651 1.90056 9.75894 1.93563 9.72387C1.9707 9.6888 2.01826 9.6691 2.06786 9.6691C2.92486 9.4981 3.33786 8.9991 3.59486 8.1411C3.59486 8.09151 3.61456 8.04394 3.64963 8.00887C3.6847 7.9738 3.73226 7.9541 3.78186 7.9541C3.83145 7.9541 3.87902 7.9738 3.91409 8.00887C3.94916 8.04394 3.96986 8.09151 3.96986 8.1411Z" fill="#0D1216"/>
</svg>
