<svg width="96" height="40" viewBox="0 0 96 40" fill="none" xmlns="http://www.w3.org/2000/svg">
<path d="M0 8C0 3.58172 3.58172 0 8 0H88C92.4183 0 96 3.58172 96 8V32C96 36.4183 92.4183 40 88 40H8C3.58172 40 0 36.4183 0 32V8Z" fill="white" fill-opacity="0.9"/>
<path d="M12.5 19.745V26.995C12.5 27.275 12.72 27.495 13 27.495H27C27.1326 27.495 27.2598 27.4423 27.3536 27.3486C27.4473 27.2548 27.5 27.1276 27.5 26.995V19.745C27.5 19.5461 27.579 19.3553 27.7197 19.2147C27.8603 19.074 28.0511 18.995 28.25 18.995C28.4489 18.995 28.6397 19.074 28.7803 19.2147C28.921 19.3553 29 19.5461 29 19.745V26.995C29 27.5254 28.7893 28.0341 28.4142 28.4092C28.0391 28.7843 27.5304 28.995 27 28.995H13C12.4696 28.995 11.9609 28.7843 11.5858 28.4092C11.2107 28.0341 11 27.5254 11 26.995V19.745C11 19.5461 11.079 19.3553 11.2197 19.2147C11.3603 19.074 11.5511 18.995 11.75 18.995C11.9489 18.995 12.1397 19.074 12.2803 19.2147C12.421 19.3553 12.5 19.5461 12.5 19.745ZM20.82 12.545V22.245C20.82 22.4439 20.741 22.6347 20.6003 22.7753C20.4597 22.916 20.2689 22.995 20.07 22.995C19.8711 22.995 19.6803 22.916 19.5397 22.7753C19.399 22.6347 19.32 22.4439 19.32 22.245V12.545L16.28 15.775C16.1378 15.9075 15.9498 15.9796 15.7555 15.9762C15.5612 15.9727 15.3758 15.894 15.2384 15.7566C15.101 15.6192 15.0223 15.4338 15.0188 15.2395C15.0154 15.0452 15.0875 14.8572 15.22 14.715L19.54 10.225C19.84 9.925 20.31 9.925 20.6 10.225L24.78 14.725C24.8612 14.7916 24.9275 14.8745 24.9746 14.9683C25.0218 15.0622 25.0487 15.1649 25.0536 15.2698C25.0585 15.3747 25.0413 15.4794 25.0032 15.5773C24.9651 15.6751 24.9068 15.7639 24.8322 15.8378C24.7576 15.9117 24.6683 15.9691 24.5701 16.0063C24.4719 16.0435 24.367 16.0596 24.2621 16.0537C24.1573 16.0478 24.0549 16.0199 23.9615 15.9719C23.8681 15.9239 23.7858 15.8568 23.72 15.775L20.82 12.565V12.545Z" fill="#0E1318"/>
<path d="M44.8926 25.1436C44.2318 25.1436 43.6416 25.0592 43.1221 24.8906C42.6025 24.7174 42.1696 24.4919 41.8232 24.2139C41.4769 23.9359 41.2148 23.6305 41.0371 23.2979L41.8984 22.2451H42.0693C42.3747 22.7236 42.762 23.0951 43.2314 23.3594C43.7008 23.6237 44.2546 23.7559 44.8926 23.7559C45.5306 23.7559 46.0091 23.6214 46.3281 23.3525C46.6471 23.0837 46.8066 22.7122 46.8066 22.2383C46.8066 21.9557 46.7542 21.7188 46.6494 21.5273C46.5446 21.3314 46.3714 21.165 46.1299 21.0283C45.8929 20.887 45.5693 20.7663 45.1592 20.666L43.9355 20.3789C43.0514 20.1693 42.3952 19.832 41.9668 19.3672C41.543 18.8978 41.3311 18.2985 41.3311 17.5693C41.3311 17.0361 41.4655 16.5667 41.7344 16.1611C42.0033 15.751 42.3952 15.432 42.9102 15.2041C43.4297 14.9762 44.0472 14.8623 44.7627 14.8623C45.5238 14.8623 46.1709 14.9648 46.7041 15.1699C47.2373 15.375 47.6748 15.6895 48.0166 16.1133L47.2441 17.1729H47.0732C46.7861 16.8493 46.4535 16.61 46.0752 16.4551C45.6969 16.2956 45.2594 16.2158 44.7627 16.2158C44.1429 16.2158 43.6735 16.332 43.3545 16.5645C43.04 16.7923 42.8828 17.109 42.8828 17.5146C42.8828 17.8975 42.9967 18.2028 43.2246 18.4307C43.4525 18.654 43.8421 18.8294 44.3936 18.957L45.6514 19.2373C46.6221 19.4561 47.3239 19.807 47.7568 20.29C48.1943 20.7686 48.4131 21.3883 48.4131 22.1494C48.4131 22.7419 48.2809 23.2637 48.0166 23.7148C47.7568 24.166 47.3626 24.5169 46.834 24.7676C46.3099 25.0182 45.6628 25.1436 44.8926 25.1436ZM50.2793 25V14.4316H51.7832V18.4854L51.9268 18.5127C52.4554 17.7152 53.2165 17.3164 54.21 17.3164C55.0895 17.3164 55.7321 17.5534 56.1377 18.0273C56.5479 18.5013 56.7529 19.2077 56.7529 20.1465V25H55.249V20.2764C55.249 19.6794 55.1305 19.251 54.8936 18.9912C54.6611 18.7314 54.2897 18.6016 53.7793 18.6016C53.1732 18.6016 52.6878 18.7998 52.3232 19.1963C51.9632 19.5928 51.7832 20.2308 51.7832 21.1104V25H50.2793ZM60.8682 25.1436C60.1299 25.1436 59.5511 24.9476 59.1318 24.5557C58.7126 24.1592 58.5029 23.5986 58.5029 22.874C58.5029 22.4274 58.5964 22.0514 58.7832 21.7461C58.9701 21.4408 59.2617 21.1924 59.6582 21.001C60.0547 20.805 60.5697 20.6546 61.2031 20.5498C61.6999 20.4678 62.0781 20.3766 62.3379 20.2764C62.5977 20.1761 62.7731 20.0645 62.8643 19.9414C62.9554 19.8138 63.001 19.6543 63.001 19.4629C63.001 19.1712 62.8984 18.9479 62.6934 18.793C62.4928 18.638 62.1647 18.5605 61.709 18.5605C60.8477 18.5605 60.1162 18.9183 59.5146 19.6338H59.3779L58.708 18.6494C59.0589 18.2347 59.4941 17.9089 60.0137 17.6719C60.5378 17.4349 61.1188 17.3164 61.7568 17.3164C62.7002 17.3164 63.3883 17.5192 63.8213 17.9248C64.2588 18.3304 64.4775 18.9001 64.4775 19.6338V23.2705C64.4775 23.6488 64.6393 23.8379 64.9629 23.8379C65.0814 23.8379 65.1953 23.8174 65.3047 23.7764L65.4004 23.8037L65.5303 24.8496C65.4391 24.9134 65.3115 24.9635 65.1475 25C64.988 25.0365 64.8171 25.0547 64.6348 25.0547C64.2018 25.0547 63.8691 24.9658 63.6367 24.7881C63.4089 24.6104 63.2516 24.3392 63.165 23.9746L63.0215 23.9609C62.821 24.3574 62.543 24.6536 62.1875 24.8496C61.8366 25.0456 61.3968 25.1436 60.8682 25.1436ZM61.292 23.9883C61.6429 23.9883 61.9505 23.9085 62.2148 23.749C62.4792 23.585 62.682 23.3525 62.8232 23.0518C62.9645 22.751 63.0352 22.3978 63.0352 21.9922V21.1309L62.9053 21.1035C62.764 21.2083 62.5863 21.2972 62.3721 21.3701C62.1624 21.4385 61.8617 21.5046 61.4697 21.5684C60.9411 21.6458 60.5651 21.7848 60.3418 21.9854C60.123 22.1813 60.0137 22.4593 60.0137 22.8193C60.0137 23.2021 60.1253 23.4938 60.3486 23.6943C60.5719 23.8903 60.8864 23.9883 61.292 23.9883ZM66.918 25V17.46H68.3672V18.6084L68.5107 18.6426C68.693 18.2096 68.9414 17.8929 69.2559 17.6924C69.5703 17.4919 69.9508 17.3916 70.3975 17.3916C70.876 17.3916 71.2314 17.4736 71.4639 17.6377L71.1631 18.9297L71.0195 18.957C70.8919 18.8978 70.762 18.8545 70.6299 18.8271C70.4977 18.7952 70.3451 18.7793 70.1719 18.7793C69.6068 18.7793 69.1738 18.9844 68.873 19.3945C68.5723 19.8047 68.4219 20.4678 68.4219 21.3838V25H66.918ZM78.71 21.5684H73.6924C73.779 23.0814 74.4808 23.8379 75.7979 23.8379C76.2855 23.8379 76.6774 23.7513 76.9736 23.5781C77.2744 23.4004 77.5114 23.127 77.6846 22.7578H77.8281L78.8193 23.373C78.5869 23.9108 78.2246 24.3415 77.7324 24.665C77.2448 24.984 76.5999 25.1436 75.7979 25.1436C75.0459 25.1436 74.3965 24.9977 73.8496 24.7061C73.3027 24.4144 72.8812 23.9769 72.585 23.3936C72.2887 22.8102 72.1406 22.0902 72.1406 21.2334C72.1406 20.3766 72.2956 19.6543 72.6055 19.0664C72.9154 18.4785 73.3392 18.041 73.877 17.7539C74.4147 17.4622 75.0208 17.3164 75.6953 17.3164C76.7116 17.3164 77.4954 17.5944 78.0469 18.1504C78.6029 18.7064 78.8831 19.5244 78.8877 20.6045C78.8877 21.0101 78.8763 21.304 78.8535 21.4863L78.71 21.5684ZM77.4316 20.4951C77.4134 19.807 77.2562 19.3057 76.96 18.9912C76.6683 18.6768 76.2467 18.5195 75.6953 18.5195C75.1393 18.5195 74.6927 18.6768 74.3555 18.9912C74.0228 19.3057 73.8132 19.807 73.7266 20.4951H77.4316Z" fill="#0E1318"/>
</svg>
