<svg width="165" height="16" viewBox="0 0 165 16" fill="none" xmlns="http://www.w3.org/2000/svg">
<g clip-path="url(#clip0_1429_39122)">
<path d="M161 0H4C1.79086 0 0 1.79086 0 4V12C0 14.2091 1.79086 16 4 16H161C163.209 16 165 14.2091 165 12V4C165 1.79086 163.209 0 161 0Z" fill="#F4F2EC"/>
<path d="M62 9.02437C62 6.80153 60.2094 5 58 5C55.7906 5 54 6.80153 54 9.02437C54 11.0334 55.4625 12.6982 57.375 13V10.1877H56.3594V9.02437H57.375V8.13775C57.375 7.1293 57.9719 6.57202 58.8859 6.57202C59.3234 6.57202 59.7812 6.65062 59.7812 6.65062V7.64099H59.2766C58.7797 7.64099 58.625 7.95146 58.625 8.2698V9.02437H59.7344L59.557 10.1877H58.625V13C60.5375 12.6982 62 11.0334 62 9.02437Z" fill="black"/>
<path d="M78.0651 5.45612C78.5003 5.16837 78.8346 4.71282 78.992 4.16996C78.5847 4.4364 78.1335 4.62988 77.6533 4.73406C77.2687 4.28231 76.7208 4 76.1144 4C74.9502 4 74.0062 5.04079 74.0062 6.32462C74.0062 6.50676 74.0248 6.6842 74.0608 6.85439C72.3086 6.7574 70.7552 5.83196 69.7154 4.42553C69.5339 4.76885 69.4299 5.16814 69.4299 5.59418C69.4299 6.4007 69.8021 7.11222 70.3678 7.52908C70.0222 7.51701 69.6972 7.41243 69.4129 7.23833C69.4127 7.24802 69.4127 7.25776 69.4127 7.26756C69.4127 8.3939 70.1394 9.33339 71.1039 9.54703C70.927 9.60011 70.7407 9.62855 70.5485 9.62855C70.4126 9.62855 70.2805 9.61393 70.1518 9.58685C70.4201 10.5103 71.1986 11.1825 72.1212 11.2012C71.3997 11.8247 70.4907 12.1963 69.5029 12.1963C69.3327 12.1963 69.1649 12.1853 69 12.1638C69.933 12.8234 71.0412 13.2083 72.2317 13.2083C76.1095 13.2083 78.2301 9.66606 78.2301 6.59412C78.2301 6.49339 78.228 6.39311 78.2239 6.2934C78.6359 5.96566 78.9933 5.55622 79.2759 5.09008C78.8979 5.27494 78.4915 5.39991 78.0651 5.45612Z" fill="black"/>
<path fill-rule="evenodd" clip-rule="evenodd" d="M89.4163 3C86.425 3 84 5.42498 84 8.41631C84 10.7109 85.4276 12.6725 87.4425 13.4617C87.3951 13.0332 87.3524 12.3741 87.4613 11.9063C87.5597 11.4836 88.0964 9.21403 88.0964 9.21403C88.0964 9.21403 87.9344 8.88956 87.9344 8.40987C87.9344 7.65674 88.3709 7.09447 88.9144 7.09447C89.3765 7.09447 89.5997 7.44144 89.5997 7.85746C89.5997 8.32214 89.3038 9.01694 89.1512 9.66081C89.0236 10.1999 89.4215 10.6396 89.9532 10.6396C90.9159 10.6396 91.6559 9.62454 91.6559 8.15929C91.6559 6.86248 90.724 5.95572 89.3934 5.95572C87.8524 5.95572 86.9477 7.11165 86.9477 8.30629C86.9477 8.77177 87.1271 9.27099 87.3508 9.54231C87.3951 9.59595 87.4016 9.64296 87.3884 9.69766C87.3473 9.86878 87.2559 10.2367 87.238 10.3119C87.2143 10.4111 87.1595 10.4321 87.0568 10.3844C86.3804 10.0695 85.9574 9.08047 85.9574 8.28605C85.9574 6.57749 87.1988 5.00843 89.5362 5.00843C91.4151 5.00843 92.8753 6.34728 92.8753 8.1366C92.8753 10.0033 91.6983 11.5056 90.0647 11.5056C89.5159 11.5056 88.9999 11.2205 88.8232 10.8836C88.8232 10.8836 88.5516 11.9178 88.4858 12.1712C88.3635 12.6417 88.0334 13.2314 87.8126 13.5911C88.3194 13.748 88.858 13.8327 89.4163 13.8327C92.4077 13.8327 94.8327 11.4077 94.8327 8.41631C94.8327 5.42498 92.4077 3 89.4163 3" fill="black"/>
<path fill-rule="evenodd" clip-rule="evenodd" d="M105.875 4C104.551 4 104.385 4.00609 103.865 4.02925C103.346 4.05363 102.993 4.13528 102.682 4.25594C102.361 4.38025 102.089 4.54722 101.818 4.81839C101.547 5.08895 101.38 5.36073 101.256 5.68188C101.135 5.99266 101.053 6.34609 101.029 6.86528C101.005 7.38508 101 7.55083 101 8.875C101 10.1992 101.006 10.3649 101.029 10.8847C101.054 11.4039 101.135 11.758 101.256 12.0681C101.38 12.3887 101.547 12.661 101.818 12.9316C102.089 13.2028 102.361 13.3704 102.682 13.4941C102.993 13.6147 103.346 13.697 103.865 13.7207C104.385 13.7451 104.551 13.75 105.875 13.75C107.199 13.75 107.365 13.7439 107.885 13.7207C108.404 13.6964 108.758 13.6147 109.068 13.4941C109.389 13.3698 109.661 13.2028 109.932 12.9316C110.203 12.661 110.37 12.3893 110.494 12.0681C110.615 11.7573 110.697 11.4039 110.721 10.8847C110.745 10.3649 110.75 10.1992 110.75 8.875C110.75 7.55083 110.744 7.38508 110.721 6.86528C110.696 6.34609 110.615 5.99205 110.494 5.68188C110.37 5.36134 110.203 5.08895 109.932 4.81839C109.661 4.54722 109.389 4.37964 109.068 4.25594C108.757 4.13528 108.404 4.05302 107.885 4.02925C107.365 4.00487 107.199 4 105.875 4ZM105.875 4.8775C107.177 4.8775 107.331 4.88359 107.845 4.90675C108.32 4.92869 108.578 5.00791 108.75 5.07494C108.978 5.1633 109.14 5.26872 109.311 5.43934C109.481 5.60997 109.587 5.77206 109.675 5.99997C109.742 6.17181 109.821 6.42958 109.843 6.90489C109.866 7.4192 109.872 7.57338 109.872 8.875C109.872 10.1766 109.866 10.3314 109.841 10.8451C109.817 11.3204 109.738 11.5782 109.671 11.75C109.579 11.9779 109.476 12.14 109.305 12.3107C109.135 12.4813 108.97 12.5867 108.745 12.6751C108.574 12.7421 108.312 12.8213 107.837 12.8433C107.319 12.8664 107.166 12.8719 105.862 12.8719C104.558 12.8719 104.406 12.8658 103.888 12.8414C103.413 12.817 103.15 12.7378 102.98 12.6708C102.748 12.5794 102.59 12.4758 102.419 12.3052C102.249 12.1345 102.139 11.97 102.054 11.7445C101.987 11.5739 101.907 11.3119 101.883 10.8366C101.865 10.3247 101.859 10.1663 101.859 8.8683C101.859 7.57033 101.865 7.41189 101.883 6.89392C101.907 6.41861 101.987 6.15658 102.054 5.98595C102.139 5.75439 102.249 5.59595 102.419 5.42533C102.59 5.2547 102.748 5.14502 102.98 5.0597C103.15 4.99267 103.406 4.91345 103.882 4.88908C104.4 4.8708 104.552 4.8647 105.856 4.8647L105.875 4.8775ZM105.875 6.37169C104.492 6.37169 103.372 7.49294 103.372 8.875C103.372 10.2583 104.493 11.3783 105.875 11.3783C107.258 11.3783 108.378 10.2571 108.378 8.875C108.378 7.49172 107.257 6.37169 105.875 6.37169V6.37169ZM105.875 10.5002C104.977 10.5002 104.25 9.77261 104.25 8.875C104.25 7.97739 104.977 7.2498 105.875 7.2498C106.773 7.2498 107.5 7.97739 107.5 8.875C107.5 9.77261 106.773 10.5002 105.875 10.5002ZM109.062 6.27297C109.062 6.59594 108.8 6.85797 108.477 6.85797C108.154 6.85797 107.892 6.59594 107.892 6.27297C107.892 5.95 108.154 5.68797 108.477 5.68797C108.8 5.68797 109.062 5.95 109.062 6.27297Z" fill="black"/>
</g>
<defs>
<clipPath id="clip0_1429_39122">
<rect width="165" height="16" fill="white"/>
</clipPath>
</defs>
</svg>
