<svg width="24" height="24" viewBox="0 0 24 24" fill="none" xmlns="http://www.w3.org/2000/svg">
<path d="M13.0285 3.61702L9.33867 6.71316L5.21746 8.21316L12.0643 2.46796C12.9105 1.75795 14.172 1.86832 14.882 2.71447L16.3065 4.41218C15.9296 4.39781 15.5436 4.45477 15.1672 4.59176L14.6554 4.77803L13.7329 3.67865C13.5554 3.46712 13.24 3.43952 13.0285 3.61702Z" fill="#0E1318"/>
<path d="M11.7521 8.49518H7.36643L15.5092 5.53145C15.6389 5.48423 15.7704 5.45127 15.9019 5.43177C16.8221 5.2953 17.7421 5.81857 18.0727 6.72679L18.7163 8.49518H17.12L16.6631 7.23982C16.5687 6.98033 16.2817 6.84654 16.0223 6.94098L11.7521 8.49518Z" fill="#0E1318"/>
<path d="M11.0033 15.8088C10.9704 16.7136 10.2357 17.3524 9.22126 17.3524C8.03688 17.3524 7.30761 16.5573 7.30761 15.266C7.30761 13.9747 8.03414 13.1824 9.22126 13.1824C10.2165 13.1824 10.9704 13.8458 11.0006 14.7424H10.0328C9.98069 14.3119 9.65444 14.0213 9.22126 14.0213C8.6702 14.0213 8.33298 14.4929 8.33298 15.2633C8.33298 16.0364 8.6702 16.5134 9.224 16.5134C9.65718 16.5134 9.98069 16.2338 10.0383 15.8088H11.0033Z" fill="#0E1318"/>
<path fill-rule="evenodd" clip-rule="evenodd" d="M13.4954 13.1824C14.6853 13.1824 15.4419 13.9802 15.4419 15.266C15.4419 16.5546 14.6853 17.3524 13.4954 17.3524C12.3001 17.3524 11.5434 16.5546 11.5434 15.266C11.5434 13.9802 12.3083 13.1824 13.4954 13.1824ZM13.4954 14.0158C12.9389 14.0158 12.5688 14.5038 12.5688 15.266C12.5688 16.0309 12.9334 16.5189 13.4954 16.5189C14.052 16.5189 14.4194 16.0309 14.4194 15.266C14.4194 14.5038 14.0492 14.0158 13.4954 14.0158Z" fill="#0E1318"/>
<path d="M16.2878 17.2454C16.6755 17.2454 16.9897 16.9312 16.9897 16.5436C16.9897 16.156 16.6755 15.8417 16.2878 15.8417C15.9002 15.8417 15.586 16.156 15.586 16.5436C15.586 16.9312 15.9002 17.2454 16.2878 17.2454Z" fill="#0E1318"/>
<path fill-rule="evenodd" clip-rule="evenodd" d="M5 9.49517L19 9.49518C19.5097 9.49518 19.9749 9.68583 20.3281 9.99972C20.3858 10.051 20.4405 10.1056 20.4919 10.1632C20.8079 10.5168 21 10.9836 21 11.4952V19.4952C21 20.5997 20.1046 21.4952 19 21.4952L5.00001 21.4952C4.94884 21.4952 4.89812 21.4933 4.84792 21.4895C3.81439 21.4118 3 20.5486 3 19.4952V11.4952C3 10.3906 3.89543 9.49517 5 9.49517ZM4.55763 11.4824C4.55763 11.2062 4.78149 10.9824 5.05763 10.9824H19.0076C19.2838 10.9824 19.5076 11.2062 19.5076 11.4824V19.4824C19.5076 19.7585 19.2838 19.9824 19.0076 19.9824H5.05763C4.78149 19.9824 4.55763 19.7585 4.55763 19.4824V11.4824Z" fill="#0E1318"/>
</svg>
