<svg width="24" height="24" viewBox="0 0 24 24" fill="none" xmlns="http://www.w3.org/2000/svg">
<path d="M20 4C21.1046 4 22 5.02377 22 6.28613V17.7139C22 18.9762 21.1046 20 20 20H4C2.89543 20 2 18.9762 2 17.7139V6.28613C2 5.02377 2.89543 4 4 4H20ZM3.5 17.7139C3.5 18.189 3.77172 18.5 4 18.5H20C20.2283 18.5 20.5 18.189 20.5 17.7139V7H3.5V17.7139ZM16 10C17.6961 10.2426 19 11.7016 19 13.4648C18.9998 15.3977 17.4329 16.9648 15.5 16.9648H12.5C10.5671 16.9648 9.00016 15.3977 9 13.4648C9 11.8794 10.0544 10.5407 11.5 10.1104V11.5605C10.8269 11.9259 10.3701 12.6393 10.3701 13.459C10.3704 14.6508 11.3365 15.6171 12.5283 15.6172H15.4717C16.6636 15.6172 17.6296 14.6508 17.6299 13.459C17.6299 12.4494 16.9363 11.604 16 11.3682V10ZM11.5 8C13.433 8 15 9.567 15 11.5C15 13.0854 13.9455 14.4231 12.5 14.8535V13.3691C13.156 13.0034 13.6006 12.3044 13.6006 11.5C13.6006 10.3178 12.6422 9.35955 11.46 9.35938H8.54004C7.35785 9.35954 6.39942 10.3178 6.39941 11.5C6.39941 12.4954 7.07967 13.3287 8 13.5684V14.9639C6.3039 14.7212 5 13.2632 5 11.5C5 9.567 6.567 8 8.5 8H11.5Z" fill="#191E26"/>
</svg>
