<svg width="16" height="16" viewBox="0 0 16 16" fill="none" xmlns="http://www.w3.org/2000/svg">
<path d="M6 4.54492L10 7.04492L6 9.54492V4.54492Z" fill="black"/>
<path fill-rule="evenodd" clip-rule="evenodd" d="M1 3C1 2.73478 1.10536 2.48043 1.29289 2.29289C1.48043 2.10536 1.73478 2 2 2H14C14.2652 2 14.5196 2.10536 14.7071 2.29289C14.8946 2.48043 15 2.73478 15 3V11C15 11.2652 14.8946 11.5196 14.7071 11.7071C14.5196 11.8946 14.2652 12 14 12H8.5C8.5 12 10.5 14.0449 11 14.5449C11.5 15.0449 11 15.5449 10.5 15.0449L8 12.5449L5.5 15.0449C5 15.5449 4.5 15.0449 5 14.5449C5.5 14.0449 7.5 12 7.5 12H2C1.73478 12 1.48043 11.8946 1.29289 11.7071C1.10536 11.5196 1 11.2652 1 11V3ZM2.25 3.25V10.75H13.75V3.25H2.25Z" fill="black"/>
</svg>
