<svg width="24" height="24" viewBox="0 0 24 24" fill="none" xmlns="http://www.w3.org/2000/svg">
<path d="M5.11004 19.452C5.44304 19.119 5.13704 19.426 5.13704 19.426L3.85404 18.143L3.82804 18.169C3.22404 18.773 2.98704 19.584 3.34104 19.939C3.69604 20.293 4.50604 20.055 5.11004 19.452Z" fill="#0D1216"/>
<path d="M5.11004 19.452C5.44304 19.119 5.13704 19.426 5.13704 19.426L3.85404 18.143L3.82804 18.169C3.22404 18.773 2.98704 19.584 3.34104 19.939C3.69604 20.293 4.50604 20.055 5.11004 19.452Z" fill="url(#paint0_radial_881_59958)" fill-opacity="0.2"/>
<path fill-rule="evenodd" clip-rule="evenodd" d="M20.542 6.58598C20.6268 6.50088 20.6745 6.38563 20.6745 6.26548C20.6745 6.14533 20.6268 6.03008 20.542 5.94498L17.345 2.74798C17.26 2.66346 17.1449 2.61603 17.025 2.61603C16.9051 2.61603 16.7901 2.66346 16.705 2.74798L5.47802 13.952L4.24801 17.219L3.61201 17.856C3.54601 17.922 3.55401 18.039 3.63201 18.116L5.14302 19.628C5.22002 19.706 5.33801 19.714 5.40401 19.648L6.04101 19.012L6.05101 19.022L9.32701 17.801L20.542 6.58598Z" fill="#FF3B4B"/>
<path fill-rule="evenodd" clip-rule="evenodd" d="M10.619 16.554L6.77002 12.655L7.61002 11.827L11.458 15.726L10.618 16.554H10.619Z" fill="white" fill-opacity="0.6"/>
<path fill-rule="evenodd" clip-rule="evenodd" d="M15.184 19.815C15.2032 19.7437 15.1992 19.668 15.1728 19.599C15.1464 19.53 15.0988 19.4712 15.0368 19.4309C14.9749 19.3906 14.9018 19.3709 14.828 19.3747C14.7542 19.3785 14.6835 19.4056 14.626 19.452L14.236 19.769C13.0508 20.7312 11.5706 21.2562 10.044 21.256H8.65C8.47761 21.256 8.31228 21.1875 8.19038 21.0656C8.06848 20.9437 8 20.7784 8 20.606C8 20.4336 8.06848 20.2683 8.19038 20.1464C8.31228 20.0245 8.47761 19.956 8.65 19.956H10.044C11.2719 19.9561 12.4626 19.5338 13.416 18.76L13.806 18.443C15.049 17.434 16.856 18.607 16.44 20.153L16.047 21.61C15.967 21.91 16.337 22.12 16.553 21.897C17.1453 21.2831 17.8552 20.7948 18.6404 20.4613C19.4256 20.1279 20.2699 19.956 21.123 19.956H21.35C21.5224 19.956 21.6877 20.0245 21.8096 20.1464C21.9315 20.2683 22 20.4336 22 20.606C22 20.7784 21.9315 20.9437 21.8096 21.0656C21.6877 21.1875 21.5224 21.256 21.35 21.256H21.123C20.4447 21.256 19.7733 21.3926 19.149 21.6577C18.5246 21.9228 17.9601 22.311 17.489 22.799C16.341 23.989 14.362 22.869 14.792 21.272L15.184 19.815Z" fill="#FF3B4B"/>
<defs>
<radialGradient id="paint0_radial_881_59958" cx="0" cy="0" r="1" gradientUnits="userSpaceOnUse" gradientTransform="translate(4.79404 19.717) rotate(-134.597) scale(1.77282 1.77288)">
<stop offset="0.118" stop-opacity="0"/>
<stop offset="0.876"/>
</radialGradient>
</defs>
</svg>
