<svg width="24" height="24" viewBox="0 0 24 24" fill="none" xmlns="http://www.w3.org/2000/svg">
<path d="M3 6.95001C3 5.88915 3.42143 4.87173 4.17157 4.12159C4.92172 3.37144 5.93913 2.95001 7 2.95001H17C18.0609 2.95001 19.0783 3.37144 19.8284 4.12159C20.5786 4.87173 21 5.88915 21 6.95001V13.037C21.0003 14.0931 20.583 15.1065 19.839 15.856L15.955 19.768C15.583 20.1427 15.1406 20.4401 14.6532 20.6429C14.1657 20.8458 13.643 20.9502 13.115 20.95H7C5.93913 20.95 4.92172 20.5286 4.17157 19.7784C3.42143 19.0283 3 18.0109 3 16.95V6.95001Z" fill="#FFC702"/>
<path d="M17.031 13.95H19.031C19.53 13.9501 20.011 13.7636 20.3795 13.4273C20.7481 13.0909 20.9776 12.6289 21.023 12.132L21.031 9.48102V11.95C21.031 12.011 21.029 12.072 21.023 12.132L21.02 12.998C21.017 14.0413 20.6065 15.0421 19.876 15.787L15.99 19.75C15.6177 20.1299 15.1733 20.4317 14.6829 20.6377C14.1925 20.8438 13.666 20.9499 13.134 20.95H12.03C12.5605 20.95 13.0692 20.7393 13.4442 20.3642C13.8193 19.9892 14.03 19.4805 14.03 18.95V16.95C14.03 16.5561 14.1076 16.1659 14.2584 15.802C14.4092 15.438 14.6301 15.1073 14.9087 14.8287C15.1873 14.5501 15.518 14.3291 15.882 14.1784C16.246 14.0276 16.6371 13.95 17.031 13.95Z" fill="#FF6105"/>
</svg>
