<svg width="24" height="24" viewBox="0 0 24 24" fill="none" xmlns="http://www.w3.org/2000/svg">
<path fill-rule="evenodd" clip-rule="evenodd" d="M5 3H19C19.5304 3 20.0391 3.21071 20.4142 3.58579C20.7893 3.96086 21 4.46957 21 5V19C21 19.5304 20.7893 20.0391 20.4142 20.4142C20.0391 20.7893 19.5304 21 19 21H5C4.46957 21 3.96086 20.7893 3.58579 20.4142C3.21071 20.0391 3 19.5304 3 19V5C3 4.46957 3.21071 3.96086 3.58579 3.58579C3.96086 3.21071 4.46957 3 5 3ZM4.5 13.75V9.5H8.5V13.75H4.5ZM10 13.75V9.5H14V13.75H10ZM4.5 15.25H8.5V19.5H5C4.86739 19.5 4.74021 19.4473 4.64645 19.3536C4.55268 19.2598 4.5 19.1326 4.5 19V15.25ZM10 15.25V19.5H14V15.25H10ZM15.5 19.5V15.25H19.5V19C19.5 19.1326 19.4473 19.2598 19.3536 19.3536C19.2598 19.4473 19.1326 19.5 19 19.5H15.5ZM15.5 13.75V9.5H19.5V13.75H15.5Z" fill="#1D3B7C"/>
</svg>
