<svg width="24" height="24" viewBox="0 0 24 24" fill="none" xmlns="http://www.w3.org/2000/svg">
<path d="M19.367 8.609C18.9778 8.21993 18.4503 8.00094 17.9 8H7.00603V8.5H7.00403V18.9C7.00403 20.043 7.93903 20.978 9.08203 20.978H17.9C18.4507 20.9764 18.9783 20.757 19.3676 20.3676C19.757 19.9783 19.9764 19.4506 19.978 18.9V10.075C19.9766 9.5249 19.7562 8.99778 19.367 8.609Z" fill="#11171D"/>
<path d="M8.47796 16H8.49996C9.35355 16 10.1988 15.8319 10.9874 15.5052C11.776 15.1786 12.4926 14.6998 13.0962 14.0962C13.6997 13.4926 14.1785 12.7761 14.5052 11.9874C14.8318 11.1988 15 10.3536 15 9.49999V9.47899C14.9965 8.97346 14.934 8.47006 14.814 7.97899C14.4765 6.56995 13.6777 5.31417 12.5445 4.41131C11.4113 3.50845 10.0088 3.01036 8.55999 2.99622C7.11117 2.98208 5.69921 3.45271 4.54862 4.33328C3.39802 5.21385 2.57484 6.4538 2.20996 7.85599C1.99177 8.69175 1.94243 9.56262 2.06481 10.4177C2.1872 11.2727 2.47886 12.0948 2.92273 12.8358C3.3666 13.5768 3.95377 14.2218 4.6499 14.7332C5.34603 15.2446 6.13714 15.612 6.97696 15.814C7.45896 15.93 7.96096 15.998 8.47796 16Z" fill="#6B6F73"/>
</svg>
