<svg width="25" height="25" viewBox="0 0 25 25" fill="none" xmlns="http://www.w3.org/2000/svg">
<path d="M7.02196 6.51801C6.889 6.51801 6.76146 6.57076 6.66735 6.66469C6.57323 6.75862 6.52023 6.88604 6.51996 7.01901V7.80801C6.51996 8.14059 6.38785 8.45955 6.15267 8.69472C5.9175 8.92989 5.59854 9.06201 5.26596 9.06201C4.93338 9.06201 4.61442 8.92989 4.37925 8.69472C4.14408 8.45955 4.01196 8.14059 4.01196 7.80801V6.01601C4.01196 4.90801 4.90996 4.01001 6.01896 4.01001H18.056C19.164 4.01001 20.062 4.90801 20.062 6.01601V7.78101C20.0667 7.9486 20.0378 8.11544 19.9769 8.27166C19.916 8.42788 19.8245 8.57031 19.7076 8.69052C19.5907 8.81074 19.451 8.90629 19.2965 8.97155C19.1421 9.0368 18.9761 9.07042 18.8085 9.07042C18.6408 9.07042 18.4748 9.0368 18.3204 8.97155C18.166 8.90629 18.0262 8.81074 17.9093 8.69052C17.7925 8.57031 17.7009 8.42788 17.64 8.27166C17.5791 8.11544 17.5502 7.9486 17.555 7.78101V7.01901C17.5547 6.88604 17.5017 6.75862 17.4076 6.66469C17.3135 6.57076 17.1859 6.51801 17.053 6.51801H13.291V16.8C13.291 17.215 13.628 17.552 14.044 17.552H14.796C15.1285 17.552 15.4475 17.6841 15.6827 17.9193C15.9178 18.1545 16.05 18.4734 16.05 18.806C16.05 19.1386 15.9178 19.4576 15.6827 19.6927C15.4475 19.9279 15.1285 20.06 14.796 20.06H9.27896C8.94638 20.06 8.62742 19.9279 8.39225 19.6927C8.15708 19.4576 8.02496 19.1386 8.02496 18.806C8.02496 18.4734 8.15708 18.1545 8.39225 17.9193C8.62742 17.6841 8.94638 17.552 9.27896 17.552H10.031C10.2304 17.552 10.4217 17.4728 10.5627 17.3318C10.7037 17.1907 10.783 16.9995 10.783 16.8V6.51801H7.02196Z" fill="#992BFF"/>
</svg>
