<svg width="24" height="24" viewBox="0 0 24 24" fill="none" xmlns="http://www.w3.org/2000/svg">
<path d="M4.75997 20.363C4.62902 20.363 4.50101 20.3242 4.39218 20.2514C4.28335 20.1786 4.1986 20.0751 4.14868 19.954C4.09876 19.8329 4.08591 19.6998 4.11178 19.5714C4.13765 19.4431 4.20106 19.3253 4.29397 19.233L18.808 4.72C18.932 4.59588 19.1002 4.52609 19.2756 4.526C19.4511 4.52591 19.6193 4.59551 19.7435 4.7195C19.8676 4.84349 19.9374 5.01171 19.9375 5.18715C19.9376 5.36259 19.868 5.53088 19.744 5.655L5.22797 20.169C5.10417 20.293 4.93519 20.3628 4.75997 20.363Z" fill="#138EFF"/>
<path fill-rule="evenodd" clip-rule="evenodd" d="M20.5601 3.94002C20.841 4.22127 20.9987 4.60252 20.9987 5.00002C20.9987 5.39752 20.841 5.77877 20.5601 6.06002L5.56006 21.06C5.27571 21.325 4.89962 21.4692 4.51101 21.4624C4.12241 21.4555 3.75164 21.2981 3.47682 21.0233C3.20199 20.7484 3.04457 20.3777 3.03771 19.9891C3.03085 19.6005 3.1751 19.2244 3.44006 18.94L18.4401 3.94002C18.7213 3.65912 19.1026 3.50134 19.5001 3.50134C19.8976 3.50134 20.2788 3.65912 20.5601 3.94002Z" fill="#138EFF"/>
</svg>
