<svg width="120" height="120" viewBox="0 0 120 120" fill="none" xmlns="http://www.w3.org/2000/svg">
<rect width="120" height="120" rx="8" fill="#F1F2F4"/>
<rect x="12" y="46" width="86" height="27" rx="9.81818" fill="#1A62FF"/>
<path d="M36.9867 63.9771V56.0921H40.6379C41.1233 56.0921 41.5332 56.1694 41.8676 56.324C42.2056 56.475 42.4591 56.6907 42.6281 56.9712C42.7971 57.248 42.8815 57.577 42.8815 57.9581C42.8815 58.7312 42.5004 59.2723 41.7382 59.5815V59.6301C42.2919 59.7703 42.7036 60.0166 42.9732 60.3689C43.2465 60.7213 43.3831 61.1618 43.3831 61.6903C43.3831 62.4346 43.1584 63.0027 42.709 63.3946C42.2595 63.7829 41.5692 63.9771 40.6379 63.9771H36.9867ZM40.4114 59.355C40.8357 59.355 41.1629 59.2543 41.393 59.053C41.6267 58.848 41.7436 58.5586 41.7436 58.1847C41.7436 57.7892 41.6339 57.4961 41.4146 57.3056C41.1952 57.115 40.8609 57.0197 40.4114 57.0197H38.1301V59.355H40.4114ZM40.7081 63.0063C41.2078 63.0063 41.5818 62.8912 41.8299 62.6611C42.0779 62.4274 42.202 62.0876 42.202 61.6418C42.202 61.1959 42.0779 60.8579 41.8299 60.6278C41.5818 60.3977 41.2078 60.2826 40.7081 60.2826H38.1301V63.0063H40.7081ZM46.5382 64.0903C45.8515 64.0903 45.3445 63.8962 45.0173 63.5078C44.6901 63.1195 44.5265 62.5263 44.5265 61.728V58.0067H45.6267V61.6256C45.6267 62.1649 45.7292 62.5496 45.9341 62.7797C46.1391 63.0099 46.4591 63.1249 46.8942 63.1249C47.4299 63.1249 47.8542 62.9433 48.167 62.5802C48.4798 62.217 48.6362 61.6543 48.6362 60.8921V58.0067H49.731V63.9771H48.6578V62.3752H48.6146C48.2623 63.5186 47.5701 64.0903 46.5382 64.0903ZM55.4479 63.4701C55.2753 63.6678 55.0488 63.8206 54.7684 63.9285C54.4915 64.0364 54.1823 64.0903 53.8407 64.0903C53.118 64.0903 52.5895 63.9105 52.2551 63.551C51.9207 63.1878 51.7535 62.6557 51.7535 61.9546V58.9451H50.6479V58.0067H51.7535V56.7986C51.9261 56.7806 52.1095 56.75 52.3036 56.7069C52.4978 56.6638 52.6794 56.6116 52.8483 56.5505V58.0067H55.1243V58.9451H52.8483V61.933C52.8483 62.3573 52.9346 62.6647 53.1072 62.8552C53.2798 63.0422 53.5423 63.1357 53.8946 63.1357C54.3549 63.1357 54.7144 62.9667 54.9733 62.6287L55.4479 63.4701ZM60.2587 63.4701C60.0861 63.6678 59.8596 63.8206 59.5792 63.9285C59.3023 64.0364 58.9931 64.0903 58.6515 64.0903C57.9288 64.0903 57.4003 63.9105 57.0659 63.551C56.7315 63.1878 56.5643 62.6557 56.5643 61.9546V58.9451H55.4587V58.0067H56.5643V56.7986C56.7369 56.7806 56.9203 56.75 57.1144 56.7069C57.3086 56.6638 57.4902 56.6116 57.6592 56.5505V58.0067H59.9351V58.9451H57.6592V61.933C57.6592 62.3573 57.7455 62.6647 57.918 62.8552C58.0906 63.0422 58.3531 63.1357 58.7055 63.1357C59.1657 63.1357 59.5252 62.9667 59.7841 62.6287L60.2587 63.4701ZM63.6187 64.0903C63.0327 64.0903 62.5041 63.9663 62.0331 63.7182C61.5621 63.4665 61.1918 63.1069 60.9221 62.6395C60.6524 62.1685 60.5176 61.6184 60.5176 60.9892C60.5176 60.3635 60.6524 59.817 60.9221 59.3496C61.1918 58.8786 61.5621 58.519 62.0331 58.271C62.5041 58.0193 63.0327 57.8934 63.6187 57.8934C64.2048 57.8934 64.7334 58.0193 65.2044 58.271C65.6754 58.519 66.0457 58.8786 66.3154 59.3496C66.5886 59.817 66.7253 60.3635 66.7253 60.9892C66.7253 61.6184 66.5886 62.1667 66.3154 62.6341C66.0457 63.1015 65.6754 63.4611 65.2044 63.7128C64.7334 63.9645 64.2048 64.0903 63.6187 64.0903ZM63.6187 63.1303C64.0214 63.1303 64.3702 63.0458 64.665 62.8768C64.9599 62.7042 65.1864 62.4579 65.3446 62.1379C65.5064 61.8143 65.5873 61.4314 65.5873 60.9892C65.5873 60.5433 65.5064 60.1604 65.3446 59.8404C65.1864 59.5204 64.9599 59.2759 64.665 59.1069C64.3702 58.9379 64.0214 58.8534 63.6187 58.8534C63.2232 58.8534 62.8763 58.9379 62.5778 59.1069C62.283 59.2759 62.0547 59.5222 61.8929 59.8458C61.7311 60.1658 61.6502 60.5469 61.6502 60.9892C61.6502 61.4314 61.7311 61.8143 61.8929 62.1379C62.0547 62.4579 62.283 62.7042 62.5778 62.8768C62.8763 63.0458 63.2232 63.1303 63.6187 63.1303ZM67.928 63.9771V58.0067H69.0012V59.6031H69.0498C69.395 58.4633 70.1015 57.8934 71.1693 57.8934C71.8669 57.8934 72.3828 58.0912 72.7172 58.4867C73.0516 58.8822 73.2188 59.4826 73.2188 60.288V63.9771H72.124V60.3905C72.124 59.844 72.0161 59.4521 71.8004 59.2148C71.5882 58.9739 71.2592 58.8534 70.8134 58.8534C70.2561 58.8534 69.8174 59.035 69.4974 59.3981C69.181 59.7613 69.0228 60.3258 69.0228 61.0916V63.9771H67.928Z" fill="white"/>
</svg>
