<svg width="137" height="122" viewBox="0 0 137 122" fill="none" xmlns="http://www.w3.org/2000/svg">
<rect x="9" width="120" height="120" rx="8" fill="#F1F2F4"/>
<g filter="url(#filter0_ddd_431_46005)">
<rect x="24" y="46" width="89" height="28" rx="5" fill="white" fill-opacity="0.9" shape-rendering="crispEdges"/>
<rect x="24.45" y="46.45" width="88.1" height="27.1" rx="4.55" stroke="#0E1318" stroke-width="0.9" shape-rendering="crispEdges"/>
<path d="M48.4557 65V56.0053H52.0794C52.6331 56.0053 53.1027 56.0935 53.4883 56.2698C53.8738 56.4421 54.163 56.6902 54.3558 57.0143C54.5526 57.3383 54.6511 57.7238 54.6511 58.1709C54.6511 58.5646 54.5485 58.9174 54.3435 59.2291C54.1425 59.5367 53.8533 59.7808 53.476 59.9612V60.0904C54.0584 60.2381 54.5034 60.5067 54.811 60.8964C55.1228 61.286 55.2786 61.77 55.2786 62.3483C55.2786 63.1974 55.0264 63.8516 54.5219 64.3109C54.0174 64.7703 53.2688 65 52.2763 65H48.4557ZM51.8702 59.6844C52.3255 59.6844 52.6721 59.5736 52.91 59.3521C53.152 59.1266 53.2729 58.8066 53.2729 58.3924C53.2729 57.5352 52.8054 57.1065 51.8702 57.1065H49.8707V59.6844H51.8702ZM52.1471 63.8557C53.275 63.8557 53.839 63.345 53.839 62.3237C53.839 61.2983 53.275 60.7856 52.1471 60.7856H49.8707V63.8557H52.1471ZM59.1546 65.1292C58.3917 65.1292 57.8257 64.9241 57.4565 64.514C57.0874 64.0997 56.9028 63.5029 56.9028 62.7236V58.214H58.2563V62.6006C58.2563 63.0682 58.3609 63.4147 58.5701 63.6403C58.7834 63.8618 59.1033 63.9726 59.5299 63.9726C60.0713 63.9726 60.4958 63.7941 60.8034 63.4373C61.1151 63.0805 61.271 62.5104 61.271 61.727V58.214H62.6245V65H61.3325V63.9664L61.2033 63.9356C60.9777 64.3376 60.705 64.637 60.3851 64.8339C60.0651 65.0308 59.655 65.1292 59.1546 65.1292ZM68.3523 63.6526L68.7338 64.6432C68.5615 64.799 68.34 64.918 68.0693 65C67.7986 65.0861 67.4992 65.1292 67.1711 65.1292C66.4902 65.1292 65.9714 64.9487 65.6146 64.5878C65.2577 64.2269 65.0793 63.6875 65.0793 62.9697V59.2968H63.9719V58.2078H65.0793V56.8297L66.4328 56.6082V58.2078H68.4877V59.2968H66.4328V62.859C66.4328 63.2363 66.5107 63.5091 66.6666 63.6772C66.8266 63.8454 67.0542 63.9295 67.3495 63.9295C67.6817 63.9295 67.973 63.8372 68.2231 63.6526H68.3523ZM73.5818 63.6526L73.9633 64.6432C73.791 64.799 73.5695 64.918 73.2988 65C73.0281 65.0861 72.7287 65.1292 72.4006 65.1292C71.7197 65.1292 71.2009 64.9487 70.844 64.5878C70.4872 64.2269 70.3088 63.6875 70.3088 62.9697V59.2968H69.2014V58.2078H70.3088V56.8297L71.6623 56.6082V58.2078H73.7172V59.2968H71.6623V62.859C71.6623 63.2363 71.7402 63.5091 71.8961 63.6772C72.0561 63.8454 72.2837 63.9295 72.579 63.9295C72.9112 63.9295 73.2024 63.8372 73.4526 63.6526H73.5818ZM78.0054 65.1292C77.3532 65.1292 76.7831 64.9938 76.295 64.7231C75.8069 64.4524 75.4296 64.0525 75.163 63.5234C74.8964 62.9943 74.7631 62.3565 74.7631 61.6101C74.7631 60.8595 74.8964 60.2217 75.163 59.6967C75.4296 59.1676 75.8069 58.7677 76.295 58.497C76.7831 58.2222 77.3532 58.0848 78.0054 58.0848C78.6575 58.0848 79.2276 58.2222 79.7157 58.497C80.2038 58.7677 80.5812 59.1676 80.8478 59.6967C81.1185 60.2217 81.2538 60.8595 81.2538 61.6101C81.2538 62.3565 81.1185 62.9943 80.8478 63.5234C80.5812 64.0525 80.2038 64.4524 79.7157 64.7231C79.2276 64.9938 78.6575 65.1292 78.0054 65.1292ZM78.0054 63.9541C79.2317 63.9541 79.8449 63.1728 79.8449 61.6101C79.8449 60.0392 79.2317 59.2537 78.0054 59.2537C77.4106 59.2537 76.9554 59.4465 76.6396 59.832C76.3237 60.2135 76.1658 60.8062 76.1658 61.6101C76.1658 63.1728 76.779 63.9541 78.0054 63.9541ZM83.0072 65V58.214H84.2992V59.2414L84.4284 59.2722C84.6458 58.8825 84.9268 58.5872 85.2713 58.3862C85.6158 58.1853 86.0362 58.0848 86.5325 58.0848C87.3323 58.0848 87.9147 58.296 88.2798 58.7185C88.6489 59.1368 88.8335 59.7664 88.8335 60.6072V65H87.48V60.7241C87.48 60.195 87.3754 59.8156 87.1662 59.5859C86.957 59.3563 86.6207 59.2414 86.1572 59.2414C85.6035 59.2414 85.1646 59.4219 84.8406 59.7828C84.5207 60.1438 84.3607 60.7159 84.3607 61.4993V65H83.0072Z" fill="#0E1318"/>
</g>
<defs>
<filter id="filter0_ddd_431_46005" x="0" y="38" width="137" height="84" filterUnits="userSpaceOnUse" color-interpolation-filters="sRGB">
<feFlood flood-opacity="0" result="BackgroundImageFix"/>
<feColorMatrix in="SourceAlpha" type="matrix" values="0 0 0 0 0 0 0 0 0 0 0 0 0 0 0 0 0 0 127 0" result="hardAlpha"/>
<feOffset dy="24"/>
<feGaussianBlur stdDeviation="12"/>
<feComposite in2="hardAlpha" operator="out"/>
<feColorMatrix type="matrix" values="0 0 0 0 0.0941176 0 0 0 0 0.172549 0 0 0 0 0.34902 0 0 0 0.07 0"/>
<feBlend mode="normal" in2="BackgroundImageFix" result="effect1_dropShadow_431_46005"/>
<feColorMatrix in="SourceAlpha" type="matrix" values="0 0 0 0 0 0 0 0 0 0 0 0 0 0 0 0 0 0 127 0" result="hardAlpha"/>
<feOffset dy="8"/>
<feGaussianBlur stdDeviation="8"/>
<feComposite in2="hardAlpha" operator="out"/>
<feColorMatrix type="matrix" values="0 0 0 0 0.0941176 0 0 0 0 0.172549 0 0 0 0 0.34902 0 0 0 0.14 0"/>
<feBlend mode="normal" in2="effect1_dropShadow_431_46005" result="effect2_dropShadow_431_46005"/>
<feColorMatrix in="SourceAlpha" type="matrix" values="0 0 0 0 0 0 0 0 0 0 0 0 0 0 0 0 0 0 127 0" result="hardAlpha"/>
<feMorphology radius="0.5" operator="dilate" in="SourceAlpha" result="effect3_dropShadow_431_46005"/>
<feOffset/>
<feComposite in2="hardAlpha" operator="out"/>
<feColorMatrix type="matrix" values="0 0 0 0 0.25098 0 0 0 0 0.341176 0 0 0 0 0.427451 0 0 0 0.07 0"/>
<feBlend mode="normal" in2="effect2_dropShadow_431_46005" result="effect3_dropShadow_431_46005"/>
<feBlend mode="normal" in="SourceGraphic" in2="effect3_dropShadow_431_46005" result="shape"/>
</filter>
</defs>
</svg>
