<svg width="74" height="74" viewBox="0 0 74 74" fill="none" xmlns="http://www.w3.org/2000/svg">
<g clip-path="url(#clip0_800_42033)">
<path d="M25 1H1V19M25 1V19M25 1H49M25 19H1M25 19V37M25 19H49M1 19V37M25 37H1M25 37V55M25 37H49M1 37V55M25 55H1M25 55V73M25 55H49M1 55V73H25M25 73H49M49 1V19M49 1H73V19M49 19V37M49 19H73M49 37V55M49 37H73M49 55V73M49 55H73M49 73H73V55M73 19V37M73 37V55" stroke="#EBEDEF" stroke-width="2"/>
</g>
<defs>
<clipPath id="clip0_800_42033">
<rect width="74" height="74" fill="white"/>
</clipPath>
</defs>
</svg>
