<svg width="104" height="32" viewBox="0 0 104 32" fill="none" xmlns="http://www.w3.org/2000/svg">
<path d="M8 0.5H96C100.142 0.5 103.5 3.85786 103.5 8V24C103.5 28.1421 100.142 31.5 96 31.5H8C3.85786 31.5 0.5 28.1421 0.5 24V8C0.5 3.85786 3.85786 0.5 8 0.5Z" stroke="#394C60" stroke-opacity="0.15"/>
<path d="M10 16C10 15.5858 10.3358 15.25 10.75 15.25H21.25C21.6642 15.25 22 15.5858 22 16V16C22 16.4142 21.6642 16.75 21.25 16.75H10.75C10.3358 16.75 10 16.4142 10 16V16Z" fill="#0E1318"/>
<path d="M44.6514 20.542C44.6514 19.9906 44.7106 19.5462 44.8291 19.209C44.9521 18.8717 45.1595 18.5573 45.4512 18.2656C45.7428 17.974 46.2077 17.5957 46.8457 17.1309L47.9463 16.3311C48.3519 16.0348 48.6823 15.7614 48.9375 15.5107C49.1927 15.2601 49.3932 14.9889 49.5391 14.6973C49.6895 14.401 49.7646 14.0706 49.7646 13.7061C49.7646 13.1136 49.6074 12.667 49.293 12.3662C48.9785 12.0654 48.4863 11.915 47.8164 11.915C47.2878 11.915 46.8184 12.0381 46.4082 12.2842C45.998 12.5303 45.6699 12.8789 45.4238 13.3301L45.2666 13.3574L44.5625 12.6191C44.8997 12.0723 45.3418 11.6439 45.8887 11.334C46.4401 11.0195 47.0827 10.8623 47.8164 10.8623C48.5273 10.8623 49.1175 10.9831 49.5869 11.2246C50.0563 11.4661 50.4027 11.8011 50.626 12.2295C50.8493 12.6533 50.9609 13.1455 50.9609 13.7061C50.9609 14.1527 50.8675 14.5697 50.6807 14.957C50.4938 15.3444 50.2295 15.709 49.8877 16.0508C49.5459 16.3926 49.1175 16.7526 48.6025 17.1309L47.4883 17.9443C47.0736 18.2497 46.7546 18.5094 46.5312 18.7236C46.3079 18.9378 46.1439 19.1475 46.0391 19.3525C45.9388 19.5531 45.8887 19.7786 45.8887 20.0293H50.9609V21H44.6514V20.542ZM57.7285 21H56.6143V18.6143H51.9316V17.6709L56.3408 11.0059H57.7285V17.6709H59.458V18.6143H57.7285V21ZM53.3125 17.5273L53.374 17.6709H56.6143V12.6328L56.457 12.6055L53.3125 17.5273Z" fill="#0E1318"/>
<path fill-rule="evenodd" clip-rule="evenodd" d="M87.25 21.25C87.25 21.6642 87.5858 22 88 22C88.4142 22 88.75 21.6642 88.75 21.25V16.75H93.25C93.6642 16.75 94 16.4142 94 16C94 15.5858 93.6642 15.25 93.25 15.25H88.75V10.75C88.75 10.3358 88.4142 10 88 10C87.5858 10 87.25 10.3358 87.25 10.75V15.25H82.75C82.3358 15.25 82 15.5858 82 16C82 16.4142 82.3358 16.75 82.75 16.75H87.25V21.25Z" fill="#0E1318"/>
</svg>
