<svg width="136" height="32" viewBox="0 0 136 32" fill="none" xmlns="http://www.w3.org/2000/svg">
<path d="M8 0.5H128C132.142 0.5 135.5 3.85786 135.5 8V24C135.5 28.1421 132.142 31.5 128 31.5H8C3.85786 31.5 0.5 28.1421 0.5 24V8C0.5 3.85786 3.85786 0.5 8 0.5Z" stroke="#394C60" stroke-opacity="0.15"/>
<path d="M17.4619 21.1436C16.5413 21.1436 15.7301 20.9521 15.0283 20.5693C14.3265 20.1865 13.7773 19.6123 13.3809 18.8467C12.9844 18.0765 12.7861 17.1286 12.7861 16.0029C12.7861 14.8773 12.9844 13.9316 13.3809 13.166C13.7773 12.3958 14.3265 11.8193 15.0283 11.4365C15.7301 11.0537 16.5413 10.8623 17.4619 10.8623C18.4235 10.8623 19.2393 11.0514 19.9092 11.4297C20.5837 11.8034 21.0645 12.3753 21.3516 13.1455L19.9092 14.0273L19.7383 14.0205C19.5241 13.501 19.2324 13.1296 18.8633 12.9062C18.4987 12.6784 18.0316 12.5645 17.4619 12.5645C16.6325 12.5645 15.9854 12.8402 15.5205 13.3916C15.0557 13.9385 14.8232 14.8089 14.8232 16.0029C14.8232 17.1924 15.0557 18.0628 15.5205 18.6143C15.9854 19.1611 16.6325 19.4346 17.4619 19.4346C18.7607 19.4346 19.556 18.8034 19.8477 17.541H20.0186L21.4746 18.2998C21.2012 19.2477 20.734 19.9587 20.0732 20.4326C19.4124 20.9066 18.542 21.1436 17.4619 21.1436ZM24.7422 21.1436C24.2591 21.1436 23.8398 21.0547 23.4844 20.877C23.1289 20.6992 22.8555 20.4395 22.6641 20.0977C22.4727 19.7513 22.377 19.3366 22.377 18.8535C22.377 18.4069 22.4727 18.0332 22.6641 17.7324C22.8555 17.4271 23.1517 17.1787 23.5527 16.9873C23.9538 16.7913 24.4779 16.641 25.125 16.5361C25.5762 16.4632 25.918 16.3835 26.1504 16.2969C26.3874 16.2103 26.5469 16.1123 26.6289 16.0029C26.7109 15.8936 26.752 15.7546 26.752 15.5859C26.752 15.3444 26.6676 15.1598 26.499 15.0322C26.3304 14.9046 26.0501 14.8408 25.6582 14.8408C25.2389 14.8408 24.8402 14.9342 24.4619 15.1211C24.0837 15.3079 23.7555 15.554 23.4775 15.8594H23.3408L22.5479 14.6631C22.9307 14.2393 23.3978 13.9089 23.9492 13.6719C24.5007 13.4349 25.1022 13.3164 25.7539 13.3164C26.752 13.3164 27.4743 13.5283 27.9209 13.9521C28.3675 14.376 28.5908 14.9775 28.5908 15.7568V19.0312C28.5908 19.3685 28.7389 19.5371 29.0352 19.5371C29.1491 19.5371 29.2607 19.5166 29.3701 19.4756L29.4658 19.5029L29.6025 20.8223C29.4977 20.8906 29.3519 20.9476 29.165 20.9932C28.9782 21.0342 28.7731 21.0547 28.5498 21.0547C28.0986 21.0547 27.7454 20.9681 27.4902 20.7949C27.2396 20.6217 27.0596 20.3506 26.9502 19.9814L26.8066 19.9678C26.4375 20.7516 25.7493 21.1436 24.7422 21.1436ZM25.3438 19.7285C25.7812 19.7285 26.1299 19.5827 26.3896 19.291C26.654 18.9948 26.7861 18.5846 26.7861 18.0605V17.2949L26.6562 17.2676C26.5423 17.3587 26.3919 17.4362 26.2051 17.5C26.0228 17.5592 25.7585 17.6185 25.4121 17.6777C25.002 17.7461 24.7057 17.8646 24.5234 18.0332C24.3457 18.1973 24.2568 18.432 24.2568 18.7373C24.2568 19.0609 24.3525 19.307 24.5439 19.4756C24.7354 19.6442 25.002 19.7285 25.3438 19.7285ZM30.8467 21V13.46H32.665V14.5674L32.8086 14.6016C33.278 13.7448 34.0391 13.3164 35.0918 13.3164C35.9622 13.3164 36.6003 13.5534 37.0059 14.0273C37.416 14.5013 37.6211 15.1917 37.6211 16.0986V21H35.7275V16.3311C35.7275 15.8298 35.6273 15.4697 35.4268 15.251C35.2262 15.0277 34.9049 14.916 34.4629 14.916C33.9206 14.916 33.4967 15.0915 33.1914 15.4424C32.8906 15.7933 32.7402 16.3447 32.7402 17.0967V21H30.8467ZM43.6846 21H41.4287L38.6396 13.46H40.6221L42.4951 18.833H42.6523L44.5322 13.46H46.4668L43.6846 21ZM49.3926 21.1436C48.9095 21.1436 48.4902 21.0547 48.1348 20.877C47.7793 20.6992 47.5059 20.4395 47.3145 20.0977C47.123 19.7513 47.0273 19.3366 47.0273 18.8535C47.0273 18.4069 47.123 18.0332 47.3145 17.7324C47.5059 17.4271 47.8021 17.1787 48.2031 16.9873C48.6042 16.7913 49.1283 16.641 49.7754 16.5361C50.2266 16.4632 50.5684 16.3835 50.8008 16.2969C51.0378 16.2103 51.1973 16.1123 51.2793 16.0029C51.3613 15.8936 51.4023 15.7546 51.4023 15.5859C51.4023 15.3444 51.318 15.1598 51.1494 15.0322C50.9808 14.9046 50.7005 14.8408 50.3086 14.8408C49.8893 14.8408 49.4906 14.9342 49.1123 15.1211C48.734 15.3079 48.4059 15.554 48.1279 15.8594H47.9912L47.1982 14.6631C47.5811 14.2393 48.0482 13.9089 48.5996 13.6719C49.151 13.4349 49.7526 13.3164 50.4043 13.3164C51.4023 13.3164 52.1247 13.5283 52.5713 13.9521C53.0179 14.376 53.2412 14.9775 53.2412 15.7568V19.0312C53.2412 19.3685 53.3893 19.5371 53.6855 19.5371C53.7995 19.5371 53.9111 19.5166 54.0205 19.4756L54.1162 19.5029L54.2529 20.8223C54.1481 20.8906 54.0023 20.9476 53.8154 20.9932C53.6286 21.0342 53.4235 21.0547 53.2002 21.0547C52.749 21.0547 52.3958 20.9681 52.1406 20.7949C51.89 20.6217 51.71 20.3506 51.6006 19.9814L51.457 19.9678C51.0879 20.7516 50.3997 21.1436 49.3926 21.1436ZM49.9941 19.7285C50.4316 19.7285 50.7803 19.5827 51.04 19.291C51.3044 18.9948 51.4365 18.5846 51.4365 18.0605V17.2949L51.3066 17.2676C51.1927 17.3587 51.0423 17.4362 50.8555 17.5C50.6732 17.5592 50.4089 17.6185 50.0625 17.6777C49.6523 17.7461 49.3561 17.8646 49.1738 18.0332C48.9961 18.1973 48.9072 18.432 48.9072 18.7373C48.9072 19.0609 49.0029 19.307 49.1943 19.4756C49.3857 19.6442 49.6523 19.7285 49.9941 19.7285ZM62.1484 21.1436C61.4557 21.1436 60.8382 21.0592 60.2959 20.8906C59.7581 20.7174 59.3092 20.4919 58.9492 20.2139C58.5892 19.9359 58.3135 19.6305 58.1221 19.2979L59.209 17.9717H59.3799C59.6807 18.4183 60.0612 18.7738 60.5215 19.0381C60.9863 19.3024 61.5286 19.4346 62.1484 19.4346C62.6771 19.4346 63.0758 19.3229 63.3447 19.0996C63.6136 18.8763 63.748 18.5687 63.748 18.1768C63.748 17.9398 63.7048 17.7415 63.6182 17.582C63.5316 17.4225 63.388 17.2858 63.1875 17.1719C62.987 17.0579 62.7158 16.96 62.374 16.8779L61.0889 16.584C60.1911 16.3789 59.5212 16.0394 59.0791 15.5654C58.6416 15.0869 58.4229 14.4671 58.4229 13.7061C58.4229 13.141 58.5641 12.6442 58.8467 12.2158C59.1292 11.7874 59.5394 11.4548 60.0771 11.2178C60.6195 10.9808 61.2666 10.8623 62.0186 10.8623C62.7887 10.8623 63.4473 10.9648 63.9941 11.1699C64.5456 11.3704 65.0104 11.6803 65.3887 12.0996L64.4111 13.4395H64.2402C63.9577 13.1432 63.6341 12.9222 63.2695 12.7764C62.9049 12.626 62.488 12.5508 62.0186 12.5508C61.4762 12.5508 61.0638 12.6465 60.7812 12.8379C60.4987 13.0293 60.3574 13.2936 60.3574 13.6309C60.3574 13.9453 60.4554 14.196 60.6514 14.3828C60.8519 14.5697 61.196 14.7155 61.6836 14.8203L62.9961 15.0938C63.9668 15.2988 64.6709 15.6475 65.1084 16.1396C65.5459 16.6273 65.7646 17.2653 65.7646 18.0537C65.7646 18.6781 65.6302 19.2227 65.3613 19.6875C65.0924 20.1478 64.6868 20.5055 64.1445 20.7607C63.6022 21.016 62.9368 21.1436 62.1484 21.1436ZM69.2441 21.1436C68.7611 21.1436 68.3418 21.0547 67.9863 20.877C67.6309 20.6992 67.3574 20.4395 67.166 20.0977C66.9746 19.7513 66.8789 19.3366 66.8789 18.8535C66.8789 18.4069 66.9746 18.0332 67.166 17.7324C67.3574 17.4271 67.6536 17.1787 68.0547 16.9873C68.4557 16.7913 68.9798 16.641 69.627 16.5361C70.0781 16.4632 70.4199 16.3835 70.6523 16.2969C70.8893 16.2103 71.0488 16.1123 71.1309 16.0029C71.2129 15.8936 71.2539 15.7546 71.2539 15.5859C71.2539 15.3444 71.1696 15.1598 71.001 15.0322C70.8324 14.9046 70.5521 14.8408 70.1602 14.8408C69.7409 14.8408 69.3421 14.9342 68.9639 15.1211C68.5856 15.3079 68.2575 15.554 67.9795 15.8594H67.8428L67.0498 14.6631C67.4326 14.2393 67.8997 13.9089 68.4512 13.6719C69.0026 13.4349 69.6042 13.3164 70.2559 13.3164C71.2539 13.3164 71.9762 13.5283 72.4229 13.9521C72.8695 14.376 73.0928 14.9775 73.0928 15.7568V19.0312C73.0928 19.3685 73.2409 19.5371 73.5371 19.5371C73.651 19.5371 73.7627 19.5166 73.8721 19.4756L73.9678 19.5029L74.1045 20.8223C73.9997 20.8906 73.8538 20.9476 73.667 20.9932C73.4801 21.0342 73.2751 21.0547 73.0518 21.0547C72.6006 21.0547 72.2474 20.9681 71.9922 20.7949C71.7415 20.6217 71.5615 20.3506 71.4521 19.9814L71.3086 19.9678C70.9395 20.7516 70.2513 21.1436 69.2441 21.1436ZM69.8457 19.7285C70.2832 19.7285 70.6318 19.5827 70.8916 19.291C71.1559 18.9948 71.2881 18.5846 71.2881 18.0605V17.2949L71.1582 17.2676C71.0443 17.3587 70.8939 17.4362 70.707 17.5C70.5247 17.5592 70.2604 17.6185 69.9141 17.6777C69.5039 17.7461 69.2077 17.8646 69.0254 18.0332C68.8477 18.1973 68.7588 18.432 68.7588 18.7373C68.7588 19.0609 68.8545 19.307 69.0459 19.4756C69.2373 19.6442 69.5039 19.7285 69.8457 19.7285ZM75.3486 21V13.46H77.167V14.5674L77.3105 14.6016C77.7799 13.7448 78.541 13.3164 79.5938 13.3164C80.4642 13.3164 81.1022 13.5534 81.5078 14.0273C81.918 14.5013 82.123 15.1917 82.123 16.0986V21H80.2295V16.3311C80.2295 15.8298 80.1292 15.4697 79.9287 15.251C79.7282 15.0277 79.4069 14.916 78.9648 14.916C78.4225 14.916 77.9987 15.0915 77.6934 15.4424C77.3926 15.7933 77.2422 16.3447 77.2422 17.0967V21H75.3486ZM86.6211 21.1436C86.1061 21.1436 85.6344 21.0843 85.2061 20.9658C84.7777 20.8428 84.4108 20.6764 84.1055 20.4668C83.8047 20.2526 83.5814 20.0088 83.4355 19.7354L84.4883 18.6006H84.6318C84.8825 18.9378 85.1787 19.1908 85.5205 19.3594C85.8623 19.528 86.2337 19.6123 86.6348 19.6123C87.0039 19.6123 87.2819 19.5462 87.4688 19.4141C87.6556 19.2819 87.749 19.0928 87.749 18.8467C87.749 18.6553 87.6807 18.4958 87.5439 18.3682C87.4118 18.236 87.1953 18.1335 86.8945 18.0605L85.8965 17.8213C85.1491 17.6436 84.6022 17.3724 84.2559 17.0078C83.9141 16.6387 83.7432 16.1715 83.7432 15.6064C83.7432 15.137 83.8617 14.7292 84.0986 14.3828C84.3402 14.0365 84.6774 13.7721 85.1104 13.5898C85.5479 13.4076 86.056 13.3164 86.6348 13.3164C87.3138 13.3164 87.8766 13.4144 88.3232 13.6104C88.7699 13.8063 89.1185 14.0684 89.3691 14.3965L88.3574 15.4902H88.2207C88.0111 15.2533 87.7741 15.0801 87.5098 14.9707C87.25 14.8613 86.9583 14.8066 86.6348 14.8066C85.8874 14.8066 85.5137 15.0391 85.5137 15.5039C85.5137 15.6999 85.582 15.8594 85.7188 15.9824C85.86 16.1055 86.1061 16.2057 86.457 16.2832L87.3867 16.4883C88.1523 16.6523 88.7106 16.9167 89.0615 17.2812C89.417 17.6413 89.5947 18.1266 89.5947 18.7373C89.5947 19.2158 89.4762 19.6374 89.2393 20.002C89.0023 20.3665 88.6605 20.6491 88.2139 20.8496C87.7673 21.0456 87.2363 21.1436 86.6211 21.1436Z" fill="#0E1318"/>
</svg>
