<svg width="32" height="32" viewBox="0 0 32 32" fill="none" xmlns="http://www.w3.org/2000/svg">
<path fill-rule="evenodd" clip-rule="evenodd" d="M11.0781 8.72266H15.5215C17.5462 8.72266 19.0159 9.01074 19.9307 9.58691C20.8454 10.1631 21.3027 11.0794 21.3027 12.3359C21.3027 13.1888 21.1025 13.8887 20.7021 14.4355C20.3018 14.9824 19.7695 15.3112 19.1055 15.4219V15.5195C20.0104 15.7214 20.6631 16.099 21.0635 16.6523C21.4639 17.2057 21.6641 17.9414 21.6641 18.8594C21.6641 20.1615 21.1937 21.1771 20.2529 21.9062C19.3122 22.6354 18.0345 23 16.4199 23H11.0781V8.72266ZM14.1055 14.377H15.8633C16.6836 14.377 17.2777 14.25 17.6455 13.9961C18.0133 13.7422 18.1973 13.3223 18.1973 12.7363C18.1973 12.1895 17.9971 11.7972 17.5967 11.5596C17.1963 11.3219 16.5632 11.2031 15.6973 11.2031H14.1055V14.377ZM14.1055 16.7793V20.5H16.0781C16.9115 20.5 17.5267 20.3405 17.9238 20.0215C18.321 19.7025 18.5195 19.2142 18.5195 18.5566C18.5195 17.3717 17.6732 16.7793 15.9805 16.7793H14.1055Z" fill="#0E1318"/>
</svg>
