<svg width="32" height="32" viewBox="0 0 32 32" fill="none" xmlns="http://www.w3.org/2000/svg">
<path fill-rule="evenodd" clip-rule="evenodd" d="M10.5391 9.61279L5.60352 23H7.35694L8.7005 19.1685H14.0383L15.3818 23H17.1353L12.1904 9.61279H11.8193H11.439H10.5391ZM11.439 11.7559H11.2998L9.19824 17.749H13.5405L11.439 11.7559ZM19.5005 15.25C20.5449 15.25 21.4397 14.6096 21.8137 13.7H25.2505C25.6647 13.7 26.0005 13.3642 26.0005 12.95C26.0005 12.5358 25.6647 12.2 25.2505 12.2H21.9398C21.6892 11.0839 20.6923 10.25 19.5005 10.25C18.3087 10.25 17.3118 11.0839 17.0612 12.2H15.7505C15.3363 12.2 15.0005 12.5358 15.0005 12.95C15.0005 13.3642 15.3363 13.7 15.7505 13.7H17.1873C17.5613 14.6096 18.4561 15.25 19.5005 15.25ZM17.5005 19.25C17.5005 18.8358 17.8363 18.5 18.2505 18.5H21.115C21.4335 17.4857 22.3811 16.75 23.5005 16.75C24.8812 16.75 26.0005 17.8693 26.0005 19.25C26.0005 20.6307 24.8812 21.75 23.5005 21.75C22.3811 21.75 21.4335 21.0143 21.115 20H18.2505C17.8363 20 17.5005 19.6642 17.5005 19.25ZM24.7505 19.25C24.7505 19.9404 24.1909 20.5 23.5005 20.5C22.8101 20.5 22.2505 19.9404 22.2505 19.25C22.2505 18.5596 22.8101 18 23.5005 18C24.1909 18 24.7505 18.5596 24.7505 19.25ZM19.5005 14C20.1909 14 20.7505 13.4404 20.7505 12.75C20.7505 12.0596 20.1909 11.5 19.5005 11.5C18.8101 11.5 18.2505 12.0596 18.2505 12.75C18.2505 13.4404 18.8101 14 19.5005 14Z" fill="#0E1318"/>
</svg>
