<svg width="32" height="32" viewBox="0 0 32 32" fill="none" xmlns="http://www.w3.org/2000/svg">
<path fill-rule="evenodd" clip-rule="evenodd" d="M19.7538 8V17.0061C19.7538 18.1807 19.434 19.0906 18.7882 19.729C18.1426 20.3609 17.225 20.6739 16.0428 20.6739C14.8042 20.6739 13.8579 20.3614 13.2119 19.7292C12.566 19.0971 12.2462 18.1934 12.2462 17.0252V8H10.7183V16.9111C10.7183 18.4993 11.1724 19.7417 12.076 20.644C12.9855 21.5461 14.2707 22 15.9381 22C17.6054 22 18.9102 21.5492 19.8581 20.6528C20.8057 19.7566 21.2816 18.524 21.2816 16.9491V8H19.7538ZM10.75 23.5C10.3358 23.5 10 23.8358 10 24.25C10 24.6642 10.3358 25 10.75 25H21.25C21.6642 25 22 24.6642 22 24.25C22 23.8358 21.6642 23.5 21.25 23.5H10.75Z" fill="#0E1318"/>
</svg>
