<svg width="56" height="56" viewBox="0 0 56 56" fill="none" xmlns="http://www.w3.org/2000/svg">
<rect x="0.5" y="0.5" width="55" height="55" rx="3.5" stroke="#2B3B4A" stroke-opacity="0.3" stroke-dasharray="3 3"/>
<path d="M28 21.2188C28.3624 21.2188 28.6562 21.5126 28.6562 21.875V27.3438H34.125C34.4874 27.3438 34.7812 27.6376 34.7812 28C34.7812 28.3624 34.4874 28.6562 34.125 28.6562H28.6562V34.125C28.6562 34.4874 28.3624 34.7812 28 34.7812C27.6376 34.7812 27.3438 34.4874 27.3438 34.125V28.6562H21.875C21.5126 28.6562 21.2188 28.3624 21.2188 28C21.2188 27.6376 21.5126 27.3438 21.875 27.3438H27.3438V21.875C27.3438 21.5126 27.6376 21.2188 28 21.2188Z" fill="#0E1318"/>
</svg>
