<svg width="56" height="56" viewBox="0 0 56 56" fill="none" xmlns="http://www.w3.org/2000/svg">
<path d="M14.2627 4C15.297 4.00015 16.2186 4.65372 16.5605 5.62988L17.3906 8H48C52.4183 8 56 11.5817 56 16V44C56 48.4183 52.4183 52 48 52H8C3.58172 52 1.36616e-06 48.4183 0 44V6.43457C0.000114884 5.09005 1.09005 4.00011 2.43457 4H14.2627Z" fill="#394C60" fill-opacity="0.15"/>
<path d="M0 16C0 13.7909 1.79086 12 4 12H52C54.2091 12 56 13.7909 56 16V44C56 48.4183 52.4183 52 48 52H8C3.58172 52 0 48.4183 0 44V16Z" fill="white" fill-opacity="0.4"/>
<path fill-rule="evenodd" clip-rule="evenodd" d="M0 16C0 14.3431 1.79086 13 4 13H52C54.2091 13 56 14.3431 56 16C56 13.7909 54.2091 12 52 12H4C1.79086 12 0 13.7909 0 16Z" fill="white" fill-opacity="0.9"/>
<path d="M34.875 38.0416C35.2202 38.0416 35.5 38.3214 35.5 38.6666C35.5 39.0118 35.2202 39.2916 34.875 39.2916H21.125C20.7798 39.2916 20.5 39.0118 20.5 38.6666C20.5 38.3214 20.7798 38.0416 21.125 38.0416H34.875ZM28 24.9166C28.3452 24.9166 28.625 25.1964 28.625 25.5416V35.2057L32.2725 31.5582C32.5165 31.3142 32.9122 31.3142 33.1562 31.5582C33.4001 31.8023 33.4002 32.198 33.1562 32.442L29.0312 36.567C28.4618 37.1364 27.5382 37.1363 26.9688 36.567L22.8438 32.442C22.5998 32.198 22.5999 31.8023 22.8438 31.5582C23.0878 31.3142 23.4835 31.3142 23.7275 31.5582L27.375 35.2057V25.5416C27.375 25.1964 27.6548 24.9166 28 24.9166Z" fill="#0E1318"/>
</svg>
