<svg width="56" height="56" viewBox="0 0 56 56" fill="none" xmlns="http://www.w3.org/2000/svg">
<path d="M14.2627 4C15.297 4.00015 16.2186 4.65372 16.5605 5.62988L17.3906 8H48C52.4183 8 56 11.5817 56 16V44C56 48.4183 52.4183 52 48 52H8C3.58172 52 1.36616e-06 48.4183 0 44V6.43457C0.000114884 5.09005 1.09005 4.00011 2.43457 4H14.2627Z" fill="#394C60" fill-opacity="0.15"/>
<path d="M0 16C0 13.7909 1.79086 12 4 12H52C54.2091 12 56 13.7909 56 16V44C56 48.4183 52.4183 52 48 52H8C3.58172 52 0 48.4183 0 44V16Z" fill="white" fill-opacity="0.4"/>
<path fill-rule="evenodd" clip-rule="evenodd" d="M0 16C0 14.3431 1.79086 13 4 13H52C54.2091 13 56 14.3431 56 16C56 13.7909 54.2091 12 52 12H4C1.79086 12 0 13.7909 0 16Z" fill="white" fill-opacity="0.9"/>
</svg>
