<svg width="56" height="56" viewBox="0 0 56 56" fill="none" xmlns="http://www.w3.org/2000/svg">
<path d="M14.2627 4C15.297 4.00015 16.2186 4.65372 16.5605 5.62988L17.3906 8H48C52.4183 8 56 11.5817 56 16V44C56 48.4183 52.4183 52 48 52H8C3.58172 52 1.36616e-06 48.4183 0 44V6.43457C0.000114884 5.09005 1.09005 4.00011 2.43457 4H14.2627Z" fill="#394C60" fill-opacity="0.15"/>
<path d="M0 16C0 13.7909 1.79086 12 4 12H52C54.2091 12 56 13.7909 56 16V44C56 48.4183 52.4183 52 48 52H8C3.58172 52 0 48.4183 0 44V16Z" fill="white" fill-opacity="0.4"/>
<path fill-rule="evenodd" clip-rule="evenodd" d="M0 16C0 14.3431 1.79086 13 4 13H52C54.2091 13 56 14.3431 56 16C56 13.7909 54.2091 12 52 12H4C1.79086 12 0 13.7909 0 16Z" fill="white" fill-opacity="0.9"/>
<path fill-rule="evenodd" clip-rule="evenodd" d="M23.72 40.2651L27.9995 37.6332L32.279 40.2651C32.5626 40.4395 32.904 40.4936 33.2276 40.4153C33.8986 40.2531 34.311 39.5776 34.1488 38.9066L32.9681 34.0233L36.7937 30.7666C37.0472 30.5507 37.2041 30.2427 37.2297 29.9108C37.2827 29.2225 36.7678 28.6215 36.0795 28.5684L31.0703 28.1823L29.1551 23.5376C29.0282 23.2298 28.7838 22.9854 28.476 22.8585C27.8378 22.5953 27.1071 22.8994 26.8439 23.5376L24.9287 28.1823L19.9196 28.5684C19.5876 28.594 19.2796 28.751 19.0638 29.0045C18.6163 29.5301 18.6797 30.319 19.2054 30.7666L23.0309 34.0233L21.8502 38.9066C21.772 39.2302 21.8261 39.5716 22.0005 39.8552C22.3621 40.4432 23.132 40.6267 23.72 40.2651ZM28.6544 36.5684C28.2527 36.3214 27.7463 36.3214 27.3447 36.5684L23.0652 39.2003L24.2459 34.317C24.3567 33.8587 24.2002 33.3771 23.8412 33.0714L20.0156 29.8147L25.0248 29.4286C25.4949 29.3924 25.9046 29.0947 26.0844 28.6588L27.9995 24.0141L29.9147 28.6588C30.0944 29.0947 30.5041 29.3924 30.9742 29.4286L35.9834 29.8147L32.1579 33.0714C31.7988 33.3771 31.6423 33.8587 31.7531 34.317L32.9338 39.2003L28.6544 36.5684Z" fill="#0E1318"/>
</svg>
