<svg width="32" height="32" viewBox="0 0 32 32" fill="none" xmlns="http://www.w3.org/2000/svg">
<g clip-path="url(#clip0_1871_42763)">
<mask id="mask0_1871_42763" style="mask-type:luminance" maskUnits="userSpaceOnUse" x="0" y="0" width="32" height="32">
<path d="M24 0H8C3.58172 0 0 3.58172 0 8V24C0 28.4183 3.58172 32 8 32H24C28.4183 32 32 28.4183 32 24V8C32 3.58172 28.4183 0 24 0Z" fill="white"/>
</mask>
<g mask="url(#mask0_1871_42763)">
<path fill-rule="evenodd" clip-rule="evenodd" d="M8.76486 18.0996C7.79386 18.0996 7.00586 18.8866 7.00586 19.8586V23.1406C7.00586 24.1126 7.79386 24.8996 8.76586 24.8996H12.0469C13.0189 24.8996 13.8069 24.1126 13.8069 23.1406V19.8596C13.8069 18.8876 13.0189 18.1006 12.0469 18.1006L8.76486 18.0996ZM8.76486 16.8496C7.96682 16.8496 7.20147 17.1666 6.63718 17.7309C6.07288 18.2952 5.75586 19.0606 5.75586 19.8586V23.1406C5.75586 23.5358 5.83372 23.9272 5.985 24.2923C6.13628 24.6575 6.35801 24.9892 6.63753 25.2686C6.91705 25.5481 7.24887 25.7697 7.61406 25.9208C7.97924 26.072 8.37063 26.1497 8.76586 26.1496H12.0469C12.4421 26.1497 12.8335 26.072 13.1987 25.9208C13.5638 25.7697 13.8957 25.5481 14.1752 25.2686C14.4547 24.9892 14.6764 24.6575 14.8277 24.2923C14.979 23.9272 15.0569 23.5358 15.0569 23.1406V19.8596C15.0569 19.4644 14.979 19.073 14.8277 18.7079C14.6764 18.3427 14.4547 18.011 14.1752 17.7316C13.8957 17.4521 13.5638 17.2305 13.1987 17.0794C12.8335 16.9282 12.4421 16.8505 12.0469 16.8506L8.76486 16.8496Z" fill="#4A2E7F" fill-opacity="0.8"/>
<path d="M17.3438 21.5C17.3438 21.155 17.6238 20.875 17.9688 20.875H25.2188C25.3845 20.875 25.5435 20.9408 25.6607 21.0581C25.7779 21.1753 25.8438 21.3342 25.8438 21.5C25.8438 21.6658 25.7779 21.8247 25.6607 21.9419C25.5435 22.0592 25.3845 22.125 25.2188 22.125H17.9688C17.803 22.125 17.644 22.0592 17.5268 21.9419C17.4096 21.8247 17.3438 21.6658 17.3438 21.5Z" fill="#4A2E7F" fill-opacity="0.8"/>
<path d="M21.5938 17.25C21.9387 17.25 22.2188 17.53 22.2188 17.875V25.125C22.2188 25.2908 22.1529 25.4497 22.0357 25.5669C21.9185 25.6842 21.7595 25.75 21.5938 25.75C21.428 25.75 21.269 25.6842 21.1518 25.5669C21.0346 25.4497 20.9688 25.2908 20.9688 25.125V17.875C20.9688 17.53 21.2488 17.25 21.5938 17.25Z" fill="#4A2E7F" fill-opacity="0.8"/>
<path fill-rule="evenodd" clip-rule="evenodd" d="M8.76486 7.09961C7.79386 7.09961 7.00586 7.88661 7.00586 8.85861V12.1406C7.00586 13.1126 7.79386 13.8996 8.76586 13.8996H12.0469C13.0189 13.8996 13.8069 13.1126 13.8069 12.1406V8.85961C13.8069 7.88761 13.0189 7.10061 12.0469 7.10061L8.76486 7.09961ZM8.76486 5.84961C7.96682 5.84961 7.20147 6.16663 6.63718 6.73093C6.07288 7.29522 5.75586 8.06057 5.75586 8.85861V12.1406C5.75586 12.5358 5.83372 12.9272 5.985 13.2923C6.13628 13.6575 6.35801 13.9892 6.63753 14.2686C6.91705 14.5481 7.24887 14.7697 7.61406 14.9209C7.97924 15.072 8.37063 15.1497 8.76586 15.1496H12.0469C12.4421 15.1497 12.8335 15.072 13.1987 14.9209C13.5638 14.7697 13.8957 14.5481 14.1752 14.2686C14.4547 13.9892 14.6764 13.6575 14.8277 13.2923C14.979 12.9272 15.0569 12.5358 15.0569 12.1406V8.85961C15.0569 8.46438 14.979 8.07302 14.8277 7.70788C14.6764 7.34275 14.4547 7.011 14.1752 6.73157C13.8957 6.45215 13.5638 6.23053 13.1987 6.07937C12.8335 5.92821 12.4421 5.85048 12.0469 5.85061L8.76486 5.84961ZM19.9529 7.09961C18.9809 7.09961 18.1929 7.88661 18.1929 8.85861V12.1406C18.1929 13.1126 18.9809 13.8996 19.9529 13.8996H23.2349C24.2059 13.8996 24.9939 13.1126 24.9939 12.1406V8.85961C24.9939 7.88761 24.2059 7.10061 23.2339 7.10061L19.9529 7.09961ZM19.9529 5.84961C19.5576 5.84948 19.1662 5.92721 18.8011 6.07837C18.4359 6.22953 18.104 6.45115 17.8245 6.73057C17.545 7.01 17.3233 7.34175 17.172 7.70688C17.0207 8.07202 16.9429 8.46338 16.9429 8.85861V12.1406C16.9429 12.5358 17.0207 12.9272 17.172 13.2923C17.3233 13.6575 17.545 13.9892 17.8245 14.2686C18.104 14.5481 18.4359 14.7697 18.8011 14.9209C19.1662 15.072 19.5576 15.1497 19.9529 15.1496H23.2349C23.63 15.1496 24.0213 15.0718 24.3864 14.9206C24.7514 14.7693 25.0831 14.5477 25.3625 14.2683C25.642 13.9889 25.8636 13.6572 26.0148 13.2921C26.166 12.927 26.2439 12.5358 26.2439 12.1406V8.85961C26.2439 8.46438 26.166 8.07302 26.0147 7.70788C25.8634 7.34275 25.6417 7.011 25.3622 6.73157C25.0827 6.45215 24.7508 6.23053 24.3857 6.07937C24.0205 5.92821 23.6291 5.85048 23.2339 5.85061L19.9529 5.84961Z" fill="#4A2E7F" fill-opacity="0.8"/>
</g>
</g>
<defs>
<clipPath id="clip0_1871_42763">
<rect width="32" height="32" fill="white"/>
</clipPath>
</defs>
</svg>
