<svg width="32" height="32" viewBox="0 0 32 32" fill="none" xmlns="http://www.w3.org/2000/svg">
<g clip-path="url(#clip0_1871_42782)">
<mask id="mask0_1871_42782" style="mask-type:luminance" maskUnits="userSpaceOnUse" x="0" y="0" width="32" height="32">
<path d="M24 0H8C3.58172 0 0 3.58172 0 8V24C0 28.4183 3.58172 32 8 32H24C28.4183 32 32 28.4183 32 24V8C32 3.58172 28.4183 0 24 0Z" fill="white"/>
</mask>
<g mask="url(#mask0_1871_42782)">
<path fill-rule="evenodd" clip-rule="evenodd" d="M5.75 19.884C5.75 19.086 6.06702 18.3206 6.63132 17.7563C7.19561 17.192 7.96096 16.875 8.759 16.875H12.041C12.839 16.875 13.6044 17.192 14.1687 17.7563C14.733 18.3206 15.05 19.086 15.05 19.884V23.166C15.05 23.964 14.733 24.7294 14.1687 25.2937C13.6044 25.858 12.839 26.175 12.041 26.175H8.76C7.96196 26.175 7.19661 25.858 6.63232 25.2937C6.06802 24.7294 5.751 23.964 5.751 23.166L5.75 19.884ZM5.75 8.884C5.75 8.08596 6.06702 7.32061 6.63132 6.75632C7.19561 6.19202 7.96096 5.875 8.759 5.875H12.041C12.839 5.875 13.6044 6.19202 14.1687 6.75632C14.733 7.32061 15.05 8.08596 15.05 8.884V12.166C15.05 12.964 14.733 13.7294 14.1687 14.2937C13.6044 14.858 12.839 15.175 12.041 15.175H8.76C7.96196 15.175 7.19661 14.858 6.63232 14.2937C6.06802 13.7294 5.751 12.964 5.751 12.166L5.75 8.884ZM16.938 8.884C16.938 8.08614 17.2549 7.32094 17.819 6.75667C18.383 6.1924 19.1481 5.87527 19.946 5.875H23.229C24.027 5.875 24.7924 6.19202 25.3567 6.75632C25.921 7.32061 26.238 8.08596 26.238 8.884V12.166C26.238 12.5612 26.1601 12.9526 26.0089 13.3177C25.8576 13.6829 25.6358 14.0146 25.3563 14.294C25.0768 14.5735 24.745 14.7951 24.3798 14.9462C24.0146 15.0974 23.6232 15.1751 23.228 15.175H19.946C19.148 15.175 18.3826 14.858 17.8183 14.2937C17.254 13.7294 16.937 12.964 16.937 12.166L16.938 8.884Z" fill="#7731D8"/>
<path d="M17.3369 21.5254C17.3369 21.1804 17.6169 20.9004 17.9619 20.9004H25.2119C25.3777 20.9004 25.5366 20.9662 25.6539 21.0834C25.7711 21.2007 25.8369 21.3596 25.8369 21.5254C25.8369 21.6912 25.7711 21.8501 25.6539 21.9673C25.5366 22.0845 25.3777 22.1504 25.2119 22.1504H17.9619C17.7962 22.1504 17.6372 22.0845 17.52 21.9673C17.4028 21.8501 17.3369 21.6912 17.3369 21.5254Z" fill="#7731D8"/>
<path d="M21.5869 17.2754C21.9329 17.2754 22.2119 17.5554 22.2119 17.9004V25.1504C22.2119 25.3162 22.1461 25.4751 22.0289 25.5923C21.9116 25.7095 21.7527 25.7754 21.5869 25.7754C21.4212 25.7754 21.2622 25.7095 21.145 25.5923C21.0278 25.4751 20.9619 25.3162 20.9619 25.1504V17.9004C20.9619 17.5554 21.2419 17.2754 21.5869 17.2754Z" fill="#7731D8"/>
</g>
</g>
<defs>
<clipPath id="clip0_1871_42782">
<rect width="32" height="32" fill="white"/>
</clipPath>
</defs>
</svg>
