<svg width="32" height="33" viewBox="0 0 32 33" fill="none" xmlns="http://www.w3.org/2000/svg">
<path fill-rule="evenodd" clip-rule="evenodd" d="M15.4053 19.2752C15.4053 18.3377 15.7777 17.4386 16.4407 16.7756C17.1036 16.1127 18.0027 15.7402 18.9403 15.7402C19.8778 15.7402 20.777 16.1127 21.4399 16.7756C22.1028 17.4386 22.4753 18.3377 22.4753 19.2752C22.4753 20.2128 22.1028 21.1119 21.4399 21.7749C20.777 22.4378 19.8778 22.8102 18.9403 22.8102C18.0027 22.8102 17.1036 22.4378 16.4407 21.7749C15.7777 21.1119 15.4053 20.2128 15.4053 19.2752ZM18.9403 17.2402C18.4006 17.2402 17.8829 17.4546 17.5013 17.8363C17.1197 18.2179 16.9053 18.7355 16.9053 19.2752C16.9053 19.8149 17.1197 20.3326 17.5013 20.7142C17.8829 21.0958 18.4006 21.3102 18.9403 21.3102C19.48 21.3102 19.9976 21.0958 20.3792 20.7142C20.7609 20.3326 20.9753 19.8149 20.9753 19.2752C20.9753 18.7355 20.7609 18.2179 20.3792 17.8363C19.9976 17.4546 19.48 17.2402 18.9403 17.2402Z" fill="#4A2E7F" fill-opacity="0.8"/>
<path d="M10.716 19.2759C10.716 18.8987 10.8209 18.529 11.0188 18.2079C11.2168 17.8869 11.5001 17.6272 11.8371 17.4578C12.1741 17.2885 12.5515 17.2161 12.9273 17.2487C13.303 17.2814 13.6623 17.4179 13.965 17.6429C14.1245 17.7617 14.3247 17.8123 14.5215 17.7835C14.7183 17.7547 14.8957 17.6489 15.0145 17.4894C15.1333 17.3298 15.1839 17.1296 15.1551 16.9328C15.1263 16.736 15.0205 16.5587 14.861 16.4399C14.3362 16.0491 13.7132 15.8117 13.0615 15.754C12.4098 15.6963 11.7548 15.8206 11.1695 16.1131C10.5843 16.4056 10.0917 16.8548 9.74657 17.4107C9.40147 17.9665 9.2174 18.6073 9.21487 19.2616C9.21234 19.9158 9.39144 20.558 9.73224 21.1165C10.073 21.675 10.5621 22.128 11.1451 22.425C11.7281 22.722 12.3821 22.8514 13.0343 22.7988C13.6864 22.7461 14.3112 22.5135 14.839 22.1269C14.9994 22.0092 15.1066 21.8327 15.1369 21.6361C15.1672 21.4394 15.1181 21.2388 15.0005 21.0784C14.9422 20.9989 14.8689 20.9317 14.7847 20.8806C14.7005 20.8295 14.607 20.7955 14.5097 20.7805C14.313 20.7502 14.1124 20.7992 13.952 20.9169C13.6486 21.1386 13.2898 21.2721 12.9153 21.3024C12.5408 21.3327 12.1652 21.2588 11.8301 21.0888C11.4951 20.9188 11.2136 20.6593 11.017 20.3391C10.8203 20.019 10.7161 19.6516 10.716 19.2759Z" fill="#4A2E7F" fill-opacity="0.8"/>
<path fill-rule="evenodd" clip-rule="evenodd" d="M6.1507 12.2866L13.1707 6.39664C13.7031 5.94984 14.3182 5.61229 14.981 5.40325C15.6439 5.19421 16.3414 5.11778 17.0337 5.17832C17.7261 5.23887 18.3998 5.4352 19.0162 5.75611C19.6327 6.07702 20.18 6.51622 20.6267 7.04864L20.8987 7.37264C21.8291 7.52244 22.7026 7.91809 23.4289 8.51865C24.1552 9.11922 24.7078 9.90289 25.0297 10.7886L25.4787 12.0196C26.2529 12.4921 26.8927 13.1557 27.3364 13.9467C27.7802 14.7378 28.0131 15.6296 28.0127 16.5366V21.9526C28.0127 22.6476 27.8758 23.3357 27.6099 23.9778C27.3439 24.6199 26.9541 25.2032 26.4627 25.6946C25.9713 26.1861 25.3879 26.5759 24.7459 26.8418C24.1038 27.1078 23.4157 27.2446 22.7207 27.2446H9.3047C7.90117 27.2446 6.55513 26.6871 5.56269 25.6946C4.57024 24.7022 4.0127 23.3562 4.0127 21.9526V16.5366C4.0127 14.7966 4.8527 13.2506 6.1507 12.2866ZM10.8167 10.3296L14.1357 7.54564C14.7964 6.99141 15.6262 6.67881 16.4884 6.65936C17.3506 6.63991 18.1937 6.91476 18.8787 7.43864C18.6725 7.51412 18.4617 7.57658 18.2477 7.62564L7.5987 11.5006L10.8167 10.3296ZM23.6287 11.3226L23.6207 11.3016C23.4504 10.8337 23.1897 10.4038 22.8533 10.0366C22.5169 9.66944 22.1115 9.3721 21.6602 9.16159C21.2089 8.95108 20.7206 8.83152 20.2231 8.80974C19.7256 8.78795 19.2287 8.86438 18.7607 9.03464L12.6877 11.2446H22.7207C23.0307 11.2446 23.3337 11.2716 23.6287 11.3226ZM9.3047 12.7446H22.7197C23.7254 12.7446 24.6899 13.1442 25.401 13.8553C26.1122 14.5664 26.5117 15.5309 26.5117 16.5366V21.9526C26.5117 22.9583 26.1122 23.9228 25.401 24.634C24.6899 25.3451 23.7254 25.7446 22.7197 25.7446H9.3047C8.29899 25.7446 7.33448 25.3451 6.62335 24.634C5.91221 23.9228 5.5127 22.9583 5.5127 21.9526V16.5366C5.5127 15.5309 5.91221 14.5664 6.62335 13.8553C7.33448 13.1442 8.29899 12.7446 9.3047 12.7446Z" fill="#4A2E7F" fill-opacity="0.8"/>
</svg>
