<svg width="32" height="33" viewBox="0 0 32 33" fill="none" xmlns="http://www.w3.org/2000/svg">
<path fill-rule="evenodd" clip-rule="evenodd" d="M9.6607 9.34064L6.1507 12.2866C5.48686 12.7786 4.94764 13.4193 4.57633 14.1574C4.20502 14.8955 4.01198 15.7104 4.0127 16.5366V21.9526C4.0127 23.3562 4.57025 24.7022 5.56269 25.6946C6.55513 26.6871 7.90117 27.2446 9.3047 27.2446H22.7197C24.1232 27.2446 25.4693 26.6871 26.4617 25.6946C27.4541 24.7022 28.0117 23.3562 28.0117 21.9526V16.5366C28.0121 15.6296 27.7792 14.7378 27.3354 13.9467C26.8917 13.1557 26.2519 12.4921 25.4777 12.0196L25.0297 10.7886C24.7077 9.90276 24.1549 9.119 23.4285 8.51842C22.702 7.91785 21.8283 7.52228 20.8977 7.37264L20.6257 7.04864C20.179 6.51622 19.6317 6.07702 19.0152 5.75611C18.3988 5.4352 17.7251 5.23887 17.0327 5.17832C16.3404 5.11778 15.6429 5.19421 14.98 5.40325C14.3172 5.61229 13.7021 5.94984 13.1697 6.39664L9.6607 9.34064ZM14.1357 7.54564L10.8167 10.3296L7.5987 11.5006L18.2477 7.62564C18.4537 7.55042 18.6641 7.48797 18.8777 7.43864C18.1927 6.91502 17.3499 6.64031 16.4879 6.65976C15.626 6.67921 14.7963 6.99165 14.1357 7.54564ZM23.6197 11.3006L23.6277 11.3216C23.3278 11.2697 23.024 11.2437 22.7197 11.2436H12.6877L18.7607 9.03364C19.2287 8.86338 19.7256 8.78695 20.2231 8.80874C20.7206 8.83052 21.2089 8.95008 21.6602 9.16059C22.1115 9.3711 22.5169 9.66844 22.8533 10.0356C23.1897 10.4028 23.4494 10.8327 23.6197 11.3006ZM18.9387 15.7406C18.0012 15.7406 17.102 16.1131 16.4391 16.776C15.7761 17.439 15.4037 18.3381 15.4037 19.2756C15.4037 20.2132 15.7761 21.1123 16.4391 21.7753C17.102 22.4382 18.0012 22.8106 18.9387 22.8106C19.8762 22.8106 20.7754 22.4382 21.4383 21.7753C22.1013 21.1123 22.4737 20.2132 22.4737 19.2756C22.4737 18.3381 22.1013 17.439 21.4383 16.776C20.7754 16.1131 19.8762 15.7406 18.9387 15.7406ZM16.9037 19.2756C16.9037 18.7359 17.1181 18.2183 17.4997 17.8367C17.8814 17.455 18.399 17.2406 18.9387 17.2406C19.4784 17.2406 19.996 17.455 20.3777 17.8367C20.7593 18.2183 20.9737 18.7359 20.9737 19.2756C20.9737 19.8154 20.7593 20.333 20.3777 20.7146C19.996 21.0962 19.4784 21.3106 18.9387 21.3106C18.399 21.3106 17.8814 21.0962 17.4997 20.7146C17.1181 20.333 16.9037 19.8154 16.9037 19.2756ZM12.7497 17.2406C12.4282 17.2406 12.1113 17.3168 11.825 17.4628C11.5386 17.6089 11.2909 17.8207 11.1022 18.0809C10.9135 18.3412 10.7891 18.6424 10.7392 18.96C10.6894 19.2775 10.7154 19.6024 10.8153 19.9079C10.9152 20.2135 11.086 20.491 11.3139 20.7178C11.5417 20.9446 11.82 21.1142 12.126 21.2127C12.432 21.3112 12.757 21.3359 13.0743 21.2846C13.3916 21.2333 13.6923 21.1075 13.9517 20.9176C14.1122 20.8 14.3128 20.7509 14.5094 20.7812C14.706 20.8115 14.8826 20.9187 15.0002 21.0791C15.1178 21.2396 15.1669 21.4402 15.1366 21.6368C15.1063 21.8335 14.9992 22.01 14.8387 22.1276C14.3109 22.5143 13.6861 22.7469 13.034 22.7996C12.3818 22.8522 11.7278 22.7228 11.1449 22.4258C10.5619 22.1288 10.0728 21.6758 9.73196 21.1173C9.39116 20.5588 9.21206 19.9166 9.21459 19.2623C9.21712 18.6081 9.40119 17.9673 9.7463 17.4115C10.0914 16.8556 10.584 16.4064 11.1693 16.1139C11.7545 15.8214 12.4095 15.6971 13.0612 15.7548C13.713 15.8125 14.3359 16.0499 14.8607 16.4406C14.9432 16.4981 15.0134 16.5715 15.0669 16.6566C15.1205 16.7417 15.1564 16.8367 15.1725 16.9359C15.1887 17.0352 15.1847 17.1366 15.1608 17.2343C15.1369 17.332 15.0937 17.4238 15.0336 17.5045C14.9735 17.5851 14.8978 17.6528 14.811 17.7035C14.7242 17.7543 14.6281 17.7871 14.5284 17.8C14.4287 17.8129 14.3274 17.8056 14.2306 17.7786C14.1337 17.7516 14.0433 17.7053 13.9647 17.6426C13.6142 17.3808 13.1882 17.2398 12.7507 17.2406H12.7497Z" fill="#7731D8"/>
</svg>
