<svg width="32" height="32" viewBox="0 0 32 32" fill="none" xmlns="http://www.w3.org/2000/svg">
<path d="M12.8 7.48497C10.546 7.28897 9.30499 6.49997 8.64499 4.93497C8.40699 4.36997 8.23899 3.71097 8.13299 2.93497C8.12834 2.86586 8.09885 2.80076 8.04996 2.75169C8.00107 2.70262 7.93609 2.67288 7.86699 2.66797C7.79788 2.67262 7.73278 2.70211 7.68371 2.751C7.63464 2.79989 7.6049 2.86487 7.59999 2.93397C7.49399 3.71097 7.32699 4.36997 7.08899 4.93397C6.42799 6.49997 5.18799 7.28897 2.93299 7.48397C2.86374 7.48891 2.79862 7.51879 2.74971 7.56806C2.7008 7.61734 2.67141 7.68268 2.66699 7.75197C2.66699 7.88497 2.79999 8.01797 2.93299 8.01797C5.73299 8.55197 7.19999 9.60097 7.59999 12.534C7.59999 12.668 7.73299 12.801 7.86699 12.801C7.93609 12.7961 8.00107 12.7663 8.04996 12.7172C8.09885 12.6682 8.12834 12.6031 8.13299 12.534C8.53299 9.60097 9.99999 8.55197 12.8 8.01797C12.8691 8.01332 12.9342 7.98382 12.9833 7.93494C13.0323 7.88605 13.0621 7.82106 13.067 7.75197C13.0623 7.6827 13.0327 7.61747 12.9836 7.56838C12.9345 7.51928 12.8693 7.48965 12.8 7.48497Z" fill="url(#paint0_linear_1834_42800)"/>
<path d="M25.9576 15.8203C20.6246 14.7533 18.3236 12.1813 17.2566 6.98133C17.2206 6.84065 17.1391 6.71582 17.0248 6.62628C16.9105 6.53675 16.7698 6.48754 16.6246 6.48633C16.4782 6.48754 16.3365 6.53759 16.2218 6.62853C16.1071 6.71948 16.0261 6.8461 15.9916 6.98833C16.0016 6.96833 15.9796 6.99633 15.9916 6.98833C14.9246 12.3213 12.4916 14.7533 7.29157 15.8203C7.11927 15.827 6.95625 15.9001 6.83671 16.0244C6.71717 16.1487 6.65039 16.3144 6.65039 16.4868C6.65039 16.6593 6.71717 16.825 6.83671 16.9492C6.95625 17.0735 7.11927 17.1467 7.29157 17.1533C12.6246 18.2203 14.9146 20.7373 15.9816 25.9373C16.0386 26.2473 16.2976 26.4873 16.6246 26.4873C16.7735 26.486 16.9175 26.4341 17.0331 26.3402C17.1486 26.2462 17.2288 26.1158 17.2606 25.9703C17.2686 25.9603 17.2546 25.9833 17.2606 25.9703C18.3276 20.6373 20.7576 18.2203 25.9576 17.1533C26.1299 17.1467 26.2929 17.0735 26.4124 16.9492C26.532 16.825 26.5987 16.6593 26.5987 16.4868C26.5987 16.3144 26.532 16.1487 26.4124 16.0244C26.2929 15.9001 26.1299 15.827 25.9576 15.8203Z" fill="url(#paint1_linear_1834_42800)"/>
<path d="M28.6205 7.73314C28.6205 7.62114 28.5385 7.54614 28.4275 7.52514L28.3545 7.50714C26.7965 7.10214 25.8525 6.14214 25.5895 4.69714C25.5892 4.64321 25.5676 4.59158 25.5294 4.55354C25.4912 4.5155 25.4394 4.49414 25.3855 4.49414V4.49814C25.2735 4.49814 25.1995 4.58114 25.1775 4.69114L25.1605 4.76514C24.7545 6.32314 23.7945 7.26714 22.3505 7.53014C22.2966 7.53014 22.2448 7.5515 22.2066 7.58954C22.1684 7.62758 22.1467 7.67921 22.1465 7.73314H22.1505C22.1505 7.84614 22.2335 7.92014 22.3435 7.94114L22.4175 7.95914C23.9755 8.36514 24.9195 9.32414 25.1825 10.7691C25.1825 10.8821 25.2735 10.9731 25.3855 10.9731V10.9681C25.4985 10.9681 25.5725 10.8861 25.5935 10.7751L25.6115 10.7011C26.0175 9.14414 26.9775 8.20014 28.4215 7.93714C28.4481 7.93715 28.4744 7.93184 28.499 7.92154C28.5235 7.91124 28.5457 7.89615 28.5643 7.87715C28.583 7.85816 28.5976 7.83564 28.6074 7.81091C28.6172 7.78618 28.621 7.75974 28.6205 7.73314Z" fill="url(#paint2_linear_1834_42800)"/>
<path d="M10.5581 24.9536C9.22507 24.5536 8.44807 23.9106 8.18207 22.5776C8.18207 22.5006 8.15146 22.4267 8.09698 22.3722C8.04251 22.3177 7.96862 22.2871 7.89157 22.2871C7.81452 22.2871 7.74064 22.3177 7.68616 22.3722C7.63168 22.4267 7.60107 22.5006 7.60107 22.5776C7.20107 23.9106 6.55807 24.6876 5.22507 24.9536C5.14802 24.9536 5.07414 24.9842 5.01966 25.0387C4.96518 25.0932 4.93457 25.1671 4.93457 25.2441C4.93457 25.3212 4.96518 25.395 5.01966 25.4495C5.07414 25.504 5.14802 25.5346 5.22507 25.5346C6.55807 25.9346 7.33507 26.5776 7.60107 27.9106C7.60107 27.9877 7.63168 28.0615 7.68616 28.116C7.74064 28.1705 7.81452 28.2011 7.89157 28.2011C7.96862 28.2011 8.04251 28.1705 8.09698 28.116C8.15146 28.0615 8.18207 27.9877 8.18207 27.9106C8.58207 26.5776 9.22507 25.8006 10.5581 25.5346C10.6351 25.5346 10.709 25.504 10.7635 25.4495C10.818 25.395 10.8486 25.3212 10.8486 25.2441C10.8486 25.1671 10.818 25.0932 10.7635 25.0387C10.709 24.9842 10.6351 24.9536 10.5581 24.9536Z" fill="url(#paint3_linear_1834_42800)"/>
<defs>
<linearGradient id="paint0_linear_1834_42800" x1="-10.31" y1="15.435" x2="15.221" y2="41.386" gradientUnits="userSpaceOnUse">
<stop stop-color="#03A5AB"/>
<stop offset="1" stop-color="#8B3DFF"/>
</linearGradient>
<linearGradient id="paint1_linear_1834_42800" x1="-10.3104" y1="15.4343" x2="15.2206" y2="41.3853" gradientUnits="userSpaceOnUse">
<stop stop-color="#03A5AB"/>
<stop offset="1" stop-color="#8B3DFF"/>
</linearGradient>
<linearGradient id="paint2_linear_1834_42800" x1="-10.3095" y1="15.4341" x2="15.2215" y2="41.3851" gradientUnits="userSpaceOnUse">
<stop stop-color="#03A5AB"/>
<stop offset="1" stop-color="#8B3DFF"/>
</linearGradient>
<linearGradient id="paint3_linear_1834_42800" x1="-10.3099" y1="15.4336" x2="15.2211" y2="41.3846" gradientUnits="userSpaceOnUse">
<stop stop-color="#03A5AB"/>
<stop offset="1" stop-color="#8B3DFF"/>
</linearGradient>
</defs>
</svg>
