<svg width="32" height="32" viewBox="0 0 32 32" fill="none" xmlns="http://www.w3.org/2000/svg">
<path fill-rule="evenodd" clip-rule="evenodd" d="M23.568 16.491C21.76 15.896 20.284 15.038 19.108 13.819C17.978 12.648 17.191 11.209 16.629 9.50897C16.054 11.259 15.239 12.713 14.081 13.884C12.905 15.074 11.442 15.903 9.68599 16.483C11.488 17.071 12.961 17.918 14.134 19.125C15.273 20.297 16.062 21.74 16.624 23.454C17.2 21.704 18.015 20.252 19.172 19.084C20.349 17.894 21.812 17.069 23.568 16.491ZM17.262 25.971C17.2303 26.1165 17.1501 26.2469 17.0345 26.3408C16.9189 26.4347 16.7749 26.4866 16.626 26.488C16.4712 26.4867 16.3218 26.4309 16.2042 26.3303C16.0865 26.2296 16.0082 26.0907 15.983 25.938C14.916 20.738 12.626 18.221 7.29299 17.154C7.12069 17.1473 6.95767 17.0742 6.83813 16.9499C6.71859 16.8256 6.65181 16.6599 6.65181 16.4875C6.65181 16.315 6.71859 16.1493 6.83813 16.025C6.95767 15.9008 7.12069 15.8276 7.29299 15.821C12.078 14.839 14.521 12.701 15.711 8.20897L15.713 8.19897C15.815 7.81397 15.908 7.40997 15.993 6.98897C16.0337 6.82292 16.1375 6.67927 16.2824 6.58853C16.4273 6.49778 16.6018 6.46709 16.769 6.50297C16.8865 6.53086 16.9941 6.59031 17.0803 6.6749C17.1665 6.75949 17.2279 6.86601 17.258 6.98297C18.324 12.183 20.626 14.754 25.959 15.821C26.1313 15.8276 26.2943 15.9008 26.4139 16.025C26.5334 16.1493 26.6002 16.315 26.6002 16.4875C26.6002 16.6599 26.5334 16.8256 26.4139 16.9499C26.2943 17.0742 26.1313 17.1473 25.959 17.154C20.759 18.221 18.329 20.638 17.262 25.972V25.971ZM27.154 8.41797C27.264 8.34797 27.378 8.28597 27.497 8.22997C27.7908 8.09158 28.102 7.99336 28.422 7.93797C28.4485 7.93797 28.4748 7.9327 28.4992 7.92246C28.5237 7.91222 28.5459 7.89722 28.5645 7.87833C28.5831 7.85944 28.5978 7.83704 28.6076 7.81243C28.6175 7.78781 28.6224 7.76148 28.622 7.73497C28.622 7.62197 28.539 7.54797 28.428 7.52697L28.397 7.51897C28.3793 7.51487 28.3616 7.51054 28.344 7.50597C28.0592 7.43242 27.7817 7.33301 27.515 7.20897C27.3907 7.15063 27.2696 7.08588 27.152 7.01497C26.6003 6.68771 26.1582 6.2039 25.882 5.62497C25.7582 5.36194 25.6665 5.08494 25.609 4.79997L25.604 4.77397C25.5991 4.74901 25.5944 4.72401 25.59 4.69897C25.59 4.64486 25.5685 4.59298 25.5302 4.55472C25.492 4.51646 25.4401 4.49497 25.386 4.49497V4.49897C25.274 4.49897 25.199 4.58197 25.178 4.69297L25.171 4.72297C25.1666 4.74104 25.1619 4.75904 25.157 4.77697C25.084 5.06102 24.9852 5.33783 24.862 5.60397C24.802 5.73197 24.737 5.85397 24.667 5.96897C24.3395 6.52083 23.8553 6.96288 23.276 7.23897C22.9818 7.37743 22.6704 7.47565 22.35 7.53097C22.2959 7.53097 22.244 7.55246 22.2057 7.59072C22.1675 7.62898 22.146 7.68086 22.146 7.73497H22.151C22.151 7.84697 22.234 7.92197 22.344 7.94297L22.375 7.94997L22.418 7.95997L22.428 7.96297C22.728 8.04197 23.003 8.14097 23.256 8.25897C23.383 8.31897 23.505 8.38397 23.621 8.45397C24.1728 8.7815 24.6149 9.26566 24.891 9.84497C25.0144 10.1077 25.1057 10.3844 25.163 10.669L25.168 10.695L25.183 10.771C25.1833 10.8247 25.2047 10.8762 25.2427 10.9142C25.2808 10.9522 25.3322 10.9737 25.386 10.974V10.97C25.499 10.97 25.573 10.887 25.594 10.777L25.602 10.746C25.6061 10.7279 25.6104 10.7099 25.615 10.692C25.693 10.394 25.792 10.118 25.911 9.86497C25.971 9.73797 26.035 9.61597 26.105 9.49997C26.365 9.06173 26.7248 8.69102 27.155 8.41797H27.154ZM9.52999 25.918C9.60599 25.871 9.68499 25.829 9.76899 25.79C10.0204 25.6718 10.2859 25.5865 10.559 25.536C10.6359 25.536 10.7097 25.5054 10.7641 25.451C10.8184 25.3966 10.849 25.3229 10.849 25.246C10.849 25.1691 10.8184 25.0953 10.7641 25.0409C10.7097 24.9865 10.6359 24.956 10.559 24.956C10.2974 24.8774 10.0415 24.7812 9.79299 24.668C9.70462 24.6263 9.61789 24.5813 9.53299 24.533C9.05446 24.2699 8.67072 23.863 8.43599 23.37C8.31822 23.1185 8.23319 22.853 8.18299 22.58C8.18299 22.5029 8.15239 22.429 8.09791 22.3746C8.04343 22.3201 7.96954 22.2895 7.89249 22.2895C7.81545 22.2895 7.74156 22.3201 7.68708 22.3746C7.6326 22.429 7.60199 22.5029 7.60199 22.58C7.52619 22.8424 7.42989 23.0986 7.31399 23.346C7.27234 23.4337 7.22731 23.5197 7.17899 23.604C6.91611 24.0829 6.50924 24.467 6.01599 24.702C5.76459 24.8198 5.49908 24.9048 5.22599 24.955C5.14895 24.955 5.07506 24.9856 5.02058 25.0401C4.9661 25.0945 4.93549 25.1684 4.93549 25.2455C4.93549 25.3225 4.9661 25.3964 5.02058 25.4509C5.07506 25.5054 5.14895 25.536 5.22599 25.536L5.34999 25.575C5.58099 25.649 5.79499 25.731 5.99099 25.825C6.08099 25.867 6.16799 25.912 6.25099 25.959C6.72956 26.222 7.11332 26.6289 7.34799 27.122C7.46615 27.3733 7.55152 27.6388 7.60199 27.912C7.60199 27.9889 7.63255 28.0626 7.68693 28.117C7.74132 28.1714 7.81508 28.202 7.89199 28.202C7.96891 28.202 8.04267 28.1714 8.09705 28.117C8.15144 28.0626 8.18199 27.9889 8.18199 27.912L8.22199 27.789C8.29499 27.557 8.37799 27.343 8.47099 27.147C8.51299 27.057 8.55799 26.97 8.60599 26.887C8.84199 26.475 9.13999 26.154 9.52999 25.918ZM11.115 8.47097C9.86099 8.94297 9.01499 9.67797 8.52899 10.925C8.43807 11.1606 8.36224 11.4017 8.30199 11.647C8.22969 11.9396 8.1736 12.2361 8.13399 12.535C8.12911 12.6039 8.09952 12.6688 8.05065 12.7176C8.00178 12.7665 7.93693 12.7961 7.86799 12.801C7.79888 12.7963 7.73378 12.7668 7.68471 12.7179C7.63564 12.669 7.6059 12.6041 7.60099 12.535C7.55966 12.2364 7.50359 11.94 7.43299 11.647C7.37274 11.4017 7.29692 11.1606 7.20599 10.925C6.71999 9.67797 5.87399 8.94297 4.61999 8.47097C4.35353 8.37157 4.08218 8.28579 3.80699 8.21397C3.51838 8.13872 3.2272 8.07368 2.93399 8.01897C2.86472 8.01429 2.79949 7.98466 2.7504 7.93556C2.70131 7.88647 2.67167 7.82124 2.66699 7.75197C2.66699 7.61897 2.80099 7.48497 2.93399 7.48497L3.03799 7.47497C3.32199 7.44797 3.58999 7.41097 3.84199 7.36397C4.13199 7.30897 4.40299 7.24097 4.65399 7.15897C5.85999 6.76497 6.61999 6.04497 7.08899 4.93497C7.13267 4.8315 7.17335 4.72679 7.21099 4.62097C7.29899 4.37397 7.37499 4.10897 7.44099 3.82497C7.50788 3.5309 7.56127 3.23392 7.60099 2.93497C7.60099 2.80097 7.73399 2.66797 7.86799 2.66797C8.00099 2.66797 8.13399 2.80097 8.13399 2.93497C8.17506 3.23371 8.22844 3.53063 8.29399 3.82497C8.35999 4.10897 8.43599 4.37397 8.52399 4.62097C8.56199 4.72897 8.60299 4.83297 8.64599 4.93497C9.11399 6.04497 9.87399 6.76497 11.081 7.15897C11.332 7.24097 11.602 7.30897 11.893 7.36397C12.1934 7.41947 12.4965 7.45986 12.801 7.48497C12.934 7.48497 13.068 7.61897 13.068 7.75197C13.0633 7.82124 13.0337 7.88647 12.9846 7.93556C12.9355 7.98466 12.8703 8.01429 12.801 8.01897C12.5079 8.07412 12.2167 8.13916 11.928 8.21397C11.64 8.28997 11.368 8.37497 11.115 8.47097Z" fill="#6D5598"/>
</svg>
