<svg width="24" height="24" viewBox="0 0 24 24" fill="none" xmlns="http://www.w3.org/2000/svg">
<path d="M4 6C4 5.80109 4.07902 5.61032 4.21967 5.46967C4.36032 5.32902 4.55109 5.25 4.75 5.25H19.25C19.4489 5.25 19.6397 5.32902 19.7803 5.46967C19.921 5.61032 20 5.80109 20 6C20 6.19891 19.921 6.38968 19.7803 6.53033C19.6397 6.67098 19.4489 6.75 19.25 6.75H4.75C4.55109 6.75 4.36032 6.67098 4.21967 6.53033C4.07902 6.38968 4 6.19891 4 6ZM4 12C4 11.8011 4.07902 11.6103 4.21967 11.4697C4.36032 11.329 4.55109 11.25 4.75 11.25H19.25C19.4489 11.25 19.6397 11.329 19.7803 11.4697C19.921 11.6103 20 11.8011 20 12C20 12.1989 19.921 12.3897 19.7803 12.5303C19.6397 12.671 19.4489 12.75 19.25 12.75H4.75C4.55109 12.75 4.36032 12.671 4.21967 12.5303C4.07902 12.3897 4 12.1989 4 12ZM4.75 17.25C4.55109 17.25 4.36032 17.329 4.21967 17.4697C4.07902 17.6103 4 17.8011 4 18C4 18.1989 4.07902 18.3897 4.21967 18.5303C4.36032 18.671 4.55109 18.75 4.75 18.75H19.25C19.4489 18.75 19.6397 18.671 19.7803 18.5303C19.921 18.3897 20 18.1989 20 18C20 17.8011 19.921 17.6103 19.7803 17.4697C19.6397 17.329 19.4489 17.25 19.25 17.25H4.75Z" fill="#4A2E7F" fill-opacity="0.8"/>
</svg>
