<svg width="24" height="24" viewBox="0 0 24 24" fill="none" xmlns="http://www.w3.org/2000/svg">
<path d="M4 6C4 5.80109 4.07902 5.61032 4.21967 5.46967C4.36032 5.32902 4.55109 5.25 4.75 5.25H13.25C13.4489 5.25 13.6397 5.32902 13.7803 5.46967C13.921 5.61032 14 5.80109 14 6C14 6.19891 13.921 6.38968 13.7803 6.53033C13.6397 6.67098 13.4489 6.75 13.25 6.75H4.75C4.55109 6.75 4.36032 6.67098 4.21967 6.53033C4.07902 6.38968 4 6.19891 4 6ZM4 12C4 11.8011 4.07902 11.6103 4.21967 11.4697C4.36032 11.329 4.55109 11.25 4.75 11.25H13.25C13.4489 11.25 13.6397 11.329 13.7803 11.4697C13.921 11.6103 14 11.8011 14 12C14 12.1989 13.921 12.3897 13.7803 12.5303C13.6397 12.671 13.4489 12.75 13.25 12.75H4.75C4.55109 12.75 4.36032 12.671 4.21967 12.5303C4.07902 12.3897 4 12.1989 4 12ZM4 18C4 17.8011 4.07902 17.6103 4.21967 17.4697C4.36032 17.329 4.55109 17.25 4.75 17.25H13.25C13.4489 17.25 13.6397 17.329 13.7803 17.4697C13.921 17.6103 14 17.8011 14 18C14 18.1989 13.921 18.3897 13.7803 18.5303C13.6397 18.671 13.4489 18.75 13.25 18.75H4.75C4.55109 18.75 4.36032 18.671 4.21967 18.5303C4.07902 18.3897 4 18.1989 4 18ZM20.78 16.53C20.7104 16.5997 20.6276 16.655 20.5366 16.6927C20.4456 16.7304 20.348 16.7498 20.2495 16.7498C20.151 16.7498 20.0534 16.7304 19.9624 16.6927C19.8714 16.655 19.7887 16.5997 19.719 16.53L16.426 13.237C16.0981 12.9088 15.9139 12.4639 15.9139 12C15.9139 11.5361 16.0981 11.0912 16.426 10.763L19.72 7.47C19.8622 7.33752 20.0502 7.2654 20.2445 7.26883C20.4388 7.27225 20.6242 7.35097 20.7616 7.48838C20.899 7.62579 20.9777 7.81118 20.9812 8.00548C20.9846 8.19978 20.9125 8.38782 20.78 8.53L17.488 11.823C17.4647 11.8462 17.4462 11.8738 17.4336 11.9042C17.421 11.9346 17.4146 11.9671 17.4146 12C17.4146 12.0329 17.421 12.0654 17.4336 12.0958C17.4462 12.1262 17.4647 12.1538 17.488 12.177L20.781 15.47C20.9215 15.6106 21.0003 15.8012 21.0003 16C21.0003 16.1988 20.9205 16.3894 20.78 16.53Z" fill="#4A2E7F" fill-opacity="0.8"/>
</svg>
