<svg width="32" height="32" viewBox="0 0 32 32" fill="none" xmlns="http://www.w3.org/2000/svg">
<path fill-rule="evenodd" clip-rule="evenodd" d="M5.25 13.4951C5 14.2551 5 15.0931 5 16.7651C5 20.7251 5 22.7051 5.898 24.1571C6.38681 24.9469 7.05227 25.6123 7.842 26.1011C9.293 27.0001 11.274 27.0001 15.234 27.0001H16.766C20.726 27.0001 22.706 27.0001 24.158 26.1021C24.9477 25.6133 25.6132 24.9479 26.102 24.1581C27 22.7061 27 20.7261 27 16.7661C27 15.0931 27 14.2561 26.75 13.4951C26.6113 13.0743 26.4173 12.6738 26.173 12.3041C25.731 11.6341 25.075 11.1151 23.763 10.0771L20.515 7.51014C18.57 5.97114 17.597 5.20213 16.48 5.06613C16.1605 5.02743 15.8375 5.02743 15.518 5.06613C14.401 5.20213 13.428 5.97114 11.483 7.51014L8.237 10.0771C6.924 11.1151 6.268 11.6341 5.827 12.3041C5.582 12.6741 5.388 13.0751 5.25 13.4951ZM19 17.1081V22.2001C19 22.3327 18.9473 22.4599 18.8536 22.5537C18.7598 22.6475 18.6326 22.7001 18.5 22.7001H13.5C13.3674 22.7001 13.2402 22.6475 13.1464 22.5537C13.0527 22.4599 13 22.3327 13 22.2001V17.1071C13 16.2411 13.478 15.4461 14.243 15.0391C14.784 14.7517 15.3873 14.6014 16 14.6014C16.6127 14.6014 17.216 14.7517 17.757 15.0391C18.1326 15.2386 18.4467 15.5366 18.6657 15.9011C18.8847 16.2656 19.0003 16.6829 19 17.1081Z" fill="#7731D8"/>
</svg>
