<svg width="32" height="32" viewBox="0 0 32 32" fill="none" xmlns="http://www.w3.org/2000/svg">
<path fill-rule="evenodd" clip-rule="evenodd" d="M16.766 25.5001H15.234C13.224 25.5001 11.824 25.4981 10.74 25.3951C9.68 25.2931 9.08 25.1051 8.632 24.8261C8.03971 24.4595 7.5406 23.9604 7.174 23.3681C6.896 22.9191 6.707 22.3201 6.605 21.2601C6.502 20.1761 6.5 18.7751 6.5 16.7661C6.5 14.9931 6.518 14.4431 6.676 13.9641C6.773 13.6691 6.908 13.3891 7.079 13.1301C7.357 12.7091 7.778 12.3541 9.169 11.2541L12.414 8.68613C13.41 7.89813 14.073 7.37613 14.622 7.02413C15.146 6.68813 15.45 6.58614 15.7 6.55614C15.8993 6.53205 16.1007 6.53205 16.3 6.55614C16.55 6.58614 16.854 6.68813 17.378 7.02413C17.928 7.37713 18.59 7.89813 19.586 8.68613L22.832 11.2541C24.222 12.3541 24.642 12.7091 24.921 13.1301C25.091 13.3891 25.227 13.6701 25.324 13.9641C25.482 14.4441 25.5 14.9941 25.5 16.7661C25.5 18.7761 25.498 20.1761 25.395 21.2601C25.293 22.3201 25.105 22.9201 24.826 23.3681C24.4594 23.9604 23.9603 24.4595 23.368 24.8261C22.919 25.1041 22.32 25.2931 21.26 25.3951C20.176 25.4981 18.776 25.5001 16.766 25.5001ZM5 16.7661C5 15.0931 5 14.2561 5.25 13.4951C5.39 13.0741 5.583 12.6731 5.827 12.3041C6.269 11.6341 6.925 11.1151 8.237 10.0771L11.484 7.51014C13.429 5.97114 14.402 5.20213 15.519 5.06613C15.8385 5.02743 16.1615 5.02743 16.481 5.06613C17.598 5.20213 18.571 5.97114 20.516 7.51014L23.762 10.0771C25.075 11.1151 25.731 11.6341 26.172 12.3041C26.4162 12.6735 26.6102 13.0737 26.749 13.4941C27 14.2561 27 15.0931 27 16.7661C27 20.7261 27 22.7061 26.102 24.1581C25.6132 24.9479 24.9477 25.6133 24.158 26.1021C22.706 27.0001 20.726 27.0001 16.766 27.0001H15.234C11.274 27.0001 9.294 27.0001 7.842 26.1021C7.05227 25.6133 6.38681 24.9479 5.898 24.1581C5 22.7061 5 20.7261 5 16.7661ZM14.595 15.7031C15.0277 15.4734 15.5101 15.3533 16 15.3533C16.4899 15.3533 16.9723 15.4734 17.405 15.7031C17.925 15.9791 18.25 16.5191 18.25 17.1081V21.9511H13.75V17.1081C13.75 16.5191 14.075 15.9781 14.595 15.7031ZM18.109 14.3781C16.79 13.6781 15.209 13.6781 13.891 14.3781C13.3954 14.6413 12.9807 15.0344 12.6916 15.5154C12.4025 15.9964 12.2499 16.547 12.25 17.1081V22.2001C12.25 22.8901 12.81 23.4501 13.5 23.4501H18.5C19.19 23.4501 19.75 22.8901 19.75 22.2001V17.1071C19.7502 16.5461 19.5977 15.9955 19.3088 15.5146C19.0199 15.0336 18.6055 14.6404 18.11 14.3771L18.109 14.3781Z" fill="#6D5598"/>
</svg>
