<svg width="32" height="33" viewBox="0 0 32 33" fill="none" xmlns="http://www.w3.org/2000/svg">
<path fill-rule="evenodd" clip-rule="evenodd" d="M17.0408 9.44617C17.2121 9.78882 17.4754 10.077 17.8013 10.2783C18.1272 10.4797 18.5027 10.5863 18.8858 10.5862H22.9998C23.6628 10.5862 24.2987 10.8496 24.7675 11.3184C25.2364 11.7872 25.4998 12.4231 25.4998 13.0862V13.7012H6.52377L6.52877 10.6952C6.53036 9.76795 6.89981 8.87926 7.55602 8.22418C8.21222 7.5691 9.10155 7.20117 10.0288 7.20117H14.0648C14.6218 7.20119 15.1679 7.35631 15.6417 7.64914C16.1156 7.94198 16.4986 8.36096 16.7478 8.85917L17.0408 9.44617ZM6.52077 15.2012L6.51077 21.6932C6.50972 22.2848 6.62534 22.8708 6.85102 23.4177C7.07669 23.9646 7.40799 24.4616 7.82596 24.8803C8.24393 25.299 8.74036 25.6312 9.28685 25.8579C9.83334 26.0845 10.4192 26.2012 11.0108 26.2012H20.9998C22.1932 26.2012 23.3378 25.7271 24.1818 24.8832C25.0257 24.0392 25.4998 22.8946 25.4998 21.7012V15.2012H6.52077ZM14.0648 5.70117H10.0288C8.70408 5.70117 7.43352 6.22686 6.49607 7.16281C5.55861 8.09876 5.03089 9.36848 5.02877 10.6932L5.00977 21.6912C5.00846 22.4799 5.16268 23.2612 5.46362 23.9903C5.76456 24.7195 6.20631 25.3821 6.76359 25.9403C7.32088 26.4985 7.98275 26.9413 8.71136 27.2435C9.43997 27.5456 10.221 27.7012 11.0098 27.7012H20.9998C22.5911 27.7012 24.1172 27.069 25.2424 25.9438C26.3676 24.8186 26.9998 23.2925 26.9998 21.7012V13.0862C26.9998 12.0253 26.5783 11.0079 25.8282 10.2577C25.0781 9.5076 24.0606 9.08617 22.9998 9.08617H18.8858C18.7813 9.08609 18.679 9.05696 18.5902 9.00203C18.5013 8.94711 18.4295 8.86856 18.3828 8.77517L18.0898 8.18917C17.7161 7.4416 17.1416 6.81286 16.4307 6.37342C15.7198 5.93398 14.9005 5.7012 14.0648 5.70117Z" fill="#4A2E7F" fill-opacity="0.8"/>
</svg>
