<svg width="32" height="33" viewBox="0 0 32 33" fill="none" xmlns="http://www.w3.org/2000/svg">
<path d="M10.0294 5.70117H14.0654C14.9012 5.7012 15.7204 5.93398 16.4313 6.37342C17.1422 6.81286 17.7167 7.4416 18.0904 8.18917L18.3834 8.77517C18.4784 8.96517 18.6734 9.08517 18.8864 9.08517H23.0004C24.0613 9.08517 25.0787 9.5066 25.8288 10.2567C26.579 11.0069 27.0004 12.0243 27.0004 13.0852V13.7012H23.7814V13.2012C23.7814 12.936 23.6761 12.6816 23.4885 12.4941C23.301 12.3065 23.0466 12.2012 22.7814 12.2012H9.22041C8.9552 12.2012 8.70084 12.3065 8.51331 12.4941C8.32577 12.6816 8.22041 12.936 8.22041 13.2012V13.7012H5.02441L5.02941 10.6932C5.03153 9.36848 5.55925 8.09876 6.49671 7.16281C7.43416 6.22686 8.70472 5.70117 10.0294 5.70117Z" fill="#7731D8"/>
<path fill-rule="evenodd" clip-rule="evenodd" d="M5.02071 15.2012V15.2172H4.99971C4.52371 15.2172 4.07371 15.4052 3.77771 15.7272C3.63468 15.8764 3.53229 16.0599 3.4803 16.26C3.4283 16.4601 3.42845 16.6701 3.48071 16.8702L5.29271 23.5812H5.31071C5.70678 24.7801 6.47083 25.8237 7.49417 26.5633C8.51751 27.303 9.74803 27.7012 11.0107 27.7012H20.9997C22.4132 27.7011 23.7814 27.2021 24.8631 26.2922C25.9448 25.3823 26.6706 24.1198 26.9127 22.7272L28.5177 16.8752C28.5711 16.6748 28.5721 16.4641 28.5206 16.2633C28.4691 16.0624 28.3669 15.8781 28.2237 15.7282C27.9277 15.4052 27.4767 15.2172 26.9997 15.2172V15.2012H5.02071ZM5.01871 16.5642H4.99971L5.01871 16.6342V16.5642Z" fill="#7731D8"/>
</svg>
