<svg width="32" height="33" viewBox="0 0 32 33" fill="none" xmlns="http://www.w3.org/2000/svg">
<path d="M16 5.46875C16.744 5.46875 17.428 5.46875 18.06 5.47375V27.4637C17.428 27.4687 16.744 27.4688 16 27.4688C11.332 27.4688 8.998 27.4688 7.397 26.2668C6.94428 25.9268 6.54196 25.5245 6.202 25.0717C5 23.4707 5 21.1368 5 16.4688C5 11.8007 5 9.46675 6.202 7.86675C6.54189 7.41368 6.94421 7.01102 7.397 6.67075C8.998 5.46875 11.332 5.46875 16 5.46875ZM24.602 26.2668C23.474 27.1148 21.98 27.3647 19.56 27.4377V15.4688H27V16.4688C27 21.1368 27 23.4707 25.798 25.0717C25.458 25.5247 25.056 25.9268 24.603 26.2668H24.602ZM26.99 13.9688H19.56V5.49875C21.98 5.57275 23.474 5.82275 24.603 6.67075C25.0558 7.01102 25.4581 7.41368 25.798 7.86675C26.763 9.15175 26.952 10.9097 26.99 13.9688Z" fill="#7731D8"/>
</svg>
