<svg width="32" height="33" viewBox="0 0 32 33" fill="none" xmlns="http://www.w3.org/2000/svg">
<mask id="mask0_1834_42787" style="mask-type:luminance" maskUnits="userSpaceOnUse" x="0" y="0" width="32" height="33">
<path d="M24 0.46875H8C3.58172 0.46875 0 4.05047 0 8.46875V24.4688C0 28.887 3.58172 32.4687 8 32.4687H24C28.4183 32.4687 32 28.887 32 24.4688V8.46875C32 4.05047 28.4183 0.46875 24 0.46875Z" fill="white"/>
</mask>
<g mask="url(#mask0_1834_42787)">
<path fill-rule="evenodd" clip-rule="evenodd" d="M16 25.9688C13.632 25.9688 11.979 25.9667 10.713 25.8277C9.473 25.6917 8.794 25.4397 8.298 25.0677C7.95815 24.8126 7.65615 24.5106 7.401 24.1707C7.029 23.6747 6.777 22.9948 6.641 21.7568C6.502 20.4908 6.5 18.8368 6.5 16.4688C6.5 14.1007 6.502 12.4477 6.641 11.1817C6.777 9.94175 7.029 9.26275 7.401 8.76675C7.65622 8.42725 7.95821 8.12559 8.298 7.87075C8.794 7.49775 9.474 7.24575 10.713 7.11075C11.979 6.97075 13.632 6.96875 16 6.96875C16.732 6.96875 17.395 6.96875 18 6.97375V25.9637C17.395 25.9687 16.732 25.9688 16 25.9688ZM19.5 25.9387C20.177 25.9187 20.765 25.8847 21.288 25.8277C22.526 25.6917 23.206 25.4397 23.702 25.0677C24.042 24.8127 24.343 24.5107 24.599 24.1707C24.971 23.6747 25.223 22.9948 25.359 21.7568C25.498 20.4908 25.5 18.8368 25.5 16.4688V15.4688H19.5V25.9387ZM25.49 13.9688C25.477 12.8507 25.443 11.9457 25.359 11.1817C25.223 9.94175 24.971 9.26275 24.599 8.76675C24.3438 8.42726 24.0418 8.1256 23.702 7.87075C23.206 7.49775 22.526 7.24575 21.287 7.11075C20.693 7.05001 20.0969 7.01265 19.5 6.99875V13.9688H25.49ZM5 16.4688C5 11.8007 5 9.46675 6.202 7.86675C6.54189 7.41368 6.94421 7.01102 7.397 6.67075C8.998 5.46875 11.332 5.46875 16 5.46875C20.668 5.46875 23.002 5.46875 24.602 6.67075C25.0551 7.01094 25.4578 7.41361 25.798 7.86675C27 9.46675 27 11.8007 27 16.4688C27 21.1368 27 23.4707 25.798 25.0717C25.458 25.5247 25.056 25.9268 24.603 26.2668C23.002 27.4688 20.668 27.4688 16 27.4688C11.332 27.4688 8.998 27.4688 7.397 26.2668C6.94428 25.9268 6.54196 25.5245 6.202 25.0717C5 23.4707 5 21.1368 5 16.4688Z" fill="#6D5598"/>
</g>
</svg>
