<svg width="91" height="32" viewBox="0 0 91 32" fill="none" xmlns="http://www.w3.org/2000/svg">
<path d="M13.4779 19.9991L13.5009 20.0001C15.2248 20.0001 16.8781 19.3152 18.0971 18.0963C19.3161 16.8773 20.0009 15.224 20.0009 13.5001L19.9999 13.4771C19.9964 12.9715 19.934 12.4681 19.8139 11.9771C19.5439 10.8544 18.9796 9.82395 18.1791 8.99183C17.3786 8.1597 16.3707 7.55596 15.2594 7.24274C14.148 6.92952 12.9732 6.91816 11.856 7.20981C10.7387 7.50146 9.71941 8.08559 8.90293 8.90207C8.08645 9.71855 7.50232 10.7379 7.21066 11.8551C6.91901 12.9723 6.93038 14.1471 7.24359 15.2585C7.55681 16.3699 8.16056 17.3777 8.99268 18.1783C9.82481 18.9788 10.8552 19.5431 11.9779 19.8131C12.4599 19.9291 12.9609 19.9971 13.4779 19.9991ZM13.5009 8.50006C15.7239 8.50006 17.5899 9.96706 18.2379 11.9771C18.3919 12.4531 18.4959 12.9511 18.4979 13.4771L18.4999 13.5001C18.4999 16.2571 16.2569 18.5001 13.4999 18.5001L13.4769 18.4981C12.9665 18.4894 12.4605 18.4017 11.9769 18.2381C9.96791 17.5891 8.50091 15.7231 8.50091 13.5001C8.50091 10.7431 10.7439 8.50006 13.5009 8.50006Z" fill="#0E1318"/>
<path d="M22.8999 12.0001H21.5009V13.4961H22.8999C23.2129 13.4961 23.4779 13.7611 23.4779 14.0741V22.8991C23.4758 23.0517 23.4143 23.1975 23.3063 23.3055C23.1984 23.4134 23.0526 23.475 22.8999 23.4771H14.0819C13.9293 23.475 13.7834 23.4134 13.6755 23.3055C13.5675 23.1975 13.506 23.0517 13.5039 22.8991V21.5001H12.0039V22.8991C12.0039 24.0421 12.9389 24.9771 14.0819 24.9771H22.8999C23.4505 24.9755 23.9782 24.756 24.3675 24.3667C24.7569 23.9773 24.9763 23.4497 24.9779 22.8991V14.0741C24.9763 13.5238 24.7568 12.9966 24.3673 12.6079C23.9778 12.2191 23.4502 12.0006 22.8999 12.0001Z" fill="#0E1318"/>
<path d="M40.7178 21.1436C40.057 21.1436 39.4668 21.0592 38.9473 20.8906C38.4277 20.7174 37.9948 20.4919 37.6484 20.2139C37.3021 19.9359 37.04 19.6305 36.8623 19.2979L37.7236 18.2451H37.8945C38.1999 18.7236 38.5872 19.0951 39.0566 19.3594C39.526 19.6237 40.0798 19.7559 40.7178 19.7559C41.3558 19.7559 41.8343 19.6214 42.1533 19.3525C42.4723 19.0837 42.6318 18.7122 42.6318 18.2383C42.6318 17.9557 42.5794 17.7188 42.4746 17.5273C42.3698 17.3314 42.1966 17.165 41.9551 17.0283C41.7181 16.887 41.3945 16.7663 40.9844 16.666L39.7607 16.3789C38.8766 16.1693 38.2204 15.832 37.792 15.3672C37.3682 14.8978 37.1562 14.2985 37.1562 13.5693C37.1562 13.0361 37.2907 12.5667 37.5596 12.1611C37.8285 11.751 38.2204 11.432 38.7354 11.2041C39.2549 10.9762 39.8724 10.8623 40.5879 10.8623C41.349 10.8623 41.9961 10.9648 42.5293 11.1699C43.0625 11.375 43.5 11.6895 43.8418 12.1133L43.0693 13.1729H42.8984C42.6113 12.8493 42.2786 12.61 41.9004 12.4551C41.5221 12.2956 41.0846 12.2158 40.5879 12.2158C39.9681 12.2158 39.4987 12.332 39.1797 12.5645C38.8652 12.7923 38.708 13.109 38.708 13.5146C38.708 13.8975 38.8219 14.2028 39.0498 14.4307C39.2777 14.654 39.6673 14.8294 40.2188 14.957L41.4766 15.2373C42.4473 15.4561 43.1491 15.807 43.582 16.29C44.0195 16.7686 44.2383 17.3883 44.2383 18.1494C44.2383 18.7419 44.1061 19.2637 43.8418 19.7148C43.582 20.166 43.1878 20.5169 42.6592 20.7676C42.1351 21.0182 41.488 21.1436 40.7178 21.1436ZM46.1045 21V10.4316H47.6084V14.4854L47.752 14.5127C48.2806 13.7152 49.0417 13.3164 50.0352 13.3164C50.9147 13.3164 51.5573 13.5534 51.9629 14.0273C52.373 14.5013 52.5781 15.2077 52.5781 16.1465V21H51.0742V16.2764C51.0742 15.6794 50.9557 15.251 50.7188 14.9912C50.4863 14.7314 50.1149 14.6016 49.6045 14.6016C48.9984 14.6016 48.513 14.7998 48.1484 15.1963C47.7884 15.5928 47.6084 16.2308 47.6084 17.1104V21H46.1045ZM56.6934 21.1436C55.9551 21.1436 55.3763 20.9476 54.957 20.5557C54.5378 20.1592 54.3281 19.5986 54.3281 18.874C54.3281 18.4274 54.4215 18.0514 54.6084 17.7461C54.7952 17.4408 55.0869 17.1924 55.4834 17.001C55.8799 16.805 56.3949 16.6546 57.0283 16.5498C57.5251 16.4678 57.9033 16.3766 58.1631 16.2764C58.4229 16.1761 58.5983 16.0645 58.6895 15.9414C58.7806 15.8138 58.8262 15.6543 58.8262 15.4629C58.8262 15.1712 58.7236 14.9479 58.5186 14.793C58.318 14.638 57.9899 14.5605 57.5342 14.5605C56.6729 14.5605 55.9414 14.9183 55.3398 15.6338H55.2031L54.5332 14.6494C54.8841 14.2347 55.3193 13.9089 55.8389 13.6719C56.363 13.4349 56.944 13.3164 57.582 13.3164C58.5254 13.3164 59.2135 13.5192 59.6465 13.9248C60.084 14.3304 60.3027 14.9001 60.3027 15.6338V19.2705C60.3027 19.6488 60.4645 19.8379 60.7881 19.8379C60.9066 19.8379 61.0205 19.8174 61.1299 19.7764L61.2256 19.8037L61.3555 20.8496C61.2643 20.9134 61.1367 20.9635 60.9727 21C60.8132 21.0365 60.6423 21.0547 60.46 21.0547C60.027 21.0547 59.6943 20.9658 59.4619 20.7881C59.234 20.6104 59.0768 20.3392 58.9902 19.9746L58.8467 19.9609C58.6462 20.3574 58.3682 20.6536 58.0127 20.8496C57.6618 21.0456 57.222 21.1436 56.6934 21.1436ZM57.1172 19.9883C57.4681 19.9883 57.7757 19.9085 58.04 19.749C58.3044 19.585 58.5072 19.3525 58.6484 19.0518C58.7897 18.751 58.8604 18.3978 58.8604 17.9922V17.1309L58.7305 17.1035C58.5892 17.2083 58.4115 17.2972 58.1973 17.3701C57.9876 17.4385 57.6868 17.5046 57.2949 17.5684C56.7663 17.6458 56.3903 17.7848 56.167 17.9854C55.9482 18.1813 55.8389 18.4593 55.8389 18.8193C55.8389 19.2021 55.9505 19.4938 56.1738 19.6943C56.3971 19.8903 56.7116 19.9883 57.1172 19.9883ZM62.7432 24.0557V13.46H64.2471V14.5127L64.3906 14.54C64.6458 14.1253 64.9717 13.8177 65.3682 13.6172C65.7646 13.4167 66.2181 13.3164 66.7285 13.3164C67.3483 13.3164 67.8883 13.46 68.3486 13.7471C68.8089 14.0342 69.1667 14.4717 69.4219 15.0596C69.6771 15.6429 69.8047 16.3675 69.8047 17.2334C69.8047 18.0947 69.668 18.8171 69.3945 19.4004C69.1257 19.9837 68.752 20.4212 68.2734 20.7129C67.7995 21 67.2503 21.1436 66.626 21.1436C66.1383 21.1436 65.71 21.0592 65.3408 20.8906C64.9717 20.722 64.6549 20.4531 64.3906 20.084L64.2471 20.1113V24.0557H62.7432ZM66.2363 19.8379C66.888 19.8379 67.3848 19.6305 67.7266 19.2158C68.0729 18.7965 68.2461 18.1357 68.2461 17.2334C68.2461 16.3265 68.0729 15.6634 67.7266 15.2441C67.3848 14.8249 66.888 14.6152 66.2363 14.6152C65.6302 14.6152 65.1449 14.8317 64.7803 15.2646C64.4157 15.6976 64.2334 16.3538 64.2334 17.2334C64.2334 18.1084 64.4157 18.7624 64.7803 19.1953C65.1449 19.6237 65.6302 19.8379 66.2363 19.8379ZM77.8848 17.5684H72.8672C72.9538 19.0814 73.6556 19.8379 74.9727 19.8379C75.4603 19.8379 75.8522 19.7513 76.1484 19.5781C76.4492 19.4004 76.6862 19.127 76.8594 18.7578H77.0029L77.9941 19.373C77.7617 19.9108 77.3994 20.3415 76.9072 20.665C76.4196 20.984 75.7747 21.1436 74.9727 21.1436C74.2207 21.1436 73.5713 20.9977 73.0244 20.7061C72.4775 20.4144 72.056 19.9769 71.7598 19.3936C71.4635 18.8102 71.3154 18.0902 71.3154 17.2334C71.3154 16.3766 71.4704 15.6543 71.7803 15.0664C72.0902 14.4785 72.514 14.041 73.0518 13.7539C73.5895 13.4622 74.1956 13.3164 74.8701 13.3164C75.8864 13.3164 76.6702 13.5944 77.2217 14.1504C77.7777 14.7064 78.0579 15.5244 78.0625 16.6045C78.0625 17.0101 78.0511 17.304 78.0283 17.4863L77.8848 17.5684ZM76.6064 16.4951C76.5882 15.807 76.431 15.3057 76.1348 14.9912C75.8431 14.6768 75.4215 14.5195 74.8701 14.5195C74.3141 14.5195 73.8675 14.6768 73.5303 14.9912C73.1976 15.3057 72.988 15.807 72.9014 16.4951H76.6064Z" fill="#0E1318"/>
</svg>
