<svg width="32" height="32" viewBox="0 0 32 32" fill="none" xmlns="http://www.w3.org/2000/svg">
<path fill-rule="evenodd" clip-rule="evenodd" d="M12 10C12 11.1046 11.1046 12 10 12C8.89543 12 8 11.1046 8 10C8 8.89543 8.89543 8 10 8C11.1046 8 12 8.89543 12 10ZM15.75 9.25C15.3358 9.25 15 9.58579 15 10C15 10.4142 15.3358 10.75 15.75 10.75H23.25C23.6642 10.75 24 10.4142 24 10C24 9.58579 23.6642 9.25 23.25 9.25H15.75ZM15.75 15.25C15.3358 15.25 15 15.5858 15 16C15 16.4142 15.3358 16.75 15.75 16.75H23.25C23.6642 16.75 24 16.4142 24 16C24 15.5858 23.6642 15.25 23.25 15.25H15.75ZM15 22C15 21.5858 15.3358 21.25 15.75 21.25H23.25C23.6642 21.25 24 21.5858 24 22C24 22.4142 23.6642 22.75 23.25 22.75H15.75C15.3358 22.75 15 22.4142 15 22ZM10 18C11.1046 18 12 17.1046 12 16C12 14.8954 11.1046 14 10 14C8.89543 14 8 14.8954 8 16C8 17.1046 8.89543 18 10 18ZM12 22C12 23.1046 11.1046 24 10 24C8.89543 24 8 23.1046 8 22C8 20.8954 8.89543 20 10 20C11.1046 20 12 20.8954 12 22Z" fill="#0E1318"/>
</svg>
