<svg width="32" height="32" viewBox="0 0 32 32" fill="none" xmlns="http://www.w3.org/2000/svg">
<path fill-rule="evenodd" clip-rule="evenodd" d="M7.75 9.25C7.33579 9.25 7 9.58579 7 10C7 10.4142 7.33579 10.75 7.75 10.75H24.25C24.6642 10.75 25 10.4142 25 10C25 9.58579 24.6642 9.25 24.25 9.25H7.75ZM7.75 13.25C7.33579 13.25 7 13.5858 7 14C7 14.4142 7.33579 14.75 7.75 14.75H16.25C16.6642 14.75 17 14.4142 17 14C17 13.5858 16.6642 13.25 16.25 13.25H7.75ZM7 18C7 17.5858 7.33579 17.25 7.75 17.25H24.25C24.6642 17.25 25 17.5858 25 18C25 18.4142 24.6642 18.75 24.25 18.75H7.75C7.33579 18.75 7 18.4142 7 18ZM7.75 21.25C7.33579 21.25 7 21.5858 7 22C7 22.4142 7.33579 22.75 7.75 22.75H16.25C16.6642 22.75 17 22.4142 17 22C17 21.5858 16.6642 21.25 16.25 21.25H7.75Z" fill="#0E1318"/>
</svg>
