<svg width="32" height="32" viewBox="0 0 32 32" fill="none" xmlns="http://www.w3.org/2000/svg">
<path fill-rule="evenodd" clip-rule="evenodd" d="M19.4943 10L15.0072 22.0176H16.5412L17.6763 18.884H22.6579L23.7845 22.0176H25.3842L20.897 10H19.4943ZM22.2037 17.6207L20.5197 12.9367C20.4541 12.7508 20.3967 12.573 20.3474 12.4035C20.2982 12.234 20.2545 12.059 20.2162 11.8785H20.1424C20.0986 12.059 20.0521 12.234 20.0029 12.4035C19.9537 12.573 19.8963 12.7508 19.8306 12.9367L18.1339 17.6207H22.2037Z" fill="#0E1318"/>
<path fill-rule="evenodd" clip-rule="evenodd" d="M7.81152 17.3816C7.11165 17.8743 6.76172 18.563 6.76172 19.4477C6.76172 20.3323 7.05007 21.0098 7.62676 21.4801C8.20345 21.9448 8.90892 22.1771 9.74316 22.1771C10.4654 22.1771 11.0561 22.04 11.5152 21.7656C11.9799 21.4857 12.3131 21.1637 12.5146 20.7998C12.5314 21.0238 12.5706 21.2477 12.6322 21.4717C12.6994 21.6956 12.7722 21.8776 12.8506 22.0176H14.3203V21.8832C14.2139 21.6368 14.1327 21.3541 14.0768 21.035C14.0264 20.7102 14.0012 20.3659 14.0012 20.002V16.0127C14.0012 15.0161 13.7128 14.2686 13.1361 13.7703C12.5594 13.272 11.7448 13.0229 10.6922 13.0229C9.64518 13.0229 8.81374 13.2804 8.19785 13.7955C7.58197 14.3106 7.27402 14.9125 7.27402 15.6012V15.66H8.77734V15.6096C8.77734 15.24 8.92292 14.9181 9.21406 14.6437C9.50521 14.3694 9.98672 14.2322 10.6586 14.2322C11.3249 14.2322 11.7952 14.3974 12.0695 14.7277C12.3439 15.0525 12.4811 15.4808 12.4811 16.0127V16.6342H10.499C9.40723 16.6342 8.51139 16.8833 7.81152 17.3816ZM8.71016 20.5479C8.41901 20.2623 8.27344 19.8676 8.27344 19.3637C8.27344 18.8598 8.475 18.4594 8.87813 18.1627C9.28125 17.8659 9.87754 17.7176 10.667 17.7176H12.4811V18.9773C12.4811 19.4589 12.2319 19.9124 11.7336 20.3379C11.2353 20.7578 10.681 20.9678 10.0707 20.9678C9.45482 20.9678 9.0013 20.8278 8.71016 20.5479Z" fill="#0E1318"/>
</svg>
