<svg width="32" height="32" viewBox="0 0 32 32" fill="none" xmlns="http://www.w3.org/2000/svg">
<path fill-rule="evenodd" clip-rule="evenodd" d="M21 10.353L19.78 11.573C19.7113 11.6466 19.6285 11.7057 19.5365 11.7467C19.4445 11.7877 19.3452 11.8098 19.2445 11.8115C19.1438 11.8133 19.0438 11.7948 18.9504 11.7571C18.857 11.7194 18.7722 11.6632 18.701 11.592C18.6297 11.5208 18.5736 11.4359 18.5359 11.3426C18.4982 11.2492 18.4796 11.1491 18.4814 11.0484C18.4832 10.9477 18.5052 10.8484 18.5462 10.7564C18.5872 10.6644 18.6463 10.5816 18.72 10.513L20.865 8.36696C21.0402 8.19219 21.2632 8.07312 21.5059 8.02472C21.5719 8.01155 21.6386 8.00378 21.7053 8.00133C21.7202 8.00045 21.7351 8 21.75 8C21.7636 8 21.7773 8.00037 21.7908 8.00111C21.9406 8.00583 22.089 8.03735 22.229 8.09496C22.381 8.15796 22.519 8.25096 22.635 8.36696L24.78 10.513C24.9205 10.6536 24.9993 10.8442 24.9993 11.043C24.9993 11.2417 24.9205 11.4323 24.78 11.573C24.6394 11.7134 24.4488 11.7923 24.25 11.7923C24.0513 11.7923 23.8606 11.7134 23.72 11.573L22.5 10.353V21.65L23.72 20.43C23.7887 20.3563 23.8715 20.2972 23.9635 20.2562C24.0555 20.2152 24.1548 20.1931 24.2555 20.1914C24.3562 20.1896 24.4562 20.2081 24.5496 20.2458C24.643 20.2836 24.7278 20.3397 24.799 20.4109C24.8703 20.4821 24.9264 20.567 24.9641 20.6604C25.0018 20.7537 25.0204 20.8538 25.0186 20.9545C25.0168 21.0552 24.9948 21.1545 24.9538 21.2465C24.9128 21.3385 24.8537 21.4213 24.78 21.49L22.635 23.636C22.4598 23.8107 22.2367 23.9296 21.994 23.9779C21.7513 24.0261 21.4997 24.0014 21.271 23.907C21.1191 23.8442 20.9812 23.7521 20.865 23.636L18.72 21.49C18.5796 21.3493 18.5007 21.1587 18.5007 20.96C18.5007 20.7612 18.5796 20.5706 18.72 20.43C18.8606 20.2895 19.0513 20.2106 19.25 20.2106C19.4488 20.2106 19.6394 20.2895 19.78 20.43L21 21.65V10.353ZM7 10C7 9.80109 7.07902 9.61032 7.21967 9.46967C7.36032 9.32902 7.55109 9.25 7.75 9.25H15.25C15.4489 9.25 15.6397 9.32902 15.7803 9.46967C15.921 9.61032 16 9.80109 16 10C16 10.1989 15.921 10.3897 15.7803 10.5303C15.6397 10.671 15.4489 10.75 15.25 10.75H7.75C7.55109 10.75 7.36032 10.671 7.21967 10.5303C7.07902 10.3897 7 10.1989 7 10ZM7 16C7 15.8011 7.07902 15.6103 7.21967 15.4697C7.36032 15.329 7.55109 15.25 7.75 15.25H15.25C15.4489 15.25 15.6397 15.329 15.7803 15.4697C15.921 15.6103 16 15.8011 16 16C16 16.1989 15.921 16.3897 15.7803 16.5303C15.6397 16.671 15.4489 16.75 15.25 16.75H7.75C7.55109 16.75 7.36032 16.671 7.21967 16.5303C7.07902 16.3897 7 16.1989 7 16ZM7.75 21.25C7.55109 21.25 7.36032 21.329 7.21967 21.4697C7.07902 21.6103 7 21.8011 7 22C7 22.1989 7.07902 22.3897 7.21967 22.5303C7.36032 22.671 7.55109 22.75 7.75 22.75H15.25C15.4489 22.75 15.6397 22.671 15.7803 22.5303C15.921 22.3897 16 22.1989 16 22C16 21.8011 15.921 21.6103 15.7803 21.4697C15.6397 21.329 15.4489 21.25 15.25 21.25H7.75Z" fill="#0E1318"/>
</svg>
