<svg width="32" height="32" viewBox="0 0 32 32" fill="none" xmlns="http://www.w3.org/2000/svg">
<path d="M11.3486 19.508C11.3486 20.771 11.7786 21.757 12.6406 22.465C13.5016 23.173 14.6506 23.528 16.0856 23.528C17.5216 23.528 18.6566 23.173 19.4926 22.465C20.3286 21.757 20.7466 20.829 20.7466 19.68C20.7466 18.795 20.5416 18.069 20.1326 17.5H21.2496C21.6639 17.5 21.9996 17.1642 21.9996 16.75V16.75C21.9996 16.3358 21.6639 16 21.2496 16H11.1816C10.7674 16 10.4316 16.3358 10.4316 16.75V16.75C10.4316 17.1642 10.7674 17.5 11.1816 17.5H17.6066C17.9946 17.685 18.2946 17.867 18.5066 18.044C18.9986 18.452 19.2436 19.001 19.2436 19.69C19.2436 20.443 18.9736 21.052 18.4306 21.518C17.8886 21.978 17.1066 22.207 16.0856 22.207C15.0656 22.207 14.2706 21.98 13.7026 21.527C13.1416 21.074 12.8606 20.401 12.8606 19.508V19.278H11.3486V19.508ZM12.3506 15H15.2686C14.6016 14.732 14.1216 14.477 13.8276 14.235C13.3546 13.839 13.1186 13.319 13.1186 12.675C13.1186 11.96 13.3516 11.395 13.8176 10.981C14.2836 10.566 15.0106 10.359 15.9996 10.359C16.9826 10.359 17.7226 10.601 18.2196 11.086C18.7176 11.571 18.9666 12.203 18.9666 12.981V13.191H20.4786V12.981C20.4786 11.833 20.0736 10.888 19.2636 10.148C18.4596 9.40796 17.3716 9.03796 15.9996 9.03796C14.6276 9.03796 13.5526 9.38596 12.7746 10.081C12.0026 10.771 11.6166 11.654 11.6166 12.732C11.6166 13.68 11.8616 14.436 12.3506 15Z" fill="#0E1318"/>
</svg>
