<svg width="32" height="32" viewBox="0 0 32 32" fill="none" xmlns="http://www.w3.org/2000/svg">
<path d="M25.7467 15.0217C25.7489 15.0975 25.75 15.1736 25.75 15.25C25.75 19.5093 22.3141 22.966 18.0627 22.9998C18.046 23.0069 18.0187 23.0195 17.9795 23.0406C17.8688 23.1005 17.7214 23.1967 17.5413 23.3293C17.1832 23.593 16.7587 23.9538 16.3427 24.3264C15.9294 24.6966 15.5376 25.0668 15.2462 25.3444L15.1005 25.4833C15.0189 25.5612 14.9482 25.6287 14.8936 25.6802C14.8518 25.7197 14.8121 25.7567 14.7809 25.7844C14.7683 25.7957 14.7426 25.8184 14.7137 25.8406L14.7128 25.8413C14.7041 25.848 14.6577 25.8839 14.5946 25.9165L14.5935 25.9171C14.5791 25.9249 14.4429 25.9986 14.2567 26.0005C14.1392 26.0017 13.9106 25.9736 13.7175 25.78C13.5264 25.5882 13.4985 25.3626 13.4985 25.25V22.984C9.45205 22.7256 6.25 19.3617 6.25 15.25C6.25 10.9698 9.71979 7.5 14 7.5H18C18.198 7.5 18.3943 7.50742 18.5885 7.52201C18.3562 7.98159 18.1865 8.47821 18.0906 9.00064C18.0604 9.00022 18.0302 9 18 9H14C10.5482 9 7.75 11.7982 7.75 15.25C7.75 18.7018 10.5483 21.5 14.0001 21.5H14.9985V23.5206C15.1099 23.4184 15.2249 23.3139 15.3418 23.2092C15.7696 22.8259 16.236 22.4278 16.6518 22.1215C16.8587 21.9692 17.069 21.8277 17.2662 21.7211C17.4323 21.6313 17.7045 21.5 18 21.5C21.385 21.5 24.1414 18.8091 24.2469 15.4497C24.7742 15.3781 25.2779 15.2318 25.7467 15.0217Z" fill="#0E1318"/>
<path d="M22.75 12.75C22.75 13.1642 23.0858 13.5 23.5 13.5C23.9142 13.5 24.25 13.1642 24.25 12.75V10.75H26.25C26.6642 10.75 27 10.4142 27 10C27 9.58579 26.6642 9.25 26.25 9.25H24.25V7.25C24.25 6.83579 23.9142 6.5 23.5 6.5C23.0858 6.5 22.75 6.83579 22.75 7.25V9.25H20.75C20.3358 9.25 20 9.58579 20 10C20 10.4142 20.3358 10.75 20.75 10.75H22.75V12.75Z" fill="#0E1318"/>
</svg>
