<svg width="76" height="32" viewBox="0 0 76 32" fill="none" xmlns="http://www.w3.org/2000/svg">
<path fill-rule="evenodd" clip-rule="evenodd" d="M6 16C6 21.5228 10.4772 26 16 26C21.5228 26 26 21.5228 26 16C26 10.4772 21.5228 6 16 6C10.4772 6 6 10.4772 6 16ZM24.5 16C24.5 20.6944 20.6944 24.5 16 24.5C11.3056 24.5 7.5 20.6944 7.5 16C7.5 11.3056 11.3056 7.5 16 7.5C20.6944 7.5 24.5 11.3056 24.5 16Z" fill="#0E1318"/>
<path d="M16 10C15.4477 10 15 10.4477 15 11V16C15 16.3221 15.1523 16.6086 15.3887 16.7915L18.7054 20.1081C19.0959 20.4987 19.7291 20.4987 20.1196 20.1081C20.5101 19.7176 20.5101 19.0844 20.1196 18.6939L17 15.5743V11C17 10.4477 16.5523 10 16 10Z" fill="#0E1318"/>
<path d="M40.1973 21.1436C39.2311 21.1436 38.4609 20.9362 37.8867 20.5215C37.3171 20.1022 36.9456 19.5143 36.7725 18.7578L37.9551 18.2246L38.1123 18.252C38.2673 18.7669 38.5042 19.1497 38.8232 19.4004C39.1468 19.6465 39.6003 19.7695 40.1836 19.7695C40.7806 19.7695 41.2432 19.5941 41.5713 19.2432C41.904 18.8923 42.0703 18.3773 42.0703 17.6982C42.0703 17.0146 41.9062 16.4974 41.5781 16.1465C41.2546 15.791 40.8102 15.6133 40.2451 15.6133C39.8122 15.6133 39.4544 15.7044 39.1719 15.8867C38.8939 16.0645 38.6523 16.3356 38.4473 16.7002L37.1621 16.5977L37.3604 11.0059H43.1299V12.332H38.7002L38.5977 15.2646L38.7412 15.292C38.9782 14.9684 39.2607 14.7246 39.5889 14.5605C39.9215 14.3965 40.3203 14.3145 40.7852 14.3145C41.3685 14.3145 41.8766 14.4443 42.3096 14.7041C42.7425 14.9639 43.0775 15.3467 43.3145 15.8525C43.556 16.3584 43.6768 16.9691 43.6768 17.6846C43.6768 18.4046 43.5355 19.0244 43.2529 19.5439C42.9749 20.0635 42.5739 20.46 42.0498 20.7334C41.5303 21.0068 40.9128 21.1436 40.1973 21.1436ZM46.0352 21.0684C45.7207 21.0684 45.4701 20.9772 45.2832 20.7949C45.1009 20.6126 45.0098 20.3779 45.0098 20.0908C45.0098 19.8083 45.1032 19.5758 45.29 19.3936C45.4769 19.2067 45.7253 19.1133 46.0352 19.1133C46.3496 19.1133 46.6003 19.2044 46.7871 19.3867C46.974 19.5645 47.0674 19.7969 47.0674 20.084C47.0674 20.3711 46.974 20.6081 46.7871 20.7949C46.6003 20.9772 46.3496 21.0684 46.0352 21.0684ZM52.0713 21.1436C51.2965 21.1436 50.6107 20.9658 50.0137 20.6104C49.4212 20.2503 48.9541 19.6875 48.6123 18.9219C48.2751 18.1562 48.1064 17.1833 48.1064 16.0029C48.1064 14.8226 48.2751 13.8496 48.6123 13.084C48.9541 12.3184 49.4212 11.7578 50.0137 11.4023C50.6107 11.0423 51.2965 10.8623 52.0713 10.8623C52.846 10.8623 53.5296 11.0423 54.1221 11.4023C54.7191 11.7578 55.1862 12.3184 55.5234 13.084C55.8652 13.8496 56.0361 14.8226 56.0361 16.0029C56.0361 17.1833 55.8652 18.1562 55.5234 18.9219C55.1862 19.6875 54.7191 20.2503 54.1221 20.6104C53.5296 20.9658 52.846 21.1436 52.0713 21.1436ZM52.0713 19.7627C52.5817 19.7627 53.0078 19.6419 53.3496 19.4004C53.696 19.1589 53.9603 18.7624 54.1426 18.2109C54.3294 17.6595 54.4229 16.9235 54.4229 16.0029C54.4229 15.0824 54.3294 14.3464 54.1426 13.7949C53.9603 13.2389 53.696 12.8424 53.3496 12.6055C53.0078 12.3639 52.5817 12.2432 52.0713 12.2432C51.5563 12.2432 51.1257 12.3639 50.7793 12.6055C50.4375 12.8424 50.1732 13.2389 49.9863 13.7949C49.804 14.3464 49.7129 15.0824 49.7129 16.0029C49.7129 16.9235 49.804 17.6595 49.9863 18.2109C50.1732 18.7624 50.4398 19.1589 50.7861 19.4004C51.1325 19.6419 51.5609 19.7627 52.0713 19.7627ZM60.459 21.1436C59.9668 21.1436 59.5111 21.082 59.0918 20.959C58.6771 20.8359 58.3239 20.6673 58.0322 20.4531C57.7451 20.2344 57.5355 19.9883 57.4033 19.7148L58.2578 18.8057H58.4014C58.8981 19.5212 59.5863 19.8789 60.4658 19.8789C60.9261 19.8789 61.2747 19.7923 61.5117 19.6191C61.7533 19.4414 61.874 19.1953 61.874 18.8809C61.874 18.6348 61.7943 18.432 61.6348 18.2725C61.4798 18.1084 61.2314 17.9854 60.8896 17.9033L59.7549 17.623C59.0439 17.4544 58.5221 17.1901 58.1895 16.8301C57.8613 16.4655 57.6973 16.012 57.6973 15.4697C57.6973 15.0277 57.8089 14.6449 58.0322 14.3213C58.2601 13.9977 58.5814 13.7493 58.9961 13.5762C59.4108 13.403 59.8984 13.3164 60.459 13.3164C61.1471 13.3164 61.7008 13.4144 62.1201 13.6104C62.5439 13.8018 62.8743 14.0661 63.1113 14.4033L62.291 15.2578H62.1543C61.931 14.998 61.6803 14.8112 61.4023 14.6973C61.1289 14.5833 60.8145 14.5264 60.459 14.5264C60.0169 14.5264 59.6842 14.6016 59.4609 14.752C59.2376 14.8978 59.126 15.112 59.126 15.3945C59.126 15.6452 59.208 15.848 59.3721 16.0029C59.5361 16.1579 59.821 16.2832 60.2266 16.3789L61.3203 16.6318C62.0312 16.7913 62.5462 17.0511 62.8652 17.4111C63.1888 17.7712 63.3506 18.2406 63.3506 18.8193C63.3506 19.2796 63.2389 19.6852 63.0156 20.0361C62.7923 20.3825 62.4642 20.6536 62.0312 20.8496C61.5983 21.0456 61.0742 21.1436 60.459 21.1436Z" fill="#0E1318"/>
</svg>
