<svg width="20" height="20" viewBox="0 0 20 20" fill="none" xmlns="http://www.w3.org/2000/svg">
<path d="M10 20C7.34784 20 4.8043 18.9464 2.92893 17.0711C1.05357 15.1957 0 12.6522 0 10C0 7.34784 1.05357 4.8043 2.92893 2.92893C4.8043 1.05357 7.34784 0 10 0C12.6522 0 15.1957 1.05357 17.0711 2.92893C18.9464 4.8043 20 7.34784 20 10C20 12.6522 18.9464 15.1957 17.0711 17.0711C15.1957 18.9464 12.6522 20 10 20ZM10 18.5C12.2543 18.5 14.4163 17.6045 16.0104 16.0104C17.6045 14.4163 18.5 12.2543 18.5 10C18.5 7.74566 17.6045 5.58365 16.0104 3.98959C14.4163 2.39553 12.2543 1.5 10 1.5C7.74566 1.5 5.58365 2.39553 3.98959 3.98959C2.39553 5.58365 1.5 7.74566 1.5 10C1.5 12.2543 2.39553 14.4163 3.98959 16.0104C5.58365 17.6045 7.74566 18.5 10 18.5ZM6.75 7.85C6.8 6.23 7.92 5.05 9.95 5.05C11.82 5.05 13.07 6.13 13.07 7.65C13.07 8.69 12.55 9.42 11.62 9.98C10.72 10.5 10.47 10.85 10.47 11.53V11.92H8.9L8.89 11.45C8.83 10.43 9.22 9.81 10.17 9.25C11.01 8.75 11.3 8.38 11.3 7.71C11.3 7 10.73 6.48 9.87 6.48C8.98 6.48 8.42 7.02 8.37 7.85H6.74H6.75ZM9.75 15.18C9.07 15.18 8.62 14.75 8.62 14.09C8.62 13.43 9.07 12.99 9.75 12.99C10.45 12.99 10.89 13.43 10.89 14.09C10.89 14.75 10.45 15.18 9.75 15.18Z" fill="#0D1216"/>
</svg>
