<svg width="24" height="24" viewBox="0 0 24 24" fill="none" xmlns="http://www.w3.org/2000/svg">
<path d="M15.2503 18.48V15C15.2503 14.8011 15.1713 14.6103 15.0306 14.4697C14.89 14.329 14.6992 14.25 14.5003 14.25C14.3014 14.25 14.1106 14.329 13.97 14.4697C13.8293 14.6103 13.7503 14.8011 13.7503 15V19C13.7503 19.97 14.5303 20.75 15.5003 20.75H19.5003C19.6992 20.75 19.89 20.671 20.0306 20.5303C20.1713 20.3897 20.2503 20.1989 20.2503 20C20.2503 19.8011 20.1713 19.6103 20.0306 19.4697C19.89 19.329 19.6992 19.25 19.5003 19.25H16.9003C18.249 18.3386 19.3168 17.069 19.9836 15.5841C20.6503 14.0991 20.8896 12.4575 20.6745 10.844C20.4595 9.23043 19.7986 7.70888 18.7661 6.45037C17.7337 5.19186 16.3707 4.2463 14.8303 3.72C14.642 3.65502 14.4356 3.66751 14.2565 3.75471C14.0774 3.84192 13.9403 3.9967 13.8753 4.185C13.8103 4.3733 13.8228 4.57971 13.91 4.7588C13.9972 4.9379 14.152 5.07502 14.3403 5.14C15.6919 5.60164 16.8771 6.45226 17.7471 7.58508C18.6171 8.7179 19.133 10.0825 19.2302 11.5075C19.3274 12.9325 19.0016 14.3545 18.2935 15.5949C17.5854 16.8354 16.5267 17.8391 15.2503 18.48ZM8.75028 5.52V9C8.75028 9.19891 8.8293 9.38968 8.96995 9.53033C9.11061 9.67098 9.30137 9.75 9.50028 9.75C9.6992 9.75 9.88996 9.67098 10.0306 9.53033C10.1713 9.38968 10.2503 9.19891 10.2503 9V5C10.2503 4.03 9.47028 3.25 8.50028 3.25H4.50028C4.30137 3.25 4.1106 3.32902 3.96995 3.46967C3.8293 3.61032 3.75028 3.80109 3.75028 4C3.75028 4.19891 3.8293 4.38968 3.96995 4.53033C4.1106 4.67098 4.30137 4.75 4.50028 4.75H7.10028C5.74245 5.66666 4.66923 6.9461 4.00279 8.44271C3.33635 9.93931 3.10346 11.593 3.33062 13.2154C3.55779 14.8379 4.23588 16.364 5.28773 17.62C6.33957 18.876 7.72291 19.8115 9.28028 20.32C9.46991 20.3823 9.67653 20.3668 9.85469 20.2768C10.0329 20.1867 10.168 20.0296 10.2303 19.84C10.2926 19.6504 10.2771 19.4437 10.187 19.2656C10.097 19.0874 9.93991 18.9523 9.75028 18.89C8.38503 18.4436 7.18316 17.6016 6.29716 16.4711C5.41115 15.3405 4.88095 13.9722 4.77381 12.5398C4.66668 11.1074 4.98744 9.67549 5.69541 8.4257C6.40337 7.1759 7.46663 6.16456 8.75028 5.52Z" fill="#0D1216"/>
</svg>
