<svg width="32" height="32" viewBox="0 0 32 32" fill="none" xmlns="http://www.w3.org/2000/svg">
<path fill-rule="evenodd" clip-rule="evenodd" d="M14.124 12.106L19.649 15.393C19.7558 15.4543 19.8445 15.5427 19.9062 15.6493C19.9679 15.7559 20.0004 15.8769 20.0004 16C20.0004 16.1231 19.9679 16.2441 19.9062 16.3507C19.8445 16.4573 19.7558 16.5457 19.649 16.607L14.124 19.894C13.9574 19.9937 13.7588 20.0251 13.5696 19.9816C13.3805 19.9382 13.2154 19.8233 13.109 19.661C13.0378 19.5493 12.9999 19.4195 13 19.287V12.713C13 12.319 13.33 12 13.737 12C13.874 12 14.007 12.037 14.124 12.106Z" fill="#0D1216"/>
<path d="M13.938 7C12.9235 7.23028 11.9557 7.63169 11.076 8.187M8.18 11.09C7.62839 11.9665 7.2294 12.9301 7 13.94M7 18.034C7.22911 19.0438 7.62776 20.0075 8.179 20.884M11.076 23.786C11.9557 24.3413 12.9235 24.7427 13.938 24.973M18.033 24.973C22.137 24.042 25.2 20.372 25.2 15.987C25.2 11.6 22.137 7.93 18.033 7" stroke="#0D1216" stroke-width="1.5" stroke-linecap="round"/>
</svg>
