<svg width="32" height="32" viewBox="0 0 32 32" fill="none" xmlns="http://www.w3.org/2000/svg">
<path d="M14.4321 18.2353L17.2631 21.0663C17.2863 21.0895 17.3048 21.1171 17.3174 21.1475C17.33 21.1778 17.3365 21.2104 17.3365 21.2433C17.3365 21.2762 17.33 21.3087 17.3174 21.3391C17.3048 21.3695 17.2863 21.3971 17.2631 21.4203L14.4821 24.2003C14.3454 24.3417 14.2697 24.5311 14.2713 24.7277C14.2729 24.9244 14.3517 25.1125 14.4907 25.2517C14.6297 25.3908 14.8178 25.4697 15.0144 25.4715C15.2111 25.4733 15.4006 25.3978 15.5421 25.2613L18.3241 22.4813C18.4867 22.3188 18.6158 22.1258 18.7038 21.9134C18.7919 21.7009 18.8372 21.4732 18.8372 21.2433C18.8372 21.0133 18.7919 20.7856 18.7038 20.5732C18.6158 20.3608 18.4867 20.1678 18.3241 20.0053L15.4921 17.1743C15.4234 17.1006 15.3406 17.0415 15.2486 17.0005C15.1566 16.9595 15.0573 16.9375 14.9566 16.9357C14.8559 16.9339 14.7559 16.9524 14.6625 16.9902C14.5691 17.0279 14.4842 17.084 14.413 17.1552C14.3418 17.2265 14.2857 17.3113 14.2479 17.4047C14.2102 17.4981 14.1917 17.5981 14.1935 17.6988C14.1953 17.7995 14.2173 17.8988 14.2583 17.9908C14.2993 18.0828 14.3584 18.1666 14.4321 18.2353Z" fill="#0D1216"/>
<path d="M16.75 20.4803H10.75C9.62283 20.4803 8.54183 20.0325 7.7448 19.2355C6.94777 18.4385 6.5 17.3575 6.5 16.2303C6.5 15.1031 6.94777 14.0221 7.7448 13.2251C8.54183 12.4281 9.62283 11.9803 10.75 11.9803C10.9489 11.9803 11.1397 11.9013 11.2803 11.7606C11.421 11.62 11.5 11.4292 11.5 11.2303C11.5 11.0314 11.421 10.8406 11.2803 10.7C11.1397 10.5593 10.9489 10.4803 10.75 10.4803C9.9949 10.4803 9.24719 10.629 8.54957 10.918C7.85195 11.2069 7.21807 11.6305 6.68414 12.1644C6.1502 12.6984 5.72666 13.3322 5.43769 14.0299C5.14873 14.7275 5 15.4752 5 16.2303C5 16.9854 5.14873 17.7331 5.43769 18.4307C5.72666 19.1283 6.1502 19.7622 6.68414 20.2962C7.21807 20.8301 7.85195 21.2536 8.54957 21.5426C9.24719 21.8316 9.9949 21.9803 10.75 21.9803H16.75C16.9489 21.9803 17.1397 21.9013 17.2803 21.7606C17.421 21.62 17.5 21.4292 17.5 21.2303C17.5 21.0314 17.421 20.8406 17.2803 20.7C17.1397 20.5593 16.9489 20.4803 16.75 20.4803ZM17.88 14.2273L15.049 11.3973C15.0257 11.3741 15.0072 11.3465 14.9946 11.3161C14.982 11.2857 14.9756 11.2532 14.9756 11.2203C14.9756 11.1874 14.982 11.1548 14.9946 11.1245C15.0072 11.0941 15.0257 11.0665 15.049 11.0433L17.829 8.26129C17.9615 8.11912 18.0336 7.93107 18.0302 7.73677C18.0267 7.54247 17.948 7.35708 17.8106 7.21967C17.6732 7.08226 17.4878 7.00355 17.2935 7.00012C17.0992 6.99669 16.9112 7.06881 16.769 7.20129L13.988 9.98029C13.8253 10.1428 13.6963 10.3358 13.6082 10.5482C13.5202 10.7607 13.4749 10.9883 13.4749 11.2183C13.4749 11.4482 13.5202 11.6759 13.6082 11.8884C13.6963 12.1008 13.8253 12.2938 13.988 12.4563L16.819 15.2873C16.8877 15.361 16.9705 15.4201 17.0625 15.4611C17.1545 15.5021 17.2538 15.5241 17.3545 15.5259C17.4552 15.5277 17.5552 15.5091 17.6486 15.4714C17.742 15.4337 17.8268 15.3775 17.898 15.3063C17.9693 15.2351 18.0254 15.1503 18.0631 15.0569C18.1008 14.9635 18.1194 14.8635 18.1176 14.7628C18.1158 14.6621 18.0938 14.5628 18.0528 14.4708C18.0118 14.3788 17.9527 14.296 17.879 14.2273H17.88Z" fill="#0D1216"/>
<path d="M15.5605 11.9803H21.5605C22.1187 11.9803 22.6713 12.0902 23.187 12.3038C23.7026 12.5174 24.1711 12.8304 24.5658 13.2251C24.9604 13.6197 25.2735 14.0882 25.487 14.6039C25.7006 15.1195 25.8105 15.6722 25.8105 16.2303C25.8105 16.7884 25.7006 17.3411 25.487 17.8567C25.2735 18.3723 24.9604 18.8408 24.5658 19.2355C24.1711 19.6301 23.7026 19.9432 23.187 20.1568C22.6713 20.3704 22.1187 20.4803 21.5605 20.4803C21.3616 20.4803 21.1709 20.5593 21.0302 20.7C20.8896 20.8406 20.8105 21.0314 20.8105 21.2303C20.8105 21.4292 20.8896 21.62 21.0302 21.7606C21.1709 21.9013 21.3616 21.9803 21.5605 21.9803C23.0855 21.9803 24.5481 21.3745 25.6264 20.2962C26.7047 19.2178 27.3105 17.7553 27.3105 16.2303C27.3105 14.7053 26.7047 13.2428 25.6264 12.1644C24.5481 11.0861 23.0855 10.4803 21.5605 10.4803H15.5605C15.3616 10.4803 15.1709 10.5593 15.0302 10.7C14.8896 10.8406 14.8105 11.0314 14.8105 11.2303C14.8105 11.4292 14.8896 11.62 15.0302 11.7606C15.1709 11.9013 15.3616 11.9803 15.5605 11.9803Z" fill="#0D1216"/>
</svg>
