<svg width="77" height="32" viewBox="0 0 77 32" fill="none" xmlns="http://www.w3.org/2000/svg">
<path fill-rule="evenodd" clip-rule="evenodd" d="M8.53926 11.3506C8.55479 10.1849 9.51239 9.25249 10.6781 9.26802C11.8439 9.28355 12.7763 10.2411 12.7607 11.4069C12.7452 12.5726 11.7876 13.505 10.6219 13.4895C9.45615 13.474 8.52373 12.5164 8.53926 11.3506ZM10.6981 7.76815C8.70402 7.74158 7.06596 9.33657 7.03939 11.3307C7.01282 13.3247 8.60781 14.9628 10.6019 14.9894C11.1936 14.9973 11.7539 14.8624 12.2501 14.6167L14.0548 15.9953L12.2501 17.3739C11.7539 17.1282 11.1936 16.9933 10.6019 17.0012C8.60781 17.0278 7.01282 18.6659 7.03939 20.6599C7.06596 22.654 8.70402 24.249 10.6981 24.2225C12.6922 24.1959 14.2872 22.5578 14.2606 20.5637C14.2494 19.7201 13.9497 18.948 13.4567 18.3398L15.2903 16.9391L22.7011 22.6001C23.3595 23.103 24.3008 22.977 24.8037 22.3187L16.5258 15.9953L24.8037 9.6719C24.3008 9.01357 23.3595 8.88757 22.7011 9.39046L15.2903 15.0515L13.4567 13.6508C13.9497 13.0427 14.2494 12.2705 14.2606 11.4269C14.2872 9.43278 12.6922 7.79472 10.6981 7.76815ZM8.53926 20.64C8.55479 21.8057 9.51239 22.7381 10.6781 22.7226C11.8439 22.7071 12.7763 21.7495 12.7607 20.5837C12.7452 19.418 11.7876 18.4856 10.6219 18.5011C9.45615 18.5166 8.52373 19.4742 8.53926 20.64Z" fill="#0E1318"/>
<path d="M41.0527 21.1436C40.3236 21.1436 39.6719 20.9727 39.0977 20.6309C38.5234 20.2845 38.0654 19.7331 37.7236 18.9766C37.3818 18.2155 37.2109 17.2402 37.2109 16.0508C37.2109 14.8659 37.3841 13.8861 37.7305 13.1113C38.0814 12.3366 38.5576 11.7692 39.1592 11.4092C39.7653 11.0446 40.4603 10.8623 41.2441 10.8623C42.5749 10.8623 43.5296 11.2497 44.1084 12.0244L43.3359 13.0361H43.165C42.7139 12.4893 42.0736 12.2158 41.2441 12.2158C40.4648 12.2158 39.8678 12.5075 39.4531 13.0908C39.0384 13.6696 38.8265 14.5856 38.8174 15.8389L38.9609 15.8799C39.2161 15.3831 39.5465 15.0094 39.9521 14.7588C40.3623 14.5036 40.8727 14.376 41.4834 14.376C42.1077 14.376 42.6478 14.5081 43.1035 14.7725C43.5638 15.0368 43.9147 15.4196 44.1562 15.9209C44.4023 16.4176 44.5254 17.0055 44.5254 17.6846C44.5254 18.3955 44.3841 19.013 44.1016 19.5371C43.819 20.0566 43.4157 20.4554 42.8916 20.7334C42.3721 21.0068 41.7591 21.1436 41.0527 21.1436ZM41.0322 19.7695C41.6156 19.7695 42.0736 19.5941 42.4062 19.2432C42.7435 18.8877 42.9121 18.3841 42.9121 17.7324C42.9121 17.0762 42.7458 16.5726 42.4131 16.2217C42.0804 15.8708 41.6201 15.6953 41.0322 15.6953C40.6357 15.6953 40.2917 15.7773 40 15.9414C39.7083 16.1055 39.4827 16.3402 39.3232 16.6455C39.1637 16.9508 39.084 17.3132 39.084 17.7324C39.084 18.1517 39.1615 18.5163 39.3164 18.8262C39.4759 19.1315 39.7015 19.3662 39.9932 19.5303C40.2848 19.6898 40.6312 19.7695 41.0322 19.7695ZM46.8154 21.0684C46.501 21.0684 46.2503 20.9772 46.0635 20.7949C45.8812 20.6126 45.79 20.3779 45.79 20.0908C45.79 19.8083 45.8835 19.5758 46.0703 19.3936C46.2572 19.2067 46.5055 19.1133 46.8154 19.1133C47.1299 19.1133 47.3805 19.2044 47.5674 19.3867C47.7542 19.5645 47.8477 19.7969 47.8477 20.084C47.8477 20.3711 47.7542 20.6081 47.5674 20.7949C47.3805 20.9772 47.1299 21.0684 46.8154 21.0684ZM52.8516 21.1436C52.0768 21.1436 51.391 20.9658 50.7939 20.6104C50.2015 20.2503 49.7344 19.6875 49.3926 18.9219C49.0553 18.1562 48.8867 17.1833 48.8867 16.0029C48.8867 14.8226 49.0553 13.8496 49.3926 13.084C49.7344 12.3184 50.2015 11.7578 50.7939 11.4023C51.391 11.0423 52.0768 10.8623 52.8516 10.8623C53.6263 10.8623 54.3099 11.0423 54.9023 11.4023C55.4993 11.7578 55.9665 12.3184 56.3037 13.084C56.6455 13.8496 56.8164 14.8226 56.8164 16.0029C56.8164 17.1833 56.6455 18.1562 56.3037 18.9219C55.9665 19.6875 55.4993 20.2503 54.9023 20.6104C54.3099 20.9658 53.6263 21.1436 52.8516 21.1436ZM52.8516 19.7627C53.362 19.7627 53.7881 19.6419 54.1299 19.4004C54.4762 19.1589 54.7406 18.7624 54.9229 18.2109C55.1097 17.6595 55.2031 16.9235 55.2031 16.0029C55.2031 15.0824 55.1097 14.3464 54.9229 13.7949C54.7406 13.2389 54.4762 12.8424 54.1299 12.6055C53.7881 12.3639 53.362 12.2432 52.8516 12.2432C52.3366 12.2432 51.9059 12.3639 51.5596 12.6055C51.2178 12.8424 50.9535 13.2389 50.7666 13.7949C50.5843 14.3464 50.4932 15.0824 50.4932 16.0029C50.4932 16.9235 50.5843 17.6595 50.7666 18.2109C50.9535 18.7624 51.2201 19.1589 51.5664 19.4004C51.9128 19.6419 52.3411 19.7627 52.8516 19.7627ZM61.2393 21.1436C60.7471 21.1436 60.2913 21.082 59.8721 20.959C59.4574 20.8359 59.1042 20.6673 58.8125 20.4531C58.5254 20.2344 58.3158 19.9883 58.1836 19.7148L59.0381 18.8057H59.1816C59.6784 19.5212 60.3665 19.8789 61.2461 19.8789C61.7064 19.8789 62.055 19.7923 62.292 19.6191C62.5335 19.4414 62.6543 19.1953 62.6543 18.8809C62.6543 18.6348 62.5745 18.432 62.415 18.2725C62.2601 18.1084 62.0117 17.9854 61.6699 17.9033L60.5352 17.623C59.8242 17.4544 59.3024 17.1901 58.9697 16.8301C58.6416 16.4655 58.4775 16.012 58.4775 15.4697C58.4775 15.0277 58.5892 14.6449 58.8125 14.3213C59.0404 13.9977 59.3617 13.7493 59.7764 13.5762C60.1911 13.403 60.6787 13.3164 61.2393 13.3164C61.9274 13.3164 62.4811 13.4144 62.9004 13.6104C63.3242 13.8018 63.6546 14.0661 63.8916 14.4033L63.0713 15.2578H62.9346C62.7113 14.998 62.4606 14.8112 62.1826 14.6973C61.9092 14.5833 61.5947 14.5264 61.2393 14.5264C60.7972 14.5264 60.4645 14.6016 60.2412 14.752C60.0179 14.8978 59.9062 15.112 59.9062 15.3945C59.9062 15.6452 59.9883 15.848 60.1523 16.0029C60.3164 16.1579 60.6012 16.2832 61.0068 16.3789L62.1006 16.6318C62.8115 16.7913 63.3265 17.0511 63.6455 17.4111C63.9691 17.7712 64.1309 18.2406 64.1309 18.8193C64.1309 19.2796 64.0192 19.6852 63.7959 20.0361C63.5726 20.3825 63.2445 20.6536 62.8115 20.8496C62.3786 21.0456 61.8545 21.1436 61.2393 21.1436Z" fill="#0E1318"/>
</svg>
