<svg width="32" height="32" viewBox="0 0 32 32" fill="none" xmlns="http://www.w3.org/2000/svg">
<path fill-rule="evenodd" clip-rule="evenodd" d="M20 7.5H9C8.72386 7.5 8.5 7.72386 8.5 8V9.5C8.5 9.77614 8.72386 10 9 10H20C20.2761 10 20.5 9.77614 20.5 9.5V8C20.5 7.72386 20.2761 7.5 20 7.5ZM9 6C7.89543 6 7 6.89543 7 8V9.5C7 10.6046 7.89543 11.5 9 11.5H20C21.1046 11.5 22 10.6046 22 9.5V9.25H22.5C22.9142 9.25 23.25 9.58579 23.25 10V12.5C23.25 12.9142 22.9142 13.25 22.5 13.25H16.75C15.5074 13.25 14.5 14.2574 14.5 15.5V17.063C13.6374 17.285 13 18.0681 13 19V24C13 25.1046 13.8954 26 15 26H15.5C16.6046 26 17.5 25.1046 17.5 24V19C17.5 18.0681 16.8626 17.285 16 17.063V15.5C16 15.0858 16.3358 14.75 16.75 14.75H22.5C23.7426 14.75 24.75 13.7426 24.75 12.5V10C24.75 8.75736 23.7426 7.75 22.5 7.75H21.9845C21.8615 6.76342 21.0199 6 20 6H9ZM16 19C16 18.7239 15.7761 18.5 15.5 18.5H15C14.7239 18.5 14.5 18.7239 14.5 19V24C14.5 24.2761 14.7239 24.5 15 24.5H15.5C15.7761 24.5 16 24.2761 16 24V19Z" fill="#0E1318"/>
</svg>
