<svg width="32" height="32" viewBox="0 0 32 32" fill="none" xmlns="http://www.w3.org/2000/svg">
<mask id="mask0_711_36227" style="mask-type:alpha" maskUnits="userSpaceOnUse" x="6" y="6" width="20" height="20">
<path opacity="0.15" fill-rule="evenodd" clip-rule="evenodd" d="M22 7C22 6.44772 22.4477 6 23 6H25C25.5523 6 26 6.44772 26 7V9C26 9.55228 25.5523 10 25 10H23C22.4477 10 22 9.55228 22 9V7ZM22 15C22 14.4477 22.4477 14 23 14H25C25.5523 14 26 14.4477 26 15V17C26 17.5523 25.5523 18 25 18H23C22.4477 18 22 17.5523 22 17V15ZM23 22C22.4477 22 22 22.4477 22 23V25C22 25.5523 22.4477 26 23 26H25C25.5523 26 26 25.5523 26 25V23C26 22.4477 25.5523 22 25 22H23Z" fill="black"/>
<path opacity="0.3" fill-rule="evenodd" clip-rule="evenodd" d="M19 10C18.4477 10 18 10.4477 18 11V13C18 13.5523 18.4477 14 19 14H21C21.5523 14 22 13.5523 22 13V11C22 10.4477 21.5523 10 21 10H19ZM19 18C18.4477 18 18 18.4477 18 19V21C18 21.5523 18.4477 22 19 22H21C21.5523 22 22 21.5523 22 21V19C22 18.4477 21.5523 18 21 18H19Z" fill="#C9A0A0"/>
<path opacity="0.5" fill-rule="evenodd" clip-rule="evenodd" d="M14 7C14 6.44772 14.4477 6 15 6H17C17.5523 6 18 6.44772 18 7V9C18 9.55228 17.5523 10 17 10H15C14.4477 10 14 9.55228 14 9V7ZM14 15C14 14.4477 14.4477 14 15 14H17C17.5523 14 18 14.4477 18 15V17C18 17.5523 17.5523 18 17 18H15C14.4477 18 14 17.5523 14 17V15ZM15 22C14.4477 22 14 22.4477 14 23V25C14 25.5523 14.4477 26 15 26H17C17.5523 26 18 25.5523 18 25V23C18 22.4477 17.5523 22 17 22H15Z" fill="black"/>
<path opacity="0.7" fill-rule="evenodd" clip-rule="evenodd" d="M11 10C10.4477 10 10 10.4477 10 11V13C10 13.5523 10.4477 14 11 14H13C13.5523 14 14 13.5523 14 13V11C14 10.4477 13.5523 10 13 10H11ZM11 18C10.4477 18 10 18.4477 10 19V21C10 21.5523 10.4477 22 11 22H13C13.5523 22 14 21.5523 14 21V19C14 18.4477 13.5523 18 13 18H11Z" fill="#8A8A8A"/>
<path fill-rule="evenodd" clip-rule="evenodd" d="M6 7C6 6.44772 6.44772 6 7 6H9C9.55228 6 10 6.44772 10 7V9C10 9.55228 9.55228 10 9 10H7C6.44772 10 6 9.55228 6 9V7ZM6 15C6 14.4477 6.44772 14 7 14H9C9.55228 14 10 14.4477 10 15V17C10 17.5523 9.55228 18 9 18H7C6.44772 18 6 17.5523 6 17V15ZM7 22C6.44772 22 6 22.4477 6 23V25C6 25.5523 6.44772 26 7 26H9C9.55228 26 10 25.5523 10 25V23C10 22.4477 9.55228 22 9 22H7Z" fill="black"/>
</mask>
<g mask="url(#mask0_711_36227)">
<path fill-rule="evenodd" clip-rule="evenodd" d="M6 7C6 6.44772 6.44772 6 7 6H9C9.55228 6 10 6.44772 10 7V9C10 9.55228 9.55228 10 9 10H7C6.44772 10 6 9.55228 6 9V7ZM6 15C6 14.4477 6.44772 14 7 14H9C9.55228 14 10 14.4477 10 15V17C10 17.5523 9.55228 18 9 18H7C6.44772 18 6 17.5523 6 17V15ZM7 22C6.44772 22 6 22.4477 6 23V25C6 25.5523 6.44772 26 7 26H9C9.55228 26 10 25.5523 10 25V23C10 22.4477 9.55228 22 9 22H7ZM14 7C14 6.44772 14.4477 6 15 6H17C17.5523 6 18 6.44772 18 7V9C18 9.55228 17.5523 10 17 10H15C14.4477 10 14 9.55228 14 9V7ZM14 15C14 14.4477 14.4477 14 15 14H17C17.5523 14 18 14.4477 18 15V17C18 17.5523 17.5523 18 17 18H15C14.4477 18 14 17.5523 14 17V15ZM15 22C14.4477 22 14 22.4477 14 23V25C14 25.5523 14.4477 26 15 26H17C17.5523 26 18 25.5523 18 25V23C18 22.4477 17.5523 22 17 22H15ZM23 6C22.4477 6 22 6.44772 22 7V9C22 9.55228 22.4477 10 23 10H25C25.5523 10 26 9.55228 26 9V7C26 6.44772 25.5523 6 25 6H23ZM23 14C22.4477 14 22 14.4477 22 15V17C22 17.5523 22.4477 18 23 18H25C25.5523 18 26 17.5523 26 17V15C26 14.4477 25.5523 14 25 14H23ZM22 23C22 22.4477 22.4477 22 23 22H25C25.5523 22 26 22.4477 26 23V25C26 25.5523 25.5523 26 25 26H23C22.4477 26 22 25.5523 22 25V23ZM11 10C10.4477 10 10 10.4477 10 11V13C10 13.5523 10.4477 14 11 14H13C13.5523 14 14 13.5523 14 13V11C14 10.4477 13.5523 10 13 10H11ZM11 18C10.4477 18 10 18.4477 10 19V21C10 21.5523 10.4477 22 11 22H13C13.5523 22 14 21.5523 14 21V19C14 18.4477 13.5523 18 13 18H11ZM18 11C18 10.4477 18.4477 10 19 10H21C21.5523 10 22 10.4477 22 11V13C22 13.5523 21.5523 14 21 14H19C18.4477 14 18 13.5523 18 13V11ZM18 19C18 18.4477 18.4477 18 19 18H21C21.5523 18 22 18.4477 22 19V21C22 21.5523 21.5523 22 21 22H19C18.4477 22 18 21.5523 18 21V19Z" fill="#0E1318"/>
</g>
</svg>
