<svg width="80" height="32" viewBox="0 0 80 32" fill="none" xmlns="http://www.w3.org/2000/svg">
<path d="M17.3662 11.0059C18.068 11.0059 18.6696 11.1335 19.1709 11.3887C19.6722 11.6439 20.0505 12.0039 20.3057 12.4688C20.5654 12.929 20.6953 13.4714 20.6953 14.0957C20.6953 14.7155 20.5654 15.2578 20.3057 15.7227C20.0505 16.1829 19.6722 16.5407 19.1709 16.7959C18.6696 17.0511 18.068 17.1787 17.3662 17.1787H15.2197V21H13.6475V11.0059H17.3662ZM17.2158 15.8936C18.46 15.8936 19.082 15.2943 19.082 14.0957C19.082 12.888 18.46 12.2842 17.2158 12.2842H15.2197V15.8936H17.2158ZM25.3301 21.1436C24.6055 21.1436 23.972 20.9932 23.4297 20.6924C22.8874 20.3916 22.4681 19.9473 22.1719 19.3594C21.8757 18.7715 21.7275 18.0628 21.7275 17.2334C21.7275 16.3994 21.8757 15.6908 22.1719 15.1074C22.4681 14.5195 22.8874 14.0752 23.4297 13.7744C23.972 13.4691 24.6055 13.3164 25.3301 13.3164C26.0547 13.3164 26.6882 13.4691 27.2305 13.7744C27.7728 14.0752 28.1921 14.5195 28.4883 15.1074C28.7891 15.6908 28.9395 16.3994 28.9395 17.2334C28.9395 18.0628 28.7891 18.7715 28.4883 19.3594C28.1921 19.9473 27.7728 20.3916 27.2305 20.6924C26.6882 20.9932 26.0547 21.1436 25.3301 21.1436ZM25.3301 19.8379C26.6927 19.8379 27.374 18.9697 27.374 17.2334C27.374 15.488 26.6927 14.6152 25.3301 14.6152C24.6693 14.6152 24.1634 14.8294 23.8125 15.2578C23.4616 15.6816 23.2861 16.3402 23.2861 17.2334C23.2861 18.9697 23.9674 19.8379 25.3301 19.8379ZM33.1709 21.1436C32.6787 21.1436 32.223 21.082 31.8037 20.959C31.389 20.8359 31.0358 20.6673 30.7441 20.4531C30.457 20.2344 30.2474 19.9883 30.1152 19.7148L30.9697 18.8057H31.1133C31.61 19.5212 32.2982 19.8789 33.1777 19.8789C33.638 19.8789 33.9867 19.7923 34.2236 19.6191C34.4652 19.4414 34.5859 19.1953 34.5859 18.8809C34.5859 18.6348 34.5062 18.432 34.3467 18.2725C34.1917 18.1084 33.9434 17.9854 33.6016 17.9033L32.4668 17.623C31.7559 17.4544 31.234 17.1901 30.9014 16.8301C30.5732 16.4655 30.4092 16.012 30.4092 15.4697C30.4092 15.0277 30.5208 14.6449 30.7441 14.3213C30.972 13.9977 31.2933 13.7493 31.708 13.5762C32.1227 13.403 32.6104 13.3164 33.1709 13.3164C33.859 13.3164 34.4128 13.4144 34.832 13.6104C35.2559 13.8018 35.5863 14.0661 35.8232 14.4033L35.0029 15.2578H34.8662C34.6429 14.998 34.3923 14.8112 34.1143 14.6973C33.8408 14.5833 33.5264 14.5264 33.1709 14.5264C32.7288 14.5264 32.3962 14.6016 32.1729 14.752C31.9495 14.8978 31.8379 15.112 31.8379 15.3945C31.8379 15.6452 31.9199 15.848 32.084 16.0029C32.248 16.1579 32.5329 16.2832 32.9385 16.3789L34.0322 16.6318C34.7432 16.7913 35.2581 17.0511 35.5771 17.4111C35.9007 17.7712 36.0625 18.2406 36.0625 18.8193C36.0625 19.2796 35.9508 19.6852 35.7275 20.0361C35.5042 20.3825 35.1761 20.6536 34.7432 20.8496C34.3102 21.0456 33.7861 21.1436 33.1709 21.1436ZM38.6123 12.2773C38.3252 12.2773 38.0905 12.1885 37.9082 12.0107C37.7259 11.833 37.6348 11.6051 37.6348 11.3271C37.6348 11.0537 37.7259 10.8281 37.9082 10.6504C38.0905 10.4727 38.3252 10.3838 38.6123 10.3838C38.8994 10.3838 39.1341 10.4727 39.3164 10.6504C39.5033 10.8281 39.5967 11.0537 39.5967 11.3271C39.5967 11.6051 39.5055 11.833 39.3232 12.0107C39.141 12.1885 38.904 12.2773 38.6123 12.2773ZM37.8604 21V13.46H39.3643V21H37.8604ZM45.7217 19.5029L46.1455 20.6035C45.9541 20.7767 45.708 20.9089 45.4072 21C45.1064 21.0957 44.7738 21.1436 44.4092 21.1436C43.6527 21.1436 43.0762 20.943 42.6797 20.542C42.2832 20.141 42.085 19.5417 42.085 18.7441V14.6631H40.8545V13.4531H42.085V11.9219L43.5889 11.6758V13.4531H45.8721V14.6631H43.5889V18.6211C43.5889 19.0404 43.6755 19.3434 43.8486 19.5303C44.0264 19.7171 44.2793 19.8105 44.6074 19.8105C44.9766 19.8105 45.3001 19.708 45.5781 19.5029H45.7217ZM48.333 12.2773C48.0459 12.2773 47.8112 12.1885 47.6289 12.0107C47.4466 11.833 47.3555 11.6051 47.3555 11.3271C47.3555 11.0537 47.4466 10.8281 47.6289 10.6504C47.8112 10.4727 48.0459 10.3838 48.333 10.3838C48.6201 10.3838 48.8548 10.4727 49.0371 10.6504C49.224 10.8281 49.3174 11.0537 49.3174 11.3271C49.3174 11.6051 49.2262 11.833 49.0439 12.0107C48.8617 12.1885 48.6247 12.2773 48.333 12.2773ZM47.5811 21V13.46H49.085V21H47.5811ZM54.6426 21.1436C53.918 21.1436 53.2845 20.9932 52.7422 20.6924C52.1999 20.3916 51.7806 19.9473 51.4844 19.3594C51.1882 18.7715 51.04 18.0628 51.04 17.2334C51.04 16.3994 51.1882 15.6908 51.4844 15.1074C51.7806 14.5195 52.1999 14.0752 52.7422 13.7744C53.2845 13.4691 53.918 13.3164 54.6426 13.3164C55.3672 13.3164 56.0007 13.4691 56.543 13.7744C57.0853 14.0752 57.5046 14.5195 57.8008 15.1074C58.1016 15.6908 58.252 16.3994 58.252 17.2334C58.252 18.0628 58.1016 18.7715 57.8008 19.3594C57.5046 19.9473 57.0853 20.3916 56.543 20.6924C56.0007 20.9932 55.3672 21.1436 54.6426 21.1436ZM54.6426 19.8379C56.0052 19.8379 56.6865 18.9697 56.6865 17.2334C56.6865 15.488 56.0052 14.6152 54.6426 14.6152C53.9818 14.6152 53.4759 14.8294 53.125 15.2578C52.7741 15.6816 52.5986 16.3402 52.5986 17.2334C52.5986 18.9697 53.2799 19.8379 54.6426 19.8379ZM60.2002 21V13.46H61.6357V14.6016L61.7793 14.6357C62.0208 14.2028 62.333 13.8747 62.7158 13.6514C63.0986 13.4281 63.5658 13.3164 64.1172 13.3164C65.0059 13.3164 65.653 13.5511 66.0586 14.0205C66.4688 14.4854 66.6738 15.1849 66.6738 16.1191V21H65.1699V16.249C65.1699 15.6611 65.0537 15.2396 64.8213 14.9844C64.5889 14.7292 64.2152 14.6016 63.7002 14.6016C63.085 14.6016 62.5973 14.8021 62.2373 15.2031C61.8818 15.6042 61.7041 16.2399 61.7041 17.1104V21H60.2002Z" fill="#0E1318"/>
</svg>
