<svg width="105" height="32" viewBox="0 0 105 32" fill="none" xmlns="http://www.w3.org/2000/svg">
<mask id="mask0_711_36213" style="mask-type:alpha" maskUnits="userSpaceOnUse" x="6" y="6" width="20" height="20">
<path opacity="0.3" fill-rule="evenodd" clip-rule="evenodd" d="M9.78193 12.7819C7.53513 13.947 6 16.2942 6 18.9999C6 22.8659 9.13401 25.9999 13 25.9999C15.7057 25.9999 18.0529 24.4648 19.2181 22.218C18.4865 22.5974 17.6794 22.8515 16.8253 22.9518C15.8354 23.9101 14.4866 24.4999 13 24.4999C9.96243 24.4999 7.5 22.0375 7.5 18.9999C7.5 17.5133 8.08979 16.1645 9.04814 15.1746C9.14845 14.3205 9.40253 13.5135 9.78193 12.7819Z" fill="#0E1318"/>
<circle cx="19" cy="13" r="6.25" stroke="#0E1318" stroke-width="1.5"/>
<path opacity="0.6" fill-rule="evenodd" clip-rule="evenodd" d="M12.7819 9.78186C10.5351 10.947 9 13.2942 9 15.9999C9 19.8659 12.134 22.9999 16 22.9999C18.7057 22.9999 21.0529 21.4648 22.2181 19.218C21.4865 19.5974 20.6794 19.8515 19.8253 19.9518C18.8354 20.9101 17.4866 21.4999 16 21.4999C12.9624 21.4999 10.5 19.0375 10.5 15.9999C10.5 14.5133 11.0898 13.1645 12.0481 12.1746C12.1485 11.3205 12.4025 10.5135 12.7819 9.78186Z" fill="#0E1318"/>
</mask>
<g mask="url(#mask0_711_36213)">
<path fill-rule="evenodd" clip-rule="evenodd" d="M19 18.5C22.0376 18.5 24.5 16.0376 24.5 13C24.5 9.96243 22.0376 7.5 19 7.5C15.9624 7.5 13.5 9.96243 13.5 13C13.5 16.0376 15.9624 18.5 19 18.5ZM22.218 19.2181C24.4648 18.0529 26 15.7057 26 13C26 9.13401 22.866 6 19 6C15.134 6 12 9.13401 12 13C12 16.866 15.134 20 19 20C19.2792 20 19.5546 19.9837 19.8252 19.9519C18.8354 20.9102 17.4865 21.4999 16 21.4999C12.9624 21.4999 10.5 19.0375 10.5 15.9999C10.5 14.5133 11.0898 13.1645 12.0481 12.1746C12.1485 11.3205 12.4025 10.5135 12.7819 9.78186C11.4986 10.4474 10.4475 11.4985 9.78193 12.7819C7.53513 13.947 6 16.2942 6 18.9999C6 22.8659 9.13401 25.9999 13 25.9999C15.7057 25.9999 18.0529 24.4648 19.2181 22.218C20.5014 21.5525 21.5525 20.5014 22.218 19.2181ZM16.8253 22.9518C16.5546 22.9836 16.2792 22.9999 16 22.9999C12.134 22.9999 9 19.8659 9 15.9999C9 15.7207 9.01635 15.4453 9.04814 15.1746C8.08979 16.1645 7.5 17.5133 7.5 18.9999C7.5 22.0375 9.96243 24.4999 13 24.4999C14.4866 24.4999 15.8354 23.9101 16.8253 22.9518Z" fill="#0E1318"/>
</g>
<path d="M45.3936 21H43.7256L42.8848 18.4775H38.8379L38.0039 21H36.3701L39.8428 11.0059H41.9209L45.3936 21ZM40.7725 12.6533L39.2822 17.1514H42.4404L40.9434 12.6533H40.7725ZM46.8701 21V13.46H48.3057V14.6016L48.4492 14.6357C48.6908 14.2028 49.0029 13.8747 49.3857 13.6514C49.7686 13.4281 50.2357 13.3164 50.7871 13.3164C51.6758 13.3164 52.3229 13.5511 52.7285 14.0205C53.1387 14.4854 53.3438 15.1849 53.3438 16.1191V21H51.8398V16.249C51.8398 15.6611 51.7236 15.2396 51.4912 14.9844C51.2588 14.7292 50.8851 14.6016 50.3701 14.6016C49.7549 14.6016 49.2673 14.8021 48.9072 15.2031C48.5518 15.6042 48.374 16.2399 48.374 17.1104V21H46.8701ZM56.3857 12.2773C56.0986 12.2773 55.8639 12.1885 55.6816 12.0107C55.4993 11.833 55.4082 11.6051 55.4082 11.3271C55.4082 11.0537 55.4993 10.8281 55.6816 10.6504C55.8639 10.4727 56.0986 10.3838 56.3857 10.3838C56.6729 10.3838 56.9076 10.4727 57.0898 10.6504C57.2767 10.8281 57.3701 11.0537 57.3701 11.3271C57.3701 11.6051 57.279 11.833 57.0967 12.0107C56.9144 12.1885 56.6774 12.2773 56.3857 12.2773ZM55.6338 21V13.46H57.1377V21H55.6338ZM59.5439 21V13.46H60.9795V14.5195L61.123 14.5469C61.3783 14.1322 61.679 13.8245 62.0254 13.624C62.3717 13.4189 62.7979 13.3164 63.3037 13.3164C63.8825 13.3164 64.3382 13.4281 64.6709 13.6514C65.0036 13.8747 65.2542 14.2165 65.4229 14.6768H65.5664C65.8125 14.221 66.1224 13.8815 66.4961 13.6582C66.8698 13.4303 67.3324 13.3164 67.8838 13.3164C68.6676 13.3164 69.251 13.5329 69.6338 13.9658C70.0166 14.3942 70.208 15.0368 70.208 15.8936V21H68.7041V16.0234C68.7041 15.5312 68.6016 15.1712 68.3965 14.9434C68.196 14.7155 67.8724 14.6016 67.4258 14.6016C66.8789 14.6016 66.4414 14.793 66.1133 15.1758C65.7897 15.5586 65.6279 16.1829 65.6279 17.0488V21H64.124V16.0234C64.124 15.5312 64.0215 15.1712 63.8164 14.9434C63.6159 14.7155 63.2923 14.6016 62.8457 14.6016C62.2988 14.6016 61.8613 14.7884 61.5332 15.1621C61.2096 15.5358 61.0479 16.1396 61.0479 16.9736V21H59.5439ZM74.3164 21.1436C73.5781 21.1436 72.9993 20.9476 72.5801 20.5557C72.1608 20.1592 71.9512 19.5986 71.9512 18.874C71.9512 18.4274 72.0446 18.0514 72.2314 17.7461C72.4183 17.4408 72.71 17.1924 73.1064 17.001C73.5029 16.805 74.0179 16.6546 74.6514 16.5498C75.1481 16.4678 75.5264 16.3766 75.7861 16.2764C76.0459 16.1761 76.2214 16.0645 76.3125 15.9414C76.4036 15.8138 76.4492 15.6543 76.4492 15.4629C76.4492 15.1712 76.3467 14.9479 76.1416 14.793C75.9411 14.638 75.613 14.5605 75.1572 14.5605C74.2959 14.5605 73.5645 14.9183 72.9629 15.6338H72.8262L72.1562 14.6494C72.5072 14.2347 72.9424 13.9089 73.4619 13.6719C73.986 13.4349 74.5671 13.3164 75.2051 13.3164C76.1484 13.3164 76.8366 13.5192 77.2695 13.9248C77.707 14.3304 77.9258 14.9001 77.9258 15.6338V19.2705C77.9258 19.6488 78.0876 19.8379 78.4111 19.8379C78.5296 19.8379 78.6436 19.8174 78.7529 19.7764L78.8486 19.8037L78.9785 20.8496C78.8874 20.9134 78.7598 20.9635 78.5957 21C78.4362 21.0365 78.2653 21.0547 78.083 21.0547C77.6501 21.0547 77.3174 20.9658 77.085 20.7881C76.8571 20.6104 76.6999 20.3392 76.6133 19.9746L76.4697 19.9609C76.2692 20.3574 75.9912 20.6536 75.6357 20.8496C75.2848 21.0456 74.8451 21.1436 74.3164 21.1436ZM74.7402 19.9883C75.0911 19.9883 75.3988 19.9085 75.6631 19.749C75.9274 19.585 76.1302 19.3525 76.2715 19.0518C76.4128 18.751 76.4834 18.3978 76.4834 17.9922V17.1309L76.3535 17.1035C76.2122 17.2083 76.0345 17.2972 75.8203 17.3701C75.6107 17.4385 75.3099 17.5046 74.918 17.5684C74.3893 17.6458 74.0133 17.7848 73.79 17.9854C73.5713 18.1813 73.4619 18.4593 73.4619 18.8193C73.4619 19.2021 73.5736 19.4938 73.7969 19.6943C74.0202 19.8903 74.3346 19.9883 74.7402 19.9883ZM84.2217 19.5029L84.6455 20.6035C84.4541 20.7767 84.208 20.9089 83.9072 21C83.6064 21.0957 83.2738 21.1436 82.9092 21.1436C82.1527 21.1436 81.5762 20.943 81.1797 20.542C80.7832 20.141 80.585 19.5417 80.585 18.7441V14.6631H79.3545V13.4531H80.585V11.9219L82.0889 11.6758V13.4531H84.3721V14.6631H82.0889V18.6211C82.0889 19.0404 82.1755 19.3434 82.3486 19.5303C82.5264 19.7171 82.7793 19.8105 83.1074 19.8105C83.4766 19.8105 83.8001 19.708 84.0781 19.5029H84.2217ZM92.1035 17.5684H87.0859C87.1725 19.0814 87.8743 19.8379 89.1914 19.8379C89.679 19.8379 90.071 19.7513 90.3672 19.5781C90.668 19.4004 90.9049 19.127 91.0781 18.7578H91.2217L92.2129 19.373C91.9805 19.9108 91.6182 20.3415 91.126 20.665C90.6383 20.984 89.9935 21.1436 89.1914 21.1436C88.4395 21.1436 87.79 20.9977 87.2432 20.7061C86.6963 20.4144 86.2747 19.9769 85.9785 19.3936C85.6823 18.8102 85.5342 18.0902 85.5342 17.2334C85.5342 16.3766 85.6891 15.6543 85.999 15.0664C86.3089 14.4785 86.7327 14.041 87.2705 13.7539C87.8083 13.4622 88.4144 13.3164 89.0889 13.3164C90.1051 13.3164 90.889 13.5944 91.4404 14.1504C91.9964 14.7064 92.2767 15.5244 92.2812 16.6045C92.2812 17.0101 92.2699 17.304 92.2471 17.4863L92.1035 17.5684ZM90.8252 16.4951C90.807 15.807 90.6497 15.3057 90.3535 14.9912C90.0618 14.6768 89.6403 14.5195 89.0889 14.5195C88.5329 14.5195 88.0863 14.6768 87.749 14.9912C87.4163 15.3057 87.2067 15.807 87.1201 16.4951H90.8252Z" fill="#0E1318"/>
</svg>
