<svg width="32" height="32" viewBox="0 0 32 32" fill="none" xmlns="http://www.w3.org/2000/svg">
<path d="M24.25 8H7.75C7.33579 8 7 8.33579 7 8.75C7 9.16421 7.33579 9.5 7.75 9.5H24.25C24.6642 9.5 25 9.16421 25 8.75C25 8.33579 24.6642 8 24.25 8Z" fill="#0E1318"/>
<path d="M24 12.5H8C7.44772 12.5 7 12.9477 7 13.5V14.5C7 15.0523 7.44772 15.5 8 15.5H24C24.5523 15.5 25 15.0523 25 14.5V13.5C25 12.9477 24.5523 12.5 24 12.5Z" fill="#0E1318"/>
<path d="M24 18.5H8C7.44772 18.5 7 18.9477 7 19.5V23C7 23.5523 7.44772 24 8 24H24C24.5523 24 25 23.5523 25 23V19.5C25 18.9477 24.5523 18.5 24 18.5Z" fill="#0E1318"/>
</svg>
