<svg width="50" height="32" viewBox="0 0 50 32" fill="none" xmlns="http://www.w3.org/2000/svg">
<path d="M19.9277 11.0059V12.3184H15.3955V15.4561H19.4902V16.7617H15.3955V21H13.8232V11.0059H19.9277ZM23.4961 21.1436C22.89 21.1436 22.4206 20.9772 22.0879 20.6445C21.7552 20.3073 21.5889 19.8014 21.5889 19.127V10.4316H23.0928V19.0518C23.0928 19.3298 23.1475 19.5303 23.2568 19.6533C23.3662 19.7764 23.5326 19.8379 23.7559 19.8379C23.8835 19.8379 24.0202 19.8174 24.166 19.7764L24.2617 19.8037L24.4121 20.9658C24.3164 21.0251 24.1865 21.0684 24.0225 21.0957C23.863 21.1276 23.6875 21.1436 23.4961 21.1436ZM26.6064 12.2773C26.3193 12.2773 26.0846 12.1885 25.9023 12.0107C25.7201 11.833 25.6289 11.6051 25.6289 11.3271C25.6289 11.0537 25.7201 10.8281 25.9023 10.6504C26.0846 10.4727 26.3193 10.3838 26.6064 10.3838C26.8936 10.3838 27.1283 10.4727 27.3105 10.6504C27.4974 10.8281 27.5908 11.0537 27.5908 11.3271C27.5908 11.6051 27.4997 11.833 27.3174 12.0107C27.1351 12.1885 26.8981 12.2773 26.6064 12.2773ZM25.8545 21V13.46H27.3584V21H25.8545ZM29.7646 24.0557V13.46H31.2686V14.5127L31.4121 14.54C31.6673 14.1253 31.9932 13.8177 32.3896 13.6172C32.7861 13.4167 33.2396 13.3164 33.75 13.3164C34.3698 13.3164 34.9098 13.46 35.3701 13.7471C35.8304 14.0342 36.1882 14.4717 36.4434 15.0596C36.6986 15.6429 36.8262 16.3675 36.8262 17.2334C36.8262 18.0947 36.6895 18.8171 36.416 19.4004C36.1471 19.9837 35.7734 20.4212 35.2949 20.7129C34.821 21 34.2718 21.1436 33.6475 21.1436C33.1598 21.1436 32.7314 21.0592 32.3623 20.8906C31.9932 20.722 31.6764 20.4531 31.4121 20.084L31.2686 20.1113V24.0557H29.7646ZM33.2578 19.8379C33.9095 19.8379 34.4062 19.6305 34.748 19.2158C35.0944 18.7965 35.2676 18.1357 35.2676 17.2334C35.2676 16.3265 35.0944 15.6634 34.748 15.2441C34.4062 14.8249 33.9095 14.6152 33.2578 14.6152C32.6517 14.6152 32.1663 14.8317 31.8018 15.2646C31.4372 15.6976 31.2549 16.3538 31.2549 17.2334C31.2549 18.1084 31.4372 18.7624 31.8018 19.1953C32.1663 19.6237 32.6517 19.8379 33.2578 19.8379Z" fill="#0E1318"/>
</svg>
