<svg width="232" height="64" viewBox="0 0 232 64" fill="none" xmlns="http://www.w3.org/2000/svg">
<path d="M79.444 36.536C79.308 36.536 79.184 36.624 79.12 36.808C78.3 39.148 77.192 40.54 76.28 40.54C75.756 40.54 75.544 39.956 75.544 39.04C75.544 36.748 76.916 31.888 77.608 29.672C77.688 29.404 77.74 29.164 77.74 28.96C77.74 28.316 77.388 28 76.516 28C75.576 28 74.564 28.368 73.58 30.092C73.24 28.572 72.212 27.908 70.776 27.908C69.116 27.908 67.512 28.976 66.192 30.708C64.872 32.44 63.32 33.008 62.152 32.728C62.992 30.672 63.304 29.136 63.304 27.996C63.304 26.208 62.42 25.128 60.992 25.128C58.82 25.128 57.568 27.2 57.568 29.38C57.568 31.064 58.332 32.796 60.012 33.636C58.604 36.82 56.548 39.7 55.768 39.7C54.76 39.7 54.464 34.768 54.52 31.24C54.556 29.216 54.724 29.112 54.724 28.5C54.724 28.148 54.496 27.908 53.58 27.908C51.444 27.908 50.784 29.716 50.684 31.792C50.652 32.58 50.528 33.364 50.316 34.124C49.424 37.308 47.584 39.724 46.384 39.724C45.828 39.724 45.676 39.168 45.676 38.44C45.676 36.148 46.96 33.284 46.96 30.84C46.96 29.044 46.172 27.908 44.688 27.908C42.94 27.908 40.628 29.988 38.44 33.884C39.16 30.9 39.456 28.012 37.324 28.012C36.86 28.02 36.408 28.136 36 28.356C35.72 28.488 35.548 28.776 35.568 29.084C35.772 32.26 33.008 40.396 30.388 40.396C29.912 40.396 29.68 39.88 29.68 39.048C29.68 36.752 31.048 31.904 31.736 29.684C31.824 29.396 31.872 29.148 31.872 28.932C31.872 28.324 31.496 28.012 30.644 28.012C29.708 28.012 28.692 28.368 27.712 30.092C27.368 28.572 26.34 27.908 24.904 27.908C22.548 27.908 19.916 30.4 18.76 33.648C17.212 37.984 14.092 42.172 9.892 42.172C6.08 42.172 4.068 39 4.068 33.988C4.068 26.752 9.38 20.84 13.32 20.84C15.204 20.84 16.104 22.04 16.104 23.88C16.104 26.108 14.86 27.144 14.86 27.992C14.86 28.252 15.076 28.508 15.504 28.508C17.216 28.508 19.232 26.496 19.232 23.752C19.232 21.008 17.004 19 13.064 19C6.552 19 0 25.552 0 33.948C0 40.628 3.296 44.656 8.996 44.656C12.884 44.656 16.28 41.632 18.112 38.104C18.32 41.028 19.648 42.556 21.672 42.556C23.472 42.556 24.928 41.484 26.04 39.6C26.468 41.572 27.604 42.536 29.08 42.536C30.772 42.536 32.188 41.464 33.536 39.472C33.516 41.036 33.872 42.508 35.228 42.508C35.868 42.508 36.632 42.36 36.768 41.8C38.196 35.896 41.724 31.076 42.804 31.076C43.124 31.076 43.212 31.384 43.212 31.748C43.212 33.352 42.08 36.64 42.08 38.74C42.08 41.008 43.044 42.508 45.036 42.508C47.244 42.508 49.488 39.804 50.984 35.852C51.452 39.544 52.464 42.524 54.048 42.524C55.992 42.524 59.444 38.432 61.536 34.1C62.356 34.204 63.588 34.176 64.772 33.34C64.268 34.616 63.972 36.012 63.972 37.408C63.972 41.428 65.892 42.556 67.544 42.556C69.34 42.556 70.796 41.484 71.912 39.6C72.28 41.3 73.22 42.532 74.948 42.532C77.652 42.532 80 39.768 80 37.5C80 36.9 79.744 36.536 79.444 36.536ZM23.32 40.328C22.228 40.328 21.8 39.228 21.8 37.588C21.8 34.74 23.748 29.984 25.808 29.984C26.708 29.984 27.048 31.044 27.048 32.34C27.048 35.232 25.196 40.328 23.32 40.328ZM60.724 31.828C60.072 31.052 59.836 29.996 59.836 29.056C59.836 27.896 60.26 26.916 60.768 26.916C61.276 26.916 61.432 27.416 61.432 28.112C61.432 29.276 61.016 30.976 60.724 31.828ZM69.192 40.328C68.1 40.328 67.672 39.064 67.672 37.588C67.672 34.84 69.62 29.984 71.696 29.984C72.596 29.984 72.916 31.036 72.916 32.34C72.916 35.232 71.096 40.328 69.192 40.328Z" fill="#7D2AE7"/>
<path d="M79.444 36.536C79.308 36.536 79.184 36.624 79.12 36.808C78.3 39.148 77.192 40.54 76.28 40.54C75.756 40.54 75.544 39.956 75.544 39.04C75.544 36.748 76.916 31.888 77.608 29.672C77.688 29.404 77.74 29.164 77.74 28.96C77.74 28.316 77.388 28 76.516 28C75.576 28 74.564 28.368 73.58 30.092C73.24 28.572 72.212 27.908 70.776 27.908C69.116 27.908 67.512 28.976 66.192 30.708C64.872 32.44 63.32 33.008 62.152 32.728C62.992 30.672 63.304 29.136 63.304 27.996C63.304 26.208 62.42 25.128 60.992 25.128C58.82 25.128 57.568 27.2 57.568 29.38C57.568 31.064 58.332 32.796 60.012 33.636C58.604 36.82 56.548 39.7 55.768 39.7C54.76 39.7 54.464 34.768 54.52 31.24C54.556 29.216 54.724 29.112 54.724 28.5C54.724 28.148 54.496 27.908 53.58 27.908C51.444 27.908 50.784 29.716 50.684 31.792C50.652 32.58 50.528 33.364 50.316 34.124C49.424 37.308 47.584 39.724 46.384 39.724C45.828 39.724 45.676 39.168 45.676 38.44C45.676 36.148 46.96 33.284 46.96 30.84C46.96 29.044 46.172 27.908 44.688 27.908C42.94 27.908 40.628 29.988 38.44 33.884C39.16 30.9 39.456 28.012 37.324 28.012C36.86 28.02 36.408 28.136 36 28.356C35.72 28.488 35.548 28.776 35.568 29.084C35.772 32.26 33.008 40.396 30.388 40.396C29.912 40.396 29.68 39.88 29.68 39.048C29.68 36.752 31.048 31.904 31.736 29.684C31.824 29.396 31.872 29.148 31.872 28.932C31.872 28.324 31.496 28.012 30.644 28.012C29.708 28.012 28.692 28.368 27.712 30.092C27.368 28.572 26.34 27.908 24.904 27.908C22.548 27.908 19.916 30.4 18.76 33.648C17.212 37.984 14.092 42.172 9.892 42.172C6.08 42.172 4.068 39 4.068 33.988C4.068 26.752 9.38 20.84 13.32 20.84C15.204 20.84 16.104 22.04 16.104 23.88C16.104 26.108 14.86 27.144 14.86 27.992C14.86 28.252 15.076 28.508 15.504 28.508C17.216 28.508 19.232 26.496 19.232 23.752C19.232 21.008 17.004 19 13.064 19C6.552 19 0 25.552 0 33.948C0 40.628 3.296 44.656 8.996 44.656C12.884 44.656 16.28 41.632 18.112 38.104C18.32 41.028 19.648 42.556 21.672 42.556C23.472 42.556 24.928 41.484 26.04 39.6C26.468 41.572 27.604 42.536 29.08 42.536C30.772 42.536 32.188 41.464 33.536 39.472C33.516 41.036 33.872 42.508 35.228 42.508C35.868 42.508 36.632 42.36 36.768 41.8C38.196 35.896 41.724 31.076 42.804 31.076C43.124 31.076 43.212 31.384 43.212 31.748C43.212 33.352 42.08 36.64 42.08 38.74C42.08 41.008 43.044 42.508 45.036 42.508C47.244 42.508 49.488 39.804 50.984 35.852C51.452 39.544 52.464 42.524 54.048 42.524C55.992 42.524 59.444 38.432 61.536 34.1C62.356 34.204 63.588 34.176 64.772 33.34C64.268 34.616 63.972 36.012 63.972 37.408C63.972 41.428 65.892 42.556 67.544 42.556C69.34 42.556 70.796 41.484 71.912 39.6C72.28 41.3 73.22 42.532 74.948 42.532C77.652 42.532 80 39.768 80 37.5C80 36.9 79.744 36.536 79.444 36.536ZM23.32 40.328C22.228 40.328 21.8 39.228 21.8 37.588C21.8 34.74 23.748 29.984 25.808 29.984C26.708 29.984 27.048 31.044 27.048 32.34C27.048 35.232 25.196 40.328 23.32 40.328ZM60.724 31.828C60.072 31.052 59.836 29.996 59.836 29.056C59.836 27.896 60.26 26.916 60.768 26.916C61.276 26.916 61.432 27.416 61.432 28.112C61.432 29.276 61.016 30.976 60.724 31.828ZM69.192 40.328C68.1 40.328 67.672 39.064 67.672 37.588C67.672 34.84 69.62 29.984 71.696 29.984C72.596 29.984 72.916 31.036 72.916 32.34C72.916 35.232 71.096 40.328 69.192 40.328Z" fill="url(#paint0_radial_1117_1293)"/>
<path d="M79.444 36.536C79.308 36.536 79.184 36.624 79.12 36.808C78.3 39.148 77.192 40.54 76.28 40.54C75.756 40.54 75.544 39.956 75.544 39.04C75.544 36.748 76.916 31.888 77.608 29.672C77.688 29.404 77.74 29.164 77.74 28.96C77.74 28.316 77.388 28 76.516 28C75.576 28 74.564 28.368 73.58 30.092C73.24 28.572 72.212 27.908 70.776 27.908C69.116 27.908 67.512 28.976 66.192 30.708C64.872 32.44 63.32 33.008 62.152 32.728C62.992 30.672 63.304 29.136 63.304 27.996C63.304 26.208 62.42 25.128 60.992 25.128C58.82 25.128 57.568 27.2 57.568 29.38C57.568 31.064 58.332 32.796 60.012 33.636C58.604 36.82 56.548 39.7 55.768 39.7C54.76 39.7 54.464 34.768 54.52 31.24C54.556 29.216 54.724 29.112 54.724 28.5C54.724 28.148 54.496 27.908 53.58 27.908C51.444 27.908 50.784 29.716 50.684 31.792C50.652 32.58 50.528 33.364 50.316 34.124C49.424 37.308 47.584 39.724 46.384 39.724C45.828 39.724 45.676 39.168 45.676 38.44C45.676 36.148 46.96 33.284 46.96 30.84C46.96 29.044 46.172 27.908 44.688 27.908C42.94 27.908 40.628 29.988 38.44 33.884C39.16 30.9 39.456 28.012 37.324 28.012C36.86 28.02 36.408 28.136 36 28.356C35.72 28.488 35.548 28.776 35.568 29.084C35.772 32.26 33.008 40.396 30.388 40.396C29.912 40.396 29.68 39.88 29.68 39.048C29.68 36.752 31.048 31.904 31.736 29.684C31.824 29.396 31.872 29.148 31.872 28.932C31.872 28.324 31.496 28.012 30.644 28.012C29.708 28.012 28.692 28.368 27.712 30.092C27.368 28.572 26.34 27.908 24.904 27.908C22.548 27.908 19.916 30.4 18.76 33.648C17.212 37.984 14.092 42.172 9.892 42.172C6.08 42.172 4.068 39 4.068 33.988C4.068 26.752 9.38 20.84 13.32 20.84C15.204 20.84 16.104 22.04 16.104 23.88C16.104 26.108 14.86 27.144 14.86 27.992C14.86 28.252 15.076 28.508 15.504 28.508C17.216 28.508 19.232 26.496 19.232 23.752C19.232 21.008 17.004 19 13.064 19C6.552 19 0 25.552 0 33.948C0 40.628 3.296 44.656 8.996 44.656C12.884 44.656 16.28 41.632 18.112 38.104C18.32 41.028 19.648 42.556 21.672 42.556C23.472 42.556 24.928 41.484 26.04 39.6C26.468 41.572 27.604 42.536 29.08 42.536C30.772 42.536 32.188 41.464 33.536 39.472C33.516 41.036 33.872 42.508 35.228 42.508C35.868 42.508 36.632 42.36 36.768 41.8C38.196 35.896 41.724 31.076 42.804 31.076C43.124 31.076 43.212 31.384 43.212 31.748C43.212 33.352 42.08 36.64 42.08 38.74C42.08 41.008 43.044 42.508 45.036 42.508C47.244 42.508 49.488 39.804 50.984 35.852C51.452 39.544 52.464 42.524 54.048 42.524C55.992 42.524 59.444 38.432 61.536 34.1C62.356 34.204 63.588 34.176 64.772 33.34C64.268 34.616 63.972 36.012 63.972 37.408C63.972 41.428 65.892 42.556 67.544 42.556C69.34 42.556 70.796 41.484 71.912 39.6C72.28 41.3 73.22 42.532 74.948 42.532C77.652 42.532 80 39.768 80 37.5C80 36.9 79.744 36.536 79.444 36.536ZM23.32 40.328C22.228 40.328 21.8 39.228 21.8 37.588C21.8 34.74 23.748 29.984 25.808 29.984C26.708 29.984 27.048 31.044 27.048 32.34C27.048 35.232 25.196 40.328 23.32 40.328ZM60.724 31.828C60.072 31.052 59.836 29.996 59.836 29.056C59.836 27.896 60.26 26.916 60.768 26.916C61.276 26.916 61.432 27.416 61.432 28.112C61.432 29.276 61.016 30.976 60.724 31.828ZM69.192 40.328C68.1 40.328 67.672 39.064 67.672 37.588C67.672 34.84 69.62 29.984 71.696 29.984C72.596 29.984 72.916 31.036 72.916 32.34C72.916 35.232 71.096 40.328 69.192 40.328Z" fill="url(#paint1_radial_1117_1293)"/>
<path d="M79.444 36.536C79.308 36.536 79.184 36.624 79.12 36.808C78.3 39.148 77.192 40.54 76.28 40.54C75.756 40.54 75.544 39.956 75.544 39.04C75.544 36.748 76.916 31.888 77.608 29.672C77.688 29.404 77.74 29.164 77.74 28.96C77.74 28.316 77.388 28 76.516 28C75.576 28 74.564 28.368 73.58 30.092C73.24 28.572 72.212 27.908 70.776 27.908C69.116 27.908 67.512 28.976 66.192 30.708C64.872 32.44 63.32 33.008 62.152 32.728C62.992 30.672 63.304 29.136 63.304 27.996C63.304 26.208 62.42 25.128 60.992 25.128C58.82 25.128 57.568 27.2 57.568 29.38C57.568 31.064 58.332 32.796 60.012 33.636C58.604 36.82 56.548 39.7 55.768 39.7C54.76 39.7 54.464 34.768 54.52 31.24C54.556 29.216 54.724 29.112 54.724 28.5C54.724 28.148 54.496 27.908 53.58 27.908C51.444 27.908 50.784 29.716 50.684 31.792C50.652 32.58 50.528 33.364 50.316 34.124C49.424 37.308 47.584 39.724 46.384 39.724C45.828 39.724 45.676 39.168 45.676 38.44C45.676 36.148 46.96 33.284 46.96 30.84C46.96 29.044 46.172 27.908 44.688 27.908C42.94 27.908 40.628 29.988 38.44 33.884C39.16 30.9 39.456 28.012 37.324 28.012C36.86 28.02 36.408 28.136 36 28.356C35.72 28.488 35.548 28.776 35.568 29.084C35.772 32.26 33.008 40.396 30.388 40.396C29.912 40.396 29.68 39.88 29.68 39.048C29.68 36.752 31.048 31.904 31.736 29.684C31.824 29.396 31.872 29.148 31.872 28.932C31.872 28.324 31.496 28.012 30.644 28.012C29.708 28.012 28.692 28.368 27.712 30.092C27.368 28.572 26.34 27.908 24.904 27.908C22.548 27.908 19.916 30.4 18.76 33.648C17.212 37.984 14.092 42.172 9.892 42.172C6.08 42.172 4.068 39 4.068 33.988C4.068 26.752 9.38 20.84 13.32 20.84C15.204 20.84 16.104 22.04 16.104 23.88C16.104 26.108 14.86 27.144 14.86 27.992C14.86 28.252 15.076 28.508 15.504 28.508C17.216 28.508 19.232 26.496 19.232 23.752C19.232 21.008 17.004 19 13.064 19C6.552 19 0 25.552 0 33.948C0 40.628 3.296 44.656 8.996 44.656C12.884 44.656 16.28 41.632 18.112 38.104C18.32 41.028 19.648 42.556 21.672 42.556C23.472 42.556 24.928 41.484 26.04 39.6C26.468 41.572 27.604 42.536 29.08 42.536C30.772 42.536 32.188 41.464 33.536 39.472C33.516 41.036 33.872 42.508 35.228 42.508C35.868 42.508 36.632 42.36 36.768 41.8C38.196 35.896 41.724 31.076 42.804 31.076C43.124 31.076 43.212 31.384 43.212 31.748C43.212 33.352 42.08 36.64 42.08 38.74C42.08 41.008 43.044 42.508 45.036 42.508C47.244 42.508 49.488 39.804 50.984 35.852C51.452 39.544 52.464 42.524 54.048 42.524C55.992 42.524 59.444 38.432 61.536 34.1C62.356 34.204 63.588 34.176 64.772 33.34C64.268 34.616 63.972 36.012 63.972 37.408C63.972 41.428 65.892 42.556 67.544 42.556C69.34 42.556 70.796 41.484 71.912 39.6C72.28 41.3 73.22 42.532 74.948 42.532C77.652 42.532 80 39.768 80 37.5C80 36.9 79.744 36.536 79.444 36.536ZM23.32 40.328C22.228 40.328 21.8 39.228 21.8 37.588C21.8 34.74 23.748 29.984 25.808 29.984C26.708 29.984 27.048 31.044 27.048 32.34C27.048 35.232 25.196 40.328 23.32 40.328ZM60.724 31.828C60.072 31.052 59.836 29.996 59.836 29.056C59.836 27.896 60.26 26.916 60.768 26.916C61.276 26.916 61.432 27.416 61.432 28.112C61.432 29.276 61.016 30.976 60.724 31.828ZM69.192 40.328C68.1 40.328 67.672 39.064 67.672 37.588C67.672 34.84 69.62 29.984 71.696 29.984C72.596 29.984 72.916 31.036 72.916 32.34C72.916 35.232 71.096 40.328 69.192 40.328Z" fill="url(#paint2_radial_1117_1293)"/>
<path d="M79.444 36.536C79.308 36.536 79.184 36.624 79.12 36.808C78.3 39.148 77.192 40.54 76.28 40.54C75.756 40.54 75.544 39.956 75.544 39.04C75.544 36.748 76.916 31.888 77.608 29.672C77.688 29.404 77.74 29.164 77.74 28.96C77.74 28.316 77.388 28 76.516 28C75.576 28 74.564 28.368 73.58 30.092C73.24 28.572 72.212 27.908 70.776 27.908C69.116 27.908 67.512 28.976 66.192 30.708C64.872 32.44 63.32 33.008 62.152 32.728C62.992 30.672 63.304 29.136 63.304 27.996C63.304 26.208 62.42 25.128 60.992 25.128C58.82 25.128 57.568 27.2 57.568 29.38C57.568 31.064 58.332 32.796 60.012 33.636C58.604 36.82 56.548 39.7 55.768 39.7C54.76 39.7 54.464 34.768 54.52 31.24C54.556 29.216 54.724 29.112 54.724 28.5C54.724 28.148 54.496 27.908 53.58 27.908C51.444 27.908 50.784 29.716 50.684 31.792C50.652 32.58 50.528 33.364 50.316 34.124C49.424 37.308 47.584 39.724 46.384 39.724C45.828 39.724 45.676 39.168 45.676 38.44C45.676 36.148 46.96 33.284 46.96 30.84C46.96 29.044 46.172 27.908 44.688 27.908C42.94 27.908 40.628 29.988 38.44 33.884C39.16 30.9 39.456 28.012 37.324 28.012C36.86 28.02 36.408 28.136 36 28.356C35.72 28.488 35.548 28.776 35.568 29.084C35.772 32.26 33.008 40.396 30.388 40.396C29.912 40.396 29.68 39.88 29.68 39.048C29.68 36.752 31.048 31.904 31.736 29.684C31.824 29.396 31.872 29.148 31.872 28.932C31.872 28.324 31.496 28.012 30.644 28.012C29.708 28.012 28.692 28.368 27.712 30.092C27.368 28.572 26.34 27.908 24.904 27.908C22.548 27.908 19.916 30.4 18.76 33.648C17.212 37.984 14.092 42.172 9.892 42.172C6.08 42.172 4.068 39 4.068 33.988C4.068 26.752 9.38 20.84 13.32 20.84C15.204 20.84 16.104 22.04 16.104 23.88C16.104 26.108 14.86 27.144 14.86 27.992C14.86 28.252 15.076 28.508 15.504 28.508C17.216 28.508 19.232 26.496 19.232 23.752C19.232 21.008 17.004 19 13.064 19C6.552 19 0 25.552 0 33.948C0 40.628 3.296 44.656 8.996 44.656C12.884 44.656 16.28 41.632 18.112 38.104C18.32 41.028 19.648 42.556 21.672 42.556C23.472 42.556 24.928 41.484 26.04 39.6C26.468 41.572 27.604 42.536 29.08 42.536C30.772 42.536 32.188 41.464 33.536 39.472C33.516 41.036 33.872 42.508 35.228 42.508C35.868 42.508 36.632 42.36 36.768 41.8C38.196 35.896 41.724 31.076 42.804 31.076C43.124 31.076 43.212 31.384 43.212 31.748C43.212 33.352 42.08 36.64 42.08 38.74C42.08 41.008 43.044 42.508 45.036 42.508C47.244 42.508 49.488 39.804 50.984 35.852C51.452 39.544 52.464 42.524 54.048 42.524C55.992 42.524 59.444 38.432 61.536 34.1C62.356 34.204 63.588 34.176 64.772 33.34C64.268 34.616 63.972 36.012 63.972 37.408C63.972 41.428 65.892 42.556 67.544 42.556C69.34 42.556 70.796 41.484 71.912 39.6C72.28 41.3 73.22 42.532 74.948 42.532C77.652 42.532 80 39.768 80 37.5C80 36.9 79.744 36.536 79.444 36.536ZM23.32 40.328C22.228 40.328 21.8 39.228 21.8 37.588C21.8 34.74 23.748 29.984 25.808 29.984C26.708 29.984 27.048 31.044 27.048 32.34C27.048 35.232 25.196 40.328 23.32 40.328ZM60.724 31.828C60.072 31.052 59.836 29.996 59.836 29.056C59.836 27.896 60.26 26.916 60.768 26.916C61.276 26.916 61.432 27.416 61.432 28.112C61.432 29.276 61.016 30.976 60.724 31.828ZM69.192 40.328C68.1 40.328 67.672 39.064 67.672 37.588C67.672 34.84 69.62 29.984 71.696 29.984C72.596 29.984 72.916 31.036 72.916 32.34C72.916 35.232 71.096 40.328 69.192 40.328Z" fill="url(#paint3_radial_1117_1293)"/>
<path d="M79.444 36.536C79.308 36.536 79.184 36.624 79.12 36.808C78.3 39.148 77.192 40.54 76.28 40.54C75.756 40.54 75.544 39.956 75.544 39.04C75.544 36.748 76.916 31.888 77.608 29.672C77.688 29.404 77.74 29.164 77.74 28.96C77.74 28.316 77.388 28 76.516 28C75.576 28 74.564 28.368 73.58 30.092C73.24 28.572 72.212 27.908 70.776 27.908C69.116 27.908 67.512 28.976 66.192 30.708C64.872 32.44 63.32 33.008 62.152 32.728C62.992 30.672 63.304 29.136 63.304 27.996C63.304 26.208 62.42 25.128 60.992 25.128C58.82 25.128 57.568 27.2 57.568 29.38C57.568 31.064 58.332 32.796 60.012 33.636C58.604 36.82 56.548 39.7 55.768 39.7C54.76 39.7 54.464 34.768 54.52 31.24C54.556 29.216 54.724 29.112 54.724 28.5C54.724 28.148 54.496 27.908 53.58 27.908C51.444 27.908 50.784 29.716 50.684 31.792C50.652 32.58 50.528 33.364 50.316 34.124C49.424 37.308 47.584 39.724 46.384 39.724C45.828 39.724 45.676 39.168 45.676 38.44C45.676 36.148 46.96 33.284 46.96 30.84C46.96 29.044 46.172 27.908 44.688 27.908C42.94 27.908 40.628 29.988 38.44 33.884C39.16 30.9 39.456 28.012 37.324 28.012C36.86 28.02 36.408 28.136 36 28.356C35.72 28.488 35.548 28.776 35.568 29.084C35.772 32.26 33.008 40.396 30.388 40.396C29.912 40.396 29.68 39.88 29.68 39.048C29.68 36.752 31.048 31.904 31.736 29.684C31.824 29.396 31.872 29.148 31.872 28.932C31.872 28.324 31.496 28.012 30.644 28.012C29.708 28.012 28.692 28.368 27.712 30.092C27.368 28.572 26.34 27.908 24.904 27.908C22.548 27.908 19.916 30.4 18.76 33.648C17.212 37.984 14.092 42.172 9.892 42.172C6.08 42.172 4.068 39 4.068 33.988C4.068 26.752 9.38 20.84 13.32 20.84C15.204 20.84 16.104 22.04 16.104 23.88C16.104 26.108 14.86 27.144 14.86 27.992C14.86 28.252 15.076 28.508 15.504 28.508C17.216 28.508 19.232 26.496 19.232 23.752C19.232 21.008 17.004 19 13.064 19C6.552 19 0 25.552 0 33.948C0 40.628 3.296 44.656 8.996 44.656C12.884 44.656 16.28 41.632 18.112 38.104C18.32 41.028 19.648 42.556 21.672 42.556C23.472 42.556 24.928 41.484 26.04 39.6C26.468 41.572 27.604 42.536 29.08 42.536C30.772 42.536 32.188 41.464 33.536 39.472C33.516 41.036 33.872 42.508 35.228 42.508C35.868 42.508 36.632 42.36 36.768 41.8C38.196 35.896 41.724 31.076 42.804 31.076C43.124 31.076 43.212 31.384 43.212 31.748C43.212 33.352 42.08 36.64 42.08 38.74C42.08 41.008 43.044 42.508 45.036 42.508C47.244 42.508 49.488 39.804 50.984 35.852C51.452 39.544 52.464 42.524 54.048 42.524C55.992 42.524 59.444 38.432 61.536 34.1C62.356 34.204 63.588 34.176 64.772 33.34C64.268 34.616 63.972 36.012 63.972 37.408C63.972 41.428 65.892 42.556 67.544 42.556C69.34 42.556 70.796 41.484 71.912 39.6C72.28 41.3 73.22 42.532 74.948 42.532C77.652 42.532 80 39.768 80 37.5C80 36.9 79.744 36.536 79.444 36.536ZM23.32 40.328C22.228 40.328 21.8 39.228 21.8 37.588C21.8 34.74 23.748 29.984 25.808 29.984C26.708 29.984 27.048 31.044 27.048 32.34C27.048 35.232 25.196 40.328 23.32 40.328ZM60.724 31.828C60.072 31.052 59.836 29.996 59.836 29.056C59.836 27.896 60.26 26.916 60.768 26.916C61.276 26.916 61.432 27.416 61.432 28.112C61.432 29.276 61.016 30.976 60.724 31.828ZM69.192 40.328C68.1 40.328 67.672 39.064 67.672 37.588C67.672 34.84 69.62 29.984 71.696 29.984C72.596 29.984 72.916 31.036 72.916 32.34C72.916 35.232 71.096 40.328 69.192 40.328Z" fill="url(#paint4_radial_1117_1293)"/>
<defs>
<radialGradient id="paint0_radial_1117_1293" cx="0" cy="0" r="1" gradientUnits="userSpaceOnUse" gradientTransform="translate(40.96 47.44) rotate(-45.8069) scale(24.1006 16.0169)">
<stop stop-color="#6420FF"/>
<stop offset="1" stop-color="#6420FF" stop-opacity="0"/>
</radialGradient>
<radialGradient id="paint1_radial_1117_1293" cx="0" cy="0" r="1" gradientUnits="userSpaceOnUse" gradientTransform="translate(1.92 36.08) rotate(5.08826) scale(46.9048 37.3842)">
<stop offset="0.25" stop-color="#00C4CC"/>
<stop offset="1" stop-color="#00C4CC" stop-opacity="0"/>
</radialGradient>
<radialGradient id="paint2_radial_1117_1293" cx="0" cy="0" r="1" gradientUnits="userSpaceOnUse" gradientTransform="translate(34.14 44.64) rotate(-38.8493) scale(30.226 20.6676)">
<stop stop-color="#6420FF"/>
<stop offset="1" stop-color="#6420FF" stop-opacity="0"/>
</radialGradient>
<radialGradient id="paint3_radial_1117_1293" cx="0" cy="0" r="1" gradientUnits="userSpaceOnUse" gradientTransform="translate(2.28 44.64) rotate(-26.1243) scale(34.8837 23.8524)">
<stop stop-color="#6420FF"/>
<stop offset="1" stop-color="#6420FF" stop-opacity="0"/>
</radialGradient>
<radialGradient id="paint4_radial_1117_1293" cx="0" cy="0" r="1" gradientUnits="userSpaceOnUse" gradientTransform="translate(7.68 21.36) rotate(12.4717) scale(69.6432 85.4148)">
<stop stop-color="#00C4CC"/>
<stop offset="1" stop-color="#00C4CC" stop-opacity="0"/>
</radialGradient>
</defs>
</svg>
