<svg width="232" height="40" viewBox="0 0 232 40" fill="none" xmlns="http://www.w3.org/2000/svg">
<path d="M0 8C0 3.58172 3.58172 0 8 0H224C228.418 0 232 3.58172 232 8V32C232 36.4183 228.418 40 224 40H8C3.58173 40 0 36.4183 0 32V8Z" fill="#8B3DFF"/>
<path d="M55.5 14C55.9142 14 56.25 14.3358 56.25 14.75V19.25H60.75C61.1642 19.25 61.5 19.5858 61.5 20C61.5 20.4142 61.1642 20.75 60.75 20.75H56.25V25.25C56.25 25.6642 55.9142 26 55.5 26C55.0858 26 54.75 25.6642 54.75 25.25V20.75H50.25C49.8358 20.75 49.5 20.4142 49.5 20C49.5 19.5858 49.8358 19.25 50.25 19.25H54.75V14.75C54.75 14.3358 55.0858 14 55.5 14Z" fill="white"/>
<path d="M77.2832 25.1436C76.3854 25.1436 75.5902 24.9476 74.8975 24.5557C74.2048 24.1637 73.6624 23.5827 73.2705 22.8125C72.8786 22.0423 72.6826 21.1058 72.6826 20.0029C72.6826 18.9001 72.8786 17.9635 73.2705 17.1934C73.6624 16.4232 74.2048 15.8421 74.8975 15.4502C75.5902 15.0583 76.3854 14.8623 77.2832 14.8623C78.2311 14.8623 79.0264 15.0446 79.6689 15.4092C80.3161 15.7738 80.7809 16.3252 81.0635 17.0635L79.9629 17.7539H79.792C79.5505 17.207 79.2269 16.8174 78.8213 16.585C78.4202 16.3525 77.9076 16.2363 77.2832 16.2363C76.3809 16.2363 75.6631 16.5394 75.1299 17.1455C74.5967 17.7516 74.3301 18.7041 74.3301 20.0029C74.3301 21.2972 74.5967 22.2474 75.1299 22.8535C75.6631 23.4551 76.3809 23.7559 77.2832 23.7559C77.9668 23.7559 78.5228 23.5986 78.9512 23.2842C79.3841 22.9652 79.6917 22.4616 79.874 21.7734H80.0449L81.166 22.3477C80.9108 23.2637 80.4574 23.9587 79.8057 24.4326C79.1585 24.9066 78.3177 25.1436 77.2832 25.1436ZM82.793 25V17.46H84.2422V18.6084L84.3857 18.6426C84.568 18.2096 84.8164 17.8929 85.1309 17.6924C85.4453 17.4919 85.8258 17.3916 86.2725 17.3916C86.751 17.3916 87.1064 17.4736 87.3389 17.6377L87.0381 18.9297L86.8945 18.957C86.7669 18.8978 86.637 18.8545 86.5049 18.8271C86.3727 18.7952 86.2201 18.7793 86.0469 18.7793C85.4818 18.7793 85.0488 18.9844 84.748 19.3945C84.4473 19.8047 84.2969 20.4678 84.2969 21.3838V25H82.793ZM94.585 21.5684H89.5674C89.654 23.0814 90.3558 23.8379 91.6729 23.8379C92.1605 23.8379 92.5524 23.7513 92.8486 23.5781C93.1494 23.4004 93.3864 23.127 93.5596 22.7578H93.7031L94.6943 23.373C94.4619 23.9108 94.0996 24.3415 93.6074 24.665C93.1198 24.984 92.4749 25.1436 91.6729 25.1436C90.9209 25.1436 90.2715 24.9977 89.7246 24.7061C89.1777 24.4144 88.7562 23.9769 88.46 23.3936C88.1637 22.8102 88.0156 22.0902 88.0156 21.2334C88.0156 20.3766 88.1706 19.6543 88.4805 19.0664C88.7904 18.4785 89.2142 18.041 89.752 17.7539C90.2897 17.4622 90.8958 17.3164 91.5703 17.3164C92.5866 17.3164 93.3704 17.5944 93.9219 18.1504C94.4779 18.7064 94.7581 19.5244 94.7627 20.6045C94.7627 21.0101 94.7513 21.304 94.7285 21.4863L94.585 21.5684ZM93.3066 20.4951C93.2884 19.807 93.1312 19.3057 92.835 18.9912C92.5433 18.6768 92.1217 18.5195 91.5703 18.5195C91.0143 18.5195 90.5677 18.6768 90.2305 18.9912C89.8978 19.3057 89.6882 19.807 89.6016 20.4951H93.3066ZM98.4131 25.1436C97.6748 25.1436 97.096 24.9476 96.6768 24.5557C96.2575 24.1592 96.0479 23.5986 96.0479 22.874C96.0479 22.4274 96.1413 22.0514 96.3281 21.7461C96.515 21.4408 96.8066 21.1924 97.2031 21.001C97.5996 20.805 98.1146 20.6546 98.748 20.5498C99.2448 20.4678 99.623 20.3766 99.8828 20.2764C100.143 20.1761 100.318 20.0645 100.409 19.9414C100.5 19.8138 100.546 19.6543 100.546 19.4629C100.546 19.1712 100.443 18.9479 100.238 18.793C100.038 18.638 99.7096 18.5605 99.2539 18.5605C98.3926 18.5605 97.6611 18.9183 97.0596 19.6338H96.9229L96.2529 18.6494C96.6038 18.2347 97.0391 17.9089 97.5586 17.6719C98.0827 17.4349 98.6637 17.3164 99.3018 17.3164C100.245 17.3164 100.933 17.5192 101.366 17.9248C101.804 18.3304 102.022 18.9001 102.022 19.6338V23.2705C102.022 23.6488 102.184 23.8379 102.508 23.8379C102.626 23.8379 102.74 23.8174 102.85 23.7764L102.945 23.8037L103.075 24.8496C102.984 24.9134 102.856 24.9635 102.692 25C102.533 25.0365 102.362 25.0547 102.18 25.0547C101.747 25.0547 101.414 24.9658 101.182 24.7881C100.954 24.6104 100.797 24.3392 100.71 23.9746L100.566 23.9609C100.366 24.3574 100.088 24.6536 99.7324 24.8496C99.3815 25.0456 98.9417 25.1436 98.4131 25.1436ZM98.8369 23.9883C99.1878 23.9883 99.4954 23.9085 99.7598 23.749C100.024 23.585 100.227 23.3525 100.368 23.0518C100.509 22.751 100.58 22.3978 100.58 21.9922V21.1309L100.45 21.1035C100.309 21.2083 100.131 21.2972 99.917 21.3701C99.7074 21.4385 99.4066 21.5046 99.0146 21.5684C98.486 21.6458 98.11 21.7848 97.8867 21.9854C97.668 22.1813 97.5586 22.4593 97.5586 22.8193C97.5586 23.2021 97.6702 23.4938 97.8936 23.6943C98.1169 23.8903 98.4313 23.9883 98.8369 23.9883ZM108.318 23.5029L108.742 24.6035C108.551 24.7767 108.305 24.9089 108.004 25C107.703 25.0957 107.37 25.1436 107.006 25.1436C106.249 25.1436 105.673 24.943 105.276 24.542C104.88 24.141 104.682 23.5417 104.682 22.7441V18.6631H103.451V17.4531H104.682V15.9219L106.186 15.6758V17.4531H108.469V18.6631H106.186V22.6211C106.186 23.0404 106.272 23.3434 106.445 23.5303C106.623 23.7171 106.876 23.8105 107.204 23.8105C107.573 23.8105 107.897 23.708 108.175 23.5029H108.318ZM116.2 21.5684H111.183C111.269 23.0814 111.971 23.8379 113.288 23.8379C113.776 23.8379 114.168 23.7513 114.464 23.5781C114.765 23.4004 115.002 23.127 115.175 22.7578H115.318L116.31 23.373C116.077 23.9108 115.715 24.3415 115.223 24.665C114.735 24.984 114.09 25.1436 113.288 25.1436C112.536 25.1436 111.887 24.9977 111.34 24.7061C110.793 24.4144 110.371 23.9769 110.075 23.3936C109.779 22.8102 109.631 22.0902 109.631 21.2334C109.631 20.3766 109.786 19.6543 110.096 19.0664C110.406 18.4785 110.829 18.041 111.367 17.7539C111.905 17.4622 112.511 17.3164 113.186 17.3164C114.202 17.3164 114.986 17.5944 115.537 18.1504C116.093 18.7064 116.373 19.5244 116.378 20.6045C116.378 21.0101 116.367 21.304 116.344 21.4863L116.2 21.5684ZM114.922 20.4951C114.904 19.807 114.746 19.3057 114.45 18.9912C114.159 18.6768 113.737 18.5195 113.186 18.5195C112.63 18.5195 112.183 18.6768 111.846 18.9912C111.513 19.3057 111.303 19.807 111.217 20.4951H114.922ZM123.405 25.1436C122.667 25.1436 122.088 24.9476 121.669 24.5557C121.25 24.1592 121.04 23.5986 121.04 22.874C121.04 22.4274 121.133 22.0514 121.32 21.7461C121.507 21.4408 121.799 21.1924 122.195 21.001C122.592 20.805 123.107 20.6546 123.74 20.5498C124.237 20.4678 124.615 20.3766 124.875 20.2764C125.135 20.1761 125.31 20.0645 125.401 19.9414C125.493 19.8138 125.538 19.6543 125.538 19.4629C125.538 19.1712 125.436 18.9479 125.23 18.793C125.03 18.638 124.702 18.5605 124.246 18.5605C123.385 18.5605 122.653 18.9183 122.052 19.6338H121.915L121.245 18.6494C121.596 18.2347 122.031 17.9089 122.551 17.6719C123.075 17.4349 123.656 17.3164 124.294 17.3164C125.237 17.3164 125.925 17.5192 126.358 17.9248C126.796 18.3304 127.015 18.9001 127.015 19.6338V23.2705C127.015 23.6488 127.176 23.8379 127.5 23.8379C127.618 23.8379 127.732 23.8174 127.842 23.7764L127.938 23.8037L128.067 24.8496C127.976 24.9134 127.849 24.9635 127.685 25C127.525 25.0365 127.354 25.0547 127.172 25.0547C126.739 25.0547 126.406 24.9658 126.174 24.7881C125.946 24.6104 125.789 24.3392 125.702 23.9746L125.559 23.9609C125.358 24.3574 125.08 24.6536 124.725 24.8496C124.374 25.0456 123.934 25.1436 123.405 25.1436ZM123.829 23.9883C124.18 23.9883 124.488 23.9085 124.752 23.749C125.016 23.585 125.219 23.3525 125.36 23.0518C125.502 22.751 125.572 22.3978 125.572 21.9922V21.1309L125.442 21.1035C125.301 21.2083 125.123 21.2972 124.909 21.3701C124.7 21.4385 124.399 21.5046 124.007 21.5684C123.478 21.6458 123.102 21.7848 122.879 21.9854C122.66 22.1813 122.551 22.4593 122.551 22.8193C122.551 23.2021 122.662 23.4938 122.886 23.6943C123.109 23.8903 123.424 23.9883 123.829 23.9883ZM135.45 25.1436C134.849 25.1436 134.315 25 133.851 24.7129C133.39 24.4212 133.03 23.9837 132.771 23.4004C132.511 22.8171 132.381 22.0947 132.381 21.2334C132.381 20.3721 132.515 19.6497 132.784 19.0664C133.058 18.4785 133.431 18.041 133.905 17.7539C134.384 17.4622 134.935 17.3164 135.56 17.3164C136.047 17.3164 136.478 17.4053 136.852 17.583C137.225 17.7562 137.542 18.0365 137.802 18.4238L137.945 18.3896V14.4316H139.449V25H137.945V23.9609L137.802 23.9336C137.569 24.2982 137.257 24.5921 136.865 24.8154C136.473 25.0342 136.002 25.1436 135.45 25.1436ZM135.929 23.8379C136.549 23.8379 137.041 23.6237 137.405 23.1953C137.77 22.7624 137.952 22.1084 137.952 21.2334C137.952 20.3493 137.77 19.693 137.405 19.2646C137.041 18.8317 136.549 18.6152 135.929 18.6152C134.603 18.6152 133.939 19.488 133.939 21.2334C133.939 22.9697 134.603 23.8379 135.929 23.8379ZM147.974 21.5684H142.956C143.043 23.0814 143.744 23.8379 145.062 23.8379C145.549 23.8379 145.941 23.7513 146.237 23.5781C146.538 23.4004 146.775 23.127 146.948 22.7578H147.092L148.083 23.373C147.851 23.9108 147.488 24.3415 146.996 24.665C146.508 24.984 145.864 25.1436 145.062 25.1436C144.31 25.1436 143.66 24.9977 143.113 24.7061C142.566 24.4144 142.145 23.9769 141.849 23.3936C141.552 22.8102 141.404 22.0902 141.404 21.2334C141.404 20.3766 141.559 19.6543 141.869 19.0664C142.179 18.4785 142.603 18.041 143.141 17.7539C143.678 17.4622 144.285 17.3164 144.959 17.3164C145.975 17.3164 146.759 17.5944 147.311 18.1504C147.867 18.7064 148.147 19.5244 148.151 20.6045C148.151 21.0101 148.14 21.304 148.117 21.4863L147.974 21.5684ZM146.695 20.4951C146.677 19.807 146.52 19.3057 146.224 18.9912C145.932 18.6768 145.51 18.5195 144.959 18.5195C144.403 18.5195 143.956 18.6768 143.619 18.9912C143.286 19.3057 143.077 19.807 142.99 20.4951H146.695ZM152.26 25.1436C151.768 25.1436 151.312 25.082 150.893 24.959C150.478 24.8359 150.125 24.6673 149.833 24.4531C149.546 24.2344 149.336 23.9883 149.204 23.7148L150.059 22.8057H150.202C150.699 23.5212 151.387 23.8789 152.267 23.8789C152.727 23.8789 153.076 23.7923 153.312 23.6191C153.554 23.4414 153.675 23.1953 153.675 22.8809C153.675 22.6348 153.595 22.432 153.436 22.2725C153.281 22.1084 153.032 21.9854 152.69 21.9033L151.556 21.623C150.845 21.4544 150.323 21.1901 149.99 20.8301C149.662 20.4655 149.498 20.012 149.498 19.4697C149.498 19.0277 149.61 18.6449 149.833 18.3213C150.061 17.9977 150.382 17.7493 150.797 17.5762C151.212 17.403 151.699 17.3164 152.26 17.3164C152.948 17.3164 153.502 17.4144 153.921 17.6104C154.345 17.8018 154.675 18.0661 154.912 18.4033L154.092 19.2578H153.955C153.732 18.998 153.481 18.8112 153.203 18.6973C152.93 18.5833 152.615 18.5264 152.26 18.5264C151.818 18.5264 151.485 18.6016 151.262 18.752C151.038 18.8978 150.927 19.112 150.927 19.3945C150.927 19.6452 151.009 19.848 151.173 20.0029C151.337 20.1579 151.622 20.2832 152.027 20.3789L153.121 20.6318C153.832 20.7913 154.347 21.0511 154.666 21.4111C154.99 21.7712 155.151 22.2406 155.151 22.8193C155.151 23.2796 155.04 23.6852 154.816 24.0361C154.593 24.3825 154.265 24.6536 153.832 24.8496C153.399 25.0456 152.875 25.1436 152.26 25.1436ZM157.701 16.2773C157.414 16.2773 157.179 16.1885 156.997 16.0107C156.815 15.833 156.724 15.6051 156.724 15.3271C156.724 15.0537 156.815 14.8281 156.997 14.6504C157.179 14.4727 157.414 14.3838 157.701 14.3838C157.988 14.3838 158.223 14.4727 158.405 14.6504C158.592 14.8281 158.686 15.0537 158.686 15.3271C158.686 15.6051 158.594 15.833 158.412 16.0107C158.23 16.1885 157.993 16.2773 157.701 16.2773ZM156.949 25V17.46H158.453V25H156.949ZM163.553 28.1992C162.336 28.1992 161.443 28.0078 160.873 27.625C160.303 27.2467 160.019 26.7318 160.019 26.0801C160.019 25.6699 160.146 25.3372 160.401 25.082C160.657 24.8268 161.023 24.6514 161.502 24.5557V24.4121C161.26 24.2708 161.083 24.109 160.969 23.9268C160.855 23.7399 160.798 23.5234 160.798 23.2773C160.798 22.6895 161.178 22.2975 161.939 22.1016V21.958C161.119 21.5068 160.709 20.8027 160.709 19.8457C160.709 19.349 160.823 18.9092 161.051 18.5264C161.279 18.1436 161.607 17.8473 162.035 17.6377C162.464 17.4235 162.972 17.3164 163.56 17.3164C164.188 17.3164 164.703 17.4395 165.104 17.6855C165.369 17.3574 165.521 16.9541 165.562 16.4756L165.706 16.3867L166.841 16.6602C166.8 17.0293 166.69 17.3438 166.513 17.6035C166.335 17.8587 166.073 18.0752 165.727 18.2529V18.4033C166.178 18.7725 166.403 19.2943 166.403 19.9688C166.403 20.4382 166.287 20.862 166.055 21.2402C165.827 21.6139 165.496 21.9079 165.063 22.1221C164.635 22.3363 164.134 22.4434 163.56 22.4434C163.509 22.4434 163.402 22.4388 163.238 22.4297C163.056 22.4206 162.926 22.416 162.849 22.416C162.644 22.416 162.482 22.4707 162.363 22.5801C162.245 22.6895 162.186 22.8285 162.186 22.9971C162.186 23.193 162.254 23.3411 162.391 23.4414C162.532 23.5417 162.753 23.5986 163.054 23.6123L164.79 23.6738C166.381 23.724 167.176 24.4076 167.176 25.7246C167.176 26.194 167.053 26.6133 166.807 26.9824C166.561 27.3561 166.166 27.6523 165.624 27.8711C165.086 28.0898 164.396 28.1992 163.553 28.1992ZM163.56 21.3018C164.006 21.3018 164.353 21.1787 164.599 20.9326C164.849 20.6865 164.975 20.3379 164.975 19.8867C164.975 19.431 164.852 19.0801 164.605 18.834C164.359 18.5833 164.011 18.458 163.56 18.458C163.104 18.458 162.755 18.5811 162.514 18.8271C162.272 19.0732 162.151 19.4264 162.151 19.8867C162.151 20.3379 162.272 20.6865 162.514 20.9326C162.755 21.1787 163.104 21.3018 163.56 21.3018ZM163.553 27.0371C164.286 27.0371 164.82 26.9255 165.152 26.7021C165.49 26.4834 165.658 26.2054 165.658 25.8682C165.658 25.5811 165.572 25.3737 165.398 25.2461C165.23 25.1185 164.943 25.0456 164.537 25.0273L162.951 24.9453L162.698 24.9385C162.293 24.943 161.992 25.0273 161.796 25.1914C161.6 25.36 161.502 25.5902 161.502 25.8818C161.502 26.2601 161.673 26.5472 162.015 26.7432C162.356 26.9391 162.869 27.0371 163.553 27.0371ZM168.652 25V17.46H170.088V18.6016L170.231 18.6357C170.473 18.2028 170.785 17.8747 171.168 17.6514C171.551 17.4281 172.018 17.3164 172.569 17.3164C173.458 17.3164 174.105 17.5511 174.511 18.0205C174.921 18.4854 175.126 19.1849 175.126 20.1191V25H173.622V20.249C173.622 19.6611 173.506 19.2396 173.273 18.9844C173.041 18.7292 172.667 18.6016 172.152 18.6016C171.537 18.6016 171.049 18.8021 170.689 19.2031C170.334 19.6042 170.156 20.2399 170.156 21.1104V25H168.652Z" fill="white"/>
</svg>
