<svg width="179" height="40" viewBox="0 0 179 40" fill="none" xmlns="http://www.w3.org/2000/svg">
<rect width="179" height="40" rx="20" fill="#F47D31"/>
<path d="M20.1301 25.084C19.3834 25.084 18.6927 24.9627 18.0581 24.72C17.4327 24.468 16.8867 24.118 16.4201 23.67C15.9627 23.222 15.6034 22.6947 15.3421 22.088C15.0901 21.4813 14.9641 20.8187 14.9641 20.1C14.9641 19.3813 15.0901 18.7187 15.3421 18.112C15.6034 17.5053 15.9674 16.978 16.4341 16.53C16.9007 16.082 17.4467 15.7367 18.0721 15.494C18.7067 15.242 19.3974 15.116 20.1441 15.116C20.8907 15.116 21.5721 15.2327 22.1881 15.466C22.8134 15.6993 23.3454 16.054 23.7841 16.53L23.1401 17.188C22.7294 16.7773 22.2767 16.4833 21.7821 16.306C21.2874 16.1287 20.7554 16.04 20.1861 16.04C19.5794 16.04 19.0194 16.1427 18.5061 16.348C18.0021 16.544 17.5587 16.8287 17.1761 17.202C16.8027 17.566 16.5087 17.9953 16.2941 18.49C16.0887 18.9753 15.9861 19.512 15.9861 20.1C15.9861 20.6787 16.0887 21.2153 16.2941 21.71C16.5087 22.2047 16.8027 22.6387 17.1761 23.012C17.5587 23.376 18.0021 23.6607 18.5061 23.866C19.0194 24.062 19.5747 24.16 20.1721 24.16C20.7321 24.16 21.2594 24.076 21.7541 23.908C22.2581 23.74 22.7201 23.4553 23.1401 23.054L23.7281 23.838C23.2614 24.2487 22.7154 24.5613 22.0901 24.776C21.4647 24.9813 20.8114 25.084 20.1301 25.084ZM22.7341 23.712V20.1H23.7281V23.838L22.7341 23.712ZM29.6422 25.07C28.8768 25.07 28.2048 24.9113 27.6262 24.594C27.0475 24.2673 26.5948 23.824 26.2682 23.264C25.9415 22.6947 25.7782 22.046 25.7782 21.318C25.7782 20.59 25.9322 19.946 26.2402 19.386C26.5575 18.826 26.9868 18.3873 27.5282 18.07C28.0788 17.7433 28.6948 17.58 29.3762 17.58C30.0668 17.58 30.6782 17.7387 31.2102 18.056C31.7515 18.364 32.1762 18.8027 32.4842 19.372C32.7922 19.932 32.9462 20.5807 32.9462 21.318C32.9462 21.3647 32.9415 21.416 32.9322 21.472C32.9322 21.5187 32.9322 21.57 32.9322 21.626H26.5342V20.884H32.4002L32.0082 21.178C32.0082 20.646 31.8915 20.1747 31.6582 19.764C31.4342 19.344 31.1262 19.0173 30.7342 18.784C30.3422 18.5507 29.8895 18.434 29.3762 18.434C28.8722 18.434 28.4195 18.5507 28.0182 18.784C27.6168 19.0173 27.3042 19.344 27.0802 19.764C26.8562 20.184 26.7442 20.6647 26.7442 21.206V21.36C26.7442 21.92 26.8655 22.4147 27.1082 22.844C27.3602 23.264 27.7055 23.5953 28.1442 23.838C28.5922 24.0713 29.1008 24.188 29.6702 24.188C30.1182 24.188 30.5335 24.1087 30.9162 23.95C31.3082 23.7913 31.6442 23.5487 31.9242 23.222L32.4842 23.866C32.1575 24.258 31.7468 24.5567 31.2522 24.762C30.7668 24.9673 30.2302 25.07 29.6422 25.07ZM37.3634 25.07C36.6727 25.07 36.1407 24.8833 35.7674 24.51C35.3941 24.1367 35.2074 23.6093 35.2074 22.928V16.026H36.2014V22.872C36.2014 23.3013 36.3087 23.6327 36.5234 23.866C36.7474 24.0993 37.0647 24.216 37.4754 24.216C37.9141 24.216 38.2781 24.09 38.5674 23.838L38.9174 24.552C38.7214 24.7293 38.4834 24.86 38.2034 24.944C37.9327 25.028 37.6527 25.07 37.3634 25.07ZM33.8914 18.476V17.65H38.4414V18.476H33.8914ZM46.505 25.07C45.8983 25.07 45.3243 24.986 44.783 24.818C44.2416 24.6407 43.817 24.4213 43.509 24.16L43.957 23.376C44.2556 23.6 44.6383 23.796 45.105 23.964C45.5716 24.1227 46.0616 24.202 46.575 24.202C47.275 24.202 47.779 24.0947 48.087 23.88C48.395 23.656 48.549 23.362 48.549 22.998C48.549 22.7273 48.4603 22.5173 48.283 22.368C48.115 22.2093 47.891 22.0927 47.611 22.018C47.331 21.934 47.0183 21.864 46.673 21.808C46.3276 21.752 45.9823 21.6867 45.637 21.612C45.301 21.5373 44.993 21.43 44.713 21.29C44.433 21.1407 44.2043 20.94 44.027 20.688C43.859 20.436 43.775 20.1 43.775 19.68C43.775 19.2787 43.887 18.9193 44.111 18.602C44.335 18.2847 44.6616 18.0373 45.091 17.86C45.5296 17.6733 46.0616 17.58 46.687 17.58C47.163 17.58 47.639 17.6453 48.115 17.776C48.591 17.8973 48.983 18.0607 49.291 18.266L48.857 19.064C48.5303 18.84 48.1803 18.6813 47.807 18.588C47.4336 18.4853 47.0603 18.434 46.687 18.434C46.0243 18.434 45.5343 18.5507 45.217 18.784C44.909 19.008 44.755 19.2973 44.755 19.652C44.755 19.932 44.839 20.1513 45.007 20.31C45.1843 20.4687 45.413 20.5947 45.693 20.688C45.9823 20.772 46.295 20.842 46.631 20.898C46.9763 20.954 47.317 21.024 47.653 21.108C47.9983 21.1827 48.311 21.29 48.591 21.43C48.8803 21.5607 49.109 21.752 49.277 22.004C49.4543 22.2467 49.543 22.5687 49.543 22.97C49.543 23.3993 49.4216 23.7727 49.179 24.09C48.9456 24.398 48.6003 24.6407 48.143 24.818C47.695 24.986 47.149 25.07 46.505 25.07ZM54.4329 25.07C53.7236 25.07 53.0842 24.9113 52.5149 24.594C51.9549 24.2673 51.5116 23.824 51.1849 23.264C50.8582 22.6947 50.6949 22.046 50.6949 21.318C50.6949 20.5807 50.8582 19.932 51.1849 19.372C51.5116 18.812 51.9549 18.3733 52.5149 18.056C53.0749 17.7387 53.7142 17.58 54.4329 17.58C55.1609 17.58 55.8049 17.7387 56.3649 18.056C56.9342 18.3733 57.3776 18.812 57.6949 19.372C58.0216 19.932 58.1849 20.5807 58.1849 21.318C58.1849 22.046 58.0216 22.6947 57.6949 23.264C57.3776 23.824 56.9342 24.2673 56.3649 24.594C55.7956 24.9113 55.1516 25.07 54.4329 25.07ZM54.4329 24.188C54.9649 24.188 55.4362 24.0713 55.8469 23.838C56.2576 23.5953 56.5796 23.2593 56.8129 22.83C57.0556 22.3913 57.1769 21.8873 57.1769 21.318C57.1769 20.7393 57.0556 20.2353 56.8129 19.806C56.5796 19.3767 56.2576 19.0453 55.8469 18.812C55.4362 18.5693 54.9696 18.448 54.4469 18.448C53.9242 18.448 53.4576 18.5693 53.0469 18.812C52.6362 19.0453 52.3096 19.3767 52.0669 19.806C51.8242 20.2353 51.7029 20.7393 51.7029 21.318C51.7029 21.8873 51.8242 22.3913 52.0669 22.83C52.3096 23.2593 52.6362 23.5953 53.0469 23.838C53.4576 24.0713 53.9196 24.188 54.4329 24.188ZM69.4682 17.58C70.0656 17.58 70.5836 17.6967 71.0222 17.93C71.4702 18.154 71.8156 18.4993 72.0582 18.966C72.3102 19.4327 72.4362 20.0207 72.4362 20.73V25H71.4422V20.828C71.4422 20.0533 71.2556 19.47 70.8822 19.078C70.5182 18.6767 70.0002 18.476 69.3282 18.476C68.8242 18.476 68.3856 18.5833 68.0122 18.798C67.6482 19.0033 67.3636 19.3067 67.1582 19.708C66.9622 20.1 66.8642 20.576 66.8642 21.136V25H65.8702V20.828C65.8702 20.0533 65.6836 19.47 65.3102 19.078C64.9369 18.6767 64.4142 18.476 63.7422 18.476C63.2476 18.476 62.8136 18.5833 62.4402 18.798C62.0669 19.0033 61.7776 19.3067 61.5722 19.708C61.3762 20.1 61.2782 20.576 61.2782 21.136V25H60.2842V17.65H61.2362V19.638L61.0822 19.288C61.3062 18.756 61.6656 18.3407 62.1602 18.042C62.6642 17.734 63.2569 17.58 63.9382 17.58C64.6569 17.58 65.2682 17.762 65.7722 18.126C66.2762 18.4807 66.6029 19.0173 66.7522 19.736L66.3602 19.582C66.5749 18.9847 66.9529 18.504 67.4942 18.14C68.0449 17.7667 68.7029 17.58 69.4682 17.58ZM78.3239 25.07C77.5586 25.07 76.8866 24.9113 76.3079 24.594C75.7292 24.2673 75.2766 23.824 74.9499 23.264C74.6232 22.6947 74.4599 22.046 74.4599 21.318C74.4599 20.59 74.6139 19.946 74.9219 19.386C75.2392 18.826 75.6686 18.3873 76.2099 18.07C76.7606 17.7433 77.3766 17.58 78.0579 17.58C78.7486 17.58 79.3599 17.7387 79.8919 18.056C80.4332 18.364 80.8579 18.8027 81.1659 19.372C81.4739 19.932 81.6279 20.5807 81.6279 21.318C81.6279 21.3647 81.6232 21.416 81.6139 21.472C81.6139 21.5187 81.6139 21.57 81.6139 21.626H75.2159V20.884H81.0819L80.6899 21.178C80.6899 20.646 80.5732 20.1747 80.3399 19.764C80.1159 19.344 79.8079 19.0173 79.4159 18.784C79.0239 18.5507 78.5712 18.434 78.0579 18.434C77.5539 18.434 77.1012 18.5507 76.6999 18.784C76.2986 19.0173 75.9859 19.344 75.7619 19.764C75.5379 20.184 75.4259 20.6647 75.4259 21.206V21.36C75.4259 21.92 75.5472 22.4147 75.7899 22.844C76.0419 23.264 76.3872 23.5953 76.8259 23.838C77.2739 24.0713 77.7826 24.188 78.3519 24.188C78.7999 24.188 79.2152 24.1087 79.5979 23.95C79.9899 23.7913 80.3259 23.5487 80.6059 23.222L81.1659 23.866C80.8392 24.258 80.4286 24.5567 79.9339 24.762C79.4486 24.9673 78.9119 25.07 78.3239 25.07ZM94.8332 15.2H95.8552V25H94.8332V15.2ZM88.7012 25H87.6652V15.2H88.7012V25ZM94.9312 20.478H88.5892V19.568H94.9312V20.478ZM102.036 25.07C101.271 25.07 100.599 24.9113 100.02 24.594C99.4412 24.2673 98.9885 23.824 98.6618 23.264C98.3352 22.6947 98.1718 22.046 98.1718 21.318C98.1718 20.59 98.3258 19.946 98.6338 19.386C98.9512 18.826 99.3805 18.3873 99.9218 18.07C100.473 17.7433 101.089 17.58 101.77 17.58C102.461 17.58 103.072 17.7387 103.604 18.056C104.145 18.364 104.57 18.8027 104.878 19.372C105.186 19.932 105.34 20.5807 105.34 21.318C105.34 21.3647 105.335 21.416 105.326 21.472C105.326 21.5187 105.326 21.57 105.326 21.626H98.9278V20.884H104.794L104.402 21.178C104.402 20.646 104.285 20.1747 104.052 19.764C103.828 19.344 103.52 19.0173 103.128 18.784C102.736 18.5507 102.283 18.434 101.77 18.434C101.266 18.434 100.813 18.5507 100.412 18.784C100.011 19.0173 99.6978 19.344 99.4738 19.764C99.2498 20.184 99.1378 20.6647 99.1378 21.206V21.36C99.1378 21.92 99.2592 22.4147 99.5018 22.844C99.7538 23.264 100.099 23.5953 100.538 23.838C100.986 24.0713 101.495 24.188 102.064 24.188C102.512 24.188 102.927 24.1087 103.31 23.95C103.702 23.7913 104.038 23.5487 104.318 23.222L104.878 23.866C104.551 24.258 104.141 24.5567 103.646 24.762C103.161 24.9673 102.624 25.07 102.036 25.07ZM111.834 25V23.376L111.792 23.11V20.394C111.792 19.7687 111.615 19.288 111.26 18.952C110.915 18.616 110.397 18.448 109.706 18.448C109.23 18.448 108.777 18.5273 108.348 18.686C107.919 18.8447 107.555 19.0547 107.256 19.316L106.808 18.574C107.181 18.2567 107.629 18.014 108.152 17.846C108.675 17.6687 109.225 17.58 109.804 17.58C110.756 17.58 111.489 17.818 112.002 18.294C112.525 18.7607 112.786 19.4747 112.786 20.436V25H111.834ZM109.3 25.07C108.749 25.07 108.269 24.9813 107.858 24.804C107.457 24.6173 107.149 24.3653 106.934 24.048C106.719 23.7213 106.612 23.348 106.612 22.928C106.612 22.5453 106.701 22.2 106.878 21.892C107.065 21.5747 107.363 21.3227 107.774 21.136C108.194 20.94 108.754 20.842 109.454 20.842H111.988V21.584H109.482C108.773 21.584 108.278 21.71 107.998 21.962C107.727 22.214 107.592 22.5267 107.592 22.9C107.592 23.32 107.755 23.656 108.082 23.908C108.409 24.16 108.866 24.286 109.454 24.286C110.014 24.286 110.495 24.16 110.896 23.908C111.307 23.6467 111.605 23.2733 111.792 22.788L112.016 23.474C111.829 23.9593 111.503 24.3467 111.036 24.636C110.579 24.9253 110 25.07 109.3 25.07ZM118.482 25.07C117.782 25.07 117.152 24.9113 116.592 24.594C116.041 24.2767 115.607 23.838 115.29 23.278C114.972 22.7087 114.814 22.0553 114.814 21.318C114.814 20.5713 114.972 19.918 115.29 19.358C115.607 18.798 116.041 18.364 116.592 18.056C117.152 17.7387 117.782 17.58 118.482 17.58C119.126 17.58 119.7 17.7247 120.204 18.014C120.717 18.3033 121.123 18.728 121.422 19.288C121.73 19.8387 121.884 20.5153 121.884 21.318C121.884 22.1113 121.734 22.788 121.436 23.348C121.137 23.908 120.731 24.3373 120.218 24.636C119.714 24.9253 119.135 25.07 118.482 25.07ZM118.552 24.188C119.074 24.188 119.541 24.0713 119.952 23.838C120.372 23.5953 120.698 23.2593 120.932 22.83C121.174 22.3913 121.296 21.8873 121.296 21.318C121.296 20.7393 121.174 20.2353 120.932 19.806C120.698 19.3767 120.372 19.0453 119.952 18.812C119.541 18.5693 119.074 18.448 118.552 18.448C118.038 18.448 117.576 18.5693 117.166 18.812C116.755 19.0453 116.428 19.3767 116.186 19.806C115.943 20.2353 115.822 20.7393 115.822 21.318C115.822 21.8873 115.943 22.3913 116.186 22.83C116.428 23.2593 116.755 23.5953 117.166 23.838C117.576 24.0713 118.038 24.188 118.552 24.188ZM121.324 25V22.788L121.422 21.304L121.282 19.82V14.612H122.276V25H121.324ZM127.088 25.07C126.481 25.07 125.907 24.986 125.366 24.818C124.825 24.6407 124.4 24.4213 124.092 24.16L124.54 23.376C124.839 23.6 125.221 23.796 125.688 23.964C126.155 24.1227 126.645 24.202 127.158 24.202C127.858 24.202 128.362 24.0947 128.67 23.88C128.978 23.656 129.132 23.362 129.132 22.998C129.132 22.7273 129.043 22.5173 128.866 22.368C128.698 22.2093 128.474 22.0927 128.194 22.018C127.914 21.934 127.601 21.864 127.256 21.808C126.911 21.752 126.565 21.6867 126.22 21.612C125.884 21.5373 125.576 21.43 125.296 21.29C125.016 21.1407 124.787 20.94 124.61 20.688C124.442 20.436 124.358 20.1 124.358 19.68C124.358 19.2787 124.47 18.9193 124.694 18.602C124.918 18.2847 125.245 18.0373 125.674 17.86C126.113 17.6733 126.645 17.58 127.27 17.58C127.746 17.58 128.222 17.6453 128.698 17.776C129.174 17.8973 129.566 18.0607 129.874 18.266L129.44 19.064C129.113 18.84 128.763 18.6813 128.39 18.588C128.017 18.4853 127.643 18.434 127.27 18.434C126.607 18.434 126.117 18.5507 125.8 18.784C125.492 19.008 125.338 19.2973 125.338 19.652C125.338 19.932 125.422 20.1513 125.59 20.31C125.767 20.4687 125.996 20.5947 126.276 20.688C126.565 20.772 126.878 20.842 127.214 20.898C127.559 20.954 127.9 21.024 128.236 21.108C128.581 21.1827 128.894 21.29 129.174 21.43C129.463 21.5607 129.692 21.752 129.86 22.004C130.037 22.2467 130.126 22.5687 130.126 22.97C130.126 23.3993 130.005 23.7727 129.762 24.09C129.529 24.398 129.183 24.6407 128.726 24.818C128.278 24.986 127.732 25.07 127.088 25.07ZM135.814 25.07C135.179 25.07 134.605 24.9253 134.092 24.636C133.579 24.3373 133.168 23.9127 132.86 23.362C132.561 22.802 132.412 22.1207 132.412 21.318C132.412 20.5153 132.561 19.8387 132.86 19.288C133.159 18.728 133.565 18.3033 134.078 18.014C134.591 17.7247 135.17 17.58 135.814 17.58C136.514 17.58 137.139 17.7387 137.69 18.056C138.25 18.364 138.689 18.8027 139.006 19.372C139.323 19.932 139.482 20.5807 139.482 21.318C139.482 22.0647 139.323 22.718 139.006 23.278C138.689 23.838 138.25 24.2767 137.69 24.594C137.139 24.9113 136.514 25.07 135.814 25.07ZM132.02 27.716V17.65H132.972V19.862L132.874 21.332L133.014 22.816V27.716H132.02ZM135.744 24.188C136.267 24.188 136.733 24.0713 137.144 23.838C137.555 23.5953 137.881 23.2593 138.124 22.83C138.367 22.3913 138.488 21.8873 138.488 21.318C138.488 20.7487 138.367 20.2493 138.124 19.82C137.881 19.3907 137.555 19.0547 137.144 18.812C136.733 18.5693 136.267 18.448 135.744 18.448C135.221 18.448 134.75 18.5693 134.33 18.812C133.919 19.0547 133.593 19.3907 133.35 19.82C133.117 20.2493 133 20.7487 133 21.318C133 21.8873 133.117 22.3913 133.35 22.83C133.593 23.2593 133.919 23.5953 134.33 23.838C134.75 24.0713 135.221 24.188 135.744 24.188ZM146.143 25V23.376L146.101 23.11V20.394C146.101 19.7687 145.924 19.288 145.569 18.952C145.224 18.616 144.706 18.448 144.015 18.448C143.539 18.448 143.087 18.5273 142.657 18.686C142.228 18.8447 141.864 19.0547 141.565 19.316L141.117 18.574C141.491 18.2567 141.939 18.014 142.461 17.846C142.984 17.6687 143.535 17.58 144.113 17.58C145.065 17.58 145.798 17.818 146.311 18.294C146.834 18.7607 147.095 19.4747 147.095 20.436V25H146.143ZM143.609 25.07C143.059 25.07 142.578 24.9813 142.167 24.804C141.766 24.6173 141.458 24.3653 141.243 24.048C141.029 23.7213 140.921 23.348 140.921 22.928C140.921 22.5453 141.01 22.2 141.187 21.892C141.374 21.5747 141.673 21.3227 142.083 21.136C142.503 20.94 143.063 20.842 143.763 20.842H146.297V21.584H143.791C143.082 21.584 142.587 21.71 142.307 21.962C142.037 22.214 141.901 22.5267 141.901 22.9C141.901 23.32 142.065 23.656 142.391 23.908C142.718 24.16 143.175 24.286 143.763 24.286C144.323 24.286 144.804 24.16 145.205 23.908C145.616 23.6467 145.915 23.2733 146.101 22.788L146.325 23.474C146.139 23.9593 145.812 24.3467 145.345 24.636C144.888 24.9253 144.309 25.07 143.609 25.07ZM152.917 25.07C152.189 25.07 151.536 24.9113 150.957 24.594C150.388 24.2673 149.94 23.824 149.613 23.264C149.286 22.6947 149.123 22.046 149.123 21.318C149.123 20.5807 149.286 19.932 149.613 19.372C149.94 18.812 150.388 18.3733 150.957 18.056C151.536 17.7387 152.189 17.58 152.917 17.58C153.542 17.58 154.107 17.7013 154.611 17.944C155.115 18.1867 155.512 18.5507 155.801 19.036L155.059 19.54C154.807 19.1667 154.494 18.8913 154.121 18.714C153.748 18.5367 153.342 18.448 152.903 18.448C152.38 18.448 151.909 18.5693 151.489 18.812C151.069 19.0453 150.738 19.3767 150.495 19.806C150.252 20.2353 150.131 20.7393 150.131 21.318C150.131 21.8967 150.252 22.4007 150.495 22.83C150.738 23.2593 151.069 23.5953 151.489 23.838C151.909 24.0713 152.38 24.188 152.903 24.188C153.342 24.188 153.748 24.0993 154.121 23.922C154.494 23.7447 154.807 23.474 155.059 23.11L155.801 23.614C155.512 24.09 155.115 24.454 154.611 24.706C154.107 24.9487 153.542 25.07 152.917 25.07ZM160.823 25.07C160.057 25.07 159.385 24.9113 158.807 24.594C158.228 24.2673 157.775 23.824 157.449 23.264C157.122 22.6947 156.959 22.046 156.959 21.318C156.959 20.59 157.113 19.946 157.421 19.386C157.738 18.826 158.167 18.3873 158.709 18.07C159.259 17.7433 159.875 17.58 160.557 17.58C161.247 17.58 161.859 17.7387 162.391 18.056C162.932 18.364 163.357 18.8027 163.665 19.372C163.973 19.932 164.127 20.5807 164.127 21.318C164.127 21.3647 164.122 21.416 164.113 21.472C164.113 21.5187 164.113 21.57 164.113 21.626H157.715V20.884H163.581L163.189 21.178C163.189 20.646 163.072 20.1747 162.839 19.764C162.615 19.344 162.307 19.0173 161.915 18.784C161.523 18.5507 161.07 18.434 160.557 18.434C160.053 18.434 159.6 18.5507 159.199 18.784C158.797 19.0173 158.485 19.344 158.261 19.764C158.037 20.184 157.925 20.6647 157.925 21.206V21.36C157.925 21.92 158.046 22.4147 158.289 22.844C158.541 23.264 158.886 23.5953 159.325 23.838C159.773 24.0713 160.281 24.188 160.851 24.188C161.299 24.188 161.714 24.1087 162.097 23.95C162.489 23.7913 162.825 23.5487 163.105 23.222L163.665 23.866C163.338 24.258 162.927 24.5567 162.433 24.762C161.947 24.9673 161.411 25.07 160.823 25.07Z" fill="white"/>
</svg>
