<svg width="180" height="34" viewBox="0 0 180 34" fill="none" xmlns="http://www.w3.org/2000/svg">
<rect width="180" height="34" rx="6.06186" fill="white"/>
<path d="M62.754 11.42V19H61.364V15.79H57.964V19H56.574V11.42H57.964V14.59H61.364V11.42H62.754ZM67.0212 19.17C66.4012 19.17 65.8745 19.04 65.4412 18.78C65.0078 18.52 64.6812 18.1667 64.4612 17.72C64.2478 17.2667 64.1412 16.76 64.1412 16.2C64.1412 15.6467 64.2478 15.1467 64.4612 14.7C64.6812 14.2533 65.0078 13.9 65.4412 13.64C65.8745 13.38 66.4012 13.25 67.0212 13.25C67.6345 13.25 68.1545 13.38 68.5812 13.64C69.0145 13.9 69.3378 14.2533 69.5512 14.7C69.7712 15.1467 69.8812 15.6467 69.8812 16.2C69.8812 16.76 69.7712 17.2667 69.5512 17.72C69.3378 18.1667 69.0145 18.52 68.5812 18.78C68.1545 19.04 67.6345 19.17 67.0212 19.17ZM67.0212 18C67.4945 18 67.8578 17.84 68.1112 17.52C68.3645 17.1933 68.4912 16.7533 68.4912 16.2C68.4912 15.6467 68.3645 15.21 68.1112 14.89C67.8578 14.57 67.4945 14.41 67.0212 14.41C66.5412 14.41 66.1712 14.57 65.9112 14.89C65.6578 15.21 65.5312 15.6467 65.5312 16.2C65.5312 16.7533 65.6578 17.1933 65.9112 17.52C66.1712 17.84 66.5412 18 67.0212 18ZM77.6813 13.29C78.3746 13.29 78.8913 13.4767 79.2313 13.85C79.5713 14.2167 79.7413 14.81 79.7413 15.63V19H78.4013V15.63C78.4013 15.2367 78.328 14.95 78.1813 14.77C78.0346 14.5833 77.7813 14.49 77.4213 14.49C76.988 14.49 76.5413 14.6967 76.0813 15.11C76.1013 15.27 76.1113 15.4433 76.1113 15.63V19H74.7713V15.63C74.7713 15.2367 74.698 14.95 74.5513 14.77C74.4046 14.5833 74.1513 14.49 73.7913 14.49C73.358 14.49 72.9213 14.6833 72.4813 15.07V19H71.1413V13.41H72.4813V13.92C72.9813 13.5 73.5046 13.29 74.0513 13.29C74.4913 13.29 74.858 13.3633 75.1513 13.51C75.4513 13.65 75.678 13.8733 75.8313 14.18C76.1313 13.88 76.428 13.6567 76.7213 13.51C77.0213 13.3633 77.3413 13.29 77.6813 13.29ZM82.2697 16.51C82.3763 17.5233 82.9363 18.03 83.9497 18.03C84.2097 18.03 84.463 17.9967 84.7097 17.93C84.9563 17.8633 85.233 17.7567 85.5397 17.61L85.8997 18.67C85.5797 18.85 85.253 18.9767 84.9197 19.05C84.5863 19.13 84.2097 19.17 83.7897 19.17C83.1697 19.17 82.6397 19.0467 82.1997 18.8C81.7597 18.5467 81.4263 18.1967 81.1997 17.75C80.9797 17.3033 80.8697 16.7833 80.8697 16.19C80.8697 15.57 80.9863 15.04 81.2197 14.6C81.453 14.1533 81.7697 13.8167 82.1697 13.59C82.5697 13.3633 83.0163 13.25 83.5097 13.25C84.2897 13.25 84.8997 13.4833 85.3397 13.95C85.7863 14.41 86.013 15.0867 86.0197 15.98V16.51H82.2697ZM83.5097 14.39C82.8563 14.39 82.4597 14.75 82.3197 15.47H84.6097C84.5763 15.0967 84.4697 14.8233 84.2897 14.65C84.1097 14.4767 83.8497 14.39 83.5097 14.39Z" fill="black"/>
<path d="M98.073 16.79H94.913L94.103 19H93.103L95.953 11.33H97.033L99.893 19H98.893L98.073 16.79ZM97.743 15.92L96.493 12.54L95.243 15.92H97.743ZM103.597 13.31C104.344 13.31 104.937 13.56 105.377 14.06C105.824 14.56 106.047 15.2867 106.047 16.24C106.047 17.1933 105.824 17.92 105.377 18.42C104.937 18.92 104.344 19.17 103.597 19.17C103.057 19.17 102.524 18.9467 101.997 18.5V19H101.057V10.54H101.997V13.99C102.531 13.5367 103.064 13.31 103.597 13.31ZM103.467 18.3C103.994 18.3 104.394 18.1267 104.667 17.78C104.941 17.4267 105.077 16.9133 105.077 16.24C105.077 15.5667 104.941 15.0567 104.667 14.71C104.394 14.3633 103.994 14.19 103.467 14.19C102.967 14.19 102.477 14.3967 101.997 14.81V17.68C102.491 18.0933 102.981 18.3 103.467 18.3ZM109.912 19.17C109.325 19.17 108.825 19.0433 108.412 18.79C108.005 18.53 107.699 18.18 107.492 17.74C107.285 17.2933 107.182 16.7933 107.182 16.24C107.182 15.6867 107.285 15.19 107.492 14.75C107.699 14.3033 108.005 13.9533 108.412 13.7C108.825 13.44 109.325 13.31 109.912 13.31C110.499 13.31 110.995 13.44 111.402 13.7C111.815 13.9533 112.122 14.3033 112.322 14.75C112.529 15.19 112.632 15.6867 112.632 16.24C112.632 16.7933 112.529 17.2933 112.322 17.74C112.122 18.18 111.815 18.53 111.402 18.79C110.995 19.0433 110.499 19.17 109.912 19.17ZM109.912 18.32C110.465 18.32 110.892 18.1267 111.192 17.74C111.499 17.3533 111.652 16.8533 111.652 16.24C111.652 15.6267 111.499 15.13 111.192 14.75C110.892 14.3633 110.465 14.17 109.912 14.17C109.359 14.17 108.929 14.3633 108.622 14.75C108.315 15.13 108.162 15.6267 108.162 16.24C108.162 16.8533 108.315 17.3533 108.622 17.74C108.929 18.1267 109.359 18.32 109.912 18.32ZM118.684 13.47V19H117.744V18.41C117.198 18.8833 116.634 19.12 116.054 19.12C115.374 19.12 114.868 18.94 114.534 18.58C114.208 18.22 114.044 17.63 114.044 16.81V13.47H114.984V16.81C114.984 17.33 115.071 17.7 115.244 17.92C115.424 18.14 115.738 18.25 116.184 18.25C116.704 18.25 117.224 18.0233 117.744 17.57V13.47H118.684ZM121.611 14.41V17.57C121.611 17.8367 121.651 18.02 121.731 18.12C121.818 18.2133 121.974 18.26 122.201 18.26C122.401 18.26 122.614 18.2333 122.841 18.18V19.03C122.541 19.0967 122.274 19.13 122.041 19.13C121.534 19.13 121.178 19.0267 120.971 18.82C120.771 18.6133 120.671 18.2667 120.671 17.78V14.41H119.951V13.54H120.671V11.64H121.611V13.54H122.891V14.41H121.611Z" fill="black"/>
<path d="M134.258 19.17C133.445 19.17 132.762 19.0067 132.208 18.68C131.655 18.3533 131.238 17.8933 130.958 17.3C130.685 16.7067 130.548 16.0133 130.548 15.22C130.548 14.4733 130.685 13.8033 130.958 13.21C131.232 12.6167 131.645 12.1467 132.198 11.8C132.758 11.4533 133.445 11.28 134.258 11.28C134.612 11.28 134.925 11.31 135.198 11.37C135.478 11.4233 135.778 11.5167 136.098 11.65V12.54C135.532 12.2667 134.925 12.13 134.278 12.13C133.718 12.13 133.232 12.2633 132.818 12.53C132.405 12.79 132.088 13.1567 131.868 13.63C131.648 14.0967 131.542 14.6267 131.548 15.22C131.548 15.8333 131.655 16.3733 131.868 16.84C132.082 17.3067 132.392 17.67 132.798 17.93C133.205 18.19 133.692 18.32 134.258 18.32C134.612 18.32 134.958 18.27 135.298 18.17C135.645 18.07 136.008 17.9267 136.388 17.74L136.698 18.56C136.312 18.76 135.905 18.91 135.478 19.01C135.052 19.1167 134.645 19.17 134.258 19.17ZM140.339 19.17C139.752 19.17 139.252 19.0433 138.839 18.79C138.432 18.53 138.125 18.18 137.919 17.74C137.712 17.2933 137.609 16.7933 137.609 16.24C137.609 15.6867 137.712 15.19 137.919 14.75C138.125 14.3033 138.432 13.9533 138.839 13.7C139.252 13.44 139.752 13.31 140.339 13.31C140.925 13.31 141.422 13.44 141.829 13.7C142.242 13.9533 142.549 14.3033 142.749 14.75C142.955 15.19 143.059 15.6867 143.059 16.24C143.059 16.7933 142.955 17.2933 142.749 17.74C142.549 18.18 142.242 18.53 141.829 18.79C141.422 19.0433 140.925 19.17 140.339 19.17ZM140.339 18.32C140.892 18.32 141.319 18.1267 141.619 17.74C141.925 17.3533 142.079 16.8533 142.079 16.24C142.079 15.6267 141.925 15.13 141.619 14.75C141.319 14.3633 140.892 14.17 140.339 14.17C139.785 14.17 139.355 14.3633 139.049 14.75C138.742 15.13 138.589 15.6267 138.589 16.24C138.589 16.8533 138.742 17.3533 139.049 17.74C139.355 18.1267 139.785 18.32 140.339 18.32ZM147.151 13.35C147.831 13.35 148.334 13.53 148.661 13.89C148.994 14.25 149.161 14.8433 149.161 15.67V19H148.221V15.67C148.221 15.15 148.131 14.78 147.951 14.56C147.778 14.34 147.468 14.23 147.021 14.23C146.501 14.23 145.981 14.4567 145.461 14.91V19H144.521V13.47H145.461V14.06C146.008 13.5867 146.571 13.35 147.151 13.35ZM152.038 14.41V17.57C152.038 17.8367 152.078 18.02 152.158 18.12C152.244 18.2133 152.401 18.26 152.628 18.26C152.828 18.26 153.041 18.2333 153.268 18.18V19.03C152.968 19.0967 152.701 19.13 152.468 19.13C151.961 19.13 151.604 19.0267 151.398 18.82C151.198 18.6133 151.098 18.2667 151.098 17.78V14.41H150.378V13.54H151.098V11.64H152.038V13.54H153.318V14.41H152.038ZM156.338 13.47C156.925 13.47 157.372 13.57 157.678 13.77C157.985 13.9633 158.188 14.2267 158.288 14.56C158.388 14.8867 158.438 15.3 158.438 15.8V19H157.498V18.45C157.245 18.69 156.992 18.8633 156.738 18.97C156.485 19.0767 156.212 19.13 155.918 19.13C155.572 19.13 155.258 19.0567 154.978 18.91C154.698 18.7567 154.475 18.54 154.308 18.26C154.148 17.9733 154.068 17.6367 154.068 17.25C154.068 16.65 154.255 16.1867 154.628 15.86C155.002 15.5267 155.505 15.36 156.138 15.36C156.638 15.36 157.088 15.47 157.488 15.69C157.482 15.3633 157.448 15.1033 157.388 14.91C157.328 14.7167 157.205 14.57 157.018 14.47C156.832 14.3633 156.555 14.31 156.188 14.31H155.448V13.47H156.338ZM156.048 18.32C156.275 18.32 156.512 18.2667 156.758 18.16C157.012 18.0533 157.258 17.8933 157.498 17.68V16.42C157.125 16.2333 156.718 16.14 156.278 16.14C155.925 16.14 155.628 16.2267 155.388 16.4C155.148 16.5667 155.028 16.85 155.028 17.25C155.028 17.6233 155.128 17.8967 155.328 18.07C155.535 18.2367 155.775 18.32 156.048 18.32ZM162.33 19.17C161.47 19.1633 160.807 18.8967 160.34 18.37C159.88 17.8433 159.65 17.13 159.65 16.23C159.65 15.33 159.88 14.62 160.34 14.1C160.807 13.58 161.47 13.3167 162.33 13.31C162.63 13.31 162.887 13.3333 163.1 13.38C163.32 13.42 163.553 13.49 163.8 13.59V14.5C163.56 14.3867 163.33 14.3067 163.11 14.26C162.897 14.2133 162.66 14.19 162.4 14.19C161.78 14.1967 161.33 14.3833 161.05 14.75C160.77 15.11 160.63 15.6 160.63 16.22C160.63 16.8533 160.77 17.3567 161.05 17.73C161.33 18.1033 161.773 18.2933 162.38 18.3C162.853 18.3 163.37 18.1567 163.93 17.87L164.23 18.69C163.623 19.01 162.99 19.17 162.33 19.17ZM166.579 14.41V17.57C166.579 17.8367 166.619 18.02 166.699 18.12C166.785 18.2133 166.942 18.26 167.169 18.26C167.369 18.26 167.582 18.2333 167.809 18.18V19.03C167.509 19.0967 167.242 19.13 167.009 19.13C166.502 19.13 166.145 19.0267 165.939 18.82C165.739 18.6133 165.639 18.2667 165.639 17.78V14.41H164.919V13.54H165.639V11.64H166.579V13.54H167.859V14.41H166.579Z" fill="black"/>
</svg>
