<svg width="197" height="40" viewBox="0 0 197 40" fill="none" xmlns="http://www.w3.org/2000/svg">
<rect width="195.6" height="40" transform="translate(0.599976)" fill="#0E1318"/>
<mask id="path-1-inside-1_1123_47910" fill="white">
<path d="M19.8999 8H56.8999V32H19.8999V8Z"/>
</mask>
<path d="M56.8999 32V31H19.8999V32V33H56.8999V32Z" fill="white" mask="url(#path-1-inside-1_1123_47910)"/>
<path d="M29.9624 24H29.0015V19.8984H26.1714V24H25.2104V15.7324H26.1714V19.0547H29.0015V15.7324H29.9624V24ZM34.7905 17.748C35.6304 17.748 36.2983 18.041 36.7944 18.627C37.2905 19.2129 37.5386 19.9844 37.5386 20.9414C37.5386 21.9062 37.2905 22.6836 36.7944 23.2734C36.2983 23.8633 35.6304 24.1582 34.7905 24.1582C33.9468 24.1582 33.2769 23.8652 32.7808 23.2793C32.2886 22.6895 32.0425 21.9102 32.0425 20.9414C32.0425 19.9805 32.2905 19.209 32.7866 18.627C33.2827 18.041 33.9507 17.748 34.7905 17.748ZM34.7905 23.3613C35.3452 23.3613 35.7827 23.127 36.103 22.6582C36.4233 22.1895 36.5835 21.6211 36.5835 20.9531C36.5835 20.25 36.4253 19.6719 36.1089 19.2188C35.7925 18.7656 35.353 18.5391 34.7905 18.5391C34.2241 18.5391 33.7847 18.7637 33.4722 19.2129C33.1597 19.6582 33.0034 20.2383 33.0034 20.9531C33.0034 21.6328 33.1616 22.2051 33.478 22.6699C33.7944 23.1309 34.2319 23.3613 34.7905 23.3613ZM44.8452 24H43.9312V19.9922C43.9312 19.0234 43.7515 18.5391 43.3921 18.5391C43.2085 18.5391 43.0054 18.707 42.7827 19.043C42.564 19.375 42.4546 19.5586 42.4546 19.5938V24H41.5464V19.9922C41.5464 19.0234 41.3647 18.5391 41.0015 18.5391C40.8218 18.5391 40.6206 18.707 40.3979 19.043C40.1792 19.375 40.0698 19.5586 40.0698 19.5938V24H39.1558V17.8945H40.0347V18.8145C40.2065 18.4902 40.4097 18.2324 40.644 18.041C40.8823 17.8457 41.1187 17.748 41.353 17.748C41.5991 17.748 41.8198 17.8457 42.0151 18.041C42.2104 18.2324 42.3452 18.4902 42.4194 18.8145C42.5913 18.4902 42.7964 18.2324 43.0347 18.041C43.2729 17.8457 43.5073 17.748 43.7378 17.748C44.4761 17.748 44.8452 18.4082 44.8452 19.7285V24ZM51.7534 20.9766H47.564C47.564 21.668 47.7632 22.2383 48.1616 22.6875C48.564 23.1367 49.0562 23.3613 49.6382 23.3613C50.1929 23.3613 50.7651 23.2617 51.355 23.0625L51.5132 23.7949C50.9741 24.0371 50.3452 24.1582 49.6265 24.1582C48.7202 24.1582 47.9897 23.8672 47.4351 23.2852C46.8804 22.7031 46.603 21.918 46.603 20.9297C46.603 19.9609 46.8511 19.1895 47.3472 18.6152C47.8472 18.0371 48.4917 17.748 49.2808 17.748C49.9839 17.748 50.5718 18.0156 51.0444 18.5508C51.5171 19.0859 51.7534 19.7988 51.7534 20.6895V20.9766ZM50.7573 20.2324C50.7573 19.7559 50.6089 19.3555 50.312 19.0312C50.0151 18.7031 49.6831 18.5391 49.3159 18.5391C48.8433 18.5391 48.4507 18.6953 48.1382 19.0078C47.8296 19.3203 47.6577 19.7285 47.6226 20.2324H50.7573Z" fill="white"/>
<path d="M76.2729 24H75.2651L74.3511 21.1055H71.6382L70.7124 24H69.7163L72.4175 15.7324H73.5718L76.2729 24ZM74.0757 20.2676L72.9917 16.8457L71.9136 20.2676H74.0757ZM78.7632 18.6855C78.9663 18.4043 79.2397 18.1777 79.5835 18.0059C79.9312 17.834 80.2964 17.748 80.6792 17.748C81.3901 17.748 81.9429 18.0332 82.3374 18.6035C82.7358 19.1738 82.9351 19.9238 82.9351 20.8535C82.9351 21.7949 82.7241 22.582 82.3022 23.2148C81.8804 23.8438 81.3159 24.1582 80.6089 24.1582C80.23 24.1582 79.8745 24.0645 79.5425 23.877C79.2144 23.6855 78.9546 23.4336 78.7632 23.1211V24H77.8491V15.7324H78.7632V18.6855ZM78.7632 19.5938V22.1309C78.9351 22.4746 79.1675 22.7617 79.4604 22.9922C79.7534 23.2227 80.0562 23.3379 80.3687 23.3379C80.8608 23.3379 81.2515 23.1035 81.5405 22.6348C81.8335 22.166 81.98 21.5898 81.98 20.9062C81.98 20.2031 81.8413 19.6328 81.564 19.1953C81.2866 18.7578 80.8999 18.5391 80.4038 18.5391C79.7593 18.5391 79.2124 18.8906 78.7632 19.5938ZM87.394 17.748C88.2339 17.748 88.9019 18.041 89.3979 18.627C89.894 19.2129 90.1421 19.9844 90.1421 20.9414C90.1421 21.9062 89.894 22.6836 89.3979 23.2734C88.9019 23.8633 88.2339 24.1582 87.394 24.1582C86.5503 24.1582 85.8804 23.8652 85.3843 23.2793C84.8921 22.6895 84.646 21.9102 84.646 20.9414C84.646 19.9805 84.894 19.209 85.3901 18.627C85.8862 18.041 86.5542 17.748 87.394 17.748ZM87.394 23.3613C87.9487 23.3613 88.3862 23.127 88.7065 22.6582C89.0269 22.1895 89.187 21.6211 89.187 20.9531C89.187 20.25 89.0288 19.6719 88.7124 19.2188C88.396 18.7656 87.9565 18.5391 87.394 18.5391C86.8276 18.5391 86.3882 18.7637 86.0757 19.2129C85.7632 19.6582 85.6069 20.2383 85.6069 20.9531C85.6069 21.6328 85.7651 22.2051 86.0815 22.6699C86.3979 23.1309 86.8354 23.3613 87.394 23.3613ZM96.9565 24H96.0425V23.0977C95.3862 23.7969 94.6948 24.1465 93.9683 24.1465C92.8237 24.1465 92.2515 23.4531 92.2515 22.0664V17.8945H93.1655V21.8027C93.1655 22.3223 93.2476 22.7109 93.4116 22.9688C93.5757 23.2227 93.853 23.3496 94.2437 23.3496C94.8022 23.3496 95.4019 23.002 96.0425 22.3066V17.8945H96.9565V24ZM104.234 23.7246C103.621 24.0059 103.017 24.1465 102.423 24.1465C101.333 24.1465 100.789 23.5703 100.789 22.418V18.6855H99.6167V17.8945H100.789V16.2246H101.679V17.8945H103.753V18.6855H101.679V22.1777C101.679 22.5488 101.761 22.8379 101.925 23.0449C102.089 23.248 102.312 23.3496 102.593 23.3496C103.093 23.3496 103.587 23.2383 104.076 23.0156L104.234 23.7246Z" fill="white"/>
<path d="M128.451 23.4844C127.802 23.9336 127.05 24.1582 126.195 24.1582C125.125 24.1582 124.31 23.791 123.751 23.0566C123.197 22.3223 122.919 21.2598 122.919 19.8691C122.919 18.5254 123.189 17.4746 123.728 16.7168C124.267 15.9551 125.089 15.5742 126.195 15.5742C126.593 15.5742 126.988 15.625 127.378 15.7266C127.769 15.8281 128.083 15.9629 128.322 16.1309L128.005 16.8867C127.455 16.5742 126.851 16.418 126.195 16.418C125.433 16.418 124.867 16.6953 124.496 17.25C124.125 17.8008 123.939 18.6738 123.939 19.8691C123.939 22.166 124.691 23.3145 126.195 23.3145C126.832 23.3145 127.484 23.1191 128.152 22.7285L128.451 23.4844ZM132.98 17.748C133.82 17.748 134.488 18.041 134.984 18.627C135.48 19.2129 135.728 19.9844 135.728 20.9414C135.728 21.9062 135.48 22.6836 134.984 23.2734C134.488 23.8633 133.82 24.1582 132.98 24.1582C132.136 24.1582 131.466 23.8652 130.97 23.2793C130.478 22.6895 130.232 21.9102 130.232 20.9414C130.232 19.9805 130.48 19.209 130.976 18.627C131.472 18.041 132.14 17.748 132.98 17.748ZM132.98 23.3613C133.535 23.3613 133.972 23.127 134.292 22.6582C134.613 22.1895 134.773 21.6211 134.773 20.9531C134.773 20.25 134.615 19.6719 134.298 19.2188C133.982 18.7656 133.542 18.5391 132.98 18.5391C132.414 18.5391 131.974 18.7637 131.662 19.2129C131.349 19.6582 131.193 20.2383 131.193 20.9531C131.193 21.6328 131.351 22.2051 131.667 22.6699C131.984 23.1309 132.421 23.3613 132.98 23.3613ZM142.554 24H141.64V20.0859C141.64 19.543 141.552 19.1504 141.376 18.9082C141.205 18.6621 140.933 18.5391 140.562 18.5391C140.003 18.5391 139.404 18.8867 138.763 19.582V24H137.849V17.8945H138.763V18.791C139.419 18.0957 140.111 17.748 140.837 17.748C141.982 17.748 142.554 18.4395 142.554 19.8223V24ZM149.82 23.7246C149.207 24.0059 148.603 24.1465 148.009 24.1465C146.919 24.1465 146.375 23.5703 146.375 22.418V18.6855H145.203V17.8945H146.375V16.2246H147.265V17.8945H149.339V18.6855H147.265V22.1777C147.265 22.5488 147.347 22.8379 147.511 23.0449C147.675 23.248 147.898 23.3496 148.179 23.3496C148.679 23.3496 149.173 23.2383 149.662 23.0156L149.82 23.7246ZM157.121 24H156.212C156.138 23.7539 156.101 23.4258 156.101 23.0156C155.582 23.7773 154.875 24.1582 153.98 24.1582C153.527 24.1582 153.126 23.998 152.779 23.6777C152.435 23.3535 152.263 22.9375 152.263 22.4297C152.263 22.1289 152.324 21.8633 152.445 21.6328C152.566 21.4023 152.744 21.209 152.978 21.0527C153.212 20.8926 153.498 20.7676 153.833 20.6777C154.169 20.584 154.568 20.5195 155.029 20.4844L156.054 20.4023V20.1094C156.054 19.0625 155.566 18.5391 154.589 18.5391C154.359 18.5391 154.066 18.5898 153.71 18.6914C153.359 18.7891 153.056 18.9062 152.802 19.043L152.562 18.3867C153.394 17.9609 154.167 17.748 154.882 17.748C156.273 17.748 156.968 18.4844 156.968 19.957V22.582C156.968 23.1133 157.019 23.5859 157.121 24ZM156.054 22.1895V21.082C155.23 21.1562 154.664 21.2266 154.355 21.293C154.05 21.3555 153.785 21.4746 153.558 21.6504C153.335 21.8262 153.224 22.0645 153.224 22.3652C153.224 22.6387 153.32 22.8594 153.511 23.0273C153.703 23.1953 153.947 23.2793 154.244 23.2793C154.568 23.2793 154.89 23.1836 155.21 22.9922C155.531 22.7969 155.812 22.5293 156.054 22.1895ZM164.152 23.7949C163.621 24.0371 163.037 24.1582 162.4 24.1582C161.439 24.1582 160.671 23.8672 160.097 23.2852C159.527 22.6992 159.242 21.9219 159.242 20.9531C159.242 19.9844 159.529 19.209 160.103 18.627C160.681 18.041 161.439 17.748 162.376 17.748C162.99 17.748 163.574 17.8555 164.128 18.0703L163.888 18.8262C163.333 18.6348 162.833 18.5391 162.388 18.5391C161.716 18.5391 161.183 18.7559 160.789 19.1895C160.398 19.623 160.203 20.2109 160.203 20.9531C160.203 21.6328 160.406 22.2051 160.812 22.6699C161.218 23.1309 161.748 23.3613 162.4 23.3613C162.916 23.3613 163.447 23.2617 163.994 23.0625L164.152 23.7949ZM171.441 23.7246C170.828 24.0059 170.224 24.1465 169.63 24.1465C168.541 24.1465 167.996 23.5703 167.996 22.418V18.6855H166.824V17.8945H167.996V16.2246H168.886V17.8945H170.96V18.6855H168.886V22.1777C168.886 22.5488 168.968 22.8379 169.132 23.0449C169.296 23.248 169.519 23.3496 169.8 23.3496C170.3 23.3496 170.794 23.2383 171.283 23.0156L171.441 23.7246Z" fill="white"/>
</svg>
