<svg width="196" height="40" viewBox="0 0 196 40" fill="none" xmlns="http://www.w3.org/2000/svg">
<rect width="195.6" height="40" transform="translate(0.199951)" fill="#252627"/>
<mask id="path-1-inside-1_1123_47932" fill="white">
<path d="M8.19995 8H54.2V32H8.19995V8Z"/>
</mask>
<path d="M8.19995 8V9H54.2V8V7H8.19995V8ZM54.2 32V31H8.19995V32V33H54.2V32Z" fill="white" mask="url(#path-1-inside-1_1123_47932)"/>
<path d="M20.085 15.6H20.961V24H20.085V15.6ZM14.829 24H13.941V15.6H14.829V24ZM20.169 20.124H14.733V19.344H20.169V20.124ZM26.0907 24.06C25.4827 24.06 24.9347 23.924 24.4467 23.652C23.9667 23.372 23.5867 22.992 23.3067 22.512C23.0267 22.024 22.8867 21.468 22.8867 20.844C22.8867 20.212 23.0267 19.656 23.3067 19.176C23.5867 18.696 23.9667 18.32 24.4467 18.048C24.9267 17.776 25.4747 17.64 26.0907 17.64C26.7147 17.64 27.2667 17.776 27.7467 18.048C28.2347 18.32 28.6147 18.696 28.8867 19.176C29.1667 19.656 29.3067 20.212 29.3067 20.844C29.3067 21.468 29.1667 22.024 28.8867 22.512C28.6147 22.992 28.2347 23.372 27.7467 23.652C27.2587 23.924 26.7067 24.06 26.0907 24.06ZM26.0907 23.304C26.5467 23.304 26.9507 23.204 27.3027 23.004C27.6547 22.796 27.9307 22.508 28.1307 22.14C28.3387 21.764 28.4427 21.332 28.4427 20.844C28.4427 20.348 28.3387 19.916 28.1307 19.548C27.9307 19.18 27.6547 18.896 27.3027 18.696C26.9507 18.488 26.5507 18.384 26.1027 18.384C25.6547 18.384 25.2547 18.488 24.9027 18.696C24.5507 18.896 24.2707 19.18 24.0627 19.548C23.8547 19.916 23.7507 20.348 23.7507 20.844C23.7507 21.332 23.8547 21.764 24.0627 22.14C24.2707 22.508 24.5507 22.796 24.9027 23.004C25.2547 23.204 25.6507 23.304 26.0907 23.304ZM38.9182 17.64C39.4302 17.64 39.8742 17.74 40.2502 17.94C40.6342 18.132 40.9302 18.428 41.1382 18.828C41.3542 19.228 41.4622 19.732 41.4622 20.34V24H40.6102V20.424C40.6102 19.76 40.4502 19.26 40.1302 18.924C39.8182 18.58 39.3742 18.408 38.7982 18.408C38.3662 18.408 37.9902 18.5 37.6702 18.684C37.3582 18.86 37.1142 19.12 36.9382 19.464C36.7702 19.8 36.6862 20.208 36.6862 20.688V24H35.8342V20.424C35.8342 19.76 35.6742 19.26 35.3542 18.924C35.0342 18.58 34.5862 18.408 34.0102 18.408C33.5862 18.408 33.2142 18.5 32.8942 18.684C32.5742 18.86 32.3262 19.12 32.1502 19.464C31.9822 19.8 31.8982 20.208 31.8982 20.688V24H31.0462V17.7H31.8622V19.404L31.7302 19.104C31.9222 18.648 32.2302 18.292 32.6542 18.036C33.0862 17.772 33.5942 17.64 34.1782 17.64C34.7942 17.64 35.3182 17.796 35.7502 18.108C36.1822 18.412 36.4622 18.872 36.5902 19.488L36.2542 19.356C36.4382 18.844 36.7622 18.432 37.2262 18.12C37.6982 17.8 38.2622 17.64 38.9182 17.64ZM46.4487 24.06C45.7927 24.06 45.2167 23.924 44.7207 23.652C44.2247 23.372 43.8367 22.992 43.5567 22.512C43.2767 22.024 43.1367 21.468 43.1367 20.844C43.1367 20.22 43.2687 19.668 43.5327 19.188C43.8047 18.708 44.1727 18.332 44.6367 18.06C45.1087 17.78 45.6367 17.64 46.2207 17.64C46.8127 17.64 47.3367 17.776 47.7927 18.048C48.2567 18.312 48.6207 18.688 48.8847 19.176C49.1487 19.656 49.2807 20.212 49.2807 20.844C49.2807 20.884 49.2767 20.928 49.2687 20.976C49.2687 21.016 49.2687 21.06 49.2687 21.108H43.7847V20.472H48.8127L48.4767 20.724C48.4767 20.268 48.3767 19.864 48.1767 19.512C47.9847 19.152 47.7207 18.872 47.3847 18.672C47.0487 18.472 46.6607 18.372 46.2207 18.372C45.7887 18.372 45.4007 18.472 45.0567 18.672C44.7127 18.872 44.4447 19.152 44.2527 19.512C44.0607 19.872 43.9647 20.284 43.9647 20.748V20.88C43.9647 21.36 44.0687 21.784 44.2767 22.152C44.4927 22.512 44.7887 22.796 45.1647 23.004C45.5487 23.204 45.9847 23.304 46.4727 23.304C46.8567 23.304 47.2127 23.236 47.5407 23.1C47.8767 22.964 48.1647 22.756 48.4047 22.476L48.8847 23.028C48.6047 23.364 48.2527 23.62 47.8287 23.796C47.4127 23.972 46.9527 24.06 46.4487 24.06Z" fill="white"/>
<path d="M66.6263 24L70.4663 15.6H71.3423L75.1823 24H74.2463L70.7183 16.116H71.0783L67.5503 24H66.6263ZM68.1383 21.756L68.4023 21.036H73.2863L73.5503 21.756H68.1383ZM79.6439 24.06C79.0919 24.06 78.5959 23.936 78.1559 23.688C77.7159 23.432 77.3679 23.064 77.1119 22.584C76.8559 22.104 76.7279 21.524 76.7279 20.844C76.7279 20.156 76.8559 19.576 77.1119 19.104C77.3759 18.624 77.7279 18.26 78.1679 18.012C78.6079 17.764 79.0999 17.64 79.6439 17.64C80.2439 17.64 80.7799 17.776 81.2519 18.048C81.7319 18.312 82.1079 18.684 82.3799 19.164C82.6519 19.644 82.7879 20.204 82.7879 20.844C82.7879 21.476 82.6519 22.036 82.3799 22.524C82.1079 23.004 81.7319 23.38 81.2519 23.652C80.7799 23.924 80.2439 24.06 79.6439 24.06ZM76.3919 24V15.096H77.2439V19.56L77.1239 20.832L77.2079 22.104V24H76.3919ZM79.5839 23.304C80.0319 23.304 80.4319 23.204 80.7839 23.004C81.1359 22.796 81.4159 22.508 81.6239 22.14C81.8319 21.764 81.9359 21.332 81.9359 20.844C81.9359 20.348 81.8319 19.916 81.6239 19.548C81.4159 19.18 81.1359 18.896 80.7839 18.696C80.4319 18.488 80.0319 18.384 79.5839 18.384C79.1359 18.384 78.7319 18.488 78.3719 18.696C78.0199 18.896 77.7399 19.18 77.5319 19.548C77.3319 19.916 77.2319 20.348 77.2319 20.844C77.2319 21.332 77.3319 21.764 77.5319 22.14C77.7399 22.508 78.0199 22.796 78.3719 23.004C78.7319 23.204 79.1359 23.304 79.5839 23.304ZM87.0927 24.06C86.4847 24.06 85.9367 23.924 85.4487 23.652C84.9687 23.372 84.5887 22.992 84.3087 22.512C84.0287 22.024 83.8887 21.468 83.8887 20.844C83.8887 20.212 84.0287 19.656 84.3087 19.176C84.5887 18.696 84.9687 18.32 85.4487 18.048C85.9287 17.776 86.4767 17.64 87.0927 17.64C87.7167 17.64 88.2687 17.776 88.7487 18.048C89.2367 18.32 89.6167 18.696 89.8887 19.176C90.1687 19.656 90.3087 20.212 90.3087 20.844C90.3087 21.468 90.1687 22.024 89.8887 22.512C89.6167 22.992 89.2367 23.372 88.7487 23.652C88.2607 23.924 87.7087 24.06 87.0927 24.06ZM87.0927 23.304C87.5487 23.304 87.9527 23.204 88.3047 23.004C88.6567 22.796 88.9327 22.508 89.1327 22.14C89.3407 21.764 89.4447 21.332 89.4447 20.844C89.4447 20.348 89.3407 19.916 89.1327 19.548C88.9327 19.18 88.6567 18.896 88.3047 18.696C87.9527 18.488 87.5527 18.384 87.1047 18.384C86.6567 18.384 86.2567 18.488 85.9047 18.696C85.5527 18.896 85.2727 19.18 85.0647 19.548C84.8567 19.916 84.7527 20.348 84.7527 20.844C84.7527 21.332 84.8567 21.764 85.0647 22.14C85.2727 22.508 85.5527 22.796 85.9047 23.004C86.2567 23.204 86.6527 23.304 87.0927 23.304ZM94.6521 24.06C94.1161 24.06 93.6481 23.96 93.2481 23.76C92.8481 23.56 92.5361 23.26 92.3121 22.86C92.0961 22.46 91.9881 21.96 91.9881 21.36V17.7H92.8401V21.264C92.8401 21.936 93.0041 22.444 93.3321 22.788C93.6681 23.124 94.1361 23.292 94.7361 23.292C95.1761 23.292 95.5561 23.204 95.8761 23.028C96.2041 22.844 96.4521 22.58 96.6201 22.236C96.7961 21.892 96.8841 21.48 96.8841 21V17.7H97.7361V24H96.9201V22.272L97.0521 22.584C96.8521 23.048 96.5401 23.412 96.1161 23.676C95.7001 23.932 95.2121 24.06 94.6521 24.06ZM102.103 24.06C101.511 24.06 101.055 23.9 100.735 23.58C100.415 23.26 100.255 22.808 100.255 22.224V16.308H101.107V22.176C101.107 22.544 101.199 22.828 101.383 23.028C101.575 23.228 101.847 23.328 102.199 23.328C102.575 23.328 102.887 23.22 103.135 23.004L103.435 23.616C103.267 23.768 103.063 23.88 102.823 23.952C102.591 24.024 102.351 24.06 102.103 24.06ZM99.1266 18.408V17.7H103.027V18.408H99.1266Z" fill="white"/>
<path d="M125.398 24.072C124.766 24.072 124.182 23.968 123.646 23.76C123.11 23.544 122.646 23.244 122.254 22.86C121.862 22.476 121.554 22.024 121.33 21.504C121.114 20.984 121.006 20.416 121.006 19.8C121.006 19.184 121.114 18.616 121.33 18.096C121.554 17.576 121.862 17.124 122.254 16.74C122.654 16.356 123.122 16.06 123.658 15.852C124.194 15.636 124.778 15.528 125.41 15.528C126.018 15.528 126.59 15.632 127.126 15.84C127.662 16.04 128.114 16.344 128.482 16.752L127.918 17.316C127.574 16.964 127.194 16.712 126.778 16.56C126.362 16.4 125.914 16.32 125.434 16.32C124.93 16.32 124.462 16.408 124.03 16.584C123.598 16.752 123.222 16.996 122.902 17.316C122.582 17.628 122.33 17.996 122.146 18.42C121.97 18.836 121.882 19.296 121.882 19.8C121.882 20.304 121.97 20.768 122.146 21.192C122.33 21.608 122.582 21.976 122.902 22.296C123.222 22.608 123.598 22.852 124.03 23.028C124.462 23.196 124.93 23.28 125.434 23.28C125.914 23.28 126.362 23.2 126.778 23.04C127.194 22.88 127.574 22.624 127.918 22.272L128.482 22.836C128.114 23.244 127.662 23.552 127.126 23.76C126.59 23.968 126.014 24.072 125.398 24.072ZM132.481 24.06C131.873 24.06 131.325 23.924 130.837 23.652C130.357 23.372 129.977 22.992 129.697 22.512C129.417 22.024 129.277 21.468 129.277 20.844C129.277 20.212 129.417 19.656 129.697 19.176C129.977 18.696 130.357 18.32 130.837 18.048C131.317 17.776 131.865 17.64 132.481 17.64C133.105 17.64 133.657 17.776 134.137 18.048C134.625 18.32 135.005 18.696 135.277 19.176C135.557 19.656 135.697 20.212 135.697 20.844C135.697 21.468 135.557 22.024 135.277 22.512C135.005 22.992 134.625 23.372 134.137 23.652C133.649 23.924 133.097 24.06 132.481 24.06ZM132.481 23.304C132.937 23.304 133.341 23.204 133.693 23.004C134.045 22.796 134.321 22.508 134.521 22.14C134.729 21.764 134.833 21.332 134.833 20.844C134.833 20.348 134.729 19.916 134.521 19.548C134.321 19.18 134.045 18.896 133.693 18.696C133.341 18.488 132.941 18.384 132.493 18.384C132.045 18.384 131.645 18.488 131.293 18.696C130.941 18.896 130.661 19.18 130.453 19.548C130.245 19.916 130.141 20.348 130.141 20.844C130.141 21.332 130.245 21.764 130.453 22.14C130.661 22.508 130.941 22.796 131.293 23.004C131.645 23.204 132.041 23.304 132.481 23.304ZM140.653 17.64C141.165 17.64 141.613 17.74 141.997 17.94C142.389 18.132 142.693 18.428 142.909 18.828C143.133 19.228 143.245 19.732 143.245 20.34V24H142.393V20.424C142.393 19.76 142.225 19.26 141.889 18.924C141.561 18.58 141.097 18.408 140.497 18.408C140.049 18.408 139.657 18.5 139.321 18.684C138.993 18.86 138.737 19.12 138.553 19.464C138.377 19.8 138.289 20.208 138.289 20.688V24H137.437V17.7H138.253V19.428L138.121 19.104C138.321 18.648 138.641 18.292 139.081 18.036C139.521 17.772 140.045 17.64 140.653 17.64ZM147.538 24.06C146.946 24.06 146.49 23.9 146.17 23.58C145.85 23.26 145.69 22.808 145.69 22.224V16.308H146.542V22.176C146.542 22.544 146.634 22.828 146.818 23.028C147.01 23.228 147.282 23.328 147.634 23.328C148.01 23.328 148.322 23.22 148.57 23.004L148.87 23.616C148.702 23.768 148.498 23.88 148.258 23.952C148.026 24.024 147.786 24.06 147.538 24.06ZM144.562 18.408V17.7H148.462V18.408H144.562ZM154.369 24V22.608L154.333 22.38V20.052C154.333 19.516 154.181 19.104 153.877 18.816C153.581 18.528 153.137 18.384 152.545 18.384C152.137 18.384 151.749 18.452 151.381 18.588C151.013 18.724 150.701 18.904 150.445 19.128L150.061 18.492C150.381 18.22 150.765 18.012 151.213 17.868C151.661 17.716 152.133 17.64 152.629 17.64C153.445 17.64 154.073 17.844 154.513 18.252C154.961 18.652 155.185 19.264 155.185 20.088V24H154.369ZM152.197 24.06C151.725 24.06 151.313 23.984 150.961 23.832C150.617 23.672 150.353 23.456 150.169 23.184C149.985 22.904 149.893 22.584 149.893 22.224C149.893 21.896 149.969 21.6 150.121 21.336C150.281 21.064 150.537 20.848 150.889 20.688C151.249 20.52 151.729 20.436 152.329 20.436H154.501V21.072H152.353C151.745 21.072 151.321 21.18 151.081 21.396C150.849 21.612 150.733 21.88 150.733 22.2C150.733 22.56 150.873 22.848 151.153 23.064C151.433 23.28 151.825 23.388 152.329 23.388C152.809 23.388 153.221 23.28 153.565 23.064C153.917 22.84 154.173 22.52 154.333 22.104L154.525 22.692C154.365 23.108 154.085 23.44 153.685 23.688C153.293 23.936 152.797 24.06 152.197 24.06ZM160.115 24.06C159.491 24.06 158.931 23.924 158.435 23.652C157.947 23.372 157.563 22.992 157.283 22.512C157.003 22.024 156.863 21.468 156.863 20.844C156.863 20.212 157.003 19.656 157.283 19.176C157.563 18.696 157.947 18.32 158.435 18.048C158.931 17.776 159.491 17.64 160.115 17.64C160.651 17.64 161.135 17.744 161.567 17.952C161.999 18.16 162.339 18.472 162.587 18.888L161.951 19.32C161.735 19 161.467 18.764 161.147 18.612C160.827 18.46 160.479 18.384 160.103 18.384C159.655 18.384 159.251 18.488 158.891 18.696C158.531 18.896 158.247 19.18 158.039 19.548C157.831 19.916 157.727 20.348 157.727 20.844C157.727 21.34 157.831 21.772 158.039 22.14C158.247 22.508 158.531 22.796 158.891 23.004C159.251 23.204 159.655 23.304 160.103 23.304C160.479 23.304 160.827 23.228 161.147 23.076C161.467 22.924 161.735 22.692 161.951 22.38L162.587 22.812C162.339 23.22 161.999 23.532 161.567 23.748C161.135 23.956 160.651 24.06 160.115 24.06ZM166.323 24.06C165.731 24.06 165.275 23.9 164.955 23.58C164.635 23.26 164.475 22.808 164.475 22.224V16.308H165.327V22.176C165.327 22.544 165.419 22.828 165.603 23.028C165.795 23.228 166.067 23.328 166.419 23.328C166.795 23.328 167.107 23.22 167.355 23.004L167.655 23.616C167.487 23.768 167.283 23.88 167.043 23.952C166.811 24.024 166.571 24.06 166.323 24.06ZM163.347 18.408V17.7H167.247V18.408H163.347Z" fill="white"/>
</svg>
