<svg width="24" height="24" viewBox="0 0 24 24" fill="none" xmlns="http://www.w3.org/2000/svg">
<path d="M9.6 5.613C7.91 5.466 6.98 4.874 6.484 3.7C6.305 3.277 6.18 2.783 6.1 2.2C6.1 2.1 6 2 5.9 2C5.8 2 5.7 2.1 5.7 2.2C5.62 2.783 5.495 3.277 5.316 3.7C4.821 4.874 3.891 5.466 2.2 5.613C2.1 5.613 2 5.713 2 5.813C2 5.913 2.1 6.013 2.2 6.013C4.3 6.413 5.4 7.2 5.7 9.4C5.7 9.5 5.8 9.6 5.9 9.6C6 9.6 6.1 9.5 6.1 9.4C6.4 7.2 7.5 6.413 9.6 6.013C9.7 6.013 9.8 5.913 9.8 5.813C9.8 5.713 9.7 5.613 9.6 5.613Z" fill="url(#paint0_linear_2034_48054)"/>
<path d="M19.4688 11.8652C15.4688 11.0652 13.7427 9.13523 12.9427 5.23623C12.9158 5.13073 12.8547 5.03711 12.7689 4.97C12.6832 4.90288 12.5776 4.86604 12.4688 4.86523C12.359 4.86611 12.2527 4.90356 12.1667 4.97167C12.0806 5.03977 12.0198 5.13464 11.9938 5.24123C12.0008 5.22623 11.9848 5.24723 11.9938 5.24123C11.1938 9.24123 9.36875 11.0652 5.46875 11.8652C5.33614 11.8652 5.20896 11.9179 5.1152 12.0117C5.02143 12.1054 4.96875 12.2326 4.96875 12.3652C4.96875 12.4978 5.02143 12.625 5.1152 12.7188C5.20896 12.8126 5.33614 12.8652 5.46875 12.8652C9.46875 13.6652 11.1858 15.5522 11.9858 19.4522C12.0046 19.567 12.0634 19.6714 12.1518 19.7469C12.2402 19.8225 12.3525 19.8644 12.4688 19.8652C12.5803 19.8642 12.6882 19.8254 12.7749 19.7551C12.8615 19.6848 12.9218 19.5872 12.9458 19.4782C12.9518 19.4702 12.9408 19.4882 12.9458 19.4782C13.7458 15.4782 15.5687 13.6652 19.4688 12.8652C19.6014 12.8652 19.7285 12.8126 19.8223 12.7188C19.9161 12.625 19.9688 12.4978 19.9688 12.3652C19.9688 12.2326 19.9161 12.1054 19.8223 12.0117C19.7285 11.9179 19.6014 11.8652 19.4688 11.8652Z" fill="url(#paint1_linear_2034_48054)"/>
<path d="M21.4654 5.80012C21.4654 5.71612 21.4044 5.66012 21.3214 5.64412L21.2654 5.63112C20.0974 5.32612 19.3894 4.60712 19.1924 3.52312C19.1924 3.48254 19.1763 3.44362 19.1476 3.41493C19.1189 3.38624 19.08 3.37012 19.0394 3.37012V3.37412C18.9554 3.37412 18.8994 3.43612 18.8834 3.51812L18.8704 3.57412C18.5654 4.74212 17.8464 5.45012 16.7624 5.64712C16.7218 5.64712 16.6829 5.66324 16.6542 5.69193C16.6255 5.72062 16.6094 5.75954 16.6094 5.80012H16.6134C16.6134 5.88412 16.6754 5.94012 16.7584 5.95612L16.8134 5.96912C17.9814 6.27412 18.6894 6.99312 18.8864 8.07712C18.8864 8.16112 18.9554 8.23012 19.0394 8.23012V8.22612C19.1234 8.22612 19.1794 8.16412 19.1954 8.08112L19.2094 8.02612C19.5134 6.85812 20.2324 6.15012 21.3164 5.95312C21.3363 5.95312 21.3561 5.94914 21.3745 5.94142C21.3929 5.93369 21.4095 5.92238 21.4235 5.90813C21.4375 5.89388 21.4485 5.87699 21.4558 5.85844C21.4632 5.83989 21.4658 5.82007 21.4654 5.80012Z" fill="url(#paint2_linear_2034_48054)"/>
<path d="M7.91917 18.7148C6.91917 18.4148 6.33717 17.9328 6.13717 16.9328C6.13717 16.875 6.1142 16.8196 6.07332 16.7787C6.03244 16.7378 5.97699 16.7148 5.91917 16.7148C5.86135 16.7148 5.80591 16.7378 5.76502 16.7787C5.72414 16.8196 5.70117 16.875 5.70117 16.9328C5.40117 17.9328 4.91917 18.5148 3.91917 18.7148C3.86135 18.7148 3.80591 18.7378 3.76502 18.7787C3.72414 18.8196 3.70117 18.875 3.70117 18.9328C3.70117 18.9907 3.72414 19.0461 3.76502 19.087C3.80591 19.1279 3.86135 19.1508 3.91917 19.1508C4.91917 19.4508 5.50117 19.9328 5.70117 20.9328C5.70117 20.9907 5.72414 21.0461 5.76502 21.087C5.80591 21.1279 5.86135 21.1508 5.91917 21.1508C5.97699 21.1508 6.03244 21.1279 6.07332 21.087C6.1142 21.0461 6.13717 20.9907 6.13717 20.9328C6.43717 19.9328 6.91917 19.3508 7.91917 19.1508C7.97699 19.1508 8.03244 19.1279 8.07332 19.087C8.1142 19.0461 8.13717 18.9907 8.13717 18.9328C8.13717 18.875 8.1142 18.8196 8.07332 18.7787C8.03244 18.7378 7.97699 18.7148 7.91917 18.7148Z" fill="url(#paint3_linear_2034_48054)"/>
<defs>
<linearGradient id="paint0_linear_2034_48054" x1="-7.733" y1="11.576" x2="11.416" y2="31.039" gradientUnits="userSpaceOnUse">
<stop stop-color="#03A5AB"/>
<stop offset="1" stop-color="#8B3DFF"/>
</linearGradient>
<linearGradient id="paint1_linear_2034_48054" x1="-7.73325" y1="11.5762" x2="11.4157" y2="31.0392" gradientUnits="userSpaceOnUse">
<stop stop-color="#03A5AB"/>
<stop offset="1" stop-color="#8B3DFF"/>
</linearGradient>
<linearGradient id="paint2_linear_2034_48054" x1="-7.73263" y1="11.5761" x2="11.4164" y2="31.0391" gradientUnits="userSpaceOnUse">
<stop stop-color="#03A5AB"/>
<stop offset="1" stop-color="#8B3DFF"/>
</linearGradient>
<linearGradient id="paint3_linear_2034_48054" x1="-7.73283" y1="11.5758" x2="11.4162" y2="31.0388" gradientUnits="userSpaceOnUse">
<stop stop-color="#03A5AB"/>
<stop offset="1" stop-color="#8B3DFF"/>
</linearGradient>
</defs>
</svg>
