<svg width="295" height="40" viewBox="0 0 295 40" fill="none" xmlns="http://www.w3.org/2000/svg">
<path d="M8 0.5H287C291.142 0.5 294.5 3.85786 294.5 8V32C294.5 36.1421 291.142 39.5 287 39.5H8C3.85787 39.5 0.5 36.1421 0.5 32V8C0.5 3.85786 3.85786 0.5 8 0.5Z" stroke="#35475A" stroke-opacity="0.2"/>
<path d="M87.5 12.25C87.9142 12.25 88.25 12.5858 88.25 13V19.25H94.5C94.9142 19.25 95.25 19.5858 95.25 20C95.25 20.4142 94.9142 20.75 94.5 20.75H88.25V27C88.25 27.4142 87.9142 27.75 87.5 27.75C87.0858 27.75 86.75 27.4142 86.75 27V20.75H80.5C80.0858 20.75 79.75 20.4142 79.75 20C79.75 19.5858 80.0858 19.25 80.5 19.25H86.75V13C86.75 12.5858 87.0858 12.25 87.5 12.25Z" fill="#0E1318"/>
<path d="M117.021 25H115.354L114.513 22.4775H110.466L109.632 25H107.998L111.471 15.0059H113.549L117.021 25ZM112.4 16.6533L110.91 21.1514H114.068L112.571 16.6533H112.4ZM121.116 25.1436C120.515 25.1436 119.981 25 119.517 24.7129C119.056 24.4212 118.696 23.9837 118.437 23.4004C118.177 22.8171 118.047 22.0947 118.047 21.2334C118.047 20.3721 118.181 19.6497 118.45 19.0664C118.724 18.4785 119.097 18.041 119.571 17.7539C120.05 17.4622 120.601 17.3164 121.226 17.3164C121.713 17.3164 122.144 17.4053 122.518 17.583C122.891 17.7562 123.208 18.0365 123.468 18.4238L123.611 18.3896V14.4316H125.115V25H123.611V23.9609L123.468 23.9336C123.235 24.2982 122.923 24.5921 122.531 24.8154C122.139 25.0342 121.668 25.1436 121.116 25.1436ZM121.595 23.8379C122.215 23.8379 122.707 23.6237 123.071 23.1953C123.436 22.7624 123.618 22.1084 123.618 21.2334C123.618 20.3493 123.436 19.693 123.071 19.2646C122.707 18.8317 122.215 18.6152 121.595 18.6152C120.269 18.6152 119.605 19.488 119.605 21.2334C119.605 22.9697 120.269 23.8379 121.595 23.8379ZM130.14 25.1436C129.538 25.1436 129.005 25 128.54 24.7129C128.08 24.4212 127.72 23.9837 127.46 23.4004C127.2 22.8171 127.07 22.0947 127.07 21.2334C127.07 20.3721 127.205 19.6497 127.474 19.0664C127.747 18.4785 128.121 18.041 128.595 17.7539C129.073 17.4622 129.625 17.3164 130.249 17.3164C130.737 17.3164 131.167 17.4053 131.541 17.583C131.915 17.7562 132.231 18.0365 132.491 18.4238L132.635 18.3896V14.4316H134.139V25H132.635V23.9609L132.491 23.9336C132.259 24.2982 131.947 24.5921 131.555 24.8154C131.163 25.0342 130.691 25.1436 130.14 25.1436ZM130.618 23.8379C131.238 23.8379 131.73 23.6237 132.095 23.1953C132.459 22.7624 132.642 22.1084 132.642 21.2334C132.642 20.3493 132.459 19.693 132.095 19.2646C131.73 18.8317 131.238 18.6152 130.618 18.6152C129.292 18.6152 128.629 19.488 128.629 21.2334C128.629 22.9697 129.292 23.8379 130.618 23.8379ZM139.922 25V17.46H141.357V18.5195L141.501 18.5469C141.756 18.1322 142.057 17.8245 142.403 17.624C142.75 17.4189 143.176 17.3164 143.682 17.3164C144.26 17.3164 144.716 17.4281 145.049 17.6514C145.382 17.8747 145.632 18.2165 145.801 18.6768H145.944C146.19 18.221 146.5 17.8815 146.874 17.6582C147.248 17.4303 147.71 17.3164 148.262 17.3164C149.046 17.3164 149.629 17.5329 150.012 17.9658C150.395 18.3942 150.586 19.0368 150.586 19.8936V25H149.082V20.0234C149.082 19.5312 148.979 19.1712 148.774 18.9434C148.574 18.7155 148.25 18.6016 147.804 18.6016C147.257 18.6016 146.819 18.793 146.491 19.1758C146.168 19.5586 146.006 20.1829 146.006 21.0488V25H144.502V20.0234C144.502 19.5312 144.399 19.1712 144.194 18.9434C143.994 18.7155 143.67 18.6016 143.224 18.6016C142.677 18.6016 142.239 18.7884 141.911 19.1621C141.588 19.5358 141.426 20.1396 141.426 20.9736V25H139.922ZM158.987 21.5684H153.97C154.056 23.0814 154.758 23.8379 156.075 23.8379C156.563 23.8379 156.955 23.7513 157.251 23.5781C157.552 23.4004 157.789 23.127 157.962 22.7578H158.105L159.097 23.373C158.864 23.9108 158.502 24.3415 158.01 24.665C157.522 24.984 156.877 25.1436 156.075 25.1436C155.323 25.1436 154.674 24.9977 154.127 24.7061C153.58 24.4144 153.159 23.9769 152.862 23.3936C152.566 22.8102 152.418 22.0902 152.418 21.2334C152.418 20.3766 152.573 19.6543 152.883 19.0664C153.193 18.4785 153.617 18.041 154.154 17.7539C154.692 17.4622 155.298 17.3164 155.973 17.3164C156.989 17.3164 157.773 17.5944 158.324 18.1504C158.88 18.7064 159.16 19.5244 159.165 20.6045C159.165 21.0101 159.154 21.304 159.131 21.4863L158.987 21.5684ZM157.709 20.4951C157.691 19.807 157.534 19.3057 157.237 18.9912C156.946 18.6768 156.524 18.5195 155.973 18.5195C155.417 18.5195 154.97 18.6768 154.633 18.9912C154.3 19.3057 154.09 19.807 154.004 20.4951H157.709ZM160.99 25V17.46H162.426V18.6016L162.569 18.6357C162.811 18.2028 163.123 17.8747 163.506 17.6514C163.889 17.4281 164.356 17.3164 164.907 17.3164C165.796 17.3164 166.443 17.5511 166.849 18.0205C167.259 18.4854 167.464 19.1849 167.464 20.1191V25H165.96V20.249C165.96 19.6611 165.844 19.2396 165.611 18.9844C165.379 18.7292 165.005 18.6016 164.49 18.6016C163.875 18.6016 163.387 18.8021 163.027 19.2031C162.672 19.6042 162.494 20.2399 162.494 21.1104V25H160.99ZM172.14 25.1436C171.292 25.1436 170.663 24.9157 170.253 24.46C169.843 23.9997 169.638 23.3366 169.638 22.4707V17.46H171.142V22.334C171.142 22.8535 171.258 23.2386 171.49 23.4893C171.727 23.7354 172.083 23.8584 172.557 23.8584C173.158 23.8584 173.63 23.6602 173.972 23.2637C174.318 22.8672 174.491 22.2337 174.491 21.3633V17.46H175.995V25H174.56V23.8516L174.416 23.8174C174.165 24.264 173.862 24.5967 173.507 24.8154C173.151 25.0342 172.696 25.1436 172.14 25.1436ZM182.537 16.2773C182.25 16.2773 182.015 16.1885 181.833 16.0107C181.651 15.833 181.56 15.6051 181.56 15.3271C181.56 15.0537 181.651 14.8281 181.833 14.6504C182.015 14.4727 182.25 14.3838 182.537 14.3838C182.824 14.3838 183.059 14.4727 183.241 14.6504C183.428 14.8281 183.521 15.0537 183.521 15.3271C183.521 15.6051 183.43 15.833 183.248 16.0107C183.066 16.1885 182.829 16.2773 182.537 16.2773ZM181.785 25V17.46H183.289V25H181.785ZM189.646 23.5029L190.07 24.6035C189.879 24.7767 189.633 24.9089 189.332 25C189.031 25.0957 188.699 25.1436 188.334 25.1436C187.577 25.1436 187.001 24.943 186.604 24.542C186.208 24.141 186.01 23.5417 186.01 22.7441V18.6631H184.779V17.4531H186.01V15.9219L187.514 15.6758V17.4531H189.797V18.6631H187.514V22.6211C187.514 23.0404 187.6 23.3434 187.773 23.5303C187.951 23.7171 188.204 23.8105 188.532 23.8105C188.901 23.8105 189.225 23.708 189.503 23.5029H189.646ZM197.528 21.5684H192.511C192.597 23.0814 193.299 23.8379 194.616 23.8379C195.104 23.8379 195.496 23.7513 195.792 23.5781C196.093 23.4004 196.33 23.127 196.503 22.7578H196.646L197.638 23.373C197.405 23.9108 197.043 24.3415 196.551 24.665C196.063 24.984 195.418 25.1436 194.616 25.1436C193.864 25.1436 193.215 24.9977 192.668 24.7061C192.121 24.4144 191.7 23.9769 191.403 23.3936C191.107 22.8102 190.959 22.0902 190.959 21.2334C190.959 20.3766 191.114 19.6543 191.424 19.0664C191.734 18.4785 192.158 18.041 192.695 17.7539C193.233 17.4622 193.839 17.3164 194.514 17.3164C195.53 17.3164 196.314 17.5944 196.865 18.1504C197.421 18.7064 197.701 19.5244 197.706 20.6045C197.706 21.0101 197.695 21.304 197.672 21.4863L197.528 21.5684ZM196.25 20.4951C196.232 19.807 196.075 19.3057 195.778 18.9912C195.487 18.6768 195.065 18.5195 194.514 18.5195C193.958 18.5195 193.511 18.6768 193.174 18.9912C192.841 19.3057 192.632 19.807 192.545 20.4951H196.25ZM199.531 25V17.46H200.967V18.5195L201.11 18.5469C201.366 18.1322 201.666 17.8245 202.013 17.624C202.359 17.4189 202.785 17.3164 203.291 17.3164C203.87 17.3164 204.326 17.4281 204.658 17.6514C204.991 17.8747 205.242 18.2165 205.41 18.6768H205.554C205.8 18.221 206.11 17.8815 206.483 17.6582C206.857 17.4303 207.32 17.3164 207.871 17.3164C208.655 17.3164 209.238 17.5329 209.621 17.9658C210.004 18.3942 210.195 19.0368 210.195 19.8936V25H208.691V20.0234C208.691 19.5312 208.589 19.1712 208.384 18.9434C208.183 18.7155 207.86 18.6016 207.413 18.6016C206.866 18.6016 206.429 18.793 206.101 19.1758C205.777 19.5586 205.615 20.1829 205.615 21.0488V25H204.111V20.0234C204.111 19.5312 204.009 19.1712 203.804 18.9434C203.603 18.7155 203.28 18.6016 202.833 18.6016C202.286 18.6016 201.849 18.7884 201.521 19.1621C201.197 19.5358 201.035 20.1396 201.035 20.9736V25H199.531Z" fill="#0E1318"/>
</svg>
