<svg width="41" height="27" viewBox="0 0 41 27" fill="none" xmlns="http://www.w3.org/2000/svg">
<path d="M0 12C0 5.37258 5.37258 0 12 0H28C34.6274 0 40 5.37258 40 12V12C40 18.6274 34.6274 24 28 24H12C5.37258 24 0 18.6274 0 12V12Z" fill="#8B3DFF"/>
<g filter="url(#filter0_dd_1148_53860)">
<circle cx="28" cy="12" r="10" fill="white"/>
</g>
<path d="M27.1788 15.1031L32.3395 9.94244C32.6323 9.64955 32.6323 9.17467 32.3395 8.88178C32.0466 8.58889 31.5717 8.58889 31.2788 8.88178L26.652 13.5085L24.7379 11.5683C24.0356 10.8564 22.9678 11.9099 23.6701 12.6217L26.1164 15.1014C26.4601 15.4479 26.8907 15.3729 27.1586 15.1226C27.1654 15.1162 27.1721 15.1098 27.1788 15.1031Z" fill="#8B3DFF"/>
<defs>
<filter id="filter0_dd_1148_53860" x="15" y="1" width="26" height="26" filterUnits="userSpaceOnUse" color-interpolation-filters="sRGB">
<feFlood flood-opacity="0" result="BackgroundImageFix"/>
<feColorMatrix in="SourceAlpha" type="matrix" values="0 0 0 0 0 0 0 0 0 0 0 0 0 0 0 0 0 0 127 0" result="hardAlpha"/>
<feMorphology radius="1" operator="erode" in="SourceAlpha" result="effect1_dropShadow_1148_53860"/>
<feOffset dy="2"/>
<feGaussianBlur stdDeviation="2"/>
<feColorMatrix type="matrix" values="0 0 0 0 0.25098 0 0 0 0 0.341176 0 0 0 0 0.427451 0 0 0 0.3 0"/>
<feBlend mode="normal" in2="BackgroundImageFix" result="effect1_dropShadow_1148_53860"/>
<feColorMatrix in="SourceAlpha" type="matrix" values="0 0 0 0 0 0 0 0 0 0 0 0 0 0 0 0 0 0 127 0" result="hardAlpha"/>
<feMorphology radius="1" operator="dilate" in="SourceAlpha" result="effect2_dropShadow_1148_53860"/>
<feOffset/>
<feColorMatrix type="matrix" values="0 0 0 0 0.25098 0 0 0 0 0.341176 0 0 0 0 0.427451 0 0 0 0.04 0"/>
<feBlend mode="normal" in2="effect1_dropShadow_1148_53860" result="effect2_dropShadow_1148_53860"/>
<feBlend mode="normal" in="SourceGraphic" in2="effect2_dropShadow_1148_53860" result="shape"/>
</filter>
</defs>
</svg>
