<svg width="32" height="32" viewBox="0 0 32 32" fill="none" xmlns="http://www.w3.org/2000/svg">
<path d="M6 7C6 6.44772 6.44772 6 7 6H9C9.55228 6 10 6.44772 10 7V9C10 9.55228 9.55228 10 9 10H7C6.44772 10 6 9.55228 6 9V7Z" fill="black"/>
<path d="M6 15C6 14.4477 6.44772 14 7 14H9C9.55228 14 10 14.4477 10 15V17C10 17.5523 9.55228 18 9 18H7C6.44772 18 6 17.5523 6 17V15Z" fill="black"/>
<path d="M7 22C6.44772 22 6 22.4477 6 23V25C6 25.5523 6.44772 26 7 26H9C9.55228 26 10 25.5523 10 25V23C10 22.4477 9.55228 22 9 22H7Z" fill="black"/>
<path d="M11 10C10.4477 10 10 10.4477 10 11V13C10 13.5523 10.4477 14 11 14H13C13.5523 14 14 13.5523 14 13V11C14 10.4477 13.5523 10 13 10H11Z" fill="#54575B"/>
<path d="M11 18C10.4477 18 10 18.4477 10 19V21C10 21.5523 10.4477 22 11 22H13C13.5523 22 14 21.5523 14 21V19C14 18.4477 13.5523 18 13 18H11Z" fill="#54575B"/>
<path d="M14 7C14 6.44772 14.4477 6 15 6H17C17.5523 6 18 6.44772 18 7V9C18 9.55228 17.5523 10 17 10H15C14.4477 10 14 9.55228 14 9V7Z" fill="#818486"/>
<path d="M14 15C14 14.4477 14.4477 14 15 14H17C17.5523 14 18 14.4477 18 15V17C18 17.5523 17.5523 18 17 18H15C14.4477 18 14 17.5523 14 17V15Z" fill="#818486"/>
<path d="M15 22C14.4477 22 14 22.4477 14 23V25C14 25.5523 14.4477 26 15 26H17C17.5523 26 18 25.5523 18 25V23C18 22.4477 17.5523 22 17 22H15Z" fill="#818486"/>
<path d="M19 10C18.4477 10 18 10.4477 18 11V13C18 13.5523 18.4477 14 19 14H21C21.5523 14 22 13.5523 22 13V11C22 10.4477 21.5523 10 21 10H19Z" fill="#AFB1B2"/>
<path d="M19 18C18.4477 18 18 18.4477 18 19V21C18 21.5523 18.4477 22 19 22H21C21.5523 22 22 21.5523 22 21V19C22 18.4477 21.5523 18 21 18H19Z" fill="#AFB1B2"/>
<path d="M22 7C22 6.44772 22.4477 6 23 6H25C25.5523 6 26 6.44772 26 7V9C26 9.55228 25.5523 10 25 10H23C22.4477 10 22 9.55228 22 9V7Z" fill="#D2D3D4"/>
<path d="M22 15C22 14.4477 22.4477 14 23 14H25C25.5523 14 26 14.4477 26 15V17C26 17.5523 25.5523 18 25 18H23C22.4477 18 22 17.5523 22 17V15Z" fill="#D2D3D4"/>
<path d="M23 22C22.4477 22 22 22.4477 22 23V25C22 25.5523 22.4477 26 23 26H25C25.5523 26 26 25.5523 26 25V23C26 22.4477 25.5523 22 25 22H23Z" fill="#D2D3D4"/>
</svg>
