<svg width="76" height="32" viewBox="0 0 76 32" fill="none" xmlns="http://www.w3.org/2000/svg">
<path d="M14.5 12.75C14.5 13.7165 13.7165 14.5 12.75 14.5C11.7835 14.5 11 13.7165 11 12.75C11 11.7835 11.7835 11 12.75 11C13.7165 11 14.5 11.7835 14.5 12.75Z" fill="#0E1318"/>
<path fill-rule="evenodd" clip-rule="evenodd" d="M23.5 17.3505V19.5H25V11C25 8.79086 23.2091 7 21 7H11C8.79086 7 7 8.79086 7 11V21C7 23.2091 8.79086 25 11 25H14.5V23.5H11C10.651 23.5 10.3187 23.4285 10.017 23.2993L17.8502 15.4661C18.3722 14.9441 18.7207 14.5971 19.013 14.3632C19.2938 14.1385 19.4518 14.078 19.5744 14.0606C19.6795 14.0456 19.7862 14.0456 19.8914 14.0606C20.014 14.078 20.172 14.1385 20.4527 14.3632C20.745 14.5971 21.0936 14.9441 21.6155 15.4661L23.5 17.3505ZM21 8.5H11C9.61929 8.5 8.5 9.61929 8.5 11V21C8.5 21.4842 8.63763 21.9362 8.8759 22.319L16.819 14.3759C17.3037 13.8912 17.7108 13.4841 18.0758 13.192C18.4597 12.8848 18.8663 12.6463 19.363 12.5756C19.6084 12.5406 19.8574 12.5406 20.1027 12.5756C20.5995 12.6463 21.006 12.8848 21.3899 13.192C21.7549 13.4841 22.162 13.8912 22.6467 14.3759L23.5 15.2292V11C23.5 9.61929 22.3807 8.5 21 8.5Z" fill="#0E1318"/>
<path d="M16 22.75C16 22.3358 16.3358 22 16.75 22H18.0278C18.3086 21.4088 18.9113 21 19.6094 21C20.3075 21 20.9101 21.4088 21.191 22H25.25C25.6642 22 26 22.3358 26 22.75C26 23.1642 25.6642 23.5 25.25 23.5H21.191C20.9101 24.0912 20.3075 24.5 19.6094 24.5C18.9113 24.5 18.3086 24.0912 18.0278 23.5H16.75C16.3358 23.5 16 23.1642 16 22.75Z" fill="#0E1318"/>
<path d="M39.3496 16.4473V19.6875H44.2852V21H37.7773V11.0059H44.1758V12.3184H39.3496V15.1553H43.5879V16.4473H39.3496ZM48.708 21.1436C48.1064 21.1436 47.5732 21 47.1084 20.7129C46.6481 20.4212 46.2881 19.9837 46.0283 19.4004C45.7686 18.8171 45.6387 18.0947 45.6387 17.2334C45.6387 16.3721 45.7731 15.6497 46.042 15.0664C46.3154 14.4785 46.6891 14.041 47.1631 13.7539C47.6416 13.4622 48.193 13.3164 48.8174 13.3164C49.305 13.3164 49.7357 13.4053 50.1094 13.583C50.4831 13.7562 50.7998 14.0365 51.0596 14.4238L51.2031 14.3896V10.4316H52.707V21H51.2031V19.9609L51.0596 19.9336C50.8271 20.2982 50.515 20.5921 50.123 20.8154C49.7311 21.0342 49.2594 21.1436 48.708 21.1436ZM49.1865 19.8379C49.8063 19.8379 50.2985 19.6237 50.6631 19.1953C51.0277 18.7624 51.21 18.1084 51.21 17.2334C51.21 16.3493 51.0277 15.693 50.6631 15.2646C50.2985 14.8317 49.8063 14.6152 49.1865 14.6152C47.8604 14.6152 47.1973 15.488 47.1973 17.2334C47.1973 18.9697 47.8604 19.8379 49.1865 19.8379ZM55.8652 12.2773C55.5781 12.2773 55.3434 12.1885 55.1611 12.0107C54.9788 11.833 54.8877 11.6051 54.8877 11.3271C54.8877 11.0537 54.9788 10.8281 55.1611 10.6504C55.3434 10.4727 55.5781 10.3838 55.8652 10.3838C56.1523 10.3838 56.387 10.4727 56.5693 10.6504C56.7562 10.8281 56.8496 11.0537 56.8496 11.3271C56.8496 11.6051 56.7585 11.833 56.5762 12.0107C56.3939 12.1885 56.1569 12.2773 55.8652 12.2773ZM55.1133 21V13.46H56.6172V21H55.1133ZM62.9746 19.5029L63.3984 20.6035C63.207 20.7767 62.9609 20.9089 62.6602 21C62.3594 21.0957 62.0267 21.1436 61.6621 21.1436C60.9056 21.1436 60.3291 20.943 59.9326 20.542C59.5361 20.141 59.3379 19.5417 59.3379 18.7441V14.6631H58.1074V13.4531H59.3379V11.9219L60.8418 11.6758V13.4531H63.125V14.6631H60.8418V18.6211C60.8418 19.0404 60.9284 19.3434 61.1016 19.5303C61.2793 19.7171 61.5322 19.8105 61.8604 19.8105C62.2295 19.8105 62.5531 19.708 62.8311 19.5029H62.9746Z" fill="#0E1318"/>
</svg>
