<svg width="101" height="32" viewBox="0 0 101 32" fill="none" xmlns="http://www.w3.org/2000/svg">
<path d="M7.78193 12.7819C5.53513 13.947 4 16.2942 4 18.9999C4 22.8659 7.13401 25.9999 11 25.9999C13.7057 25.9999 16.0529 24.4648 17.2181 22.218C16.4865 22.5974 15.6794 22.8515 14.8253 22.9518C13.8354 23.9101 12.4866 24.4999 11 24.4999C7.96243 24.4999 5.5 22.0375 5.5 18.9999C5.5 17.5133 6.08979 16.1645 7.04814 15.1746C7.14845 14.3205 7.40253 13.5135 7.78193 12.7819Z" fill="#AFB1B2"/>
<path d="M10.7819 9.78186C8.53513 10.947 7 13.2942 7 15.9999C7 19.8659 10.134 22.9999 14 22.9999C16.7057 22.9999 19.0529 21.4648 20.2181 19.218C19.4865 19.5974 18.6794 19.8515 17.8253 19.9518C16.8354 20.9101 15.4866 21.4999 14 21.4999C10.9624 21.4999 8.5 19.0375 8.5 15.9999C8.5 14.5133 9.08979 13.1645 10.0481 12.1746C10.1485 11.3205 10.4025 10.5135 10.7819 9.78186Z" fill="#6A6D70"/>
<path d="M23.25 13C23.25 16.4518 20.4518 19.25 17 19.25C13.5482 19.25 10.75 16.4518 10.75 13C10.75 9.54822 13.5482 6.75 17 6.75C20.4518 6.75 23.25 9.54822 23.25 13Z" stroke="#0E1318" stroke-width="1.5"/>
<path d="M41.3936 21H39.7256L38.8848 18.4775H34.8379L34.0039 21H32.3701L35.8428 11.0059H37.9209L41.3936 21ZM36.7725 12.6533L35.2822 17.1514H38.4404L36.9434 12.6533H36.7725ZM42.8701 21V13.46H44.3057V14.6016L44.4492 14.6357C44.6908 14.2028 45.0029 13.8747 45.3857 13.6514C45.7686 13.4281 46.2357 13.3164 46.7871 13.3164C47.6758 13.3164 48.3229 13.5511 48.7285 14.0205C49.1387 14.4854 49.3438 15.1849 49.3438 16.1191V21H47.8398V16.249C47.8398 15.6611 47.7236 15.2396 47.4912 14.9844C47.2588 14.7292 46.8851 14.6016 46.3701 14.6016C45.7549 14.6016 45.2673 14.8021 44.9072 15.2031C44.5518 15.6042 44.374 16.2399 44.374 17.1104V21H42.8701ZM52.3857 12.2773C52.0986 12.2773 51.8639 12.1885 51.6816 12.0107C51.4993 11.833 51.4082 11.6051 51.4082 11.3271C51.4082 11.0537 51.4993 10.8281 51.6816 10.6504C51.8639 10.4727 52.0986 10.3838 52.3857 10.3838C52.6729 10.3838 52.9076 10.4727 53.0898 10.6504C53.2767 10.8281 53.3701 11.0537 53.3701 11.3271C53.3701 11.6051 53.279 11.833 53.0967 12.0107C52.9144 12.1885 52.6774 12.2773 52.3857 12.2773ZM51.6338 21V13.46H53.1377V21H51.6338ZM55.5439 21V13.46H56.9795V14.5195L57.123 14.5469C57.3783 14.1322 57.679 13.8245 58.0254 13.624C58.3717 13.4189 58.7979 13.3164 59.3037 13.3164C59.8825 13.3164 60.3382 13.4281 60.6709 13.6514C61.0036 13.8747 61.2542 14.2165 61.4229 14.6768H61.5664C61.8125 14.221 62.1224 13.8815 62.4961 13.6582C62.8698 13.4303 63.3324 13.3164 63.8838 13.3164C64.6676 13.3164 65.251 13.5329 65.6338 13.9658C66.0166 14.3942 66.208 15.0368 66.208 15.8936V21H64.7041V16.0234C64.7041 15.5312 64.6016 15.1712 64.3965 14.9434C64.196 14.7155 63.8724 14.6016 63.4258 14.6016C62.8789 14.6016 62.4414 14.793 62.1133 15.1758C61.7897 15.5586 61.6279 16.1829 61.6279 17.0488V21H60.124V16.0234C60.124 15.5312 60.0215 15.1712 59.8164 14.9434C59.6159 14.7155 59.2923 14.6016 58.8457 14.6016C58.2988 14.6016 57.8613 14.7884 57.5332 15.1621C57.2096 15.5358 57.0479 16.1396 57.0479 16.9736V21H55.5439ZM70.3164 21.1436C69.5781 21.1436 68.9993 20.9476 68.5801 20.5557C68.1608 20.1592 67.9512 19.5986 67.9512 18.874C67.9512 18.4274 68.0446 18.0514 68.2314 17.7461C68.4183 17.4408 68.71 17.1924 69.1064 17.001C69.5029 16.805 70.0179 16.6546 70.6514 16.5498C71.1481 16.4678 71.5264 16.3766 71.7861 16.2764C72.0459 16.1761 72.2214 16.0645 72.3125 15.9414C72.4036 15.8138 72.4492 15.6543 72.4492 15.4629C72.4492 15.1712 72.3467 14.9479 72.1416 14.793C71.9411 14.638 71.613 14.5605 71.1572 14.5605C70.2959 14.5605 69.5645 14.9183 68.9629 15.6338H68.8262L68.1562 14.6494C68.5072 14.2347 68.9424 13.9089 69.4619 13.6719C69.986 13.4349 70.5671 13.3164 71.2051 13.3164C72.1484 13.3164 72.8366 13.5192 73.2695 13.9248C73.707 14.3304 73.9258 14.9001 73.9258 15.6338V19.2705C73.9258 19.6488 74.0876 19.8379 74.4111 19.8379C74.5296 19.8379 74.6436 19.8174 74.7529 19.7764L74.8486 19.8037L74.9785 20.8496C74.8874 20.9134 74.7598 20.9635 74.5957 21C74.4362 21.0365 74.2653 21.0547 74.083 21.0547C73.6501 21.0547 73.3174 20.9658 73.085 20.7881C72.8571 20.6104 72.6999 20.3392 72.6133 19.9746L72.4697 19.9609C72.2692 20.3574 71.9912 20.6536 71.6357 20.8496C71.2848 21.0456 70.8451 21.1436 70.3164 21.1436ZM70.7402 19.9883C71.0911 19.9883 71.3988 19.9085 71.6631 19.749C71.9274 19.585 72.1302 19.3525 72.2715 19.0518C72.4128 18.751 72.4834 18.3978 72.4834 17.9922V17.1309L72.3535 17.1035C72.2122 17.2083 72.0345 17.2972 71.8203 17.3701C71.6107 17.4385 71.3099 17.5046 70.918 17.5684C70.3893 17.6458 70.0133 17.7848 69.79 17.9854C69.5713 18.1813 69.4619 18.4593 69.4619 18.8193C69.4619 19.2021 69.5736 19.4938 69.7969 19.6943C70.0202 19.8903 70.3346 19.9883 70.7402 19.9883ZM80.2217 19.5029L80.6455 20.6035C80.4541 20.7767 80.208 20.9089 79.9072 21C79.6064 21.0957 79.2738 21.1436 78.9092 21.1436C78.1527 21.1436 77.5762 20.943 77.1797 20.542C76.7832 20.141 76.585 19.5417 76.585 18.7441V14.6631H75.3545V13.4531H76.585V11.9219L78.0889 11.6758V13.4531H80.3721V14.6631H78.0889V18.6211C78.0889 19.0404 78.1755 19.3434 78.3486 19.5303C78.5264 19.7171 78.7793 19.8105 79.1074 19.8105C79.4766 19.8105 79.8001 19.708 80.0781 19.5029H80.2217ZM88.1035 17.5684H83.0859C83.1725 19.0814 83.8743 19.8379 85.1914 19.8379C85.679 19.8379 86.071 19.7513 86.3672 19.5781C86.668 19.4004 86.9049 19.127 87.0781 18.7578H87.2217L88.2129 19.373C87.9805 19.9108 87.6182 20.3415 87.126 20.665C86.6383 20.984 85.9935 21.1436 85.1914 21.1436C84.4395 21.1436 83.79 20.9977 83.2432 20.7061C82.6963 20.4144 82.2747 19.9769 81.9785 19.3936C81.6823 18.8102 81.5342 18.0902 81.5342 17.2334C81.5342 16.3766 81.6891 15.6543 81.999 15.0664C82.3089 14.4785 82.7327 14.041 83.2705 13.7539C83.8083 13.4622 84.4144 13.3164 85.0889 13.3164C86.1051 13.3164 86.889 13.5944 87.4404 14.1504C87.9964 14.7064 88.2767 15.5244 88.2812 16.6045C88.2812 17.0101 88.2699 17.304 88.2471 17.4863L88.1035 17.5684ZM86.8252 16.4951C86.807 15.807 86.6497 15.3057 86.3535 14.9912C86.0618 14.6768 85.6403 14.5195 85.0889 14.5195C84.5329 14.5195 84.0863 14.6768 83.749 14.9912C83.4163 15.3057 83.2067 15.807 83.1201 16.4951H86.8252Z" fill="#0E1318"/>
</svg>
