<svg width="131" height="32" viewBox="0 0 131 32" fill="none" xmlns="http://www.w3.org/2000/svg">
<path d="M13.8398 21V11.0059H17.8662C18.4814 11.0059 19.0033 11.1038 19.4316 11.2998C19.86 11.4912 20.1813 11.7669 20.3955 12.127C20.6143 12.487 20.7236 12.9154 20.7236 13.4121C20.7236 13.8496 20.6097 14.2415 20.3818 14.5879C20.1585 14.9297 19.8372 15.2008 19.418 15.4014V15.5449C20.0651 15.709 20.5596 16.0075 20.9014 16.4404C21.2477 16.8734 21.4209 17.4111 21.4209 18.0537C21.4209 18.9971 21.1406 19.724 20.5801 20.2344C20.0195 20.7448 19.1878 21 18.085 21H13.8398ZM17.6338 15.0938C18.1396 15.0938 18.5247 14.9707 18.7891 14.7246C19.0579 14.474 19.1924 14.1185 19.1924 13.6582C19.1924 12.7057 18.6729 12.2295 17.6338 12.2295H15.4121V15.0938H17.6338ZM17.9414 19.7285C19.1947 19.7285 19.8213 19.1611 19.8213 18.0264C19.8213 16.887 19.1947 16.3174 17.9414 16.3174H15.4121V19.7285H17.9414ZM27.1973 21.1436C26.3587 21.1436 25.6273 20.9521 25.0029 20.5693C24.3786 20.1865 23.8932 19.6123 23.5469 18.8467C23.2051 18.0765 23.0342 17.1286 23.0342 16.0029C23.0342 14.8727 23.2279 13.9225 23.6152 13.1523C24.0072 12.3822 24.5495 11.8079 25.2422 11.4297C25.9395 11.0514 26.7438 10.8623 27.6553 10.8623C28.6123 10.8623 29.4121 11.0378 30.0547 11.3887C30.7018 11.735 31.1576 12.2546 31.4219 12.9473L30.3145 13.6104H30.1436C29.9111 13.1273 29.5921 12.7786 29.1865 12.5645C28.7809 12.3457 28.2705 12.2363 27.6553 12.2363C26.6982 12.2363 25.9622 12.5371 25.4473 13.1387C24.9368 13.7357 24.6816 14.6904 24.6816 16.0029C24.6816 17.3154 24.9255 18.2725 25.4131 18.874C25.9007 19.471 26.6025 19.7695 27.5186 19.7695C28.3343 19.7695 28.9404 19.585 29.3369 19.2158C29.7334 18.8467 29.9316 18.277 29.9316 17.5068V16.8506H27.3271V15.5791H31.4834V21H30V19.6602L29.8564 19.6328C29.624 20.1296 29.2845 20.5055 28.8379 20.7607C28.3913 21.016 27.8444 21.1436 27.1973 21.1436ZM37.3418 21V11.0059H41.1631C41.8421 11.0059 42.4118 11.1152 42.8721 11.334C43.3369 11.5527 43.6833 11.8649 43.9111 12.2705C44.139 12.6715 44.2529 13.1478 44.2529 13.6992C44.2529 14.3145 44.098 14.8203 43.7881 15.2168C43.4827 15.6087 43.0133 15.9049 42.3799 16.1055V16.249C42.6989 16.3812 42.9564 16.584 43.1523 16.8574C43.3529 17.1263 43.5397 17.5296 43.7129 18.0674L44.6768 21H43.0566L42.6055 19.6191C42.3685 18.89 42.1885 18.3431 42.0654 17.9785C41.9561 17.6458 41.8307 17.3861 41.6895 17.1992C41.5527 17.0124 41.375 16.8779 41.1562 16.7959C40.9421 16.7139 40.6663 16.6729 40.3291 16.6729H38.9141V21H37.3418ZM41.0264 15.3945C42.1247 15.3945 42.6738 14.8773 42.6738 13.8428C42.6738 12.8037 42.1247 12.2842 41.0264 12.2842H38.9141V15.3945H41.0264ZM52.3604 17.5684H47.3428C47.4294 19.0814 48.1312 19.8379 49.4482 19.8379C49.9359 19.8379 50.3278 19.7513 50.624 19.5781C50.9248 19.4004 51.1618 19.127 51.335 18.7578H51.4785L52.4697 19.373C52.2373 19.9108 51.875 20.3415 51.3828 20.665C50.8952 20.984 50.2503 21.1436 49.4482 21.1436C48.6963 21.1436 48.0469 20.9977 47.5 20.7061C46.9531 20.4144 46.5316 19.9769 46.2354 19.3936C45.9391 18.8102 45.791 18.0902 45.791 17.2334C45.791 16.3766 45.946 15.6543 46.2559 15.0664C46.5658 14.4785 46.9896 14.041 47.5273 13.7539C48.0651 13.4622 48.6712 13.3164 49.3457 13.3164C50.362 13.3164 51.1458 13.5944 51.6973 14.1504C52.2533 14.7064 52.5335 15.5244 52.5381 16.6045C52.5381 17.0101 52.5267 17.304 52.5039 17.4863L52.3604 17.5684ZM51.082 16.4951C51.0638 15.807 50.9066 15.3057 50.6104 14.9912C50.3187 14.6768 49.8971 14.5195 49.3457 14.5195C48.7897 14.5195 48.3431 14.6768 48.0059 14.9912C47.6732 15.3057 47.4635 15.807 47.377 16.4951H51.082ZM54.3633 21V13.46H55.7988V14.5195L55.9424 14.5469C56.1976 14.1322 56.4984 13.8245 56.8447 13.624C57.1911 13.4189 57.6172 13.3164 58.123 13.3164C58.7018 13.3164 59.1576 13.4281 59.4902 13.6514C59.8229 13.8747 60.0736 14.2165 60.2422 14.6768H60.3857C60.6318 14.221 60.9417 13.8815 61.3154 13.6582C61.6891 13.4303 62.1517 13.3164 62.7031 13.3164C63.487 13.3164 64.0703 13.5329 64.4531 13.9658C64.8359 14.3942 65.0273 15.0368 65.0273 15.8936V21H63.5234V16.0234C63.5234 15.5312 63.4209 15.1712 63.2158 14.9434C63.0153 14.7155 62.6917 14.6016 62.2451 14.6016C61.6982 14.6016 61.2607 14.793 60.9326 15.1758C60.609 15.5586 60.4473 16.1829 60.4473 17.0488V21H58.9434V16.0234C58.9434 15.5312 58.8408 15.1712 58.6357 14.9434C58.4352 14.7155 58.1117 14.6016 57.665 14.6016C57.1182 14.6016 56.6807 14.7884 56.3525 15.1621C56.029 15.5358 55.8672 16.1396 55.8672 16.9736V21H54.3633ZM70.4619 21.1436C69.7373 21.1436 69.1038 20.9932 68.5615 20.6924C68.0192 20.3916 67.5999 19.9473 67.3037 19.3594C67.0075 18.7715 66.8594 18.0628 66.8594 17.2334C66.8594 16.3994 67.0075 15.6908 67.3037 15.1074C67.5999 14.5195 68.0192 14.0752 68.5615 13.7744C69.1038 13.4691 69.7373 13.3164 70.4619 13.3164C71.1865 13.3164 71.82 13.4691 72.3623 13.7744C72.9046 14.0752 73.3239 14.5195 73.6201 15.1074C73.9209 15.6908 74.0713 16.3994 74.0713 17.2334C74.0713 18.0628 73.9209 18.7715 73.6201 19.3594C73.3239 19.9473 72.9046 20.3916 72.3623 20.6924C71.82 20.9932 71.1865 21.1436 70.4619 21.1436ZM70.4619 19.8379C71.8245 19.8379 72.5059 18.9697 72.5059 17.2334C72.5059 15.488 71.8245 14.6152 70.4619 14.6152C69.8011 14.6152 69.2952 14.8294 68.9443 15.2578C68.5934 15.6816 68.418 16.3402 68.418 17.2334C68.418 18.9697 69.0993 19.8379 70.4619 19.8379ZM79.6494 21H77.7559L74.9258 13.46H76.5186L78.6377 19.2773H78.7949L80.9141 13.46H82.4658L79.6494 21ZM89.8896 17.5684H84.8721C84.9587 19.0814 85.6605 19.8379 86.9775 19.8379C87.4652 19.8379 87.8571 19.7513 88.1533 19.5781C88.4541 19.4004 88.6911 19.127 88.8643 18.7578H89.0078L89.999 19.373C89.7666 19.9108 89.4043 20.3415 88.9121 20.665C88.4245 20.984 87.7796 21.1436 86.9775 21.1436C86.2256 21.1436 85.5762 20.9977 85.0293 20.7061C84.4824 20.4144 84.0609 19.9769 83.7646 19.3936C83.4684 18.8102 83.3203 18.0902 83.3203 17.2334C83.3203 16.3766 83.4753 15.6543 83.7852 15.0664C84.0951 14.4785 84.5189 14.041 85.0566 13.7539C85.5944 13.4622 86.2005 13.3164 86.875 13.3164C87.8913 13.3164 88.6751 13.5944 89.2266 14.1504C89.7826 14.7064 90.0628 15.5244 90.0674 16.6045C90.0674 17.0101 90.056 17.304 90.0332 17.4863L89.8896 17.5684ZM88.6113 16.4951C88.5931 15.807 88.4359 15.3057 88.1396 14.9912C87.848 14.6768 87.4264 14.5195 86.875 14.5195C86.319 14.5195 85.8724 14.6768 85.5352 14.9912C85.2025 15.3057 84.9928 15.807 84.9062 16.4951H88.6113ZM91.8926 21V13.46H93.3418V14.6084L93.4854 14.6426C93.6676 14.2096 93.916 13.8929 94.2305 13.6924C94.5449 13.4919 94.9255 13.3916 95.3721 13.3916C95.8506 13.3916 96.2061 13.4736 96.4385 13.6377L96.1377 14.9297L95.9941 14.957C95.8665 14.8978 95.7367 14.8545 95.6045 14.8271C95.4723 14.7952 95.3197 14.7793 95.1465 14.7793C94.5814 14.7793 94.1484 14.9844 93.8477 15.3945C93.5469 15.8047 93.3965 16.4678 93.3965 17.3838V21H91.8926Z" fill="#0E1318"/>
<path fill-rule="evenodd" clip-rule="evenodd" d="M116.954 12.4545C116.954 12.8305 116.737 13.1557 116.421 13.3113C116.885 14.5231 117.371 15.1192 117.798 15.1661C118.281 15.2193 118.723 15.0005 119.156 14.4615L119.158 14.4601C119.037 14.3004 118.966 14.1017 118.966 13.8864C118.966 13.3592 119.393 12.9318 119.92 12.9318C120.448 12.9318 120.875 13.3592 120.875 13.8864C120.875 14.4131 120.448 14.8402 119.922 14.8409L119.214 17.6418C119.068 18.2196 118.543 18.625 117.941 18.625H114.059C113.457 18.625 112.932 18.2196 112.786 17.6418L112.078 14.8409C111.552 14.8403 111.125 14.4131 111.125 13.8864C111.125 13.3592 111.552 12.9318 112.08 12.9318C112.607 12.9318 113.034 13.3592 113.034 13.8864C113.034 14.1017 112.963 14.3004 112.843 14.4601L112.849 14.4688C113.261 15.0047 113.7 15.2214 114.202 15.1661C114.65 15.1169 115.133 14.523 115.579 13.3116C115.263 13.1561 115.045 12.8308 115.045 12.4545C115.045 11.9274 115.473 11.5 116 11.5C116.527 11.5 116.954 11.9274 116.954 12.4545ZM113.281 19.375H118.719C118.978 19.375 119.188 19.5849 119.188 19.8438C119.188 20.1026 118.978 20.3125 118.719 20.3125H113.281C113.022 20.3125 112.812 20.1026 112.812 19.8438C112.812 19.5849 113.022 19.375 113.281 19.375Z" fill="#24313D" fill-opacity="0.4"/>
</svg>
