<svg width="32" height="32" viewBox="0 0 32 32" fill="none" xmlns="http://www.w3.org/2000/svg">
<path fill-rule="evenodd" clip-rule="evenodd" d="M10.25 7V9H11.75V7C11.75 6.58579 11.4142 6.25 11 6.25C10.5858 6.25 10.25 6.58579 10.25 7ZM10.25 19.7518V13H11.75V19.7518C11.75 19.8899 11.8619 20.0018 12 20.0018H19.0111V21.5018H12C11.0335 21.5018 10.25 20.7183 10.25 19.7518ZM23.0111 21.5018V20.0018H24.9782C25.3924 20.0018 25.7282 20.3376 25.7282 20.7518C25.7282 21.166 25.3924 21.5018 24.9782 21.5018H23.0111ZM21.7611 12V24.7842C21.7611 25.1984 21.4253 25.5342 21.0111 25.5342C20.5969 25.5342 20.2611 25.1984 20.2611 24.7842V12C20.2611 11.8619 20.1492 11.75 20.0111 11.75H7C6.58579 11.75 6.25 11.4142 6.25 11C6.25 10.5858 6.58579 10.25 7 10.25H20.0111C20.9776 10.25 21.7611 11.0335 21.7611 12Z" fill="#0E1318"/>
</svg>
