<svg width="298" height="151" viewBox="0 0 298 151" fill="none" xmlns="http://www.w3.org/2000/svg">
<g clip-path="url(#clip0_62_139)">
<rect x="1" y="1" width="296" height="149" rx="7" stroke="#7D2AE7" stroke-width="2" stroke-linejoin="round" stroke-dasharray="13 13"/>
<path fill-rule="evenodd" clip-rule="evenodd" d="M149 101.6C163.139 101.6 174.6 90.1385 174.6 76C174.6 61.8615 163.139 50.4 149 50.4C134.862 50.4 123.4 61.8615 123.4 76C123.4 90.1385 134.862 101.6 149 101.6ZM147.575 66.9374C146.593 66.2828 145.331 66.2218 144.29 66.7786C143.25 67.3355 142.6 68.4199 142.6 69.6V82.4C142.6 83.5801 143.25 84.6645 144.29 85.2214C145.331 85.7782 146.593 85.7172 147.575 85.0626L157.175 78.6626C158.066 78.0691 158.6 77.0699 158.6 76C158.6 74.9301 158.066 73.9309 157.175 73.3374L147.575 66.9374Z" fill="#7B8795"/>
<path fill-rule="evenodd" clip-rule="evenodd" d="M149 101.6C163.139 101.6 174.6 90.1385 174.6 76C174.6 61.8615 163.139 50.4 149 50.4C134.862 50.4 123.4 61.8615 123.4 76C123.4 90.1385 134.862 101.6 149 101.6ZM147.575 66.9374C146.593 66.2828 145.331 66.2218 144.29 66.7786C143.25 67.3355 142.6 68.4199 142.6 69.6V82.4C142.6 83.5801 143.25 84.6645 144.29 85.2214C145.331 85.7782 146.593 85.7172 147.575 85.0626L157.175 78.6626C158.066 78.0691 158.6 77.0699 158.6 76C158.6 74.9301 158.066 73.9309 157.175 73.3374L147.575 66.9374Z" fill="#7B8795"/>
</g>
<defs>
<clipPath id="clip0_62_139">
<rect width="298" height="151" fill="white"/>
</clipPath>
</defs>
</svg>
