<svg width="24" height="24" viewBox="0 0 24 24" fill="none" xmlns="http://www.w3.org/2000/svg">
<path fill-rule="evenodd" clip-rule="evenodd" d="M5.56986 3.36282C4.15486 3.36282 3.00586 4.52182 3.00586 5.95082V8.77482C3.00586 10.2038 4.15486 11.3628 5.57086 11.3628H8.36886C9.78486 11.3628 10.9329 10.2038 10.9329 8.77482V5.94982C10.9329 4.51982 9.78486 3.36182 8.36886 3.36182L5.56986 3.36282ZM5.56986 4.86282C4.99586 4.86282 4.50586 5.33682 4.50586 5.95082V8.77482C4.50586 9.38882 4.99586 9.86282 5.57086 9.86282H8.36886C8.94386 9.86282 9.43286 9.38882 9.43286 8.77482V5.94982C9.43286 5.33582 8.94286 4.86182 8.36886 4.86182L5.56986 4.86282ZM15.5759 3.36282C14.1599 3.36282 13.0119 4.52182 13.0119 5.95082V8.77482C13.0119 10.2038 14.1599 11.3628 15.5759 11.3628H18.3739C19.7899 11.3628 20.9389 10.2038 20.9389 8.77482V5.94982C20.9389 4.51982 19.7899 3.36182 18.3739 3.36182L15.5759 3.36282ZM15.5759 4.86282C15.0009 4.86282 14.5119 5.33682 14.5119 5.95082V8.77482C14.5119 9.38882 15.0019 9.86282 15.5759 9.86282H18.3739C18.9489 9.86282 19.4389 9.38882 19.4389 8.77482V5.94982C19.4389 5.33582 18.9489 4.86182 18.3739 4.86182L15.5759 4.86282ZM5.56986 13.3828C4.15486 13.3828 3.00586 14.5418 3.00586 15.9708V18.7948C3.00586 20.2248 4.15486 21.3828 5.57086 21.3828H8.36886C9.78486 21.3828 10.9329 20.2238 10.9329 18.7948V15.9698C10.9329 14.5408 9.78486 13.3818 8.36886 13.3818L5.56986 13.3828ZM4.50586 15.9708C4.50586 15.3568 4.99586 14.8828 5.57086 14.8828H8.36886C8.94386 14.8828 9.43286 15.3568 9.43286 15.9708V18.7948C9.43286 19.4088 8.94286 19.8828 8.36886 19.8828H5.56986C5.28439 19.8797 5.01186 19.7633 4.81216 19.5593C4.61246 19.3552 4.50193 19.0803 4.50486 18.7948V15.9698L4.50586 15.9708Z" fill="black" fill-opacity="0.7"/>
<path d="M16.9749 13.4141C17.1738 13.4141 17.3645 13.4931 17.5052 13.6337C17.6458 13.7744 17.7249 13.9652 17.7249 14.1641V16.6341H20.1939C20.3928 16.6341 20.5835 16.7131 20.7242 16.8537C20.8648 16.9944 20.9439 17.1852 20.9439 17.3841C20.9439 17.583 20.8648 17.7737 20.7242 17.9144C20.5835 18.055 20.3928 18.1341 20.1939 18.1341H17.7249V20.6021C17.7249 20.801 17.6458 20.9917 17.5052 21.1324C17.3645 21.273 17.1738 21.3521 16.9749 21.3521C16.7759 21.3521 16.5852 21.273 16.4445 21.1324C16.3039 20.9917 16.2249 20.801 16.2249 20.6021V18.1331H13.7559C13.5569 18.1331 13.3662 18.054 13.2255 17.9134C13.0849 17.7727 13.0059 17.582 13.0059 17.3831C13.0059 17.1841 13.0849 16.9934 13.2255 16.8527C13.3662 16.7121 13.5569 16.6331 13.7559 16.6331H16.2259V14.1641C16.2259 13.9652 16.3049 13.7744 16.4455 13.6337C16.5862 13.4931 16.7759 13.4141 16.9749 13.4141Z" fill="black" fill-opacity="0.7"/>
</svg>
