<svg width="24" height="24" viewBox="0 0 24 24" fill="none" xmlns="http://www.w3.org/2000/svg">
<path d="M9.09561 5.92681L10.6416 4.62981C11.0257 4.3076 11.4977 4.10825 11.9964 4.0576C12.4952 4.00696 12.9976 4.10737 13.4386 4.34581L13.5806 4.29481C14.1335 4.09289 14.7153 3.98113 15.3036 3.96381C14.6205 3.15508 13.6447 2.65012 12.5899 2.55959C11.5352 2.46905 10.4875 2.80032 9.67661 3.48081L4.97461 7.42681L9.09561 5.92681Z" fill="black" fill-opacity="0.7"/>
<path fill-rule="evenodd" clip-rule="evenodd" d="M11.8359 15.4548C11.8359 14.7394 12.1201 14.0533 12.626 13.5474C13.1319 13.0415 13.818 12.7573 14.5334 12.7573C15.2489 12.7573 15.935 13.0415 16.4409 13.5474C16.9467 14.0533 17.2309 14.7394 17.2309 15.4548C17.2309 16.1702 16.9467 16.8564 16.4409 17.3622C15.935 17.8681 15.2489 18.1523 14.5334 18.1523C13.818 18.1523 13.1319 17.8681 12.626 17.3622C12.1201 16.8564 11.8359 16.1702 11.8359 15.4548ZM14.5339 14.0068C14.15 14.0068 13.7819 14.1593 13.5104 14.4308C13.2389 14.7022 13.0864 15.0704 13.0864 15.4543C13.0864 15.8382 13.2389 16.2064 13.5104 16.4779C13.7819 16.7493 14.15 16.9018 14.5339 16.9018C14.9178 16.9018 15.286 16.7493 15.5575 16.4779C15.8289 16.2064 15.9814 15.8382 15.9814 15.4543C15.9814 15.0704 15.8289 14.7022 15.5575 14.4308C15.286 14.1593 14.9178 14.0068 14.5339 14.0068Z" fill="black" fill-opacity="0.7"/>
<path d="M8.01999 15.4552C8.01975 15.1868 8.09417 14.9237 8.23491 14.6951C8.37565 14.4666 8.57718 14.2817 8.81696 14.1612C9.05674 14.0406 9.32533 13.9891 9.5927 14.0124C9.86008 14.0357 10.1157 14.133 10.331 14.2932C10.3966 14.344 10.4718 14.3812 10.552 14.4026C10.6321 14.424 10.7158 14.4293 10.798 14.418C10.8803 14.4068 10.9595 14.3793 11.0309 14.3371C11.1024 14.2949 11.1648 14.2389 11.2144 14.1724C11.264 14.1058 11.2999 14.03 11.3199 13.9495C11.3399 13.8689 11.3437 13.7852 11.331 13.7032C11.3183 13.6211 11.2894 13.5425 11.2459 13.4717C11.2025 13.401 11.1454 13.3396 11.078 13.2912C10.6775 12.9934 10.2022 12.8125 9.70506 12.7687C9.20788 12.7249 8.70831 12.82 8.26194 13.0432C7.81557 13.2665 7.43991 13.6093 7.17678 14.0334C6.91364 14.4575 6.77334 14.9463 6.7715 15.4454C6.76966 15.9445 6.90635 16.4343 7.16635 16.8603C7.42636 17.2863 7.79948 17.6318 8.24419 17.8584C8.6889 18.085 9.18776 18.1837 9.68524 18.1436C10.1827 18.1035 10.6593 17.9261 11.062 17.6312C11.1957 17.5331 11.2849 17.3859 11.31 17.222C11.3351 17.0581 11.2941 16.8909 11.196 16.7572C11.0979 16.6235 10.9506 16.5343 10.7867 16.5092C10.6228 16.4841 10.4557 16.5251 10.322 16.6232C10.1063 16.7812 9.851 16.8763 9.5845 16.898C9.31801 16.9198 9.0507 16.8672 8.81226 16.7462C8.57381 16.6252 8.37355 16.4406 8.2337 16.2127C8.09385 15.9848 8.01987 15.7226 8.01999 15.4552Z" fill="black" fill-opacity="0.7"/>
<path fill-rule="evenodd" clip-rule="evenodd" d="M7 9.45508C5.93913 9.45508 4.92172 9.87651 4.17157 10.6267C3.42143 11.3768 3 12.3942 3 13.4551V17.4551C3 18.5159 3.42143 19.5334 4.17157 20.2835C4.92172 21.0337 5.93913 21.4551 7 21.4551H17C18.0609 21.4551 19.0783 21.0337 19.8284 20.2835C20.5786 19.5334 21 18.5159 21 17.4551V13.4551C21 12.3942 20.5786 11.3768 19.8284 10.6267C19.0783 9.87651 18.0609 9.45508 17 9.45508H7ZM17 10.9551H7C6.33696 10.9551 5.70107 11.2185 5.23223 11.6873C4.76339 12.1562 4.5 12.792 4.5 13.4551V17.4551C4.5 18.1181 4.76339 18.754 5.23223 19.2228C5.70107 19.6917 6.33696 19.9551 7 19.9551H17C17.663 19.9551 18.2989 19.6917 18.7678 19.2228C19.2366 18.754 19.5 18.1181 19.5 17.4551V13.4551C19.5 12.792 19.2366 12.1562 18.7678 11.6873C18.2989 11.2185 17.663 10.9551 17 10.9551Z" fill="black" fill-opacity="0.7"/>
<path d="M14.6072 7.11413L12.2972 7.95413H7.91016L14.0932 5.70413C14.5868 5.52446 15.111 5.44378 15.6358 5.4667C16.1606 5.48962 16.6758 5.6157 17.1519 5.83773C17.628 6.05975 18.0557 6.37339 18.4105 6.76071C18.7654 7.14804 19.0405 7.60148 19.2202 8.09513L19.3632 8.48713C18.7685 8.20384 18.1275 8.03038 17.4712 7.97513C17.1502 7.54201 16.6979 7.2242 16.1816 7.06904C15.6653 6.91389 15.1127 6.9297 14.6062 7.11413H14.6072Z" fill="black" fill-opacity="0.7"/>
</svg>
