<svg width="24" height="24" viewBox="0 0 24 24" fill="none" xmlns="http://www.w3.org/2000/svg">
<path d="M2.96875 20.25C2.96875 20.0511 3.04777 19.8603 3.18842 19.7197C3.32907 19.579 3.51984 19.5 3.71875 19.5H20.2188C20.4177 19.5 20.6084 19.579 20.7491 19.7197C20.8897 19.8603 20.9688 20.0511 20.9688 20.25C20.9688 20.4489 20.8897 20.6397 20.7491 20.7803C20.6084 20.921 20.4177 21 20.2188 21H3.71875C3.51984 21 3.32907 20.921 3.18842 20.7803C3.04777 20.6397 2.96875 20.4489 2.96875 20.25Z" fill="black" fill-opacity="0.7"/>
<path fill-rule="evenodd" clip-rule="evenodd" d="M6.5 15.5V13.5C6.5 13.258 6.5 13.113 6.496 13.004C6.49539 12.9689 6.49339 12.9339 6.49 12.899C6.4703 12.8032 6.42295 12.7153 6.35381 12.6462C6.28467 12.5771 6.19677 12.5297 6.101 12.51C6.094 12.51 6.064 12.506 5.996 12.504C5.8307 12.5002 5.66534 12.4989 5.5 12.5C5.258 12.5 5.113 12.5 5.004 12.504C4.96894 12.5046 4.93391 12.5066 4.899 12.51C4.80323 12.5297 4.71533 12.5771 4.64619 12.6462C4.57705 12.7153 4.5297 12.8032 4.51 12.899C4.51 12.906 4.506 12.936 4.504 13.004C4.5 13.114 4.5 13.258 4.5 13.5V15.5C4.5 15.742 4.5 15.887 4.504 15.996C4.506 16.064 4.51 16.094 4.51 16.101C4.5297 16.1968 4.57705 16.2847 4.64619 16.3538C4.71533 16.4229 4.80323 16.4703 4.899 16.49C4.906 16.49 4.936 16.494 5.004 16.496C5.114 16.5 5.258 16.5 5.5 16.5C5.742 16.5 5.887 16.5 5.996 16.496C6.064 16.494 6.094 16.491 6.101 16.49C6.19677 16.4703 6.28467 16.4229 6.35381 16.3538C6.42295 16.2847 6.4703 16.1968 6.49 16.101C6.49 16.094 6.494 16.064 6.496 15.996C6.5 15.886 6.5 15.742 6.5 15.5ZM6.39 11.038C6.197 11 5.965 11 5.5 11C5.035 11 4.803 11 4.61 11.038C4.22184 11.1151 3.86529 11.3056 3.58546 11.5855C3.30563 11.8653 3.1151 12.2218 3.038 12.61C3 12.803 3 13.035 3 13.5V15.5C3 15.965 3 16.197 3.038 16.39C3.1151 16.7782 3.30563 17.1347 3.58546 17.4145C3.86529 17.6944 4.22184 17.8849 4.61 17.962C4.803 18 5.035 18 5.5 18C5.965 18 6.197 18 6.39 17.962C6.77816 17.8849 7.13471 17.6944 7.41454 17.4145C7.69437 17.1347 7.8849 16.7782 7.962 16.39C8 16.197 8 15.965 8 15.5V13.5C8 13.035 8 12.803 7.962 12.61C7.8849 12.2218 7.69437 11.8653 7.41454 11.5855C7.13471 11.3056 6.77816 11.1151 6.39 11.038ZM12.984 15.5V9.5C12.984 9.258 12.984 9.113 12.98 9.004C12.9794 8.96893 12.9774 8.93391 12.974 8.899C12.9544 8.80336 12.9072 8.71556 12.8382 8.64643C12.7693 8.5773 12.6816 8.52988 12.586 8.51C12.579 8.51 12.549 8.506 12.48 8.504C12.3147 8.50016 12.1493 8.49883 11.984 8.5C11.742 8.5 11.598 8.5 11.489 8.504C11.4536 8.50458 11.4182 8.50658 11.383 8.51C11.2874 8.52988 11.1997 8.5773 11.1308 8.64643C11.0618 8.71556 11.0146 8.80336 10.995 8.899C10.994 8.906 10.991 8.936 10.988 9.004C10.9842 9.1693 10.9829 9.33466 10.984 9.5V15.5C10.984 15.742 10.984 15.887 10.988 15.996C10.991 16.064 10.994 16.094 10.995 16.101C11.0146 16.1966 11.0618 16.2844 11.1308 16.3536C11.1997 16.4227 11.2874 16.4701 11.383 16.49C11.39 16.49 11.42 16.494 11.489 16.496C11.597 16.5 11.742 16.5 11.984 16.5C12.227 16.5 12.371 16.5 12.48 16.496C12.549 16.494 12.579 16.491 12.586 16.49C12.6816 16.4701 12.7693 16.4227 12.8382 16.3536C12.9072 16.2844 12.9544 16.1966 12.974 16.101C12.974 16.094 12.978 16.064 12.98 15.996C12.984 15.886 12.984 15.742 12.984 15.5ZM12.874 7.038C12.682 7 12.45 7 11.985 7C11.521 7 11.288 7 11.095 7.038C10.7068 7.1151 10.3503 7.30563 10.0705 7.58546C9.79063 7.86529 9.6001 8.22184 9.523 8.61C9.484 8.803 9.484 9.035 9.484 9.5V15.5C9.484 15.965 9.484 16.197 9.523 16.39C9.60003 16.778 9.79041 17.1345 10.07 17.4143C10.3497 17.6941 10.706 17.8847 11.094 17.962C11.287 18 11.52 18 11.984 18C12.449 18 12.681 18 12.874 17.962C13.2622 17.8849 13.6187 17.6944 13.8985 17.4145C14.1784 17.1347 14.3689 16.7782 14.446 16.39C14.484 16.197 14.484 15.965 14.484 15.5V9.5C14.484 9.035 14.484 8.803 14.446 8.61C14.369 8.22198 14.1786 7.86552 13.899 7.5857C13.6193 7.30588 13.263 7.11528 12.875 7.038H12.874ZM19.469 15.5V5.5C19.469 5.258 19.469 5.113 19.465 5.004C19.462 4.936 19.459 4.906 19.458 4.899C19.4384 4.80336 19.3912 4.71556 19.3222 4.64643C19.2533 4.5773 19.1656 4.52988 19.07 4.51C19.063 4.51 19.033 4.506 18.964 4.504C18.799 4.50017 18.634 4.49884 18.469 4.5C18.226 4.5 18.082 4.5 17.973 4.504C17.9376 4.50459 17.9022 4.50659 17.867 4.51C17.7714 4.52988 17.6837 4.5773 17.6148 4.64643C17.5458 4.71556 17.4986 4.80336 17.479 4.899C17.479 4.906 17.475 4.936 17.473 5.004C17.4692 5.1693 17.4679 5.33466 17.469 5.5V15.5C17.469 15.742 17.469 15.887 17.473 15.996C17.475 16.064 17.478 16.094 17.479 16.101C17.4986 16.1966 17.5458 16.2844 17.6148 16.3536C17.6837 16.4227 17.7714 16.4701 17.867 16.49C17.875 16.49 17.904 16.494 17.973 16.496C18.082 16.5 18.226 16.5 18.469 16.5C18.711 16.5 18.856 16.5 18.964 16.496C19.034 16.494 19.063 16.491 19.07 16.49C19.1656 16.4701 19.2533 16.4227 19.3222 16.3536C19.3912 16.2844 19.4384 16.1966 19.458 16.101C19.459 16.094 19.463 16.064 19.465 15.996C19.468 15.886 19.469 15.742 19.469 15.5ZM19.359 3.038C19.166 3 18.933 3 18.469 3C18.004 3 17.772 3 17.579 3.038C17.1908 3.1151 16.8343 3.30563 16.5545 3.58546C16.2746 3.86529 16.0841 4.22184 16.007 4.61C15.969 4.803 15.969 5.035 15.969 5.5V15.5C15.969 15.965 15.969 16.197 16.007 16.39C16.0841 16.7782 16.2746 17.1347 16.5545 17.4145C16.8343 17.6944 17.1908 17.8849 17.579 17.962C17.772 18 18.004 18 18.469 18C18.933 18 19.166 18 19.359 17.962C19.747 17.8847 20.1033 17.6941 20.3829 17.4143C20.6626 17.1345 20.853 16.778 20.93 16.39C20.969 16.197 20.969 15.965 20.969 15.5V5.5C20.969 5.035 20.969 4.803 20.93 4.61C20.853 4.22198 20.6626 3.86552 20.3829 3.5857C20.1033 3.30588 19.747 3.11528 19.359 3.038Z" fill="black" fill-opacity="0.7"/>
</svg>
