<svg width="24" height="24" viewBox="0 0 24 24" fill="none" xmlns="http://www.w3.org/2000/svg">
<path fill-rule="evenodd" clip-rule="evenodd" d="M3 11.325C3 7.735 3 5.94 3.966 4.715C4.185 4.43678 4.43607 4.18537 4.714 3.966C5.94 3 7.734 3 11.325 3H12.675C16.265 3 18.061 3 19.285 3.966C19.564 4.186 19.815 4.436 20.034 4.714C21 5.94 21 7.734 21 11.325V12.675C21 16.265 21 18.061 20.034 19.285C19.814 19.564 19.564 19.815 19.286 20.034C18.06 21 16.266 21 12.675 21H11.325C7.735 21 5.94 21 4.715 20.034C4.43676 19.815 4.18535 19.5639 3.966 19.286C3 18.06 3 16.266 3 12.675V11.325ZM11.325 4.5H13.5V19.5H11.325C9.495 19.5 8.249 19.498 7.304 19.389C6.39 19.284 5.948 19.096 5.643 18.856C5.45764 18.7099 5.29015 18.5424 5.144 18.357C4.904 18.052 4.716 17.61 4.611 16.696C4.502 15.751 4.5 14.506 4.5 12.675V11.325C4.5 9.495 4.502 8.249 4.61 7.304C4.716 6.39 4.903 5.948 5.144 5.643C5.29012 5.45761 5.45761 5.29012 5.643 5.144C5.948 4.904 6.39 4.716 7.304 4.611C8.249 4.502 9.494 4.5 11.325 4.5ZM15 19.486C15.666 19.472 16.22 19.444 16.696 19.389C17.61 19.284 18.052 19.096 18.357 18.856C18.543 18.71 18.71 18.542 18.856 18.357C19.096 18.052 19.284 17.61 19.389 16.696C19.498 15.751 19.5 14.506 19.5 12.675V11.018H15V19.486ZM19.494 9.518C19.484 8.614 19.457 7.899 19.389 7.304C19.284 6.39 19.096 5.948 18.856 5.643C18.7099 5.45764 18.5424 5.29015 18.357 5.144C18.052 4.904 17.61 4.716 16.696 4.611C16.1324 4.55283 15.5665 4.52046 15 4.514V9.518H19.494Z" fill="#0D1216" fill-opacity="0.7"/>
</svg>
