<svg width="24" height="24" viewBox="0 0 24 24" fill="none" xmlns="http://www.w3.org/2000/svg">
<path fill-rule="evenodd" clip-rule="evenodd" d="M6.55038 11.242C6.76871 11.3591 7.01262 11.4204 7.26038 11.4204C7.50814 11.4204 7.75205 11.3591 7.97038 11.242L7.97238 11.24L7.97638 11.238L7.98638 11.233L8.01238 11.218L8.09638 11.17C8.49414 10.9344 8.87505 10.6714 9.23638 10.383C9.87438 9.87302 10.7144 9.07102 11.2624 8.00802C11.5998 7.44457 11.7425 6.7857 11.6682 6.13313C11.594 5.48055 11.307 4.87056 10.8516 4.3973C10.3962 3.92404 9.79772 3.61383 9.14849 3.51456C8.49925 3.41529 7.83539 3.53247 7.25938 3.84802C6.69165 3.53665 6.03822 3.41792 5.39725 3.50968C4.75628 3.60143 4.1624 3.89871 3.70482 4.35684C3.24725 4.81498 2.95071 5.40923 2.85974 6.05031C2.76878 6.69139 2.88831 7.34468 3.20038 7.91202C3.74038 9.01502 4.60238 9.84202 5.25538 10.366C5.64988 10.6818 6.06775 10.9673 6.50538 11.22L6.53338 11.235L6.54338 11.24L6.54638 11.242L6.54838 11.243L6.55038 11.242ZM4.53038 7.21702C4.88238 7.94802 5.44838 8.55702 5.97438 9.01102C6.37347 9.35367 6.80367 9.65832 7.25938 9.92102C7.25938 9.92102 7.34538 9.87402 7.48838 9.78502C7.85924 9.55398 8.21163 9.29454 8.54238 9.00902C9.05238 8.56702 9.60038 7.97902 9.95238 7.27502C10.0668 7.09444 10.141 6.89138 10.1701 6.67959C10.1991 6.46781 10.1823 6.25225 10.1207 6.04755C10.0591 5.84284 9.95425 5.65377 9.81319 5.49315C9.67212 5.33253 9.49817 5.20412 9.30313 5.11663C9.10809 5.02914 8.89651 4.98461 8.68275 4.98607C8.46898 4.98752 8.25803 5.03492 8.0642 5.12506C7.87036 5.2152 7.69818 5.34596 7.55932 5.50849C7.42045 5.67101 7.31816 5.86149 7.25938 6.06702C7.17048 5.75493 6.98233 5.48031 6.7234 5.28471C6.46448 5.08912 6.14888 4.98321 5.82438 4.98302C5.56278 4.98279 5.30574 5.05138 5.07904 5.18192C4.85235 5.31246 4.66398 5.50034 4.53287 5.7267C4.40175 5.95306 4.3325 6.20993 4.33206 6.47153C4.33163 6.73312 4.40002 6.99022 4.53038 7.21702ZM17.5364 4.01102C17.4462 3.85554 17.3167 3.72647 17.161 3.63676C17.0052 3.54704 16.8286 3.49982 16.6489 3.49982C16.4691 3.49982 16.2925 3.54704 16.1368 3.63676C15.981 3.72647 15.8516 3.85554 15.7614 4.01102L12.4544 9.70502C12.3636 9.86103 12.3156 10.0382 12.3152 10.2187C12.3148 10.3992 12.362 10.5766 12.4521 10.733C12.5421 10.8894 12.6719 11.0193 12.8282 11.1096C12.9845 11.1998 13.1619 11.2472 13.3424 11.247H19.9564C20.7464 11.247 21.2414 10.39 20.8434 9.70502L17.5364 4.01102ZM16.6504 5.47002L14.1654 9.74702H19.1344L16.6504 5.47002ZM20.8614 17.168C20.87 17.7267 20.7674 18.2815 20.5596 18.8001C20.3517 19.3187 20.0428 19.7908 19.6508 20.1889C19.2588 20.587 18.7915 20.9032 18.2761 21.119C17.7607 21.3348 17.2076 21.4459 16.6489 21.4459C16.0902 21.4459 15.537 21.3348 15.0217 21.119C14.5063 20.9032 14.039 20.587 13.647 20.1889C13.255 19.7908 12.946 19.3187 12.7382 18.8001C12.5304 18.2815 12.4278 17.7267 12.4364 17.168C12.4534 16.062 12.9047 15.0071 13.6929 14.231C14.481 13.4549 15.5428 13.0199 16.6489 13.0199C17.755 13.0199 18.8167 13.4549 19.6049 14.231C20.393 15.0071 20.8443 16.062 20.8614 17.168ZM19.3614 17.168C19.3683 17.5286 19.3033 17.887 19.1701 18.2221C19.0368 18.5573 18.8381 18.8625 18.5856 19.12C18.333 19.3774 18.0317 19.582 17.6991 19.7216C17.3666 19.8612 17.0095 19.9331 16.6489 19.9331C16.2882 19.9331 15.9312 19.8612 15.5986 19.7216C15.2661 19.582 14.9647 19.3774 14.7122 19.12C14.4596 18.8625 14.2609 18.5573 14.1277 18.2221C13.9945 17.887 13.9295 17.5286 13.9364 17.168C13.95 16.4576 14.2418 15.781 14.749 15.2834C15.2562 14.7858 15.9384 14.5071 16.6489 14.5071C17.3594 14.5071 18.0415 14.7858 18.5488 15.2834C19.056 15.781 19.3477 16.4576 19.3614 17.168ZM3.40638 14.086C3.40638 13.8818 3.4875 13.6859 3.6319 13.5415C3.77631 13.3971 3.97216 13.316 4.17638 13.316H10.3164C10.5206 13.316 10.7164 13.3971 10.8608 13.5415C11.0053 13.6859 11.0864 13.8818 11.0864 14.086V20.38C11.0864 20.72 10.8114 20.996 10.4714 20.996H4.17638C3.97216 20.996 3.77631 20.9149 3.6319 20.7705C3.4875 20.6261 3.40638 20.4302 3.40638 20.226V14.086ZM4.90638 19.496V14.816H9.58638V19.496H4.90638Z" fill="black" fill-opacity="0.7"/>
</svg>
