<svg width="24" height="24" viewBox="0 0 24 24" fill="none" xmlns="http://www.w3.org/2000/svg">
<path fill-rule="evenodd" clip-rule="evenodd" d="M12.675 3H13.5V21H11.325C7.735 21 5.94 21 4.715 20.034C4.43676 19.815 4.18535 19.5639 3.966 19.286C3 18.06 3 16.266 3 12.675V11.325C3 7.735 3 5.94 3.966 4.715C4.185 4.43678 4.43607 4.18537 4.714 3.966C5.94 3 7.734 3 11.325 3H12.675ZM19.285 20.034C18.359 20.764 17.107 20.943 15 20.986V11.018H21V12.675C21 16.265 21 18.061 20.034 19.285C19.814 19.564 19.563 19.815 19.285 20.034ZM20.994 9.518H15V3.014C17.107 3.058 18.36 3.236 19.286 3.966C19.564 4.186 19.815 4.436 20.034 4.714C20.822 5.714 20.967 7.094 20.994 9.518Z" fill="#13A3B5"/>
</svg>
