<svg width="24" height="24" viewBox="0 0 24 24" fill="none" xmlns="http://www.w3.org/2000/svg">
<path d="M9.09561 5.92681L10.6416 4.62981C11.0257 4.3076 11.4977 4.10825 11.9964 4.0576C12.4952 4.00696 12.9976 4.10737 13.4386 4.34581L13.5806 4.29481C14.1335 4.09289 14.7153 3.98113 15.3036 3.96381C14.6205 3.15508 13.6447 2.65012 12.5899 2.55959C11.5352 2.46905 10.4875 2.80032 9.67661 3.48081L4.97461 7.42681L9.09561 5.92681ZM13.0506 15.4548C13.0506 15.0709 13.2031 14.7027 13.4746 14.4313C13.746 14.1598 14.1142 14.0073 14.4981 14.0073C14.882 14.0073 15.2502 14.1598 15.5216 14.4313C15.7931 14.7027 15.9456 15.0709 15.9456 15.4548C15.9456 15.8387 15.7931 16.2069 15.5216 16.4783C15.2502 16.7498 14.882 16.9023 14.4981 16.9023C14.1142 16.9023 13.746 16.7498 13.4746 16.4783C13.2031 16.2069 13.0506 15.8387 13.0506 15.4548Z" fill="#FF3B4B"/>
<path fill-rule="evenodd" clip-rule="evenodd" d="M7 9.45508C5.93913 9.45508 4.92172 9.87651 4.17157 10.6267C3.42143 11.3768 3 12.3942 3 13.4551V17.4551C3 18.5159 3.42143 19.5334 4.17157 20.2835C4.92172 21.0337 5.93913 21.4551 7 21.4551H17C18.0609 21.4551 19.0783 21.0337 19.8284 20.2835C20.5786 19.5334 21 18.5159 21 17.4551V13.4551C21 12.3942 20.5786 11.3768 19.8284 10.6267C19.0783 9.87651 18.0609 9.45508 17 9.45508H7ZM14.499 12.7571C13.7836 12.7571 13.0975 13.0413 12.5916 13.5472C12.0857 14.053 11.8015 14.7392 11.8015 15.4546C11.8015 16.17 12.0857 16.8561 12.5916 17.362C13.0975 17.8679 13.7836 18.1521 14.499 18.1521C15.2144 18.1521 15.9005 17.8679 16.4064 17.362C16.9123 16.8561 17.1965 16.17 17.1965 15.4546C17.1965 14.7392 16.9123 14.053 16.4064 13.5472C15.9005 13.0413 15.2144 12.7571 14.499 12.7571ZM9.433 14.0071C9.20462 14.0074 8.97957 14.0618 8.77625 14.1658C8.57293 14.2698 8.39712 14.4205 8.26318 14.6055C8.12925 14.7904 8.041 15.0045 8.00565 15.2301C7.9703 15.4557 7.98886 15.6865 8.05981 15.9036C8.13076 16.1207 8.25208 16.3179 8.41385 16.4791C8.57563 16.6403 8.77326 16.7609 8.99059 16.8311C9.20792 16.9012 9.43877 16.919 9.66426 16.8828C9.88976 16.8467 10.1035 16.7577 10.288 16.6231C10.4217 16.5249 10.5888 16.4839 10.7528 16.5091C10.9167 16.5342 11.0639 16.6234 11.162 16.7571C11.2601 16.8907 11.3011 17.0579 11.276 17.2218C11.2509 17.3857 11.1617 17.5329 11.028 17.6311C10.6253 17.926 10.1487 18.1033 9.65125 18.1434C9.15377 18.1836 8.65491 18.0848 8.2102 17.8583C7.76549 17.6317 7.39237 17.2862 7.13237 16.8602C6.87236 16.4341 6.73568 15.9443 6.73752 15.4452C6.73936 14.9461 6.87965 14.4573 7.14279 14.0332C7.40593 13.6091 7.78158 13.2664 8.22795 13.0431C8.67432 12.8198 9.17389 12.7248 9.67107 12.7686C10.1682 12.8123 10.6435 12.9932 11.044 13.2911C11.1114 13.3395 11.1685 13.4009 11.2119 13.4716C11.2554 13.5423 11.2843 13.621 11.297 13.703C11.3097 13.7851 11.3059 13.8688 11.2859 13.9494C11.2659 14.0299 11.23 14.1057 11.1804 14.1722C11.1308 14.2388 11.0684 14.2948 10.997 14.337C10.9255 14.3791 10.8463 14.4067 10.7641 14.4179C10.6818 14.4292 10.5982 14.4239 10.518 14.4025C10.4378 14.381 10.3627 14.3439 10.297 14.2931C10.0474 14.1071 9.74425 14.0071 9.433 14.0081V14.0071Z" fill="#FF3B4B"/>
<path d="M12.2962 7.95523L14.6062 7.11423C15.1126 6.92969 15.6651 6.91372 16.1814 7.06869C16.6977 7.22367 17.1501 7.54128 17.4712 7.97423C18.1432 8.03223 18.7812 8.21023 19.3632 8.48723L19.2202 8.09523C18.8572 7.09843 18.1131 6.28664 17.1516 5.83843C16.1901 5.39022 15.09 5.34231 14.0932 5.70523L7.91016 7.95523H12.2962Z" fill="#FF3B4B"/>
</svg>
