<svg width="24" height="24" viewBox="0 0 24 24" fill="none" xmlns="http://www.w3.org/2000/svg">
<path fill-rule="evenodd" clip-rule="evenodd" d="M11.2293 3.00977C8.54127 3.00977 6.27427 5.04577 5.99727 7.70977C5.98963 7.77887 5.96323 7.84457 5.92093 7.89974C5.87862 7.95491 5.82203 7.99746 5.75727 8.02277C4.51841 8.48752 3.48196 9.37234 2.82862 10.5229C2.17528 11.6736 1.94648 13.017 2.18213 14.319C2.41778 15.621 3.10292 16.799 4.1181 17.6477C5.13328 18.4963 6.41411 18.9617 7.73727 18.9628H8.03727C9.12871 18.8639 10.1437 18.3604 10.8828 17.5512C11.6218 16.742 12.0315 15.6857 12.0313 14.5898V12.8938L10.2913 14.6338C10.2226 14.7075 10.1398 14.7666 10.0478 14.8075C9.95581 14.8485 9.8565 14.8706 9.75579 14.8724C9.65509 14.8741 9.55506 14.8556 9.46167 14.8179C9.36829 14.7802 9.28345 14.724 9.21223 14.6528C9.14101 14.5816 9.08487 14.4968 9.04715 14.4034C9.00943 14.31 8.9909 14.2099 8.99268 14.1092C8.99446 14.0085 9.0165 13.9092 9.05749 13.8172C9.09848 13.7252 9.15759 13.6424 9.23127 13.5738L12.2513 10.5538C12.3919 10.4133 12.5825 10.3344 12.7813 10.3344C12.98 10.3344 13.1706 10.4133 13.3113 10.5538L16.3313 13.5738C16.4638 13.7159 16.5359 13.904 16.5324 14.0983C16.529 14.2926 16.4503 14.478 16.3129 14.6154C16.1755 14.7528 15.9901 14.8315 15.7958 14.8349C15.6015 14.8384 15.4134 14.7662 15.2713 14.6338L13.5313 12.8938V14.5898C13.5313 16.3248 12.7813 17.8848 11.5873 18.9628H16.2733C17.7715 18.9628 19.2083 18.3676 20.2677 17.3082C21.3271 16.2488 21.9223 14.812 21.9223 13.3138C21.9223 10.3828 19.6573 7.93077 16.7823 7.68377C16.6912 7.67287 16.6058 7.63345 16.5385 7.57112C16.4711 7.5088 16.4252 7.42677 16.4073 7.33677C16.1876 6.1233 15.5489 5.02545 14.6026 4.23469C13.6563 3.44392 12.4625 3.01041 11.2293 3.00977Z" fill="#FF6105"/>
</svg>
