<svg width="24" height="24" viewBox="0 0 24 24" fill="none" xmlns="http://www.w3.org/2000/svg">
<path d="M5.55089 3.05119C5.0807 3.05094 4.61864 3.17376 4.21063 3.40743C3.80261 3.6411 3.46286 3.97748 3.22514 4.38315C2.98742 4.78882 2.86002 5.24964 2.85559 5.71981C2.85116 6.18998 2.96986 6.65311 3.19989 7.06319C3.79289 8.28519 4.77189 9.24119 5.56489 9.87819C5.9988 10.2256 6.4566 10.542 6.93489 10.8252C6.9654 10.8431 6.99607 10.8608 7.02689 10.8782L7.05389 10.8932L7.06189 10.8972L7.06489 10.8992H7.06689C7.176 10.9579 7.29798 10.9887 7.42189 10.9887C7.5458 10.9887 7.66778 10.9579 7.77689 10.8992L7.78089 10.8972L7.78889 10.8932L7.81489 10.8782C7.95297 10.7997 8.08902 10.7177 8.22289 10.6322C8.48689 10.4642 8.84789 10.2182 9.24589 9.90019C10.0229 9.27819 10.9839 8.34719 11.5859 7.15719C11.9301 6.59844 12.0585 5.93328 11.947 5.28658C11.8355 4.63987 11.4917 4.05611 10.9803 3.64487C10.4689 3.23363 9.825 3.0232 9.16943 3.05309C8.51387 3.08298 7.89176 3.35112 7.41989 3.80719C6.91856 3.32165 6.24781 3.05048 5.54989 3.05119H5.55089ZM15.9229 3.58019C16.0132 3.42472 16.1428 3.2957 16.2986 3.20601C16.4544 3.11632 16.6311 3.06912 16.8109 3.06912C16.9907 3.06912 17.1673 3.11632 17.3232 3.20601C17.479 3.2957 17.6086 3.42472 17.6989 3.58019L21.0059 9.27419C21.0967 9.4302 21.1447 9.60739 21.1451 9.78789C21.1455 9.96838 21.0983 10.1458 21.0082 10.3022C20.9181 10.4586 20.7884 10.5885 20.6321 10.6787C20.4757 10.769 20.2984 10.8164 20.1179 10.8162H13.5039C13.3235 10.8162 13.1462 10.7687 12.9901 10.6784C12.8339 10.5881 12.7043 10.4582 12.6143 10.3018C12.5244 10.1454 12.4772 9.96805 12.4777 9.78764C12.4781 9.60723 12.5262 9.43012 12.6169 9.27419L15.9229 3.58019ZM16.8109 20.9492C17.3695 20.9578 17.9243 20.8552 18.443 20.6474C18.9616 20.4395 19.4337 20.1306 19.8318 19.7386C20.2299 19.3466 20.5461 18.8793 20.7619 18.3639C20.9777 17.8486 21.0888 17.2954 21.0888 16.7367C21.0888 16.178 20.9777 15.6248 20.7619 15.1095C20.5461 14.5941 20.2299 14.1268 19.8318 13.7348C19.4337 13.3428 18.9616 13.0339 18.443 12.826C17.9243 12.6182 17.3695 12.5156 16.8109 12.5242C15.7049 12.5412 14.65 12.9925 13.8739 13.7807C13.0978 14.5688 12.6628 15.6306 12.6628 16.7367C12.6628 17.8428 13.0978 18.9046 13.8739 19.6927C14.65 20.4808 15.7049 20.9321 16.8109 20.9492ZM3.56889 13.6542C3.56889 13.45 3.65002 13.2541 3.79442 13.1097C3.93882 12.9653 4.13468 12.8842 4.33889 12.8842H10.4789C10.6831 12.8842 10.879 12.9653 11.0234 13.1097C11.1678 13.2541 11.2489 13.45 11.2489 13.6542V19.9482C11.2489 20.2882 10.9729 20.5642 10.6329 20.5642H4.33889C4.13468 20.5642 3.93882 20.4831 3.79442 20.3387C3.65002 20.1943 3.56889 19.9984 3.56889 19.7942V13.6542Z" fill="#4A53FA"/>
</svg>
