<svg width="24" height="24" viewBox="0 0 24 24" fill="none" xmlns="http://www.w3.org/2000/svg">
<path d="M3.03125 5.57823C3.03125 4.14823 4.17925 2.99023 5.59625 2.99023H8.39325C9.81025 2.99023 10.9583 4.14923 10.9583 5.57823V8.40224C10.9583 9.83124 9.81025 10.9902 8.39325 10.9902H5.59625C4.17925 10.9902 3.03125 9.83124 3.03125 8.40224V5.57823ZM13.0372 5.57823C13.0372 4.14823 14.1852 2.99023 15.6012 2.99023H18.4002C19.8162 2.99023 20.9643 4.14923 20.9643 5.57823V8.40224C20.9643 9.83124 19.8162 10.9902 18.4002 10.9902H15.6003C14.1843 10.9902 13.0363 9.83124 13.0363 8.40224L13.0372 5.57823ZM3.03125 15.5982C3.03125 14.1692 4.17925 13.0102 5.59625 13.0102H8.39325C9.81025 13.0102 10.9583 14.1692 10.9583 15.5982V18.4222C10.9583 19.8522 9.81025 21.0102 8.39325 21.0102H5.59625C4.17925 21.0102 3.03125 19.8512 3.03125 18.4222V15.5982ZM17.0002 13.0412C17.1992 13.0412 17.3899 13.1203 17.5306 13.2609C17.6712 13.4016 17.7502 13.5923 17.7502 13.7912V16.2612H20.2192C20.4182 16.2612 20.6089 16.3403 20.7496 16.4809C20.8902 16.6216 20.9692 16.8123 20.9692 17.0112C20.9692 17.2101 20.8902 17.4009 20.7496 17.5416C20.6089 17.6822 20.4182 17.7612 20.2192 17.7612H17.7502V20.2292C17.7502 20.4281 17.6712 20.6189 17.5306 20.7596C17.3899 20.9002 17.1992 20.9792 17.0002 20.9792C16.8013 20.9792 16.6106 20.9002 16.4699 20.7596C16.3293 20.6189 16.2502 20.4281 16.2502 20.2292V17.7602H13.7812C13.5823 17.7602 13.3916 17.6812 13.2509 17.5406C13.1103 17.3999 13.0312 17.2091 13.0312 17.0102C13.0312 16.8113 13.1103 16.6206 13.2509 16.4799C13.3916 16.3393 13.5823 16.2602 13.7812 16.2602H16.2502V13.7912C16.2502 13.5923 16.3293 13.4016 16.4699 13.2609C16.6106 13.1203 16.8013 13.0412 17.0002 13.0412Z" fill="#13A3B5"/>
</svg>
