<svg width="24" height="24" viewBox="0 0 24 24" fill="none" xmlns="http://www.w3.org/2000/svg">
<path d="M7 6.49701C6.86739 6.49701 6.74021 6.54969 6.64645 6.64346C6.55268 6.73722 6.5 6.8644 6.5 6.99701V7.78701C6.5 8.11853 6.3683 8.43647 6.13388 8.67089C5.89946 8.90531 5.58152 9.03701 5.25 9.03701C4.91848 9.03701 4.60054 8.90531 4.36612 8.67089C4.1317 8.43647 4 8.11853 4 7.78701V5.99701C4 5.46658 4.21071 4.95787 4.58579 4.5828C4.96086 4.20772 5.46957 3.99701 6 3.99701H18C18.5304 3.99701 19.0391 4.20772 19.4142 4.5828C19.7893 4.95787 20 5.46658 20 5.99701V7.76001C20 8.09153 19.8683 8.40947 19.6339 8.64389C19.3995 8.87831 19.0815 9.01001 18.75 9.01001C18.4185 9.01001 18.1005 8.87831 17.8661 8.64389C17.6317 8.40947 17.5 8.09153 17.5 7.76001V6.99701C17.5 6.8644 17.4473 6.73722 17.3536 6.64346C17.2598 6.54969 17.1326 6.49701 17 6.49701H13.25V17.546C13.25 17.6786 13.3027 17.8058 13.3964 17.8996C13.4902 17.9933 13.6174 18.046 13.75 18.046H15.02C15.3515 18.046 15.6695 18.1777 15.9039 18.4121C16.1383 18.6465 16.27 18.9645 16.27 19.296C16.27 19.6275 16.1383 19.9455 15.9039 20.1799C15.6695 20.4143 15.3515 20.546 15.02 20.546H8.98C8.64848 20.546 8.33054 20.4143 8.09612 20.1799C7.8617 19.9455 7.73 19.6275 7.73 19.296C7.73 18.9645 7.8617 18.6465 8.09612 18.4121C8.33054 18.1777 8.64848 18.046 8.98 18.046H10.25C10.3826 18.046 10.5098 17.9933 10.6036 17.8996C10.6973 17.8058 10.75 17.6786 10.75 17.546V6.49701H7Z" fill="#992BFF"/>
</svg>
