<svg width="24" height="25" viewBox="0 0 24 25" fill="none" xmlns="http://www.w3.org/2000/svg">
<path d="M21.8742 4.94402C20.3482 4.63902 19.6912 3.90402 19.3862 2.41702C19.376 2.37665 19.3527 2.34081 19.3199 2.31511C19.2872 2.28941 19.2468 2.27531 19.2052 2.27502C19.1634 2.27537 19.1229 2.28961 19.0902 2.3155C19.0574 2.3414 19.0342 2.37747 19.0242 2.41802C18.8772 3.15502 18.6342 3.69402 18.2602 4.09302C18.2332 4.12302 18.2052 4.15102 18.1762 4.17802C18.1242 4.22802 18.0672 4.27202 18.0112 4.31702C17.8872 4.4157 17.7539 4.5021 17.6132 4.57502C17.5175 4.62466 17.4194 4.66938 17.3192 4.70902C17.2582 4.73302 17.1992 4.75902 17.1332 4.78102C17.0132 4.82102 16.8832 4.85602 16.7502 4.88902C16.6782 4.90702 16.6122 4.92902 16.5362 4.94402C16.4888 4.94414 16.4431 4.96197 16.4082 4.99402H16.4152C16.3939 5.01078 16.3766 5.03201 16.3645 5.05621C16.3524 5.08041 16.3458 5.10698 16.3452 5.13402C16.3452 5.24002 16.4312 5.32502 16.5362 5.32502C18.0612 5.63002 18.7162 6.35002 19.0212 7.83702C19.0372 7.92502 19.1112 7.99402 19.2052 7.99402C19.2952 7.99402 19.3672 7.93002 19.3872 7.84602C19.4032 7.76602 19.4242 7.69902 19.4422 7.62402C19.4762 7.48402 19.5122 7.35002 19.5532 7.22502C19.5752 7.16002 19.6002 7.09902 19.6242 7.03802C19.6672 6.93002 19.7122 6.82802 19.7622 6.73202C19.8092 6.64202 19.8552 6.55002 19.9092 6.47002L19.9192 6.45502C20.0111 6.32238 20.1167 6.19971 20.2342 6.08902C20.6272 5.71202 21.1572 5.47202 21.8742 5.32502C21.9247 5.32502 21.9732 5.30495 22.0089 5.26923C22.0446 5.2335 22.0647 5.18505 22.0647 5.13452C22.0647 5.084 22.0446 5.03555 22.0089 4.99982C21.9732 4.9641 21.9247 4.94402 21.8742 4.94402ZM15.9872 6.93302C15.7942 7.57602 15.4842 7.95102 14.8412 8.07902C14.804 8.07902 14.7684 8.09377 14.7422 8.12003C14.7159 8.14628 14.7012 8.18189 14.7012 8.21902C14.7012 8.25615 14.7159 8.29176 14.7422 8.31802C14.7684 8.34427 14.804 8.35902 14.8412 8.35902C15.3172 8.50202 15.6432 8.71102 15.8342 9.06902C15.8382 9.07702 15.8442 9.08402 15.8482 9.09302C15.9082 9.21302 15.9562 9.34802 15.9872 9.50502C15.9872 9.54215 16.0019 9.57776 16.0282 9.60402C16.0544 9.63027 16.09 9.64502 16.1272 9.64502C16.1643 9.64502 16.1999 9.63027 16.2262 9.60402C16.2524 9.57776 16.2672 9.54215 16.2672 9.50502C16.3152 9.34502 16.3712 9.20102 16.4372 9.07402V9.07302C16.6372 8.69002 16.9312 8.45602 17.4132 8.35902C17.4503 8.35902 17.4859 8.34427 17.5122 8.31802C17.5384 8.29176 17.5532 8.25615 17.5532 8.21902C17.5532 8.18189 17.5384 8.14628 17.5122 8.12003C17.4859 8.09377 17.4503 8.07902 17.4132 8.07902C16.7702 7.88602 16.3962 7.57602 16.2672 6.93302C16.2672 6.89589 16.2524 6.86028 16.2262 6.83403C16.1999 6.80777 16.1643 6.79302 16.1272 6.79302C16.09 6.79302 16.0544 6.80777 16.0282 6.83403C16.0019 6.86028 15.9872 6.89589 15.9872 6.93302Z" fill="#0D1216"/>
<path d="M20.866 8.10399C20.8532 8.17654 20.8352 8.24806 20.812 8.31799C20.7178 8.61317 20.5443 8.8768 20.3105 9.08012C20.0766 9.28344 19.7915 9.41865 19.486 9.47099C19.496 10.078 19.497 10.781 19.497 11.607V11.646L18.644 10.793C18.3436 10.487 18.0362 10.1879 17.722 9.89599C17.6596 10.1493 17.5376 10.3842 17.3663 10.581C17.195 10.7779 16.9793 10.9311 16.737 11.028C16.972 11.243 17.251 11.521 17.613 11.883L19.497 13.767C19.495 15.242 19.484 16.288 19.394 17.105C19.296 17.989 19.12 18.42 18.896 18.718C18.726 18.945 18.525 19.146 18.298 19.316C18 19.54 17.569 19.716 16.685 19.813C15.772 19.915 14.572 19.917 12.807 19.917H11.187C9.42205 19.917 8.22205 19.915 7.30905 19.813C6.79405 19.756 6.43205 19.673 6.16205 19.569L13.847 11.883C14.369 11.361 14.717 11.014 15.01 10.78C15.0246 10.7682 15.0393 10.7566 15.054 10.745C14.828 10.601 14.369 9.68299 14.029 9.64499C13.676 9.93299 13.282 10.327 12.816 10.793L5.01405 18.595C4.83005 18.301 4.68605 17.875 4.60105 17.105C4.49905 16.192 4.49705 14.992 4.49705 13.227V11.607C4.49705 9.84199 4.49905 8.64199 4.60105 7.72899C4.69905 6.84499 4.87405 6.41399 5.09805 6.11599C5.26805 5.88899 5.46905 5.68799 5.69605 5.51799C5.99405 5.29399 6.42505 5.11799 7.30905 5.01999C8.22205 4.91899 9.42205 4.91699 11.187 4.91699H12.807C13.596 4.91699 14.271 4.91699 14.859 4.92699C14.9029 4.57331 15.0573 4.24252 15.3003 3.98178C15.5433 3.72105 15.8623 3.54369 16.212 3.47499C15.304 3.41699 14.194 3.41699 12.807 3.41699H11.187C7.72705 3.41699 5.99605 3.41699 4.79505 4.31799C4.45505 4.57299 4.15405 4.87499 3.89805 5.21499C2.99805 6.41499 2.99805 8.14599 2.99805 11.607V13.227C2.99805 16.687 2.99805 18.418 3.89805 19.619C4.15326 19.9585 4.45526 20.2602 4.79505 20.515C5.99505 21.417 7.72605 21.417 11.187 21.417H12.807C16.267 21.417 17.998 21.417 19.199 20.515C19.5388 20.2602 19.8408 19.9585 20.096 19.619C20.997 18.419 20.997 16.688 20.997 13.227V11.607C20.997 10.057 20.997 8.85399 20.917 7.88999C20.8985 7.96087 20.8818 8.03223 20.867 8.10399H20.866Z" fill="#0D1216"/>
<path d="M8.49609 10.917C9.02653 10.917 9.53523 10.7063 9.91031 10.3312C10.2854 9.95613 10.4961 9.44743 10.4961 8.91699C10.4961 8.38656 10.2854 7.87785 9.91031 7.50278C9.53523 7.12771 9.02653 6.91699 8.49609 6.91699C7.96566 6.91699 7.45695 7.12771 7.08188 7.50278C6.70681 7.87785 6.49609 8.38656 6.49609 8.91699C6.49609 9.44743 6.70681 9.95613 7.08188 10.3312C7.45695 10.7063 7.96566 10.917 8.49609 10.917Z" fill="#0D1216"/>
</svg>
