<svg width="24" height="24" viewBox="0 0 24 24" fill="none" xmlns="http://www.w3.org/2000/svg">
<path d="M9.60004 5.61292C7.90924 5.46588 6.97906 4.87433 6.48364 3.70001C6.30511 3.27692 6.1795 2.78272 6.10004 2.20001C6.10004 2.09998 6.00006 2 5.90002 2C5.79999 2 5.70001 2.09998 5.70001 2.20001C5.62054 2.78272 5.49493 3.27692 5.31641 3.70001C4.82098 4.87433 3.89081 5.46588 2.20001 5.61292C2.10004 5.61292 2 5.71289 2 5.81293C2 5.9129 2.10004 6.01294 2.20001 6.01294C4.29999 6.4129 5.40002 7.20001 5.70007 9.40002C5.70007 9.5 5.80005 9.59998 5.90002 9.59998C6 9.59998 6.09998 9.5 6.09998 9.40002C6.40002 7.20001 7.50006 6.4129 9.60004 6.01294C9.70001 6.01294 9.80005 5.9129 9.80005 5.81293C9.80005 5.71289 9.70001 5.61292 9.60004 5.61292Z" fill="url(#paint0_linear_388_39348)"/>
<path d="M19.4687 11.8647C15.4687 11.0647 13.7427 9.13595 12.9427 5.23598C12.8848 5.02382 12.6992 4.86471 12.4687 4.86471C12.2365 4.86471 12.05 5.02621 11.9937 5.24074C11.9852 5.24734 12.0012 5.22585 11.9937 5.24074C11.1937 9.24074 9.36873 11.0647 5.4687 11.8647C5.19258 11.8647 4.9687 12.0886 4.9687 12.3647C4.9687 12.6408 5.19258 12.8647 5.4687 12.8647C9.4687 13.6647 11.1864 15.5524 11.9864 19.4524C12.0292 19.6851 12.2236 19.8647 12.4687 19.8647C12.7047 19.8647 12.8934 19.6977 12.9459 19.4777C12.9411 19.4872 12.9519 19.4704 12.9459 19.4777C13.7459 15.4777 15.5687 13.6647 19.4687 12.8647C19.7448 12.8647 19.9687 12.6408 19.9687 12.3647C19.9687 12.0886 19.7448 11.8647 19.4687 11.8647Z" fill="url(#paint1_linear_388_39348)"/>
<path d="M21.4655 5.79999C21.4655 5.71564 21.4035 5.65985 21.3206 5.64398C21.3029 5.63959 21.2826 5.63507 21.2653 5.63055C20.0967 5.32623 19.3888 4.60669 19.1917 3.52289C19.1917 3.43854 19.1233 3.37018 19.0391 3.37018V3.37354C18.9547 3.37354 18.8989 3.43555 18.8831 3.51849C18.8787 3.53613 18.8741 3.5564 18.8696 3.57379C18.5653 4.74231 17.8458 5.45026 16.762 5.64734C16.6776 5.64734 16.6093 5.7157 16.6093 5.79999H16.6126C16.6126 5.88434 16.6746 5.94012 16.7576 5.95599C16.7752 5.96039 16.7955 5.9649 16.8129 5.96942C17.9814 6.27374 18.6893 6.99329 18.8864 8.07709C18.8864 8.16144 18.9548 8.2298 19.0391 8.2298V8.22644C19.1234 8.22644 19.1792 8.16443 19.1951 8.08148C19.1995 8.06384 19.204 8.04358 19.2085 8.02618C19.5128 6.85767 20.2324 6.14972 21.3162 5.95264C21.4005 5.95264 21.4655 5.88428 21.4655 5.79999Z" fill="url(#paint2_linear_388_39348)"/>
<path d="M7.91872 18.7154C6.91872 18.4154 6.33668 17.9334 6.13667 16.9334C6.13667 16.813 6.03908 16.7154 5.91872 16.7154C5.79835 16.7154 5.70076 16.813 5.70076 16.9334C5.40077 17.9334 4.91872 18.5154 3.91872 18.7154C3.79835 18.7154 3.70076 18.813 3.70076 18.9334C3.70076 19.0537 3.79835 19.1513 3.91872 19.1513C4.91872 19.4513 5.50075 19.9334 5.70076 20.9334C5.70076 21.0537 5.79835 21.1513 5.91872 21.1513C6.03908 21.1513 6.13667 21.0537 6.13667 20.9334C6.43666 19.9334 6.91872 19.3513 7.91872 19.1513C8.03908 19.1513 8.13667 19.0537 8.13667 18.9334C8.13667 18.813 8.03908 18.7154 7.91872 18.7154Z" fill="url(#paint3_linear_388_39348)"/>
<defs>
<linearGradient id="paint0_linear_388_39348" x1="-7.73276" y1="11.5757" x2="11.416" y2="31.0386" gradientUnits="userSpaceOnUse">
<stop stop-color="#03A5AB"/>
<stop offset="1" stop-color="#7D2AE8"/>
</linearGradient>
<linearGradient id="paint1_linear_388_39348" x1="-7.73276" y1="11.5757" x2="11.416" y2="31.0386" gradientUnits="userSpaceOnUse">
<stop stop-color="#03A5AB"/>
<stop offset="1" stop-color="#7D2AE8"/>
</linearGradient>
<linearGradient id="paint2_linear_388_39348" x1="-7.73276" y1="11.5757" x2="11.416" y2="31.0386" gradientUnits="userSpaceOnUse">
<stop stop-color="#03A5AB"/>
<stop offset="1" stop-color="#7D2AE8"/>
</linearGradient>
<linearGradient id="paint3_linear_388_39348" x1="-7.73276" y1="11.5757" x2="11.416" y2="31.0386" gradientUnits="userSpaceOnUse">
<stop stop-color="#03A5AB"/>
<stop offset="1" stop-color="#7D2AE8"/>
</linearGradient>
</defs>
</svg>
