<svg width="24" height="24" viewBox="0 0 24 24" fill="none" xmlns="http://www.w3.org/2000/svg">
<path d="M2.96875 20.25C2.96875 20.0511 3.04777 19.8603 3.18842 19.7197C3.32907 19.579 3.51984 19.5 3.71875 19.5H20.2188C20.4177 19.5 20.6084 19.579 20.7491 19.7197C20.8897 19.8603 20.9688 20.0511 20.9688 20.25C20.9688 20.4489 20.8897 20.6397 20.7491 20.7803C20.6084 20.921 20.4177 21 20.2188 21H3.71875C3.51984 21 3.32907 20.921 3.18842 20.7803C3.04777 20.6397 2.96875 20.4489 2.96875 20.25ZM5.49975 11C5.96475 11 6.19675 11 6.38975 11.038C6.77791 11.1151 7.13446 11.3056 7.41429 11.5855C7.69412 11.8653 7.88465 12.2218 7.96175 12.61C7.99975 12.803 7.99975 13.035 7.99975 13.5V15.5C7.99975 15.965 7.99975 16.197 7.96175 16.39C7.88465 16.7782 7.69412 17.1347 7.41429 17.4145C7.13446 17.6944 6.77791 17.8849 6.38975 17.962C6.19675 18 5.96475 18 5.49975 18C5.03475 18 4.80275 18 4.60975 17.962C4.22159 17.8849 3.86504 17.6944 3.58521 17.4145C3.30538 17.1347 3.11485 16.7782 3.03775 16.39C2.99975 16.197 2.99975 15.965 2.99975 15.5V13.5C2.99975 13.035 2.99975 12.803 3.03775 12.61C3.11485 12.2218 3.30538 11.8653 3.58521 11.5855C3.86504 11.3056 4.22159 11.1151 4.60975 11.038C4.80275 11 5.03475 11 5.49975 11ZM11.9838 7C12.4488 7 12.6807 7 12.8737 7.038C13.2619 7.1151 13.6185 7.30563 13.8983 7.58546C14.1781 7.86529 14.3686 8.22184 14.4458 8.61C14.4838 8.803 14.4838 9.035 14.4838 9.5V15.5C14.4838 15.965 14.4838 16.197 14.4458 16.39C14.3687 16.778 14.1783 17.1345 13.8987 17.4143C13.6191 17.6941 13.2627 17.8847 12.8748 17.962C12.6808 18 12.4487 18 11.9847 18C11.5197 18 11.2868 18 11.0948 17.962C10.7066 17.8849 10.35 17.6944 10.0702 17.4145C9.79038 17.1347 9.59985 16.7782 9.52275 16.39C9.48375 16.197 9.48375 15.965 9.48375 15.5V9.5C9.48375 9.035 9.48375 8.803 9.52275 8.61C9.59978 8.22198 9.79016 7.86552 10.0698 7.5857C10.3494 7.30588 10.7058 7.11528 11.0938 7.038C11.2868 7 11.5198 7 11.9838 7ZM18.4688 3C18.9327 3 19.1657 3 19.3587 3.038C19.7467 3.11528 20.1031 3.30588 20.3827 3.5857C20.6623 3.86552 20.8527 4.22198 20.9298 4.61C20.9688 4.803 20.9688 5.035 20.9688 5.5V15.5C20.9688 15.965 20.9688 16.197 20.9298 16.39C20.8527 16.778 20.6623 17.1345 20.3827 17.4143C20.1031 17.6941 19.7467 17.8847 19.3587 17.962C19.1657 18 18.9327 18 18.4688 18C18.0037 18 17.7718 18 17.5788 17.962C17.1906 17.8849 16.834 17.6944 16.5542 17.4145C16.2744 17.1347 16.0839 16.7782 16.0068 16.39C15.9688 16.197 15.9688 15.965 15.9688 15.5V5.5C15.9688 5.035 15.9688 4.803 16.0068 4.61C16.0839 4.22184 16.2744 3.86529 16.5542 3.58546C16.834 3.30563 17.1906 3.1151 17.5788 3.038C17.7718 3 18.0037 3 18.4688 3Z" fill="#4A53FA"/>
</svg>
