<svg width="24" height="24" viewBox="0 0 24 24" fill="none" xmlns="http://www.w3.org/2000/svg">
<path fill-rule="evenodd" clip-rule="evenodd" d="M15.6301 3.93296C16.2181 3.34498 17.0156 3.01465 17.8471 3.01465C18.6786 3.01465 19.4761 3.34498 20.0641 3.93296C20.6521 4.52094 20.9824 5.31842 20.9824 6.14996C20.9824 6.9815 20.6521 7.77897 20.0641 8.36696L19.0081 9.42396L14.5741 4.98996L15.6301 3.93296ZM13.4071 6.15696L17.8411 10.591L14.6691 13.763C14.2391 14.193 13.7021 14.498 13.1131 14.649L9.83509 15.486C9.65231 15.5325 9.46058 15.5306 9.27874 15.4805C9.09689 15.4305 8.9312 15.334 8.79794 15.2005C8.66468 15.0671 8.56843 14.9012 8.51867 14.7193C8.4689 14.5374 8.46733 14.3457 8.51409 14.163L9.35809 10.871C9.5086 10.2844 9.81391 9.74912 10.2421 9.32096L13.4071 6.15696ZM4.49709 16.141C4.49709 15.787 4.78309 15.5 5.13709 15.5H7.00009V14H5.13709C4.56927 14 4.02469 14.2255 3.62318 14.627C3.22166 15.0286 2.99609 15.5731 2.99609 16.141C2.99609 16.7088 3.22166 17.2534 3.62318 17.6549C4.02469 18.0564 4.56927 18.282 5.13709 18.282H18.8901C19.0516 18.282 19.2065 18.3461 19.3207 18.4603C19.4349 18.5745 19.4991 18.7294 19.4991 18.891C19.4991 19.0525 19.4349 19.2074 19.3207 19.3216C19.2065 19.4358 19.0516 19.5 18.8901 19.5H9.18809C8.98918 19.5 8.79842 19.579 8.65776 19.7196C8.51711 19.8603 8.43809 20.051 8.43809 20.25C8.43809 20.4489 8.51711 20.6396 8.65776 20.7803C8.79842 20.9209 8.98918 21 9.18809 21H18.8881C19.4474 21 19.9839 20.7778 20.3794 20.3822C20.7749 19.9867 20.9971 19.4503 20.9971 18.891C20.9971 18.3316 20.7749 17.7952 20.3794 17.3997C19.9839 17.0042 19.4474 16.782 18.8881 16.782H5.13909C5.05492 16.7821 4.97154 16.7656 4.89372 16.7335C4.8159 16.7015 4.74516 16.6544 4.68555 16.5949C4.62593 16.5355 4.5786 16.4649 4.54627 16.3872C4.51393 16.3095 4.49723 16.2251 4.49709 16.141Z" fill="#0BA84A"/>
</svg>
