<svg width="24" height="24" viewBox="0 0 24 24" fill="none" xmlns="http://www.w3.org/2000/svg">
<path fill-rule="evenodd" clip-rule="evenodd" d="M3.01325 11.0158C2.62425 11.0158 2.25725 11.1678 2.01525 11.4288C1.89845 11.5492 1.81471 11.6976 1.77213 11.8599C1.72956 12.0221 1.7296 12.1926 1.77225 12.3548L3.25225 17.7908H3.26725C3.91225 19.7998 5.75225 21.2498 7.92325 21.2498H16.0833C18.4813 21.2498 20.4763 19.4808 20.9013 17.1438L22.2253 12.3588C22.2688 12.1964 22.2696 12.0255 22.2276 11.8627C22.1855 11.6999 22.102 11.5508 21.9853 11.4298C21.8557 11.2962 21.7001 11.1905 21.5281 11.1193C21.3561 11.0481 21.1714 11.0129 20.9853 11.0158H3.01325ZM3.02825 12.1068H3.01325L3.02825 12.1628V12.1068Z" fill="#138EFF"/>
<path d="M10.6067 3.25H6.77667C5.78539 3.24999 4.83443 3.64247 4.13172 4.34162C3.429 5.04078 3.03169 5.98973 3.02667 6.981L3.01367 9.516H5.64367V9.083C5.64367 8.632 6.00867 8.266 6.46067 8.266H17.5397C17.9907 8.266 18.3567 8.632 18.3567 9.083V9.516H20.9867V9.016C20.9868 8.62195 20.9093 8.23173 20.7586 7.86764C20.6079 7.50355 20.3869 7.17271 20.1083 6.89403C19.8298 6.61535 19.499 6.39428 19.135 6.24346C18.7709 6.09263 18.3807 6.015 17.9867 6.015H14.3357C14.2572 6.01513 14.1803 5.99339 14.1135 5.95224C14.0468 5.91108 13.9928 5.85213 13.9577 5.782L13.6247 5.116C13.3445 4.55543 12.9137 4.08396 12.3807 3.75438C11.8476 3.42481 11.2334 3.25016 10.6067 3.25Z" fill="#138EFF"/>
</svg>
