<svg width="24" height="24" viewBox="0 0 24 24" fill="none" xmlns="http://www.w3.org/2000/svg">
<path fill-rule="evenodd" clip-rule="evenodd" d="M10.8457 2.94189H7.03068C5.97085 2.94189 4.95434 3.3625 4.20437 4.11135C3.4544 4.86019 3.03227 5.87607 3.03068 6.93589L3.01368 16.9359C3.01289 17.4617 3.11577 17.9825 3.31643 18.4685C3.5171 18.9545 3.81161 19.3961 4.18313 19.7682C4.55464 20.1403 4.99586 20.4354 5.48156 20.6368C5.96725 20.8382 6.48788 20.9419 7.01368 20.9419H17.0067C18.0675 20.9419 19.085 20.5205 19.8351 19.7703C20.5852 19.0202 21.0067 18.0028 21.0067 16.9419V8.71189C21.0067 7.91625 20.6906 7.15318 20.128 6.59057C19.5654 6.02797 18.8023 5.71189 18.0067 5.71189H14.3927C14.2998 5.7118 14.2088 5.68583 14.1298 5.63691C14.0509 5.58798 13.9871 5.51803 13.9457 5.43489L13.5287 4.60089C13.2796 4.1025 12.8967 3.68331 12.4228 3.39029C11.9489 3.09727 11.4028 2.94201 10.8457 2.94189ZM7.03068 4.44189H10.8457C11.1242 4.44209 11.3972 4.51984 11.6341 4.66644C11.8709 4.81303 12.0623 5.02268 12.1867 5.27189L12.6037 6.10589C12.7698 6.43836 13.0253 6.71796 13.3415 6.91332C13.6577 7.10867 14.022 7.21207 14.3937 7.21189H18.0067C18.4045 7.21189 18.786 7.36993 19.0673 7.65123C19.3486 7.93254 19.5067 8.31407 19.5067 8.71189V9.44689H4.52668L4.53068 6.93789C4.532 6.27572 4.79598 5.64112 5.26467 5.17336C5.73337 4.7056 6.3685 4.44189 7.03068 4.44189ZM4.52368 10.9469L4.51368 16.9379C4.51302 17.2666 4.5772 17.5922 4.70254 17.8961C4.82788 18.2 5.01193 18.4762 5.24414 18.7089C5.47635 18.9416 5.75217 19.1262 6.05581 19.2521C6.35945 19.3781 6.68495 19.4429 7.01368 19.4429H17.0067C17.6697 19.4429 18.3056 19.1795 18.7744 18.7107C19.2433 18.2418 19.5067 17.6059 19.5067 16.9429V10.9469H4.52368Z" fill="#0D1216" fill-opacity="0.7"/>
</svg>
