<svg width="24" height="24" viewBox="0 0 24 24" fill="none" xmlns="http://www.w3.org/2000/svg">
<path d="M4.26562 5.79199C4.26562 5.39417 4.42366 5.01264 4.70497 4.73133C4.98627 4.45003 5.3678 4.29199 5.76562 4.29199H18.2336C18.6314 4.29199 19.013 4.45003 19.2943 4.73133C19.5756 5.01264 19.7336 5.39417 19.7336 5.79199V7.64199C19.7336 7.8409 19.6546 8.03167 19.514 8.17232C19.3733 8.31297 19.1825 8.39199 18.9836 8.39199C18.7847 8.39199 18.5939 8.31297 18.4533 8.17232C18.3126 8.03167 18.2336 7.8409 18.2336 7.64199V6.29199C18.2336 6.15938 18.1809 6.03221 18.0872 5.93844C17.9934 5.84467 17.8662 5.79199 17.7336 5.79199H12.7496V17.731C12.7496 17.8636 12.8023 17.9908 12.8961 18.0845C12.9898 18.1783 13.117 18.231 13.2496 18.231H15.1246C15.3235 18.231 15.5143 18.31 15.655 18.4507C15.7956 18.5913 15.8746 18.7821 15.8746 18.981C15.8746 19.1799 15.7956 19.3707 15.655 19.5113C15.5143 19.652 15.3235 19.731 15.1246 19.731H8.87463C8.67571 19.731 8.48495 19.652 8.3443 19.5113C8.20364 19.3707 8.12463 19.1799 8.12463 18.981C8.12463 18.7821 8.20364 18.5913 8.3443 18.4507C8.48495 18.31 8.67571 18.231 8.87463 18.231H10.7496C10.8822 18.231 11.0094 18.1783 11.1032 18.0845C11.1969 17.9908 11.2496 17.8636 11.2496 17.731V5.79199H6.26562C6.13302 5.79199 6.00584 5.84467 5.91207 5.93844C5.8183 6.03221 5.76562 6.15938 5.76562 6.29199V7.66999C5.76562 7.8689 5.68661 8.05967 5.54596 8.20032C5.4053 8.34097 5.21454 8.41999 5.01562 8.41999C4.81671 8.41999 4.62595 8.34097 4.4853 8.20032C4.34464 8.05967 4.26563 7.8689 4.26562 7.66999V5.79199Z" fill="#0D1216" fill-opacity="0.7"/>
</svg>
