<svg width="24" height="24" viewBox="0 0 24 24" fill="none" xmlns="http://www.w3.org/2000/svg">
<path fill-rule="evenodd" clip-rule="evenodd" d="M20.0704 3.45604C19.7793 3.16486 19.4336 2.93388 19.0532 2.77629C18.6728 2.61871 18.2651 2.5376 17.8534 2.5376C17.4416 2.5376 17.0339 2.61871 16.6535 2.77629C16.2731 2.93388 15.9275 3.16486 15.6364 3.45604L10.2504 8.84304C9.8222 9.27119 9.51689 9.80651 9.36639 10.393L8.52139 13.685C8.31639 14.485 9.04339 15.212 9.84339 15.008L13.1214 14.171C13.7098 14.0206 14.247 13.7146 14.6764 13.285L20.0704 7.89004C20.3616 7.59892 20.5925 7.25329 20.7501 6.87289C20.9077 6.4925 20.9888 6.08478 20.9888 5.67304C20.9888 5.26129 20.9077 4.85358 20.7501 4.47318C20.5925 4.09279 20.3616 3.74716 20.0704 3.45604ZM17.9534 7.88604L19.0104 6.82904C19.3171 6.52232 19.4894 6.10631 19.4894 5.67254C19.4894 5.23877 19.3171 4.82276 19.0104 4.51604C18.7037 4.20932 18.2877 4.037 17.8539 4.037C17.4201 4.037 17.0041 4.20932 16.6974 4.51604L15.6414 5.57304L17.9534 7.88604ZM16.7874 9.05204L13.6154 12.224C13.3754 12.464 13.0764 12.634 12.7494 12.717L10.1474 13.382L10.8174 10.766C10.9012 10.4398 11.0711 10.1421 11.3094 9.90404L14.4744 6.74004L16.7874 9.05204Z" fill="black" fill-opacity="0.7"/>
<path d="M5.14491 15.022C4.9749 15.022 4.81186 15.0895 4.69165 15.2097C4.57144 15.3299 4.50391 15.493 4.50391 15.663C4.50391 15.833 4.57144 15.996 4.69165 16.1162C4.81186 16.2364 4.9749 16.304 5.14491 16.304H18.8959C19.4552 16.304 19.9917 16.5262 20.3872 16.9217C20.7827 17.3172 21.0049 17.8536 21.0049 18.413C21.0049 18.9723 20.7827 19.5087 20.3872 19.9043C19.9917 20.2998 19.4552 20.522 18.8959 20.522H9.19491C8.99599 20.522 8.80523 20.443 8.66458 20.3023C8.52392 20.1617 8.44491 19.9709 8.44491 19.772C8.44491 19.5731 8.52392 19.3823 8.66458 19.2416C8.80523 19.101 8.99599 19.022 9.19491 19.022H18.8959C19.0574 19.022 19.2123 18.9578 19.3265 18.8436C19.4407 18.7294 19.5049 18.5745 19.5049 18.413C19.5049 18.2515 19.4407 18.0966 19.3265 17.9823C19.2123 17.8681 19.0574 17.804 18.8959 17.804H5.14491C4.57708 17.804 4.03251 17.5784 3.63099 17.1769C3.22948 16.7754 3.00391 16.2308 3.00391 15.663C3.00391 15.0951 3.22948 14.5506 3.63099 14.1491C4.03251 13.7475 4.57708 13.522 5.14491 13.522H7.00691V15.022H5.14491Z" fill="black" fill-opacity="0.7"/>
</svg>
