<svg width="24" height="24" viewBox="0 0 24 24" fill="none" xmlns="http://www.w3.org/2000/svg">
<path d="M11.2407 2.98489C8.50574 2.98489 6.20074 5.05989 5.92474 7.77289C5.9207 7.80846 5.90715 7.84228 5.8855 7.87079C5.86385 7.8993 5.83492 7.92144 5.80174 7.93489C4.54392 8.40387 3.49073 9.29966 2.82598 10.4659C2.16122 11.6322 1.92712 12.9949 2.16454 14.3161C2.40195 15.6373 3.0958 16.8333 4.12498 17.6951C5.15417 18.557 6.45333 19.0301 7.79574 19.0319C9.31463 19.0319 10.7713 18.4285 11.8453 17.3545C12.9194 16.2805 13.5227 14.8238 13.5227 13.3049V12.8189L15.3047 14.6009C15.4469 14.7334 15.635 14.8055 15.8293 14.8021C16.0236 14.7986 16.2089 14.7199 16.3464 14.5825C16.4838 14.4451 16.5625 14.2597 16.5659 14.0654C16.5693 13.8711 16.4972 13.6831 16.3647 13.5409L13.3027 10.4779C13.1621 10.3374 12.9715 10.2585 12.7727 10.2585C12.574 10.2585 12.3834 10.3374 12.2427 10.4779L9.17974 13.5399C9.04726 13.6821 8.97514 13.8701 8.97856 14.0644C8.98199 14.2587 9.0607 14.4441 9.19812 14.5815C9.33553 14.7189 9.52092 14.7976 9.71522 14.8011C9.90952 14.8045 10.0976 14.7324 10.2397 14.5999L12.0227 12.8189V13.3049C12.0223 14.0769 11.8105 14.8341 11.4102 15.4943C11.0099 16.1545 10.4364 16.6924 9.75205 17.0497C9.06766 17.407 8.29848 17.5701 7.52798 17.5212C6.75748 17.4723 6.01509 17.2133 5.38137 16.7723C4.74765 16.3313 4.24681 15.7252 3.93319 15.0197C3.61958 14.3142 3.50517 13.5363 3.60238 12.7704C3.6996 12.0045 4.00472 11.2799 4.48464 10.6751C4.96456 10.0703 5.60095 9.60856 6.32474 9.33989C6.62046 9.2288 6.87932 9.03743 7.07224 8.78728C7.26515 8.53713 7.38445 8.23813 7.41674 7.92389C7.61474 5.98089 9.27174 4.48389 11.2417 4.48389C12.1448 4.48471 13.0188 4.80312 13.7108 5.38338C14.4027 5.96364 14.8686 6.76879 15.0267 7.65789C15.1617 8.42189 15.8067 9.02389 16.5897 9.08789C18.7357 9.26589 20.4447 11.1039 20.4447 13.3039C20.4449 13.859 20.3356 14.4087 20.1232 14.9216C19.9109 15.4345 19.5995 15.9006 19.207 16.2931C18.8144 16.6857 18.3484 16.997 17.8355 17.2094C17.3226 17.4218 16.7729 17.531 16.2177 17.5309H14.3037C14.1048 17.5309 13.9141 17.6099 13.7734 17.7506C13.6328 17.8912 13.5537 18.082 13.5537 18.2809C13.5537 18.4798 13.6328 18.6706 13.7734 18.8112C13.9141 18.9519 14.1048 19.0309 14.3037 19.0309H16.2177C17.7366 19.0309 19.1933 18.4275 20.2673 17.3535C21.3414 16.2795 21.9447 14.8228 21.9447 13.3039C21.9447 10.3259 19.6397 7.83589 16.7137 7.59389C16.6628 7.58677 16.6154 7.56413 16.5778 7.52906C16.5402 7.49399 16.5143 7.44818 16.5037 7.39789C16.2844 6.16144 15.637 5.0416 14.6749 4.23457C13.7129 3.42753 12.4975 2.98478 11.2417 2.98389L11.2407 2.98489Z" fill="black" fill-opacity="0.7"/>
</svg>
